<?xml version="1.0" encoding="UTF-8"?>
<svg width="247px" height="293px" viewBox="0 0 247 293" version="1.1" xmlns="http://www.w3.org/2000/svg" xmlns:xlink="http://www.w3.org/1999/xlink">
    <!-- Generator: Sketch 54.1 (76490) - https://sketchapp.com -->
    <title>Mountie Gopher</title>
    <desc>Created with Sketch.</desc>
    <g id="Mountie-Gopher" stroke="none" stroke-width="1" fill="none" fill-rule="evenodd">
        <g id="gopher-mountie" transform="translate(21.500000, 28.000000)">
            <path d="M51.3332225,220.754658 C48.4838827,226.075947 48.0704067,229.635397 48.0704067,233.107077 C48.0704067,236.578757 50.7914991,240.107077 55.5403987,236.107077 C60.2892984,232.107077 60.4175458,224.107077 61.3673257,222.107077" id="leg-2" stroke="#000000" fill="#F3D4B7" stroke-linecap="round" stroke-linejoin="round" transform="translate(54.718866, 229.318915) rotate(28.000000) translate(-54.718866, -229.318915) "></path>
            <path d="M146.715058,220.754658 C143.865719,226.075947 143.452243,229.635397 143.452243,233.107077 C143.452243,236.578757 146.173335,240.107077 150.922235,236.107077 C155.671134,232.107077 155.799382,224.107077 156.749162,222.107077" id="leg-" stroke="#000000" fill="#F3D4B7" stroke-linecap="round" stroke-linejoin="round" transform="translate(150.100702, 229.318915) scale(-1, 1) rotate(18.000000) translate(-150.100702, -229.318915) "></path>
            <g id="ear" transform="translate(153.829108, 31.985368)" stroke="#000000" stroke-linecap="round" stroke-linejoin="round">
                <path d="M7.95689121,6.49417591 C4.21322511,14.5423805 4.18655832,15.875622 4.21135355,21.138061 C4.23614878,26.4005 14.4513992,31.6085357 20.7256165,25.5751052 C26.9998337,19.5416748 26.5923124,8.41163296 27.8385853,5.38596373" fill="#5CC8E6" transform="translate(16.023373, 16.833193) rotate(211.000000) translate(-16.023373, -16.833193) "></path>
                <path d="M10.2710464,26.8290847 C9.49443984,27.221565 11.2710464,25.5508594 16.2710464,23.1899721 C21.2710464,20.8290847 23.2710464,16.8290847 15.7640617,17.8141412 C13.1573859,18.1561857 10.3826987,20.3248436 7.44,24.3201149" id="Path" fill="#4AAED9"></path>
            </g>
            <g id="ear-copy" transform="translate(48.776906, 51.033921) scale(-1, 1) translate(-48.776906, -51.033921) translate(32.276906, 35.533921)" stroke="#000000" stroke-linecap="round" stroke-linejoin="round">
                <path d="M12.9669136,7.23581682 C9.22324745,15.2840214 3.19272108,14.3915787 3.21751631,19.6540177 C3.24231154,24.9164567 16.0290638,28.5793782 22.3032811,22.5459477 C28.5774984,16.5125172 28.0007567,8.98405349 29.2470296,5.95838427" id="ear" fill="#5CC8E6" transform="translate(16.232235, 15.814701) rotate(211.000000) translate(-16.232235, -15.814701) "></path>
                <path d="M10.2710464,21.8290847 C9.49443984,22.221565 9.27104637,20.2674578 16.2710464,18.1899721 C23.2710464,16.1124864 23.2710464,12.8290847 15.7640617,13.8141412 C13.1573859,14.1561857 10.3826987,16.6581769 7.44,21.3201149" id="Path" fill="#4AAED9"></path>
            </g>
            <g id="body" transform="translate(42.000000, 43.000000)">
                <path d="M16.5996094,19.1308594 C6.86958299,29.4014428 0.175103103,40.5620427 0.175103103,55.7727424 C0.175103103,80.817076 2.55116896,83.3609558 7.58006199,91.0650732 C8.03907179,93.1845947 8.37092399,95.7424818 8.50332946,99.0513743 C8.67489868,103.338992 5.31250349,109.588075 4.68951904,113.739309 C2.74577761,126.691357 1.26527789,138.690874 2.55116896,147.936336 C4.89053958,164.756239 9.2325288,176.257124 18.5033295,182.051374 C34.5033295,192.051374 61.5033295,194.051374 83.5033295,189.051374 C105.503329,184.051374 108.599609,180.594847 113.503329,175.775375 C118.40705,170.955903 127.503329,154.051374 125.503329,136.051374 C123.503329,118.051374 122.599609,111.75664 124.599609,94.6771554 C128.503329,89.6621094 131.952322,81.4683017 133.405902,74.6314051 C137.495108,55.3978693 137.495108,42.426503 128.503329,32.0513743 C115.503329,17.0513743 111.637908,5.13085937 88.5996094,2.13085937 C65.5613107,-0.869140625 34.5996094,0.130859375 16.5996094,19.1308594 Z" stroke="#000000" fill="#5CC8E6"></path>
                <path d="M20.5068865,15.4478226 C28.3369569,13.3645442 40.8112318,10.4202313 45,8.74083134 C51,6.33525549 94,8.66805516 96,8.66805516 C96.8424134,8.66805516 102.65245,9.25919247 109.170588,9.87969744 C116.322846,15.3882775 120.816038,23.1814221 128.503329,32.0513743 C137.495108,42.426503 137.495108,55.3978693 133.405902,74.6314051 C131.952322,81.4683017 128.503329,89.6621094 124.599609,94.6771554 C123.894312,100.700217 123.550124,105.382073 123.48778,109.709044 C108.966758,112.68143 92.2379241,114.781645 81,115.475462 C58,116.895454 15,97.4246095 17,97.4246095 C19,97.4246095 35,100.703839 49,102 C63,103.296161 96.9559462,103.5 113,92.5 C120.913808,87.0741962 125.563969,80.4707019 127.403525,74.0730673 C127.645784,73.2305359 123.108671,76.1790034 119.269108,76.6484375 C113.607883,77.3405923 106.076391,76.7464994 99.1311403,75 C92.0934728,73.2302608 82.9038012,61.8431682 82.9038012,56.2333984 C82.9038012,53.2915928 128.642475,58.7857742 129,56.5072724 C130.436102,47.3550247 120,29.406586 104,21.1709153 C88,12.9352446 43,18.8435416 32,22.6853552 C31.4521313,22.8767015 45.9012457,26.2595872 53.1317652,38.3017746 C56.0543951,43.1693166 56.5785696,49.4832207 56,58.2982102 C55.1006865,72 39,81.5 31,81.5 C28.1937837,81.5 8.51899994,81.5399416 2.82794954,65.0970165 C0.962226195,59.7064564 3.68624302,46.8359071 11,26.4853684 C11.0471196,26.1252887 11.0959043,25.7756893 11.1463543,25.4365701 C12.8226425,23.281999 14.6502026,21.1885666 16.5996094,19.1308594 C17.8425254,17.8188924 19.1472432,16.59275 20.5068865,15.4478226 Z M123.491425,156.643194 C120.825955,165.757039 116.422013,172.906835 113.503329,175.775375 C108.599609,180.594847 105.503329,184.051374 83.5033295,189.051374 C61.5033295,194.051374 34.5033295,192.051374 18.5033295,182.051374 C10.8282917,177.254476 6.53132486,168.546408 3.95210514,156.147105 C6.15643141,156.190053 9.11341584,156.557704 12.6035815,156.557704 C23.3895919,156.557704 49.0019524,160.299561 56.1599769,159.000322 C63.3180014,157.701084 110,153.972154 121.074518,155.662109 C122.045432,155.810269 122.849126,156.146418 123.491425,156.643194 Z M58,66.3609558 C60,63.7219116 77.4849282,63.0970165 81,64.3824524 C84.5150718,65.6678882 84.9038012,71.6746232 83.9038012,74.5873116 C82.9038012,77.5 82.5996094,77.6484375 80.7132808,77.6484375 C78.8269522,77.6484375 79.7132808,84.218171 79.7132808,87.5 C79.7132808,90.781829 76.8667184,90.6621094 75,90.6621094 C73.1332816,90.6621094 71.5996094,89.718171 69.6877842,87.5 C68.4132341,86.0212193 68.8373914,82.9664516 70.9602563,78.3356968 C68.0531583,79.4452323 66.499349,80 66.2988281,80 C65.9980469,80 59.8081641,80 57.1599769,78.4290695 C54.5117897,76.8581391 56,69 58,66.3609558 Z" id="shadow" fill="#4AAED9"></path>
                <path d="M16.5996094,19.1308594 C6.86958299,29.4014428 0.175103103,40.5620427 0.175103103,55.7727424 C0.175103103,80.817076 2.55116896,83.3609558 7.58006199,91.0650732 C8.03907179,93.1845947 8.37092399,95.7424818 8.50332946,99.0513743 C8.67489868,103.338992 5.31250349,109.588075 4.68951904,113.739309 C2.74577761,126.691357 1.26527789,138.690874 2.55116896,147.936336 C4.89053958,164.756239 9.2325288,176.257124 18.5033295,182.051374 C34.5033295,192.051374 61.5033295,194.051374 83.5033295,189.051374 C105.503329,184.051374 108.599609,180.594847 113.503329,175.775375 C118.40705,170.955903 127.503329,154.051374 125.503329,136.051374 C123.503329,118.051374 122.599609,111.75664 124.599609,94.6771554 C128.503329,89.6621094 131.952322,81.4683017 133.405902,74.6314051 C137.495108,55.3978693 137.495108,42.426503 128.503329,32.0513743 C115.503329,17.0513743 111.637908,5.13085937 88.5996094,2.13085937 C65.5613107,-0.869140625 34.5996094,0.130859375 16.5996094,19.1308594 Z" id="body-over-shadow" stroke="#000000"></path>
            </g>
            <g id="teeth" transform="translate(109.721680, 114.718171)" stroke="#000000">
                <path d="M0.14503868,2.80675605 C0.14503868,6.81730782 0.518554688,11.4759288 0.518554688,14.8033941 C0.518554688,18.1308594 9.14503868,18.1308594 9.14503868,15.1308594 C9.14503868,12.1308594 9.14503868,5.80675605 9.14503868,2.80675605 C9.14503868,-0.193243954 0.14503868,-1.20379573 0.14503868,2.80675605 Z" id="tooth-2" fill="#FEFEFE"></path>
                <path d="M4.59960938,2.79037957 L4.59960938,17.1308594" id="tooth"></path>
            </g>
            <path d="M98.4324525,112.055923 C97.9988768,115.160704 97.9732409,120.392196 107.024827,120.193585 C109.169492,120.146526 111.737345,119.31115 113.487378,119.165969 C119.123376,118.698414 123.987671,118.336399 124.555512,115.358555 C124.996552,113.045671 125.086916,108.112724 121.717596,106.046571 C119.401915,104.626536 113.557346,105.42224 109.667193,105.83623 C100.116861,106.852577 98.8660282,108.951142 98.4324525,112.055923 Z" id="mug" stroke="#000000" fill="#F3D4B7" transform="translate(111.531889, 112.718171) rotate(-1.000000) translate(-111.531889, -112.718171) "></path>
            <path d="M102.674308,104.621446 C102.674308,108.288113 108.709044,109.20478 111.122939,109.20478 C113.536833,109.20478 118.364622,108.288113 119.57157,104.621446 C120.778517,100.95478 117.157675,98.2047796 111.122939,98.2047796 C105.088203,98.2047796 102.674308,100.95478 102.674308,104.621446 Z" id="nose" stroke="#000000" fill="#9B8E7D" transform="translate(111.238565, 103.704780) scale(-1, 1) rotate(8.000000) translate(-111.238565, -103.704780) "></path>
            <g id="hat">
                <path d="M109.282108,0.848222227 C99.6231274,0.848222227 90.6231274,12.2711203 82.6231274,18.8482222 C74.6231274,25.4253242 67.6231274,26.5158549 60.6231274,34.0677456 C53.6231274,41.6196363 53.6231274,65.9078875 56.6231274,70.5470002 C59.6231274,75.1861129 65.6231274,56.598395 85.6231274,54.2233086 C105.623127,51.8482222 135.623127,53.090169 145.623127,56.7016607 C155.623127,60.3131524 161.623127,66.9770421 161.623127,63.6450972 C161.623127,60.3131524 166.623127,47.6830433 161.623127,39.0406219 C156.623127,30.3982005 150.623127,25.4253242 139.623127,18.8482222 C128.623127,12.2711203 118.941088,0.848222227 109.282108,0.848222227 Z" id="Path-6" stroke="#000000" fill="#DDB27A"></path>
                <path d="M127.359518,9.97035714 C131.299832,13.0264082 135.362622,16.300788 139.623127,18.8482222 C142.17895,20.3763954 144.464845,21.8179638 146.530988,23.2390784 C149.59048,26.0789736 156.233425,31.3332259 157,32.4990293 C157.475517,33.2221933 158.872349,34.9536964 160.206773,36.7323379 C160.689558,37.4731502 161.160621,38.2411868 161.623127,39.0406219 C162.389556,40.365382 162.92102,41.7838389 163.271543,43.2481412 C163.313613,43.4614178 163.36242,43.6832272 163.417964,43.9135693 C163.520537,44.4233768 163.602525,44.9377862 163.666149,45.45483 C151.881311,42.7637708 145.325928,40.9578927 144,40.0371958 C142,38.6484375 123,36.3290181 123,36.4853684 C123,36.6417187 107.653889,36.3290181 111.687784,36.4853684 C115.72168,36.6417187 127.865993,34.609891 131.599609,34.609891 C135.333225,34.609891 143,34.4980586 144,32.4990293 C145,30.5 141,29.3506462 140,28.5339208 C139,27.7171955 134,23.3378906 133,21.5 C132.333333,20.2747396 129.6346,15.9414063 124.903801,8.5 C125.749036,9.00471327 126.567608,9.49483231 127.359518,9.97035714 Z M106.15599,8.5 C103.333833,11.5 96.0167187,20.209018 100.808164,24.854509 C105.599609,29.5 114,30.5 118.866718,30.5 C123.733437,30.5 109.840023,34.4707368 104,31.9853684 C98.1599769,29.5 93.8993135,25.5 96,19.5 C100,11.5 102.333833,11.5 106.15599,8.5 Z" id="shadow-hat" fill="#C59B63"></path>
                <path d="M109.282108,0.848222227 C99.6231274,0.848222227 90.6231274,12.2711203 82.6231274,18.8482222 C74.6231274,25.4253242 67.6231274,26.5158549 60.6231274,34.0677456 C53.6231274,41.6196363 53.6231274,65.9078875 56.6231274,70.5470002 C59.6231274,75.1861129 65.6231274,56.598395 85.6231274,54.2233086 C105.623127,51.8482222 135.623127,53.090169 145.623127,56.7016607 C155.623127,60.3131524 161.623127,66.9770421 161.623127,63.6450972 C161.623127,60.3131524 166.623127,47.6830433 161.623127,39.0406219 C156.623127,30.3982005 150.623127,25.4253242 139.623127,18.8482222 C128.623127,12.2711203 118.941088,0.848222227 109.282108,0.848222227 Z" id="Path-6-Copy-3" stroke="#000000"></path>
                <path d="M82.6231274,38.8482222 C69.5996094,41.790227 55.9752836,43.3731272 55.2093934,49.7591247 C54.1531484,58.5661022 54.8841044,63.8578257 56.6231274,66.5470002 C59.6231274,71.1861129 65.6231274,52.598395 85.6231274,50.2233086 C105.623127,47.8482222 135.623127,49.090169 145.623127,52.7016607 C155.623127,56.3131524 161.623127,66.9770421 161.623127,63.6450972 C161.623127,61.2064154 164.301584,53.7867869 163.777335,46.5952965 C163.585308,43.9611307 152.646645,41.790227 139.623127,38.8482222 C126.599609,35.9062175 95.6466454,35.9062175 82.6231274,38.8482222 Z" id="Path-6-Copy" stroke="#000000" fill="#AA6535"></path>
                <path d="M138.599609,43.5339208 C143.599609,42.4030615 153.829108,43.8480549 159.070264,45.6621094 C162.564368,46.871479 164.148395,47.6107995 163.822344,47.8800707 L163.822344,52.6621094 C151.986167,50.7100417 145.245255,49.4250183 143.599609,48.8070393 C141.13114,47.8800707 133.599609,44.6647802 138.599609,43.5339208 Z" id="Path-10" stroke="#000000" fill="#88491E"></path>
                <path d="M177.556015,85.2372082 L177.542728,85.2232493 C163.252922,70.2232493 159.003989,58.3027344 133.679927,55.3027344 C108.355865,52.3027344 74.322273,53.3027344 54.5363883,72.3027344 C48.6733419,77.9329037 44.4726637,83.907109 41.5120475,90.6199771 C39.6603336,90.7280156 38.0805467,90.8455439 36.8124361,90.974401 C18.5996094,92.8250679 -9.40039062,78.4816627 4.59960938,70.7408313 C18.5996094,63 62.5996094,44.8398774 104.599609,43.854509 C146.599609,42.8691406 193.599609,58.5863767 201.599609,63.5 C208.511892,67.7455443 198.999919,80.2283318 177.556015,85.2372082 L177.556015,85.2372082 Z" id="Path" stroke="#000000" fill="#C59B63"></path>
                <path d="M105.599609,8.66210937 C98.1599769,15.9589844 92,19.1670736 96.8667184,27.2392113 C101.733437,35.3113491 116.370111,32.8163133 124.599609,28.2392113 C130.085942,25.18781 126.841645,18.328776 114.866718,7.66210938" id="Path-9" stroke="#000000" stroke-linecap="round" stroke-linejoin="round"></path>
                <path d="M131.599609,19.6621094 C133.937983,22.1112347 141.13114,30.6621094 145.920225,32.2994331 C148.958725,33.3382556 152.137567,33.3739525 153.829108,32.9210864" id="Path-8" stroke="#000000" stroke-linecap="round" stroke-linejoin="round"></path>
                <path d="M69.7685547,18.9636078 C72.106928,21.4127331 79.3000856,29.9636078 84.0891701,31.6009316 C87.1276705,32.6397541 90.3065119,32.675451 91.9980533,32.2225848" id="Path-8-Copy" stroke="#000000" stroke-linecap="round" stroke-linejoin="round" transform="translate(80.883304, 25.731319) scale(-1, 1) translate(-80.883304, -25.731319) "></path>
            </g>
            <g id="eye-2" transform="translate(124.000000, 60.000000)">
                <path d="M0.345602567,32.2848363 C0.345602567,51.2273146 22.0192433,56.3642578 29.6343144,56.3642578 C37.2493854,56.3642578 51.4544017,53.1536683 55.2619372,34.2111901 C59.0694727,15.2687118 47.6838733,0.5 28.6461958,0.5 C9.60851816,0.5 0.345602567,13.3423581 0.345602567,32.2848363 Z" stroke="#000000" fill="#FFFFFF"></path>
                <path d="M43.1298701,3.98725536 C53.0215804,9.44391413 57.9620653,20.7780605 55.2619372,34.2111901 C51.4544017,53.1536683 37.2493854,56.3642578 29.6343144,56.3642578 C24.2464203,56.3642578 11.8208172,53.792708 5.01346641,45.5792872 C11.4117722,49.2846529 18.80268,50.5851967 22.6343144,50.5851967 C30.2493854,50.5851967 44.4544017,47.3746071 48.2619372,28.4321289 C50.2171275,18.7050627 48.1660725,10.0785681 43.1298701,3.98725536 Z" id="shadow" fill="#F0F0F0"></path>
                <path d="M0.345602567,32.2848363 C0.345602567,51.2273146 22.0192433,56.3642578 29.6343144,56.3642578 C37.2493854,56.3642578 51.4544017,53.1536683 55.2619372,34.2111901 C59.0694727,15.2687118 47.6838733,0.5 28.6461958,0.5 C9.60851816,0.5 0.345602567,13.3423581 0.345602567,32.2848363 Z" id="eye-copy-3" stroke="#000000"></path>
                <path d="M30.1007021,26.549037 C30.1007021,30.549037 35.1007021,31.549037 37.1007021,31.549037 C39.1007021,31.549037 43.1007021,30.549037 44.1007021,26.549037 C45.1007021,22.549037 42.1007021,19.549037 37.1007021,19.549037 C32.1007021,19.549037 30.1007021,22.549037 30.1007021,26.549037 Z" id="pupil-2" fill="#000000" transform="translate(37.196503, 25.549037) rotate(66.000000) translate(-37.196503, -25.549037) "></path>
                <path d="M37.8412598,27.1150266 C36.7954769,26.3270802 36.5842236,25.2395719 38.0169332,23.9982008 C39.4496428,22.7568297 41.0936058,22.6029669 41.8528468,23.6391876 C42.6120877,24.6754083 41.7273658,25.8654918 41.1542819,26.3620402 C40.5811981,26.8585886 38.8870427,27.9029731 37.8412598,27.1150266 Z" id="white-of-the-eye-copy" fill="#FFFFFF" transform="translate(39.573268, 25.176830) rotate(-58.000000) translate(-39.573268, -25.176830) "></path>
            </g>
            <g id="eye" transform="translate(41.000000, 63.000000)">
                <path d="M0.453125,33.3356968 C0.453125,53.0023635 22.1267658,58.3356968 29.7418368,58.3356968 C37.3569078,58.3356968 51.5619241,55.0023635 55.3694596,35.3356968 C59.1769952,15.6690301 47.7913958,0.335696787 28.7537182,0.335696787 C9.71604059,0.335696787 0.453125,13.6690301 0.453125,33.3356968 Z" stroke="#000000" fill="#FFFFFF"></path>
                <path d="M43.2373926,3.95627314 C53.1291028,9.62154502 58.0695877,21.3890063 55.3694596,35.3356968 C51.5619241,55.0023635 37.3569078,58.3356968 29.7418368,58.3356968 C24.3539428,58.3356968 11.9283396,55.6658343 5.12098883,47.1384068 C11.519296,50.9854323 18.9102028,52.3356968 22.7418368,52.3356968 C30.3569078,52.3356968 44.5619241,49.0023635 48.3694596,29.3356968 C50.3246499,19.2367559 48.2735949,10.2804624 43.2373926,3.95627314 Z" id="shadow" fill="#F0F0F0"></path>
                <path d="M0.453125,33.3356968 C0.453125,53.0023635 22.1267658,58.3356968 29.7418368,58.3356968 C37.3569078,58.3356968 51.5619241,55.0023635 55.3694596,35.3356968 C59.1769952,15.6690301 47.7913958,0.335696787 28.7537182,0.335696787 C9.71604059,0.335696787 0.453125,13.6690301 0.453125,33.3356968 Z" id="eye-copy-3" stroke="#000000"></path>
                <path d="M15.1149427,28.5463231 C11.977594,26.1824837 11.087395,21.1421504 14.7444262,17.9735162 C18.4014575,14.8048819 21.9486878,15.6765809 24.3546302,18.6741471 C26.7605727,21.6717134 25.7133353,25.5837457 24.1564723,27.0650344 C22.5996094,28.5463231 18.2522914,30.9101625 15.1149427,28.5463231 Z" id="pupil" fill="#000000"></path>
                <path d="M15.2483383,23.5221257 C14.2025554,22.7341793 13.9913021,21.646671 15.4240117,20.4052999 C16.8567213,19.1639288 18.5006843,19.010066 19.2599253,20.0462867 C20.0191663,21.0825074 19.1344443,22.2725909 18.5613604,22.7691393 C17.9882766,23.2656877 16.2941212,24.3100722 15.2483383,23.5221257 Z" id="white-of-the-eye" fill="#FFFFFF" transform="translate(16.980347, 21.583929) rotate(-34.000000) translate(-16.980347, -21.583929) "></path>
            </g>
            <path d="M96.5996094,154.162823 C83.8477104,150.1639 68.0369199,143.545047 65.5996094,142.701008 C63.5996094,142.008409 58.266276,138.995443 49.5996094,133.662109 C45.5996094,146.615788 43.5996094,153.764225 43.5996094,155.107422 C43.5996094,156.858926 42.0881709,175.088598 43.0070702,188.928815 C43.1452018,191.009316 42.6875358,192.962567 42.5996094,194.801869 C42.3750189,199.5 40.5065721,201.794082 42.3750189,204.339039 C47.1928409,210.901253 60.4705044,213.646576 67.5996094,215.662109 C74.1955514,217.526908 86.5288847,219.193574 104.599609,220.662109 L106.599609,197.662109 L108.599609,161 C102.562253,157.057356 98.5622535,154.778297 96.5996094,154.162823 Z" id="jacket" stroke="#000000" fill="#F34D4D" stroke-linecap="round" stroke-linejoin="round"></path>
            <g id="shadow-jacket" transform="translate(41.000000, 133.000000)">
                <path d="M58.94542,22.7067992 C60.8951007,23.7638022 63.4432389,25.3094705 66.5898347,27.343804 C66.8710666,28.944411 67.1349039,30.4968118 67.3813466,32.0010066 L65.5996094,64.6621094 L63.7209194,86.2670438 C63.4405254,87.2224493 63.2002189,87.7002189 63,87.5 C62,86.5 63,79.5 62,77.5 C61,75.5 55,75.6484375 52,75.6484375 C49,75.6484375 46,74.6484375 45,76.5 C44,78.3515625 42.6735052,80.4439608 39,80.6193356 C35.3264948,80.7947104 32,80.6193356 29,79.5 C26,78.3806644 19,74.6484375 19,73.5 C19,72.3515625 18,68.5050029 17,67.5 C16,66.4949971 9,56.8606739 12,57.9721541 C15,59.0836343 26,56.8606739 25,54.5 C24,52.1393261 24,47.8530135 24,47.6484375 C24,47.4438615 28,31.5 29,30.5 C30,29.5 51,34.7681684 52,35.746316 C53,36.7244636 52,41.9721541 52,44.8815914 C52,47.7910286 51,56.8606739 51,60.5 C51,64.1393261 60,63.8530135 62,63.8530135 C64,63.8530135 62.1918359,40.9032497 61,37.5 C59.8081641,34.0967503 57,32.5 55,31.5 C53,30.5 37,24.4084824 32,22.5 C28.6666667,21.2276784 28.6666667,19.5795014 32,17.5554689 L58.94542,22.7067992 Z M1.18082016,65.0498529 C1.36877224,64.1005956 1.54071341,63.0338937 1.59960938,61.8018695 C1.68753579,59.9625673 2.14520176,58.009316 2.00707017,55.9288146 C1.63815685,50.3723403 1.66096692,44.1083705 1.82042927,38.4872429 C4.76946439,35.2591077 7.37501153,33.0400146 8,32.5 C9.50802438,31.1970076 13.0084073,26.4754616 14.8315279,26.4754616 C16.6546486,26.4754616 16.9132906,31.2794164 14.6546486,33.5 C12.3960066,35.7205836 8,41.9721541 7,44.2271527 C6,46.4821514 5.44111502,51.9689511 5.44111502,55.4844756 C5.44111502,58.5249845 3.61511592,63.2492755 1.18082016,65.0498529 Z" id="Combined-Shape" fill="#DC3D4F"></path>
                <path d="M55.5996094,21.1628229 C42.8477104,17.1638996 27.0369199,10.5450473 24.5996094,9.70100791 C22.5996094,9.00840889 17.266276,5.99544271 8.59960937,0.662109375 C4.59960937,13.6157876 2.59960937,20.7642251 2.59960937,22.1074219 C2.59960937,23.8589259 1.08817092,42.0885985 2.00707017,55.9288146 C2.14520176,58.009316 1.68753579,59.9625673 1.59960938,61.8018695 C1.37501888,66.5 -0.493427851,68.7940823 1.37501888,71.339039 C6.19284087,77.9012534 19.4705044,80.6465758 26.5996094,82.6621094 C33.1955514,84.5269076 45.5288847,86.1935743 63.5996094,87.6621094 L65.5996094,64.6621094 L67.5996094,28 C61.5622535,24.057356 57.5622535,21.778297 55.5996094,21.1628229 Z" id="jacket-copy" stroke="#000000" stroke-linecap="round" stroke-linejoin="round"></path>
            </g>
            <path d="M162.476362,161.69043 C153.476362,161.258642 129.476362,147.322914 126.476362,146.284016 C124.476362,145.591417 119.143029,142.578451 110.476362,137.245117 C109.809696,150.198795 109.476362,157.347233 109.476362,158.69043 C109.476362,160.394616 106.297225,175.650706 107.13244,189.268513 C107.284669,191.750525 106.64902,194.238821 106.032743,196.459307 C104.632353,201.505003 104.632353,203.5 108.101565,206.037675 C114.003058,210.354525 124.329289,213.732074 131.476362,216.245117 C138.072305,218.564373 150.738971,220.564373 169.476362,222.245117 L171.476362,201.245117 L172.476362,164.583008 C171.809696,162.942481 168.476362,161.978288 162.476362,161.69043 Z" id="jacket-2" stroke="#000000" fill="#F34D4D" stroke-linecap="round" stroke-linejoin="round" transform="translate(138.816176, 179.745117) scale(-1, 1) translate(-138.816176, -179.745117) "></path>
            <g id="shadow-jacket-2" transform="translate(105.000000, 137.000000)">
                <path d="M13.3375398,24.1654391 C23.8304795,21.5516799 43.4617825,10.2170185 46.1559901,9.28401572 C48.1559901,8.5914167 53.4893235,5.57845052 62.1559901,0.245117188 C62.8226568,13.1987954 63.1559901,20.3472329 63.1559901,21.6904297 C63.1559901,23.3946161 66.3351272,38.6507059 65.4999121,52.2685134 C65.347684,54.7505245 65.9833322,57.2388211 66.5996094,59.4593067 C68,64.5050029 68,66.5 64.5307879,69.0376746 C64.0215383,69.4101828 63.4793409,69.7756968 62.9090817,70.1342645 C62.7745756,67.1016902 62.1505137,64.5146507 60,63.5050029 C56.1776563,61.7104453 50.9829127,65.6805727 49,66.0003223 C45.9012719,66.5 43.9056212,65.5110248 40.4756991,66.2499769 C31.5023537,68.1832196 22.381971,69.2246848 16,69.6787109 C9.61802903,70.1327371 2,71.6787109 2,71.6787109 C2,71.6787109 4,66.5 5,66.5 C5.40081274,66.5 13.6735172,64.3088306 23.4434135,61.5309832 C24.594714,61.2036371 36.7593936,53.4844756 33,53.4844756 C31.0120771,53.4844756 26.0953612,52.7306497 24.0134664,50.4844756 C19.412795,45.5207717 18.4799966,34.9809001 19.9038012,34.5582929 C23.2017956,33.5793972 26.4394275,32.5931951 29.3928835,31.6560197 C30.0273806,31.4546844 41.4525177,24.9382418 45,30.0967503 C46.141099,31.7560593 48.1324634,34.2304943 48.7181133,36.9765432 C49.0836083,38.6903104 49.291085,41.5098662 49.2783224,43.3030994 C49.2332833,49.6313991 46.2843878,54.6318838 46.6846053,54.498373 C52.204759,52.6568745 56,51.1503852 56,50.5 C56,49.1393261 57,48.3095754 57,40.8815914 C57,33.4536074 52,27.5 47,24.9625365 C42,22.4250729 25,25.250732 15,25.250732 C13.8379959,25.250732 13.3241135,24.8625242 13.3375398,24.1654391 Z" id="Combined-Shape" fill="#DC3D4F"></path>
                <path d="M57.4763625,24.6904297 C48.4763625,24.2586423 24.4763625,10.3229143 21.4763625,9.28401572 C19.4763625,8.5914167 14.1430291,5.57845052 5.47636247,0.245117188 C4.80969581,13.1987954 4.47636247,20.3472329 4.47636247,21.6904297 C4.47636247,23.3946161 1.29722542,38.6507059 2.1324405,52.2685134 C2.28466861,54.7505245 1.64902038,57.2388211 1.03274325,59.4593067 C-0.367647379,64.5050029 -0.367647379,66.5 3.10156469,69.0376746 C9.00305819,73.3545253 19.329289,76.7320737 26.4763625,79.2451172 C33.0723045,81.5643726 45.7389712,83.5643726 64.4763625,85.2451172 L66.4763625,64.2451172 L67.4763625,27.5830078 C66.8096958,25.9424806 63.4763625,24.9782879 57.4763625,24.6904297 Z" id="jacket-2-copy-2" stroke="#000000" stroke-linecap="round" stroke-linejoin="round" transform="translate(33.816176, 42.745117) scale(-1, 1) translate(-33.816176, -42.745117) "></path>
            </g>
            <g id="pocket" transform="translate(123.000000, 163.000000)" stroke="#000000">
                <path d="M1.34560257,9.3173339 C1.69120513,11.789488 3.18532016,16.9689511 3.18532016,19.4844756 C3.18532016,22 6.31349471,23.5602391 10,23.5602391 C11.9319124,23.5602391 17.1863586,22.0229337 21.6654219,21.1460398 C25.1386421,20.4660661 27.9012719,17.8530135 27.9012719,15.0154855 C27.9012719,12.3645751 27.4063168,8.39583258 26.829108,7.3173339 C26,5.76816837 1,6.84517979 1.34560257,9.3173339 Z" id="Path-3" fill="#F34D4D"></path>
                <path d="M18.7767043,21.7660227 C19.7484981,21.5437926 20.7240839,21.3303314 21.6654219,21.1460398 C25.1386421,20.4660661 27.9012719,17.8530135 27.9012719,15.0154855 C27.9012719,12.3645751 27.4063168,8.39583258 26.829108,7.3173339 C26.5115305,6.7239491 22.6476988,6.51586622 18.0203083,6.6239044 C10.566847,6.79792438 15.1245201,22.6012052 18.7767043,21.7660227 Z" id="shadow-pocket" fill="#DC3D4F"></path>
                <path d="M12.3456026,12.8897082 C12.6912051,15.7642416 13.1853202,16.306204 13.1853202,20.0606425 C13.1853202,23.8150811 15,23.3560723 18,22.474267 C21,21.5924616 21,19.9423748 21,18.7782478 C21,17.6141208 20.658216,12.3654938 19.829108,10.5641789 C19,8.76286396 12,10.0151748 12.3456026,12.8897082 Z" id="Path-3-Copy" fill="#F34D4D"></path>
                <path d="M0.599609375,5.93444595 C5.93294271,3.10948707 14.266276,1.3636743 25.5996094,0.697007631 C27.5996094,6.12272729 28.5996094,9.44442787 28.5996094,10.6621094 C28.5996094,12.4886316 25.5996094,8.83558712 21.5996094,10.6621094 C18.9329427,11.8797909 17.5996094,13.0759984 17.5996094,14.250732 C15.5996094,13.0759984 13.5996094,12.4886316 11.5996094,12.4886316 C9.59960938,12.4886316 6.59960938,13.401472 2.59960938,15.2271527 C1.26627604,10.383771 0.599609375,7.28620211 0.599609375,5.93444595 Z" fill="#F34D4D" stroke-linejoin="round"></path>
                <path d="M13.0120771,8.49511518 C13.0120771,6.29523728 14.7071419,5.65195629 16.4022067,7.07353574 C18.0972714,8.49511518 18.0972714,10.6265019 16.4022067,10.965028 C14.7071419,11.3035541 13.0120771,10.6949931 13.0120771,8.49511518 Z" id="button-copy-9" fill="#FCDE32"></path>
            </g>
            <g id="pocket-2" transform="translate(77.000000, 174.000000) scale(-1, 1) translate(-77.000000, -174.000000) translate(62.000000, 162.000000)" stroke="#000000">
                <path d="M2.00194667,9.79930255 C2.36126989,12.2714567 3.51605615,17.2555861 3.51605615,20.4844756 C3.51605615,23.7133651 7.48218132,24.6360026 10.6012833,23.5602391 C12.9885708,22.7368749 23,20.4844756 27.1029477,19.2405699 C28.4083745,18.8447989 29.210977,17.3203311 29.0409566,16.302206 C28.5998921,13.6610004 27.7207038,9.43547956 27.0985181,8.3173339 C26.236494,6.76816837 1.64262345,7.32714844 2.00194667,9.79930255 Z" id="Path-3-Copy-3" fill="#F34D4D"></path>
                <path d="M2.00194667,9.79930255 C2.36126989,12.2714567 3.51605615,17.2555861 3.51605615,20.4844756 C3.51605615,23.7133651 7.48218132,24.6360026 10.6012833,23.5602391 C11.6217543,23.2082835 14.035327,22.5952111 16.7850141,21.911409 C20.4679387,20.9955261 18.8368638,7.24726215 12.0629179,7.65232117 C6.62748389,7.97734171 1.84198132,8.69873636 2.00194667,9.79930255 Z" id="shadow-pocket-2" fill="#DC3D4F"></path>
                <path d="M12.6791516,11.7616503 C13.0247542,14.6722771 13.5188692,15.2210445 13.5188692,19.0226247 C13.5188692,22.824205 15.3335491,22.3594328 18.3335491,21.4665553 C21.3335491,20.5736777 21.3335491,18.902872 21.3335491,17.7241279 C21.3335491,16.5453838 20.9917651,11.2308537 20.1626571,9.40692104 C19.3335491,7.58298834 12.3335491,8.85102349 12.6791516,11.7616503 Z" id="Path-3-Copy-2" fill="#F34D4D"></path>
                <path d="M0.599609375,4.93444595 C5.93294271,2.10948707 13.9329427,0.697007631 24.5996094,0.697007631 C27.266276,5.45606062 28.5996094,8.44442787 28.5996094,9.66210937 C28.5996094,11.4886316 25.5996094,7.83558712 21.5996094,9.66210937 C18.9329427,10.8797909 17.5996094,12.0759984 17.5996094,13.250732 C15.5996094,12.0759984 13.5996094,11.4886316 11.5996094,11.4886316 C9.59960938,11.4886316 6.59960938,12.401472 2.59960938,14.2271527 C1.26627604,9.38377104 0.599609375,6.28620211 0.599609375,4.93444595 Z" id="pocket" fill="#F34D4D" stroke-linejoin="round"></path>
                <path d="M12.0120771,7.49511518 C12.0120771,5.29523728 13.7071419,4.65195629 15.4022067,6.07353574 C17.0972714,7.49511518 17.0972714,9.62650193 15.4022067,9.965028 C13.7071419,10.3035541 12.0120771,9.69499308 12.0120771,7.49511518 Z" id="button-copy-9" fill="#FCDE32"></path>
            </g>
            <path d="M36.0996411,158.501775 C34.0996411,162.632635 28.0996411,168.632635 26.0996411,173.501775 C24.0996411,178.370916 28.0996411,181.501775 33.0996411,177.501775 C38.0996411,173.501775 43.339165,166.501775 44.339165,164.501775" id="hand" stroke="#000000" fill="#F3D4B7" stroke-linecap="round" stroke-linejoin="round" transform="translate(34.956423, 168.914836) rotate(13.000000) translate(-34.956423, -168.914836) "></path>
            <path d="M182.234771,160.220159 C180.72225,163.617598 174.184684,171.552318 172.672163,175.55696 C171.159641,179.561601 174.184684,182.136587 177.965989,178.846773 C181.747293,175.55696 187.70974,166.799786 188.466001,165.154879" id="hand-2" stroke="#000000" fill="#F3D4B7" stroke-linecap="round" stroke-linejoin="round" transform="translate(180.370200, 170.284416) scale(-1, 1) rotate(10.000000) translate(-180.370200, -170.284416) "></path>
            <g id="belt" transform="translate(42.000000, 140.000000)">
                <path d="M128.599609,38.6621094 C119.269108,44.3815914 94.5996094,52.1518693 77.5996094,53.6621094 C67.5615267,54.5538691 53.6881701,54.2570842 42.1558171,52.614375 C34.1575479,51.4750732 27.2853303,48.1693776 23.5996094,47.3119979 C14.5996094,45.2184 5.59960937,41.4055958 0.599609375,38.6621094 C0.599609375,40.9845452 -0.400390625,42.8116937 0.599609375,47.4055958 C2.31416076,50.5018279 12.7099737,55.9305513 24.6401404,58.8378573 C40.5427161,62.7132141 59.1715527,65.6621094 63.5996094,65.6621094 C71.3496094,65.6621094 95.5996094,61.2916294 105.599609,58.6621094 C115.599609,56.0325893 124.532716,52.0447502 128.599609,48.6621094 C129.599609,45.5784473 128.599609,41.8851997 128.599609,38.6621094 Z" stroke="#000000" fill="#AA6535" stroke-linecap="round" stroke-linejoin="round"></path>
                <g id="shadow-belt" transform="translate(0.000000, 38.000000)">
                    <path d="M112.33516,18.6387567 C113.036084,18.1846973 113.924364,17.6484849 115,17.0301195 L115,10.5 C115.393485,10.3185868 115.847219,15.1233427 116.317464,14.9124577 C118.047051,14.1368105 120,13.1495712 120,11.8606739 L120,4.83585253 C123.492072,3.40351954 126.452116,1.97849617 128.599609,0.662109375 C128.599609,3.88519965 129.599609,7.57844734 128.599609,10.6621094 C125.475546,13.2605513 119.480004,16.2161115 112.33516,18.6387567 Z M110.003339,19.3973312 C108.567788,19.8449416 107.095638,20.2687257 105.599609,20.6621094 C95.5996094,23.2916294 71.3496094,27.6621094 63.5996094,27.6621094 C59.1715527,27.6621094 40.5427161,24.7132141 24.6401404,20.8378573 C12.7099737,17.9305513 2.31416076,12.5018279 0.599609375,9.40559578 C-0.400390625,4.81169369 0.599609375,2.98454525 0.599609375,0.662109375 C1.8331365,1.33894235 3.3101179,2.08085783 4.97049207,2.84598507 C4.65804493,4.50044715 4.45359408,6.38370995 4.32376022,7.94199578 C4.2762431,8.5123035 5.13946311,10.3497676 5.71612234,10.7731825 C9.1056584,13.2619661 14.9419356,16.9978515 21,18.119463 C23.4297291,18.5693116 27.248739,19.3470452 31.5309516,20.2334529 C31.1794185,17.2430982 31.5198298,15.062946 33.0437761,12.4436444 C35.7984371,13.3191797 38.882847,14.1481616 42.1558171,14.614375 C44.643458,14.9687234 47.2400274,15.260445 49.8835333,15.4911194 C49.6891648,17.1681015 49.2190661,19.1261052 48.2635958,21.7704705 C48,22.5 48.9341496,23.6374482 49.5198255,23.7603253 C53.7660413,24.6511982 55.0678444,25.1943253 56.1599769,25.2995605 C57.1599769,25.2995605 58.0878439,19.2859947 58.8081641,18.119463 C59.2258333,17.4430631 60.8981008,16.7002796 62.7769524,16.1374228 C65.1182502,16.1711291 67.4176473,16.1586038 69.6315918,16.1009568 C70.4911411,16.9095887 71.2365699,17.6920461 70,18.119463 C68.457007,18.6527942 64.8440099,17.7818073 64,18.6527942 C64.3783072,19.2799831 64.646129,20.6621094 64,21.5 C63.8081641,22.5 64.4278775,23.0215296 65,23.5050029 C65.5721225,23.9884763 65.1623966,24.770976 65,25.5 C66.707484,25.3695572 68.0096027,25.6722377 70,25.5 C70.3677589,21.1967565 70.3629328,14.2936577 71.3212891,16.5 C72.1674823,18.4481189 73,20.5417071 73,22.5 C73,24.6166623 76.5034164,24.5360953 76.8667184,24.5 C81.8969452,24.0002298 108.202934,18.586564 108.901272,17.8530135 C109.352986,17.378522 109.608536,18.6651283 110.003339,19.3973312 Z" id="Combined-Shape" fill="#88491E"></path>
                    <path d="M128.599609,0.662109375 C119.269108,6.38159138 94.5996094,14.1518693 77.5996094,15.6621094 C67.5615267,16.5538691 53.6881701,16.2570842 42.1558171,14.614375 C34.1575479,13.4750732 27.2853303,10.1693776 23.5996094,9.31199787 C14.5996094,7.21839995 5.59960937,3.40559578 0.599609375,0.662109375 C0.599609375,2.98454525 -0.400390625,4.81169369 0.599609375,9.40559578 C2.31416076,12.5018279 12.7099737,17.9305513 24.6401404,20.8378573 C40.5427161,24.7132141 59.1715527,27.6621094 63.5996094,27.6621094 C71.3496094,27.6621094 95.5996094,23.2916294 105.599609,20.6621094 C115.599609,18.0325893 124.532716,14.0447502 128.599609,10.6621094 C129.599609,7.57844734 128.599609,3.88519965 128.599609,0.662109375 Z" id="belt-copy-2" stroke="#000000" stroke-linecap="round" stroke-linejoin="round"></path>
                </g>
                <path d="M106,47.5602391 C106,46.5602391 106.058607,44.9267301 107.829108,44.7133651 C109.599609,44.5 111.170892,43.5 113,43.5 C113,43.5 115,43.5 115,47.5602391 C115,51.6204782 115,55.9820266 115,56.8530135 C115,57.7240004 112.5,59.2759996 110.5,59.5 C108.5,59.7240004 106,59.2759996 106,58.5 C107.744186,57.9221943 107.744186,57.9221943 108.901272,57.5 C110.008896,57.0958534 109,52.0836343 109,50.9721541 C109,49.8606739 108.658216,46.988738 107.829108,46.988738 C107,46.988738 107,47.5602391 106,47.5602391 Z" id="Path-4" stroke="#000000" fill="#AA6535"></path>
                <g id="buckle" transform="translate(58.000000, 52.000000)" fill="#FCDE32" stroke="#000000">
                    <path d="M4.59960937,0.475341797 C8.59960937,0.475341797 10.5996094,0.475341797 11.5996094,0.475341797 C12.5996094,0.475341797 13.5996094,1.70761303 13.5996094,4.88373179 C13.5996094,8.05985055 13.5996094,11.1690443 13.5996094,12.93267 C13.5996094,14.6962957 13.5996094,15.3196939 10.5996094,15.3196939 C7.59960937,15.3196939 4.59960937,15.3196939 3.59960937,15.3196939 C2.59960937,15.3196939 0.599609375,15.4256222 0.599609375,12.93267 C0.599609375,10.4397178 0.599609375,6.447931 0.599609375,4.88373179 C0.599609375,3.31953258 0.599609375,0.475341797 4.59960937,0.475341797 Z M4.57762718,2.62260399 C1.59960938,2.62260399 2.44458008,4.67937874 2.44458008,5.8105284 C2.44458008,6.94167806 2.44458008,9.82833611 2.44458008,11.6311129 C2.44458008,13.4338897 3.86661148,13.3572877 4.57762718,13.3572877 C5.28864289,13.3572877 7.42168999,13.3572877 9.5547371,13.3572877 C11.6877842,13.3572877 11.6877842,12.9064777 11.6877842,11.6311129 C11.6877842,10.3557481 11.6877842,8.10733665 11.6877842,5.8105284 C11.6877842,3.51372015 11.3106251,2.62260399 10.5996094,2.62260399 C9.88859367,2.62260399 7.55564499,2.62260399 4.57762718,2.62260399 Z"></path>
                    <path d="M3.09960938,4.66210937 C4.59960937,4.66210937 5.59960938,4.4947853 5.59960938,5.57844734 C5.59960938,6.66210937 4.59960938,6.66210937 4.59960938,6.66210937 C4.59960937,6.66210937 1.59960937,6.66210937 1.59960937,6.66210937 C1.59960937,6.66210937 0.599609375,6.66210937 0.599609375,5.66210937 C0.599609375,4.66210937 1.59960938,4.66210937 3.09960938,4.66210937 Z"></path>
                    <path d="M3.30816406,9.29956055 C4.80816406,9.29956055 5.80816406,9.13223647 5.80816406,10.2158985 C5.80816406,11.2995605 4.80816406,11.2995605 4.80816406,11.2995605 C4.80816406,11.2995605 1.80816406,11.2995605 1.80816406,11.2995605 C1.80816406,11.2995605 0.808164062,11.2995605 0.808164062,10.2995605 C0.808164062,9.29956055 1.80816406,9.29956055 3.30816406,9.29956055 Z" id="buckle-copy-2"></path>
                </g>
                <g id="sleeve-2" transform="translate(116.000000, 0.000000)">
                    <path d="M22.0906128,2.4278626 C19.6551227,6.59750221 13.9710957,15.1009002 11.5267149,18.1501984 C7.52671488,23.140089 4.86004821,26.5170421 3.52671488,28.2810577 C10.8600482,36.4803881 15.1933815,41.0479942 16.5267149,41.9838758 C18.5267149,43.3876982 26.5267149,32.2280548 26.5267149,32.1471097 C26.5267149,32.0931463 28.1933815,29.6056342 31.5267149,24.6845732" stroke="#000000" fill="#F34D4D" stroke-linecap="round" stroke-linejoin="round" transform="translate(17.526715, 22.266936) scale(-1, 1) rotate(10.000000) translate(-17.526715, -22.266936) "></path>
                    <g id="shadow-sleeve-2">
                        <path d="M10.1900361,4.22284604 C13.5435813,8.07418733 19.9601286,14.7470314 22.7206975,17.1708518 C24.3232302,18.5778992 25.7486063,19.8340616 26.996826,20.939339 C25.7025437,22.5569663 24.0667715,24.3197684 23,24.6919703 C21,25.3897802 20,27 16.4763625,23.250732 C13.5638979,20.4754616 13.5638979,20.4754616 12,18.6580035 C9,21.3405579 10,21.001464 10,23.250732 C10,25.5 15,32.0533886 18,34.5 C21,36.9466114 23,37.5437519 28,32.4536074 C28.1304389,32.3208167 28.2540721,32.2095376 28.3710417,32.1186335 C24.9373173,37.5212925 22.7920812,40.6519757 21.9353334,41.510683 C20.2094891,43.2404746 10.3931753,33.6395566 10.3791193,33.5598413 C10.3697487,33.5066977 8.29645048,31.3463901 4.15922471,27.0789184 L9.36651089,4.4792799 C9.64035809,4.39170927 9.91495416,4.30622084 10.1900361,4.22284604 Z" id="Combined-Shape" fill="#DC3D4F"></path>
                        <path d="M22.0906128,2.4278626 C19.6551227,6.59750221 13.9710957,15.1009002 11.5267149,18.1501984 C7.52671488,23.140089 4.86004821,26.5170421 3.52671488,28.2810577 C10.8600482,36.4803881 15.1933815,41.0479942 16.5267149,41.9838758 C18.5267149,43.3876982 26.5267149,32.2280548 26.5267149,32.1471097 C26.5267149,32.0931463 28.1933815,29.6056342 31.5267149,24.6845732" id="sleeve-2-copy-2" stroke="#000000" stroke-linecap="round" stroke-linejoin="round" transform="translate(17.526715, 22.266936) scale(-1, 1) rotate(10.000000) translate(-17.526715, -22.266936) "></path>
                    </g>
                    <path d="M10.6046754,7.70075774 C14.8801451,9.43713479 17.5347437,9.15596123 21.8386639,10.7281564 C30.2880295,13.8146569 27.2470939,21.8764064 21.3863331,20.3791876 C10.7253609,17.6556833 7.252649,16.8509112 7.18532843,16.0515393 C6.91408404,12.8307534 8.74618321,10.2692916 10.6046754,7.70075774 Z" id="collar-copy-3" stroke="#000000" fill="#1D487A" stroke-linecap="round" stroke-linejoin="round" transform="translate(17.107690, 14.131759) scale(-1, 1) rotate(-65.000000) translate(-17.107690, -14.131759) "></path>
                    <path d="M8.97130076,5.32476929 C8.97130076,3.12489139 10.6663655,2.4816104 12.3614303,3.90318985 C14.0564951,5.32476929 14.0564951,7.45615604 12.3614303,7.79468212 C10.6663655,8.13320819 8.97130076,7.52464719 8.97130076,5.32476929 Z" id="button-copy-11" stroke="#000000" fill="#E8DB54" transform="translate(11.302015, 5.514522) rotate(14.000000) translate(-11.302015, -5.514522) "></path>
                </g>
                <g id="collar" transform="translate(17.000000, 3.000000)" stroke="#000000">
                    <path d="M52.6805038,9.49429703 C63.2275693,9.49429703 79.4040519,5.55533699 92.8275898,1.21513425 C96.6628863,1.21513425 99.5393587,2.41337354 101.457007,4.55533699 C101.457007,6.72543836 99,10.2380233 96.6628863,12.3405758 C80.2718557,17.5975882 68.9393382,20.3626041 51.6805038,21.3897802 C51.6805038,16.5975882 52.6805038,14.1222171 52.6805038,9.49429703 Z" fill="#1D487A" stroke-linecap="round" stroke-linejoin="round"></path>
                    <path d="M1.68050382,9.49429703 C12.2275693,9.49429703 29.4040519,4.55533699 42.8275898,0.215134247 C46.6628863,0.215134247 49.5393587,1.41337354 51.457007,3.55533699 C51.457007,5.72543836 49.5393587,7.49429703 46.6628863,11.3405758 C30.2718557,16.5975882 17.9393382,20.3626041 0.68050382,21.3897802 C0.68050382,16.5975882 1.68050382,14.1222171 1.68050382,9.49429703 Z" id="collar-copy-4" fill="#1D487A" stroke-linecap="round" stroke-linejoin="round" transform="translate(26.068755, 10.802457) scale(-1, 1) translate(-26.068755, -10.802457) "></path>
                    <path d="M27.5996094,14.1222171 C27.5996094,11.1628229 28.3773872,11.2167969 29.9329427,9.66210938 C31.4884983,8.10742188 34.5996094,10.2444341 34.5996094,14.1222171 C34.5996094,18 32.266276,18 31.0996094,18 C29.9329427,18 27.5996094,17.0816112 27.5996094,14.1222171 Z" id="Path-13" fill="#FCDE32"></path>
                    <path d="M63.0133878,13.8873116 C63.0133878,10.9279174 63.7911655,10.9818914 65.3467211,9.42720391 C66.9022766,7.87251641 70.0133878,10.0095286 70.0133878,13.8873116 C70.0133878,17.7650945 67.6800544,17.7650945 66.5133878,17.7650945 C65.3467211,17.7650945 63.0133878,16.8467057 63.0133878,13.8873116 Z" id="Path-13-Copy" fill="#FCDE32" transform="translate(66.513388, 13.340662) scale(-1, 1) rotate(4.000000) translate(-66.513388, -13.340662) "></path>
                </g>
                <path d="M32.2934366,47.5602391 C33.3329631,47.2737823 44.5649911,41.0967188 56.0505195,36.7535135 C67.027859,32.6024778 100,18.0554689 109,13.5 C114.212676,10.8615352 117.070264,9.5 124.874807,3.55509039 C125.188977,3.31577932 126.955691,1.7292036 128.271489,0.672948785 C129.000618,0.0876413558 130.405935,1.08813642 130.684701,1.29540436 C132.349423,2.53315556 132.553321,3.31218931 132.553321,4.37558089 C132.553321,6.5 123.874807,11.5 115.269108,16.4754616 C106.663409,21.4509231 66.5255677,39.1239582 59.2963683,41.7051362 C47.9597354,45.752869 33.8975216,53.5 32.2934366,53.5 C29.6664509,53.5 30.2603785,48.1204782 32.2934366,47.5602391 Z" id="string" stroke="#000000" fill="#AA6535"></path>
                <path d="M40,44 C41,47.0003223 43,49.8606739 43,49.8606739 C43,49.8606739 43.9409874,51.5 46,49.8606739 C48.0590126,48.2213478 48,48.5 47,46.5602391 C46.2547551,45.1146422 45.0057396,43.5302132 44.3398001,42.3977864 C43,40.119463 42,41.1716693 40.9833844,41.6417743 C40.2081788,42.0002461 39.5272207,42.5815096 40,44 Z" id="small-buckle" stroke="#000000" fill="#AA6535"></path>
                <path d="M97,16.5 C98,16.1469865 99,15.4886316 101,18.5 C103,21.5113684 105,22.5 105,23.5 C105,24.5 100,26.9926319 99,27.746316 C98,28.5 96,28.7993026 95,26.5 C94.6527616,26.1099964 95,26.5 97,25.5 C97.4338843,26.5 97.4338843,26.7681684 98.4338843,26.5 C100,25.5 102.867114,24.3671143 102,23.5 C101,22.5 100,21.5 100,21.5 C100,21.5 99,22.5 98,22.5 C97,22.5 98,21.001464 99,20.250732 C98.9204251,19.5 98.4338843,19.5 98,18.4886316 C97.7107438,17.8143861 96.0440771,18.4848422 93,20.5 C92,19.2118045 96,16.8530135 97,16.5 Z" id="small-buclke" stroke="#000000" fill="#FCDE32" stroke-linejoin="round"></path>
                <g id="bag" transform="translate(12.831528, 43.458767)">
                    <path d="M5.11828425,7.70241833 C5.11828425,11.6963816 5.11828425,17.6569305 5.11828425,18.329254 C5.11828425,19.0015776 11.4208835,23.0649582 15.7826564,24.2458623 C20.1444293,25.4267665 20.1444293,25.4267665 21.5914213,24.4926233 C23.0384132,23.5584801 24.3369441,22.5630625 24.3369441,20.0959393 C24.3369441,17.6288162 24.3369441,10.0047471 24.3369441,8.32573597 C24.3369441,6.39996388 23.4952011,5.4864337 21.5914213,5.02720246 C16.9234962,3.90120199 9.22094196,3.90120199 7.53091641,3.90120199 C5.11828425,3.90120199 5.11828425,3.7084551 5.11828425,7.70241833 Z" id="Path-11-Copy" stroke="#000000" fill="#88491E"></path>
                    <path d="M24.1684721,11.0412335 L20.1684721,13.5133876" id="Path-2" stroke="#000000"></path>
                    <path d="M1.82312062,8.82841879 C1.82312062,12.822382 1.82312062,18.7829309 1.82312062,19.4552545 C1.82312062,20.1275781 2.95239337,21.884054 7.31416629,23.0649582 C11.6759392,24.2458623 16.9234962,25.6186237 18.2962576,25.6186237 C19.6690191,25.6186237 21.0417805,23.689063 21.0417805,21.2219398 C21.0417805,18.7548166 21.0417805,11.1307476 21.0417805,9.45173644 C21.0417805,7.7727253 6.64838492,5.02720246 4.23575277,5.02720246 C1.82312062,5.02720246 1.82312062,4.83445557 1.82312062,8.82841879 Z" id="Path-11" stroke="#000000" fill="#AA6535"></path>
                    <g id="shadow-bag" transform="translate(1.000000, 5.000000)">
                        <path d="M20.0417805,8.69041797 C19.1446007,9.3635192 17.9187774,9.95295359 17.1684721,10.2033428 C15.8750354,10.634984 11.7680814,10.156642 10.1684721,11.0989377 C8.56886268,12.0412335 6.16847206,10.7450742 6.16847206,10.2033428 C6.16847206,9.66161151 4.16847206,7.66069644 3.16847206,6.16383747 C2.54821484,5.2353999 1.96264772,4.63260994 0.823120616,3.94998685 C0.823120616,3.90926867 0.823120616,3.8687435 0.823120616,3.82841879 C0.823120616,-0.165544431 0.823120616,0.0272024595 3.23575277,0.0272024595 C5.64838492,0.0272024595 20.0417805,2.7727253 20.0417805,4.45173644 C20.0417805,5.13302613 20.0417805,6.79315775 20.0417805,8.69041797 Z" id="Combined-Shape" fill="#88491E"></path>
                        <path d="M0.823120616,3.82841879 C0.823120616,7.82238202 0.823120616,13.7829309 0.823120616,14.4552545 C0.823120616,15.1275781 1.95239337,16.884054 6.31416629,18.0649582 C10.6759392,19.2458623 15.9234962,20.6186237 17.2962576,20.6186237 C18.6690191,20.6186237 20.0417805,18.689063 20.0417805,16.2219398 C20.0417805,13.7548166 20.0417805,6.13074758 20.0417805,4.45173644 C20.0417805,2.7727253 5.64838492,0.0272024595 3.23575277,0.0272024595 C0.823120616,0.0272024595 0.823120616,-0.165544431 0.823120616,3.82841879 Z" id="Path-11-Copy-3" stroke="#000000"></path>
                    </g>
                    <path d="M11.6759392,2.28167962 C15.7826564,3.51459745 18.2962576,3.51459745 21.0417805,3.65444104 C22.1227269,3.7094992 23.9060142,5.2900398 23.7873033,6.04783191 C22.1227269,5.02720246 21.0417805,8.01657527 20.0417805,10.1887011 C19.0749818,12.2887095 18.8098589,12.41039 16.2962576,12.41039 C13.7826564,12.41039 11.9344847,12.1419331 10.805212,13.148923 C9.67593921,14.1559128 8.53249461,14.8874559 7.61669404,13.148923 C6.70089346,11.41039 4.27562351,8.68909121 3.23575277,8.38403312 C2.19588203,8.07897502 0.823120616,7.13858946 0.823120616,6.08289596 C0.823120616,5.02720246 1.82312062,0.523833923 3.19588203,0.523833923 C4.56864345,0.523833923 7.56922201,1.0487618 11.6759392,2.28167962 Z" id="Path-12" stroke="#000000" fill="#AA6535"></path>
                    <path d="M7.43139229,8.5444354 C7.43139229,6.61489374 8.9557709,6.05066358 10.4801495,7.29754949 C12.0045281,8.5444354 12.0045281,10.4139026 10.4801495,10.7108282 C8.9557709,11.0077539 7.43139229,10.4739771 7.43139229,8.5444354 Z" id="button-copy-10" stroke="#000000" fill="#FCDE32" transform="translate(9.527413, 8.710870) rotate(30.000000) translate(-9.527413, -8.710870) "></path>
                </g>
            </g>
            <g id="sleeve" transform="translate(22.000000, 136.000000)">
                <path d="M23.7122167,2.67493936 C21.7122167,7.69879191 16.8233278,13.4226443 12.8233278,19.4374395 C10.1566611,23.4473029 7.48999446,26.8242561 4.8233278,29.5682989 C12.1566611,37.7676293 16.4899945,42.3352353 17.8233278,43.2711169 C19.8233278,44.6749394 27.8233278,33.5152959 27.8233278,33.4343508 C27.8233278,33.3803874 29.4899945,30.8928753 32.8233278,25.9718144" stroke="#000000" fill="#F34D4D" stroke-linecap="round" stroke-linejoin="round" transform="translate(18.823328, 23.034095) rotate(13.000000) translate(-18.823328, -23.034095) "></path>
                <g id="shadow-sleeve">
                    <path d="M28.970166,9.76389185 L29.4100436,12.7572563 C29.386493,13.4232405 29.2617701,14.0464488 29,14.5554689 C28,16.5 21,22.6743409 21,23.9625365 C21,25.250732 19,26.5165906 16,23.9625365 C13.2336958,21.6074396 13.0182046,23.2023376 11.433346,20.3289652 C12.2103428,19.6441515 12.9946204,18.9278015 13.7861788,18.1799152 C18.4265777,13.7955374 23.6923716,9.7887767 26.9789438,5.84812454 C27.3913042,6.67613733 27.7316563,7.35602174 28,7.70383852 C28.3526183,8.16088877 28.7052366,8.90575753 28.970166,9.76389205 Z M31.2227005,25.0923728 L31.8036655,29.0458355 C27.4487675,33.0909331 25.2652489,35.1397721 25.2531098,35.1923524 C25.2349011,35.2712229 14.929567,44.345237 13.2966182,42.5274923 C12.9563843,42.1487551 12.4104278,41.3584559 11.6587487,40.1565946 C13.8748647,39.5305274 17.5250989,37.9749011 19,36.5 C21,34.5 28,28.5 29,27.5 C29.6495489,26.8504511 30.2990979,25.5686491 31.2227005,25.0923728 Z" id="Combined-Shape" fill="#DC3D4F"></path>
                    <path d="M23.7122167,2.67493936 C21.7122167,7.69879191 16.8233278,13.4226443 12.8233278,19.4374395 C10.1566611,23.4473029 7.48999446,26.8242561 4.8233278,29.5682989 C12.1566611,37.7676293 16.4899945,42.3352353 17.8233278,43.2711169 C19.8233278,44.6749394 27.8233278,33.5152959 27.8233278,33.4343508 C27.8233278,33.3803874 29.4899945,30.8928753 32.8233278,25.9718144" id="sleeve-copy-2" stroke="#000000" stroke-linecap="round" stroke-linejoin="round" transform="translate(18.823328, 23.034095) rotate(13.000000) translate(-18.823328, -23.034095) "></path>
                </g>
                <path d="M13.9470397,7.05712241 C18.2225094,8.79349946 20.877108,8.5123259 25.1810281,10.0845211 C33.6303938,13.1710216 30.5894582,21.2327711 24.7286974,19.7355523 C14.0677252,17.012048 10.5950132,16.2072758 10.5276927,15.4079039 C10.2564483,12.1871181 12.0885475,9.62565626 13.9470397,7.05712241 Z" id="collar-copy-2" stroke="#000000" fill="#1D487A" stroke-linecap="round" stroke-linejoin="round" transform="translate(20.450055, 13.488124) rotate(-69.000000) translate(-20.450055, -13.488124) "></path>
                <path d="M24.0333942,4.67044033 C24.0333942,2.47056243 25.3648226,1.82728144 26.696251,3.24886088 C28.0276794,4.67044033 28.0276794,6.80182708 26.696251,7.14035315 C25.3648226,7.47887922 24.0333942,6.87031823 24.0333942,4.67044033 Z" id="button-copy-9" stroke="#000000" fill="#FCDE32" transform="translate(25.864108, 4.860193) rotate(49.000000) translate(-25.864108, -4.860193) "></path>
            </g>
            <path d="M108.298828,168.497833 C108.298828,166.072388 109.993893,165.363147 111.688958,166.93049 C113.384022,168.497833 113.384022,170.847764 111.688958,171.221001 C109.993893,171.594238 108.298828,170.923278 108.298828,168.497833 Z" id="button" stroke="#000000" fill="#FCDE32"></path>
            <path d="M108.394292,184.740738 C108.394292,182.315293 110.089357,181.606053 111.784422,183.173395 C113.479487,184.740738 113.479487,187.090669 111.784422,187.463906 C110.089357,187.837143 108.394292,187.166183 108.394292,184.740738 Z" id="button-copy-6" stroke="#000000" fill="#FCDE32"></path>
            <path d="M110.383542,211.167005 C110.383542,209.00134 111.964956,208.368063 113.54637,209.767534 C115.127784,211.167005 115.127784,213.265244 113.54637,213.598506 C111.964956,213.931767 110.383542,213.33267 110.383542,211.167005 Z" id="button-copy-7" stroke="#000000" fill="#FCDE32" transform="translate(112.557986, 211.353807) rotate(-54.000000) translate(-112.557986, -211.353807) "></path>
        </g>
    </g>
</svg>