<?xml version="1.0" encoding="UTF-8"?>
<svg width="196px" height="267px" viewBox="0 0 196 267" version="1.1" xmlns="http://www.w3.org/2000/svg" xmlns:xlink="http://www.w3.org/1999/xlink">
    <!-- Generator: Sketch 54.1 (76490) - https://sketchapp.com -->
    <title>Artboard</title>
    <desc>Created with Sketch.</desc>
    <g id="Artboard" stroke="none" stroke-width="1" fill="none" fill-rule="evenodd">
        <g id="Mountie-Gopher3:4" transform="translate(8.000000, -7.000000)">
            <path d="M163.139056,218.30665 C160.720414,223.056031 159.868939,222.263123 157.815806,228.732172 C155.762674,235.201222 163.431896,241.034831 168.538853,234.539121 C173.645811,228.043412 171.201194,220.091699 172.007408,218.30665" id="tail" stroke="#000000" fill="#4AAED9" stroke-linecap="round" stroke-linejoin="round" transform="translate(164.740949, 227.840332) rotate(-96.000000) translate(-164.740949, -227.840332) "></path>
            <path d="M19.8015286,225.181084 C16.1586715,231.176975 16.1586715,233.6638 16.1586715,237.575599 C16.1586715,241.487398 19.6375655,245.463018 25.7089941,240.955921 C31.7804226,236.448824 31.9443857,227.434632 33.1586715,225.181084" id="foot" stroke="#000000" fill="#F3D4B7" stroke-linecap="round" stroke-linejoin="round" transform="translate(24.658672, 234.069132) rotate(62.000000) translate(-24.658672, -234.069132) "></path>
            <path d="M40.0382986,68.997519 C33.0311761,76.393926 29.2548287,85.1538395 27.3549028,95.572664 C24.7486755,109.864709 20.5266492,128.019818 26.7262339,140.508551 C27.5159604,142.099413 12.7511809,172.493021 15.3904948,194.692719 C16.9795915,208.058869 17,224 31,234 C57.8101912,253.150137 82,253 107.038299,249.997519 C132.076598,246.995038 159,236 167,214 C175,192 161,143.997519 149.038299,129.997519 C152,106 150.038299,98 140.038299,81.997519 C130.038299,65.995038 122.076597,55.997519 99.038299,52.997519 C76,49.997519 58.0382986,49.997519 40.0382986,68.997519 Z" id="Path" stroke="#000000" fill="#5CC8E6"></path>
            <path d="M28.0936876,103.161595 C30.3993641,105.774976 38.0715558,102.113985 40.0382986,103.161595 C43.0382986,104.759583 43,112.328654 41,115 C39,117.671346 39,117.671346 34.8770523,121 C34.8770523,126 34,128.485856 32,130.860956 C32,132.715509 33.0194599,133.101105 40.0382986,138 C45.6390778,141.909141 65.3962459,141.381102 86.3962459,139.716799 C107.396246,138.052496 126,131.528886 133,123.384219 C140,115.239553 132.874138,95.3348232 129,90.5 C125.125862,85.6651768 113,71.495393 94,65.4970713 C75,59.4987495 59,67 47,71.5 C46.9589031,71.5154113 31.9179205,81.5307555 31.8770523,81.5460325 C33.3634521,79.2516969 38.0739211,71.0710286 40.0382986,68.997519 C58.0382986,49.997519 80,50.997519 103.038299,53.997519 C126.076597,56.997519 140.038299,79.833443 146.038299,93.997519 C152.038299,108.161595 149,114.247656 149,130.860956 C156,138 166,165 168,183 C168.866101,190.794909 170.422603,205.85326 166,216 C160.209929,229.284108 146.739148,237.022579 145.038299,238 C142.038299,239.724001 129,248 100,250.489004 C71,252.978008 54,248 33.0194599,236 C19.4070987,228.214293 14.5741539,205.252466 15.4648394,186 C15.9469549,175.578912 18,171 20.6013916,158.929298 C21.2711801,155.821416 28.3035092,142.548699 27.0382986,140 C21.8214237,129.490883 25.7240398,117.813134 28.0936876,103.161595 Z M54,112.066391 C52.9260761,109.924462 48.191096,97.8237893 51.1416284,90.7712476 C57.6149055,75.2984271 78.2011477,61.2439252 94,68.3608873 C117,78.7217746 111,92.376413 111,97.170787 C111,101.965161 105.190434,114.5 96.932096,119.5 C88.673757,124.5 76.0027426,123.718171 72.1591499,122.343168 C68.3155571,120.968165 57.4300434,118.907574 54,112.066391 Z" id="body-shadow" fill="#4AAED9" fill-rule="nonzero"></path>
            <path d="M40.0382986,68.997519 C33.0311761,76.393926 29.2548287,85.1538395 27.3549028,95.572664 C24.7486755,109.864709 20.5266492,128.019818 26.7262339,140.508551 C27.5159604,142.099413 12.7511809,172.493021 15.3904948,194.692719 C16.9795915,208.058869 17,224 31,234 C57.8101912,253.150137 82,253 107.038299,249.997519 C132.076598,246.995038 159,236 167,214 C175,192 161,143.997519 149.038299,129.997519 C152,106 150.038299,98 140.038299,81.997519 C130.038299,65.995038 122.076597,55.997519 99.038299,52.997519 C76,49.997519 58.0382986,49.997519 40.0382986,68.997519 Z" id="Path-Copy" stroke="#000000"></path>
            <path d="M78.0420403,255.634773 C78.0420403,260.200512 85.4041648,264.92621 92.7236087,259.665656 C100.043053,254.405102 107.23438,244.707937 92.7899975,241.253715 C84.5966879,239.294372 78.0420403,251.069032 78.0420403,255.634773 Z" id="foot" stroke="#000000" fill="#F3D4B7" stroke-linecap="round" stroke-linejoin="round" transform="translate(89.588022, 251.508593) rotate(42.000000) translate(-89.588022, -251.508593) "></path>
            <g id="hat" transform="translate(87.951613, 51.561930) rotate(9.000000) translate(-87.951613, -51.561930) translate(5.951613, 13.061930)">
                <path d="M94.7236572,0.479557129 C86.0495016,0.479557129 77.8502271,5.49214847 70.6659032,11.3771869 C63.4815793,17.2622255 56.9091524,21.3350228 50.622869,28.0922797 C46.1689365,32.8799044 44.4013832,42.2219927 44.9811862,50.4651144 C45.2197175,53.8563403 54.643768,45.2891179 72.6045778,43.1639456 C90.5653872,41.0387733 117.506602,42.1500385 126.487007,45.3815177 C135.467412,48.6129968 140.855654,54.575691 140.855654,51.5943438 C140.855654,48.6129968 145.658726,39.2872444 141.168523,31.5542059 C136.678321,23.8211673 131.290078,19.3715528 121.411633,13.4865143 C111.533187,7.6014758 103.397812,0.479557129 94.7236572,0.479557129 Z" id="Path" fill="#DDB27A"></path>
                <path d="M110.772743,6.73359052 C114.354309,9.46258928 117.890765,11.3988633 121.763369,13.6736764 C124.086496,15.0383076 126.16427,16.3256023 128.0423,17.5946321 C130.823238,20.1306076 136.861372,24.8225606 137.558153,25.8636021 C137.846302,26.2941171 139.305184,28.7562334 141.934798,33.2499509 C142.028032,33.7051999 141.271302,35.3086811 142.316821,35.6139574 C131.604942,33.2108899 126.477652,30.4541503 125.272444,29.6319845 C123.454535,28.3918483 106.184402,26.3206484 106.184402,26.4602664 C106.184402,26.5998844 92.0790537,25.33296 95.7456801,25.472578 C99.4123074,25.612196 110.450933,23.7978104 113.84462,23.7978104 C117.238306,23.7978104 122.388113,24.9985033 123.297067,23.213406 C124.206021,21.4283087 122.545581,20.0890875 121.636626,19.3597664 C120.727672,18.6304453 116.1829,14.7198046 115.273946,13.0786013 C114.667976,11.9844658 112.840689,12.0656303 108.540608,5.42058798 C109.308888,5.87128788 110.052933,6.30895538 110.772743,6.73359052 Z M90.3555815,4.58933411 C87.7903696,7.26828027 84.6317643,10.6040729 87.6755445,13.785872 C90.7193248,16.9676712 97.53451,18.1523748 101.958134,18.1523748 C106.38176,18.1523748 94.5845347,20.5540487 89.2762204,18.3346593 C83.9679061,16.1152699 80.7208954,16.4940951 82.6303236,11.1362028 C86.2661409,3.99234632 86.8814153,7.26828027 90.3555815,4.58933411 Z" id="Shape" fill="#C59B63" fill-rule="nonzero"></path>
                <path d="M94.7116898,0.337440352 C86.0375342,0.337440352 77.1729975,5.77441001 69.9886736,11.7483877 C62.8043497,17.7223654 56.8309352,20.6882705 50.5446518,27.5476482 C45.7884095,32.7374972 44.1614672,43.6665015 45.046588,51.9465807 C45.3313235,54.6102091 54.5655508,45.0491583 72.5263606,42.8918688 C90.48717,40.7345792 117.428385,41.8626388 126.408789,45.1429545 C135.389194,48.4232702 140.777437,54.4760771 140.777437,51.4496736 C140.777437,48.4232702 145.736943,39.9144148 141.246741,32.0645087 C136.756538,24.2146026 131.368295,19.6977421 121.48985,13.7237643 C111.611405,7.74978669 103.385845,0.337440352 94.7116898,0.337440352 Z" id="Path" stroke="#000000"></path>
                <path d="M68.8533509,27.697872 C57.112147,30.3589087 45.2985952,34.7537033 44.6081156,40.5298235 C43.65587,48.4957145 53.6836296,41.1225603 71.7144011,38.9743001 C89.7451722,36.8260398 116.791329,37.9493779 125.806715,41.2159639 C134.822101,44.4825499 140.231332,54.1280137 140.231332,51.1142772 C140.231332,48.9084951 143.115368,45.1605231 142.642737,38.6558364 C142.469618,36.2732395 131.982253,30.3589087 120.241049,27.697872 C108.499845,25.0368355 80.5945548,25.0368355 68.8533509,27.697872 Z" id="Path" stroke="#000000" fill="#AA6535"></path>
                <path d="M106.642756,43.6518557 C83.8150695,40.9261606 56.7145988,42.5905694 38.8791512,59.8533049 C33.5940675,64.9686798 33.0665284,70.5783398 30.3977615,76.677417 C28.7285843,76.775577 29.2799051,76.5694902 28.1368013,76.6865652 C11.7193442,78.3680165 -8.35253846,67.5704343 3.72499777,55.5455025 C15.802534,43.5205706 50.4433404,28.8442206 88.3030974,27.9489493 C126.162855,27.0536781 154.119407,39.6705206 161.082218,49.1323607 C164.110256,53.2471953 166.12192,66.1991616 146.791896,70.7500516 C135.244261,54.5017177 121.861214,45.4689857 106.642756,43.6518557 Z" id="Path" stroke="#000000" fill="#C59B63"></path>
                <path d="M91.0172311,3.96731151 C83.1106627,8.39366553 78.6842765,13.1445967 84.4816202,16.4362638 C89.238804,18.7317498 92.6333823,17.8824067 96.1294918,17.8674158 C99.4054002,17.853369 102.808623,18.8128819 106.403173,16.8185885 C111.356985,14.070162 110.971149,10.6687984 99.6977152,5.04197857 M112.880166,10.0807986 C114.99157,12.2867493 121.486537,19.9886045 125.810779,21.4633577 C128.554353,22.3990352 131.424647,22.4311877 132.952002,22.0232868" id="Shape" stroke="#000000" stroke-linecap="round" stroke-linejoin="round"></path>
                <path d="M58.191349,9.31347738 C60.2951961,11.4847806 66.7669189,19.0656672 71.0756841,20.5172575 C73.8094393,21.4382387 76.6694601,21.4698863 78.191349,21.068392" id="Path" stroke="#000000" stroke-linecap="round" stroke-linejoin="round" transform="translate(68.191349, 15.313477) scale(-1, 1) translate(-68.191349, -15.313477) "></path>
            </g>
            <g id="Group" transform="translate(28.017450, 88.000305) rotate(2.000000) translate(-28.017450, -88.000305) translate(13.017450, 64.000305)">
                <path d="M29.6207496,0.972482201 C28.9896809,1.59247684 12.6280154,15.7905516 13.7238374,47.1707871 C6.90085083,43.9661988 1.95263455,38.2800769 0.86122757,29.5099028 C-1.99203005,6.58209819 25.3369384,-2.88036199 29.6207496,0.972482201 Z" id="Path" stroke="#000000" fill="#FFFFFF"></path>
                <path d="M2.27773694,13.1942206 C2.27773694,16.527554 5.51613169,17.3608873 6.81148959,17.3608873 C8.1068475,17.3608873 10.6975633,16.527554 11.3452422,13.1942206 C11.9929212,9.8608873 10.0498844,7.3608873 6.81148959,7.3608873 C3.57309484,7.3608873 2.27773694,9.8608873 2.27773694,13.1942206 Z" id="Path" stroke="#000000" fill="#000000"></path>
                <path d="M6.24344662,12.3130627 C6.24344662,13.9797294 7.72023613,14.396396 8.31095193,14.396396 C8.90166774,14.396396 10.0830993,13.9797294 10.3784572,12.3130627 C10.6738151,10.646396 9.78774145,9.39639597 8.31095193,9.39639597 C6.83416242,9.39639597 6.24344662,10.646396 6.24344662,12.3130627 Z" id="Path" fill="#FFFFFF"></path>
            </g>
            <g id="eye" transform="translate(49.000000, 59.000000)">
                <path d="M0,31.862069 C0,50.8505747 22.8109087,56 30.4742091,56 C38.1375094,56 54,53 58.264142,34.7931034 C62.528284,16.5862068 44.6090143,0 29.4798323,0 C14.3506503,0 6.12002804e-16,12.8735632 0,31.862069 Z" id="Path" fill="#FFFFFF"></path>
                <path d="M44.3839053,5 C54.0855224,10.4173825 61.5475761,22.7883967 58.2828254,36.006387 C54.0855224,53 38.6164282,56 31.1476991,56 C25.8633464,56 10.6765312,52.4469598 4,44.2926581 C10.275347,47.9713531 20.5242206,49.2625358 24.2822209,49.2625358 C31.7509501,49.2625358 45.6829827,46.0750556 49.4173472,27.2689227 C51.3349639,17.6118706 49.3233248,11.0474684 44.3839053,5 Z" id="Path" fill="#F0F0F0"></path>
                <path d="M-3.55271368e-15,31.862069 C-3.55271368e-15,50.8505747 22.8109087,56 30.4742091,56 C38.1375094,56 54.4324918,53.7816092 58.264142,34.7931034 C62.0957922,15.8045977 44.6090143,0 29.4798323,0 C14.3506503,0 -2.93947782e-15,12.8735632 -3.55271368e-15,31.862069 Z" id="Path" stroke="#000000"></path>
                <path d="M30.2802316,18.1385763 C30.2802316,22.1385763 34.3666861,22.7318396 36.3666861,22.7318397 C38.3666861,22.7318396 41.4531407,21.325103 42.4531406,17.3251029 C43.4531406,13.325103 42.2802316,11.1385763 37.2802316,11.1385763 C32.2802316,11.1385763 30.2802316,14.1385763 30.2802316,18.1385763 Z" id="Path" fill="#000000" transform="translate(36.530319, 16.935208) rotate(39.000000) translate(-36.530319, -16.935208) "></path>
                <path d="M36.9677794,18.9671461 C36.1088264,18.1790789 35.9354208,17.0915461 37.112444,15.8503403 C38.2894672,14.6091345 39.639896,14.4554615 40.2634445,15.49177 C40.886993,16.5280783 40.1601127,17.7180598 39.6893033,18.2145422 C39.2184941,18.7110244 37.8267326,19.7552134 36.9677794,18.9671461 Z" id="Path" fill="#FFFFFF" transform="translate(38.390745, 17.029150) rotate(-58.000000) translate(-38.390745, -17.029150) "></path>
            </g>
            <g id="mug" transform="translate(26.030920, 109.430472) rotate(5.000000) translate(-26.030920, -109.430472) translate(10.530920, 86.930472)">
                <path d="M15.2355479,25.1442211 C14.1139514,29.4058548 13.3857238,30.3620437 13.4784248,34.8577868 C13.5711258,39.3535299 8.25993652,43.1688372 5.74454231,38.1824506 C3.22914808,33.1960639 6.92715841,26.4091375 7.76614261,23.2213215 C8.60512681,20.0335055 16.3571444,20.8825873 15.2355479,25.1442211 Z" id="Path" stroke="#000000" fill="#FFFFFF"></path>
                <path d="M21.590736,26.765301 C20.6485403,31.3457847 20.3737361,34.0702289 20.9157674,38.7736146 C21.4577987,43.4770003 16.3298781,47.0136796 12.8243506,42.0403874 C9.31882308,37.0670952 10.7283983,30.2144465 11.4331858,26.7881222 C12.1379734,23.3617978 22.5329317,22.1848173 21.590736,26.765301 Z" id="Path" stroke="#000000" fill="#FFFFFF"></path>
                <path d="M1.64672061,17.5267535 C1.11596943,22.0558079 2.30852717,29.7126289 13.3888073,29.4229085 C24.4690873,29.133188 28.397102,27.2889671 29.3080487,21.5962612 C30.2189953,15.9035554 25.9487534,7.12158835 15.399457,8.45386576 C4.85016057,9.78614316 2.17747179,12.9976993 1.64672061,17.5267535 Z" id="Path" stroke="#000000" fill="#F3D4B7" transform="translate(15.485819, 18.874554) rotate(8.000000) translate(-15.485819, -18.874554) "></path>
                <path d="M18.2834342,8.77470729 C22.4562833,10.41727 25.6930878,13.1514427 25.954299,16.1371008 C26.2155102,19.1227588 20.5504636,21.6260258 16.4088761,20.9845479 C12.2672887,20.34307 5.72135269,19.6811655 4.89320211,16.3556398 C4.06505153,13.0301141 3.30328261,10.0853007 11.3100713,9.38479749 C19.31686,8.68429425 14.1105851,7.13214461 18.2834342,8.77470729 Z" id="Path-3" fill="#FCE4CE"></path>
                <path d="M8.10449154,7.30387365 C8.10449154,10.6372069 13.7021641,10.1888276 15.7021641,10.1888276 C17.7021641,10.1888276 21.1044916,10.6372069 22.1044916,7.30387365 C23.1044916,3.97054031 21.0441842,1.12852018 16.0441842,1.12852018 C11.0441842,1.12852018 8.10449154,3.97054032 8.10449154,7.30387365 Z" id="Path" stroke="#000000" fill="#9B8E7D" transform="translate(15.227293, 5.668749) rotate(8.000000) translate(-15.227293, -5.668749) "></path>
            </g>
            <path d="M42,153 C37.4986808,149.558753 31.0132099,146.333333 27,141 C18,163 15,172.086719 15,184 C15,189 15.134792,196.455044 16,199 C17.2229601,202.597263 26,212 33.1352368,215 C35.3267955,215.921438 44.3783412,154.818235 42,153 Z" id="jacket" stroke="#000000" fill="#DC3D4F" stroke-linecap="round" stroke-linejoin="round"></path>
            <path d="M148.111111,154 C140.962736,153.657046 143.075496,153.143369 126.111111,152 C121.716871,151.703836 117.487519,146 112.111111,146 C90.1111111,146 65.1111111,135 56.1111111,130 C51.1111111,135 45.1111111,144 42.1111111,154 C38.2427658,166.894484 35.1111111,189 35.1111111,195 C35.1111111,197.474815 35.1111111,199.655007 35.3351395,202.145658 C35.5758532,204.82181 69.1111111,223 103.111111,226 C115.208881,227.06745 158.110852,226 170.111111,217 C170.111111,212 172.111111,207 170.111111,189 C168.111111,171 165.585387,163.475351 163.111111,152 C158.111111,154 154.111111,154.287858 148.111111,154 Z" id="jacket" stroke="#000000" fill="#F34D4D" stroke-linecap="round" stroke-linejoin="round" transform="translate(103.055556, 178.168989) scale(-1, 1) translate(-103.055556, -178.168989) "></path>
            <path d="M35.1894758,199.315587 C38.2815724,202.084663 45.2134128,205.281039 51.5857864,207 C59,209 96,210 91,207 C86,204 76,204 70,200 C64,196 62,195 67,184 C72,173 73,170 70,170 C67,170 50,179 47,181 C44,183 38,187 36,189 C36.5102403,184.407837 37.054698,180.497476 37.6237893,177.029375 C38.1298662,177.199979 38.6041145,177.197943 39,177 C41,176 60,165 60,165 C60,165 68,164 60,163 C52.087854,162.010982 46.1320221,160.043806 41.1650893,160.00072 C41.774062,157.429935 42.3886017,154.835581 43,152 C48,154 52,154.287858 58,154 C65.148375,153.657046 63.035615,153.143369 80,152 C84.39424,151.703836 88.623592,146 94,146 C116,146 141,135 150,130 C155,135 161,144 164,154 C167.868345,166.894484 171,189 171,195 C171,197.474815 171,199.655007 170.775972,202.145658 C170.535258,204.82181 137,223 103,226 C90.9022297,227.06745 48.000259,226 36,217 C36,213.123944 34.7980952,209.247888 35.1894758,199.315587 Z M157,154 C152,152 122,148 116,151 C110,154 100,159 95,160 C90,161 79,164 79,166 C79,168 97,167 99,169 C101,171 102,173 104,179 C106,185 107,196 104,207 C103.792,207.762668 127.3087,205.298142 125,202 C118,192 117.342053,172.631789 118,170 C119,166 119,160 123,159 C127,158 131,156 136,158 C141,160 148,166 151,170 C154,174 162,174 163,170 C164,166 162,156 157,154 Z" id="Combined-Shape" fill="#DC3D4F"></path>
            <path d="M148.111111,154 C140.962736,153.657046 143.075496,153.143369 126.111111,152 C121.716871,151.703836 117.487519,146 112.111111,146 C90.1111111,146 65.1111111,135 56.1111111,130 C51.1111111,135 45.1111111,144 42.1111111,154 C38.2427658,166.894484 35.1111111,189 35.1111111,195 C35.1111111,197.474815 35.1111111,199.655007 35.3351395,202.145658 C35.5758532,204.82181 69.1111111,223 103.111111,226 C115.208881,227.06745 158.110852,226 170.111111,217 C170.111111,212 172.111111,207 170.111111,189 C168.111111,171 165.585387,163.475351 163.111111,152 C158.111111,154 154.111111,154.287858 148.111111,154 Z" id="jacket-copy-2" stroke="#000000" stroke-linecap="round" stroke-linejoin="round" transform="translate(103.055556, 178.168989) scale(-1, 1) translate(-103.055556, -178.168989) "></path>
            <path d="M42.2789082,186.611416 C43.3421533,184.431441 44.8621316,184.383681 45.3841211,186.382101 C45.9061106,188.380521 44.8759691,190.492624 43.5032849,190.238387 C42.1306011,189.984148 41.2156636,188.791391 42.2789082,186.611416 Z M41.1700806,210.778485 C39.7796381,209.505539 40.1107301,207.853917 41.7469262,207.397115 C43.3831222,206.940312 44.7302746,208.173627 44.206561,209.648904 C43.6828473,211.12418 42.5605231,212.051431 41.1700806,210.778485 Z M44.0643837,167.083008 C44.4855578,164.694411 45.9334902,164.229538 46.986098,166.006663 C48.0387058,167.783788 47.6306447,170.098017 46.2410586,170.231992 C44.8514727,170.365965 43.6432098,169.471604 44.0643837,167.083008 Z" id="buttons" stroke="#000000" fill="#FCDE32" fill-rule="nonzero"></path>
            <g id="pocket" transform="translate(22.057742, 166.898211) scale(-1, 1) rotate(-6.000000) translate(-22.057742, -166.898211) translate(13.057742, 152.898211)" stroke="#000000">
                <path d="M1.00280135,12.0473873 C1.21400075,14.8162969 2.1270617,20.6174988 2.1270617,23.4349849 C2.1270617,26.252471 4.03870436,28 6.29154565,28 C7.47214669,28 10.6831643,26.2781576 13.4203416,25.2960021 C15.5428433,24.5344048 14.9124616,21.6076834 14.9124616,18.4295407 C14.9124616,15.460417 13.4506729,11.0152696 13.0979379,9.80730878 C12.5912659,8.07218258 0.791601938,9.27847764 1.00280135,12.0473873 Z" id="Path" fill="#DC3D4F"></path>
                <path d="M8.01142488,14.5513559 C8.33043866,17.7781803 8.78653915,18.3865633 8.78653915,22.6011304 C8.78653915,26.8156975 10.4616074,26.3004344 13.2308037,25.3105587 C16,24.3206829 16.301792,24.5325195 16.9945219,21.2660991 C17.6872518,17.9996786 15.7890395,12.9683741 15.0237185,10.9462974 C14.2583976,8.92422079 7.69241109,11.3245315 8.01142488,14.5513559 Z" id="Path" fill="#DC3D4F"></path>
                <path d="M9.160836e-14,6.08593914 C6.42976702,4.94279242 8.53239316,3.03842244 10.285966,0.790943073 C13.6262823,5.46792585 17.7934316,7.42267236 17.8208404,11.0903891 C16.7376445,10.8644237 15.0647847,10.9150337 13.3909197,11.9084918 C12.2750098,12.5707971 11.9030398,13.8292895 12.2750098,15.6839691 C11.1448843,14.016642 9.70303521,13.1829784 7.94946239,13.1829784 C6.19588956,13.1829784 5.12511493,14.2265141 2.74809472,16.1045285 C1.94504651,11.2550167 0.366000336,7.8458013 9.160836e-14,6.08593914 Z" id="Path" fill="#F34D4D" stroke-linejoin="round"></path>
                <path d="M9,7.75955651 C9,4.97200046 9.45454545,4.15687257 10.9090909,5.95821454 C12.3636364,7.75955651 12.3636364,10.4603246 10.9090909,10.889285 C9.45454545,11.3182453 9,10.5471126 9,7.75955651 Z" id="Path" fill="#FCDE32"></path>
            </g>
            <g id="pocket" transform="translate(84.044609, 183.044609) scale(-1, 1) rotate(9.000000) translate(-84.044609, -183.044609) translate(64.544609, 164.544609)" stroke="#000000">
                <path d="M3.95924417,12.2325375 C4.42390589,16.4388474 5.91722706,24.9192219 5.91722706,30.4130985 C5.91722706,35.9069751 10.8683277,36.0071145 14.9018196,34.176729 C17.9889596,32.775795 28.3200789,32.5291739 36.4188062,28.2966233 C37.9921848,27.4743454 39.1448211,25.0293839 38.924958,23.2970689 C38.3545919,18.8031221 37.2176624,11.6135015 36.413078,9.711004 C35.2983445,7.07513666 3.49458245,8.02622759 3.95924417,12.2325375 Z" id="Path" fill="#F34D4D"></path>
                <path d="M1.09108217,13.8245489 C1.56420085,17.7569596 2.32015273,24.5945151 3.08470081,30.8212595 C3.84924889,37.0480039 8.30687346,37.4250183 12.4137759,35.7138208 C13.7574237,35.1539713 17.0572294,35.1713143 20.6777256,34.0836028 C25.5270097,32.6267245 23.257514,9.76506461 14.3383012,10.4093846 C7.1814986,10.9263889 0.880456776,12.0738983 1.09108217,13.8245489 Z" id="Path" fill="#DC3D4F"></path>
                <path d="M17.2038973,17.489095 C17.682418,22.4368924 18.3665688,23.3697463 18.3665688,29.8320825 C18.3665688,36.2944187 20.8791711,35.5043488 25.0329656,33.9865393 C29.18676,32.4687298 29.18676,29.628514 29.18676,27.6247575 C29.18676,25.6210013 28.7135267,16.5867897 27.5655452,13.4862723 C26.4175637,10.3857547 16.7253766,12.5412976 17.2038973,17.489095 Z" id="Path" fill="#F34D4D"></path>
                <path d="M0.682027853,4.87726386 C8.01039024,1.65957744 17.807147,0.244023134 32.048321,0.441529102 C36.1859775,6.33117714 38.0253337,11.8349928 38.674574,14.7605315 C35.438413,15.1629995 31.3075509,13.1469287 27.9952484,14.5278562 C25.7870468,15.4484743 24.5429095,17.4625938 24.2628368,20.5702144 C20.7207025,18.6528719 17.6574049,17.6942006 15.072944,17.6942006 C12.4884831,17.6942006 6.62669946,19.5203821 1.4577777,22.6852678 C0.362180478,13.6474239 -0.255438655,8.6173197 0.682027853,4.87726386 Z" id="Path" fill="#F34D4D" stroke-linejoin="round"></path>
                <path d="M18.4805892,9.28737126 C18.4805892,5.1060372 20.6624075,3.88334538 22.8442255,6.58535832 C25.0260438,9.28737126 25.0260438,13.3385234 22.8442255,13.981964 C20.6624075,14.6254044 18.4805892,13.4687054 18.4805892,9.28737126 Z" id="Path" fill="#FCDE32"></path>
            </g>
            <g id="detail" transform="translate(6.000000, 132.000000)">
                <path d="M163.151945,48.3109281 C151.908271,56.6149253 122.310201,68.3128092 103.62661,70.850349 C75.2717571,74.701406 43.7271237,70.2658285 39.3392482,69.2487316 C28.6246878,66.7651271 15.4816476,55.4283388 9.52911409,52.1737812 C9.52911409,54.9288528 8.33860739,57.0963721 9.52911409,62.5460507 C11.570299,66.2190653 26.375064,75.9139389 40.5780074,79.3628333 C59.5101303,83.9601122 81.8405525,83.0120449 86.9595164,82.7132021 C104.263453,81.703006 117.950533,79.2349844 136.960798,73.2229196 C149.527258,69.2487316 161.759143,62.1152394 165.532958,58.9874959 C166.723465,55.329393 165.532958,46.2078254 163.151945,48.3109281 Z" id="belt" stroke="#000000" fill="#AA6535" stroke-linecap="round" stroke-linejoin="round"></path>
                <path d="M39.6743632,69.3220348 C39.9492592,71.6063688 40.6564092,73.8966433 40.6564092,75.3005908 C40.6564092,77.914593 63,79.3792715 67.0251504,79.3792715 C70.0350006,79.3792715 69.0886376,75.6370818 68.0121256,72.1660076 C77.4659966,72.5667305 88.250387,72.5159948 98.8313654,71.4221401 C98.4959136,73.7180157 98.4603197,75.5769385 99.0621405,76.8933909 C100.198569,79.3792715 120.922669,76.4732225 119,72.6865886 C118.418815,71.5419643 117.732125,69.8886961 117.001578,68.0409179 C126.57578,65.4707819 137.013799,61.6848019 145.915703,57.7123751 C146.279088,59.56236 146.700594,61.4172865 146.700594,63 C146.700594,67.2327536 152,63 157.25,60 C161.394699,57.6316006 160.709154,54.2992325 160.236782,50.2867889 C161.308702,49.6118245 162.284897,48.9512852 163.151945,48.3109281 C165.532958,46.2078254 166.723465,55.329393 165.532958,58.9874959 C161.759143,62.1152394 149.527258,69.2487316 136.960798,73.2229196 C117.950533,79.2349844 104.263453,81.703006 86.9595164,82.7132021 C81.8405525,83.0120449 59.5101303,83.9601122 40.5780074,79.3628333 C26.375064,75.9139389 11.570299,66.2190653 9.52911409,62.5460507 C8.33860739,57.0963721 9.52911409,54.9288528 9.52911409,52.1737812 C15.4816476,55.4283388 28.6246878,66.7651271 39.3392482,69.2487316 C39.4374613,69.2714971 39.5492797,69.2959752 39.6743632,69.3220348 Z" id="Combined-Shape" fill="#8D5128"></path>
                <path d="M163.151945,48.3109281 C151.908271,56.6149253 122.310201,68.3128092 103.62661,70.850349 C75.2717571,74.701406 43.7271237,70.2658285 39.3392482,69.2487316 C28.6246878,66.7651271 15.4816476,55.4283388 9.52911409,52.1737812 C9.52911409,54.9288528 8.33860739,57.0963721 9.52911409,62.5460507 C11.570299,66.2190653 26.375064,75.9139389 40.5780074,79.3628333 C59.5101303,83.9601122 81.8405525,83.0120449 86.9595164,82.7132021 C104.263453,81.703006 117.950533,79.2349844 136.960798,73.2229196 C149.527258,69.2487316 161.759143,62.1152394 165.532958,58.9874959 C166.723465,55.329393 165.532958,46.2078254 163.151945,48.3109281 Z" id="belt-copy-2" stroke="#000000" stroke-linecap="round" stroke-linejoin="round"></path>
                <path d="M70.272939,70.2710635 C72.350164,70.2314717 75.4416278,70.014698 77.6190945,70.014698 C77.6190945,70.014698 80,69.5612436 80,73.6916809 C80,77.8221181 80,84.3444572 78.8095472,86.0588045 C77.6190945,87.7731518 73.4525098,86.5670369 71.0716043,86.8361811 C68.6906988,87.1053253 69.2859251,81.1675803 69.2859251,77.7912145 C69.2859251,74.4148488 68.1957142,70.3106551 70.272939,70.2710635 Z" id="Path" stroke="#000000" fill="#AA6535"></path>
                <g id="Group" transform="translate(20.000000, 62.000000)" fill="#FCDE32" fill-rule="nonzero" stroke="#000000">
                    <path d="M5.58523995,0.422986501 C8.5,0.558268261 11.4129736,1.32278176 13.8415451,2.375 C16.2701165,3.42721824 16.5138114,3.21529047 16.5138114,6.9869315 C16.5138114,10.7585725 16.5138114,13.2632401 16.5138114,15.3575456 C16.5138114,17.4518511 16.3406514,18.5987549 12.6977942,18.5987549 C9.05493705,18.5987549 7.52762277,17.384273 5.58523995,17.0046365 C3.64285714,16.625 1.94238281,15.9429264 1.94238281,12.9825456 C1.94238281,10.0221648 1.94238281,6.46941806 1.94238281,4.6119315 C1.94238281,2.75444494 2.67047991,0.287704743 5.58523995,0.422986501 Z M6.68831532,3.5625 C2.53257689,3.11434224 4.18270438,4.36926225 4.18270438,5.71250248 C4.18270438,7.0557427 4.18270438,8.10864913 4.18270438,10.2494466 C4.18270438,12.390244 4.85714286,14.25 6.07142857,14.25 C7.28571429,14.25 8.5,14.9065331 10.9285714,15.3498807 C13.3571429,15.7932281 13.4666349,13.9501787 13.4666349,12.435683 C13.4666349,10.9211873 13.4666349,11.8151529 13.4666349,9.08769306 C13.4666349,6.36023327 13.3885454,5.9375 12.1167904,5.34375 C10.8450353,4.75 10.8440537,4.01065776 6.68831532,3.5625 Z" id="Shape"></path>
                    <path d="M4.85780459,5.34375 C6.67923317,5.34375 8.01381139,5.33755754 8.01381139,6.62440622 C8.01381139,7.91125488 6.79952568,7.91125488 6.79952568,7.91125488 C6.79952568,7.91125488 2.42857143,7.48042178 2.42857143,7.48042178 C2.42857143,7.48042178 -2.5313085e-14,7.14403662 -2.5313085e-14,5.95653662 C-2.5313085e-14,4.76903662 3.03637602,5.34375 4.85780459,5.34375 Z M6.07142857,9.85572815 C7.89285714,9.85572815 8.5,10.4593447 8.5,11.7461933 C8.5,13.033042 7.28571429,13.033042 7.28571429,13.033042 C7.28571429,13.033042 3.72368685,12.4387921 2.00120424,12.3048226 C-0.228801265,12.1313795 -0.228801265,9.85572815 1.21428571,9.66074791 C2.65737269,9.46576768 4.25,9.85572815 6.07142857,9.85572815 Z" id="Shape"></path>
                </g>
                <g id="Group" transform="translate(17.000000, 0.000000)" stroke="#000000">
                    <path d="M1.0794586,12.4376853 C10.833007,12.4376853 15.2483852,6.2419587 20.2505352,0.173143829 C21.2405667,4.99571467 21.2405667,10.1330988 19.8489645,16.5436109 C13.5240167,21.4040731 11.5008161,23.6648729 0.154694406,25.3508506 C0.154694406,19.6712156 1.0794586,17.9226277 1.0794586,12.4376853 Z" id="Path" fill="#1D487A" stroke-linecap="round" stroke-linejoin="round" transform="translate(10.551968, 12.761997) scale(-1, 1) translate(-10.551968, -12.761997) "></path>
                    <path d="M19.216718,14.7023866 C33.4866539,14.8043838 54.8668814,12.2346731 73.4088771,7.06558089 C78.5979447,7.1026708 82.501143,8.57267796 85.1160511,11.1692703 C85.136693,13.7811843 81.7294161,16.785363 78.5873547,19.2933743 C56.4606733,25.4621536 39.9993609,30.3799928 19.3755794,28.4434936 C19.3299964,22.6756556 19.2607385,20.2725085 19.216718,14.7023866 Z" id="Path" fill="#1D487A" stroke-linecap="round" stroke-linejoin="round" transform="translate(52.166431, 17.968374) rotate(5.000000) translate(-52.166431, -17.968374) "></path>
                    <path d="M8.03737332,16.59101 C8.03737332,13.8763212 8.56590184,13.9258322 9.6229589,12.4996981 C10.680016,11.0735641 12.7941301,13.0338718 12.7941301,16.59101 C12.7941301,20.1481481 11.2085444,20.1481481 10.4157517,20.1481481 C9.6229589,20.1481481 8.03737332,19.3056987 8.03737332,16.59101 Z" id="Path" fill="#FCDE32"></path>
                    <path d="M28.126123,20.0346397 C28.1043026,16.5272476 28.8973963,16.5958389 30.4713245,14.7625121 C32.0452529,12.9291853 35.2317924,15.4804051 35.2603844,20.0762463 C35.2889763,24.6720876 32.9108892,24.6582187 31.7218456,24.6512843 C30.532802,24.6443499 28.1479434,23.542032 28.126123,20.0346397 Z" id="Path" fill="#FCDE32" transform="translate(31.693162, 19.408016) scale(-1, 1) rotate(4.000000) translate(-31.693162, -19.408016) "></path>
                </g>
                <path d="M9.51955855,58.8361517 C10.3758504,55.2337613 33.0442925,40.7569273 51.5597905,30.9045969 C70.0752886,21.0522666 93.6792123,12.266306 109.17959,9.06094619 C138,3.10110504 150,9 153.618359,11 C156.000011,11 160.340363,18.7257557 156.988919,18.7690672 C152,15.7037443 138,8 111.836997,14.7037443 C85.6739937,21.4074887 74.41869,26.8988152 55.6161683,36.5923795 C43.1873629,43 14.1357829,60.8915053 9.51955855,65.8824488 C8.4963549,66.9887104 9.25457508,59.950928 9.51955855,58.8361517 Z" id="Path" stroke="#000000" fill="#AA6535"></path>
                <path d="M24.1607682,48.4344389 C24.8937028,52.4673729 25.278793,54.9988952 26.3968178,56.3494191 C27.3033204,57.4444336 28.0691831,56.9688655 28.9582665,56.2963312 C29.5397267,55.8564941 31.8131242,53.4670835 30.6950994,51.116849 C30.501442,50.7097558 28.8760853,53.5515333 28.4584405,53.086948 C27.5615424,52.0892443 26.5205938,47.6168491 26.3968178,45.7147534 C26.3509635,45.010099 27.4999999,44.8229423 28.4584405,43.8261756 C27.7324772,42.3784395 26.3968178,43.0137056 24.8937028,44.3455917 C24.0595094,45.0847572 23.7948712,46.4211099 24.1607682,48.4344389 Z" id="Path" stroke="#000000" fill="#AA6535"></path>
                <g id="Group" transform="translate(0.000000, 50.000000)" stroke="#000000">
                    <path d="M1.46260075,7.97468825 C-0.275452392,6.47710453 0.138412566,4.53402032 2.18365769,3.99660567 C4.22890281,3.45919102 5.91284329,4.91014887 5.25820121,6.64576882 C4.60355914,8.38138879 3.20065389,9.47227198 1.46260075,7.97468825 Z" id="Path" fill="#FCDE32"></path>
                    <path d="M3.76071525,7.407069 C3.76071525,12.1273747 3.76071525,16.5263615 3.76071525,17.3209539 C3.76071525,18.1155464 4.38338681,19.7188196 6.25140147,19.7188196 C8.11941614,19.7188196 9.9874308,21.0019492 9.9874308,18.0861548 C9.9874308,15.1703604 9.9874308,6.15977745 9.9874308,4.17542119 C9.9874308,1.899428 10.2483898,0.632296541 8.39218327,0.267250073 C6.98381361,-0.00972362291 7.46524629,4.23783684e-05 5.82257583,4.23783684e-05 C3.47754641,4.23783684e-05 3.76071525,2.68676327 3.76071525,7.407069 Z" id="Path" fill="#88491E"></path>
                    <path d="M10,5.37842455 L3.75,5.20981074" id="Path"></path>
                </g>
                <path d="M62.7888297,22.3659868 C63.940226,21.9579907 65.0916223,21.1970957 67.3944149,24.6774908 C69.6972074,28.1578859 72,29.300499 72,30.456251 C72,31.6120031 66.2430186,34.4928675 65.0916223,35.3639393 C63.940226,36.2350112 61.6374334,36.5809307 60.4860371,33.9235072 C60.086228,33.4727597 60.4860371,33.9235072 62.7888297,32.7677551 C63.2884025,33.9235072 63.2884025,34.2334432 64.4397988,33.9235072 C66.2430186,32.7677551 69.5442032,31.45842 68.5458111,30.456251 C67.3944149,29.300499 66.2430186,28.144747 66.2430186,28.144747 C66.2430186,28.144747 65.0916223,29.300499 63.940226,29.300499 C62.7888297,29.300499 63.940226,27.568563 65.0916223,26.7009029 C64.9999999,25.8332429 64.4397988,25.8332429 63.940226,24.6643518 C63.6071775,23.8850911 61.6881836,24.6599721 58.1832446,26.9889949 C57.0318483,25.5001602 61.6374334,22.7739827 62.7888297,22.3659868 Z" id="Path" stroke="#000000" fill="#FCDE32" stroke-linejoin="round"></path>
            </g>
            <g id="hand-copy" transform="translate(133.137763, 176.747089) scale(-1, 1) rotate(51.000000) translate(-133.137763, -176.747089) translate(113.137763, 153.247089)" stroke="#000000">
                <path d="M33.9307888,25.9213903 C36.7878599,27.7834587 40.4729478,28.84181 37.3479968,34.8235216 C34.2230459,40.8052333 28.9034903,46.3099672 24.0106533,44.7254035 C19.1178163,43.1408398 16.0991333,43.6481861 13.4483492,36.7426575 C10.7975651,29.8371288 31.0737177,24.059322 33.9307888,25.9213903 Z" id="Path-2" fill="#DC3D4F"></path>
                <path d="M26.2475726,24.6134157 C24.4464042,28.6705063 19.5754479,33.6179559 17.7745561,38.4002666 C15.9736644,43.1825774 23.5067778,47.0226621 28.012069,43.0951493 C32.5173602,39.1676363 34.1392171,30.7019348 35.0398258,28.7376616" id="Path" fill="#F3D4B7" stroke-linecap="round" stroke-linejoin="round" transform="translate(26.270732, 34.666101) scale(-1, 1) rotate(10.000000) translate(-26.270732, -34.666101) "></path>
                <path d="M22.0155639,4.21190954 C18.5751663,7.80392203 15.1550406,11.8566562 13.2820767,14.0583985 C5.32684579,23.4100836 6.34935627,29.3381737 4.76101161,31.4444433 C11.1359979,25.0990168 29.5058886,31.7030545 27.8684922,40.1267286 C27.183391,43.6512686 32.7480427,33.2241902 32.7480059,33.1275122 C32.7479813,33.0630603 34.8485461,28.3284143 36.3314578,20.6994953" id="Path" fill="#F34D4D" stroke-linecap="round" stroke-linejoin="round" transform="translate(20.546235, 22.532925) scale(-1, 1) rotate(10.000000) translate(-20.546235, -22.532925) "></path>
                <path d="M3.82766301,3.27811166 C9.04162641,2.91351582 5.62643969,2.86949618 11.0429514,4.30193305 C19.6943576,6.58986191 18.0983188,17.2819704 10.6325492,17.8040279 C6.39299433,18.1004865 2.60164159,18.2804165 2.80669918,17.3488228 C3.76138023,13.0116272 4.13532307,7.6778556 3.82766301,3.27811166 Z" id="Path" fill="#1D487A" stroke-linecap="round" stroke-linejoin="round" transform="translate(9.851863, 10.552786) scale(-1, 1) rotate(-65.000000) translate(-9.851863, -10.552786) "></path>
                <path d="M2.87318393,5.73451726 C2.87180847,3.10722827 4.89181615,2.34002498 6.91311496,4.03886088 C8.93441376,5.73769676 8.93574641,8.28318756 6.9155481,8.68642555 C4.8953498,9.08966352 2.8745594,8.36180625 2.87318393,5.73451726 Z" id="Path" fill="#E8DB54" transform="translate(5.651538, 5.962443) rotate(14.000000) translate(-5.651538, -5.962443) "></path>
            </g>
            <g id="ear" stroke-linecap="round" stroke-linejoin="round" transform="translate(125.000000, 58.000000)" stroke="#000000">
                <path d="M5.43242855,4.31916076 C2.97559715,9.39389385 3.35489727,12.155321 3.32141569,15.4503679 C3.28793411,18.7454149 7.99810653,21.5082276 12.0458696,17.6714377 C16.0936328,13.8346478 15.5298226,4.94264047 16.3509459,3.03633778" id="Path" fill="#4AAED9" transform="translate(9.834450, 11.285726) rotate(-149.000000) translate(-9.834450, -11.285726) "></path>
                <path d="M12,13 C8.8,14.4285714 6.13333334,16.0952381 4,18" id="Path"></path>
            </g>
        </g>
    </g>
</svg>