<?xml version="1.0" encoding="UTF-8"?>
<svg width="290px" height="290px" viewBox="0 0 290 290" version="1.1" xmlns="http://www.w3.org/2000/svg" xmlns:xlink="http://www.w3.org/1999/xlink">
    <!-- Generator: Sketch 54.1 (76490) - https://sketchapp.com -->
    <title>Artboard</title>
    <desc>Created with Sketch.</desc>
    <g id="Artboard" stroke="none" stroke-width="1" fill="none" fill-rule="evenodd">
        <g id="Mountie-Gopher3:4-wit-balloons-Copy-3" transform="translate(142.447764, 167.208259) rotate(-26.000000) translate(-142.447764, -167.208259) translate(12.447764, 48.208259)">
            <g id="sleeve" transform="translate(121.376519, 76.017991) rotate(29.000000) translate(-121.376519, -76.017991) translate(97.602769, 2.658991)">
                <path d="M7.40199363,2.2734784 C4.67686923,7.92218716 4.67614857,10.2646692 4.67501495,13.9494141 C4.67388134,17.634159 7.27353769,21.3782188 11.8138218,17.1313299 C16.354106,12.884441 16.4792965,4.39342429 17.3877452,2.27039967" id="Path" stroke="#000000" stroke-width="1.3585" fill="#03C0AF" stroke-linecap="round" stroke-linejoin="round" transform="translate(11.031380, 10.643985) scale(-1, 1) rotate(222.000000) translate(-11.031380, -10.643985) "></path>
                <path d="M21.1195702,121.714641 C19.0033777,126.097676 12.6514804,132.46235 10.5356713,137.628923 C8.41986214,142.795495 12.6581635,146.120349 17.9519306,141.877752 C23.2456977,137.635155 28.7916031,130.208787 29.8497333,128.08671" id="Path" stroke="#000000" stroke-width="1.3585" fill="#F3D4B7" stroke-linecap="round" stroke-linejoin="round" transform="translate(19.914793, 132.764106) rotate(13.000000) translate(-19.914793, -132.764106) "></path>
                <path d="M32.8530068,100.310695 C30.737278,105.641463 25.5620916,111.713639 21.3285397,118.095054 C18.5061717,122.349331 15.6834751,125.931901 12.8604498,128.842764 C20.6319462,137.548508 25.22405,142.398352 26.6367611,143.392294 C28.7558279,144.883207 37.2233835,133.04365 37.2233414,132.957743 C37.2233134,132.900472 38.9873031,130.261345 42.5153104,125.040362" id="Path" fill="#EAC909" transform="translate(27.687880, 121.916412) rotate(13.000000) translate(-27.687880, -121.916412) "></path>
                <path d="M32.8530068,100.310695 C30.737278,105.641463 25.5620916,111.713639 21.3285397,118.095054 C18.5061717,122.349331 15.6834751,125.931901 12.8604498,128.842764 C20.6319462,137.548508 25.22405,142.398352 26.6367611,143.392294 C28.7558279,144.883207 37.2233835,133.04365 37.2233414,132.957743 C37.2233134,132.900472 38.9873031,130.261345 42.5153104,125.040362" id="Path" stroke="#000000" stroke-width="1.3585" stroke-linecap="round" stroke-linejoin="round" transform="translate(27.687880, 121.916412) rotate(13.000000) translate(-27.687880, -121.916412) "></path>
            </g>
            <path d="M187.677732,195.866445 C185.108365,200.898097 182.02437,203.6297 182.022761,206.911597 C182.021152,210.193495 189.120076,216.839998 193.400098,213.056568 C197.680119,209.273139 196.233139,197.752926 197.089699,195.861839" id="Path" fill="#03C0AF" transform="translate(189.556230, 205.024926) rotate(-77.000000) translate(-189.556230, -205.024926) "></path>
            <path d="M72.9987453,163.06673 C70.9525127,167.987536 70.9528305,170.028595 70.9533303,173.239202 C70.9538301,176.449808 72.9092024,179.713099 76.320291,176.014433 C79.7313796,172.315766 80.8223992,161.1897 81.5044442,159.340207" id="Path" stroke="#000000" stroke-width="1.3585" fill="#DDBB9C" stroke-linecap="round" stroke-linejoin="round" transform="translate(76.228880, 168.498370) rotate(86.000000) translate(-76.228880, -168.498370) "></path>
            <path d="M129.402529,32.8678103 C121.962768,40.7334612 117.953259,50.0491224 115.936027,61.1289395 C113.168885,76.3277024 108.686179,104.142148 115.268543,117.423193 C116.611871,120.133587 118.165289,125.931575 115.599875,127.514161 C111.813218,129.850124 82.8292179,138.118621 78.4782297,149.986264 C73.1105767,164.626936 94.6702304,185.520005 99.5397481,190.108943 C108.356468,198.417649 124.519045,208.229622 151.943286,213.199308 C194.576685,222.655524 218.768542,162.069366 224.928396,143.670252 C239.177256,129.579024 241.280416,127.882414 250.31691,113.125227 C259.353403,98.36804 265.305586,67.961401 251.502932,52.0097689 C237.700278,36.0581367 216.506088,19.0430624 192.045345,15.852736 C167.5846,12.6624096 148.513896,12.6624096 129.402529,32.8678103 Z" id="Path" fill="#0BD5C3"></path>
            <path d="M114.162075,68.6663467 C116.598452,71.4559029 118.249454,66.3082051 120.327685,67.4264374 C121.447751,68.0291113 125.388413,72.7816483 127.568815,78.5419224 C128.612221,81.2984349 127.27546,87.2082102 125.668389,89.3794479 C124.889634,90.4315863 122.380799,93.5069312 120.739177,94.7332244 C117.352716,97.2629139 115.300512,100.94756 116.231392,102.883944 C116.231392,104.863518 119.064535,106.773942 123.375474,109.626286 C132.216675,115.476088 150.897506,124.456429 172.49385,128.695165 C194.090194,132.933902 224.687055,133.059278 238.569018,114.335529 C252.45098,95.6117812 253.600642,82.9697116 250.430582,74.8827162 C249.09525,71.4762112 247.424333,64.1598313 242.981944,58.5426461 C236.878164,50.8247137 227.445753,44.7321092 223.776299,42.0026305 C221.116515,40.0241835 228.873538,35.0164543 222.243763,31.0221502 C213.07016,25.4952416 196.581888,16.6505126 183.009135,14.7429865 C162.320936,11.8354497 136.519394,28.2016013 123.628197,39.140008 C123.591465,39.1711762 123.541465,39.1728368 123.49828,39.1891436 C125.068939,36.7401406 126.664421,35.9205512 128.740152,33.7072606 C147.76051,13.4264186 166.740398,13.4264186 191.084659,16.6286568 C215.428918,19.830895 236.734127,35.4014151 250.471052,51.4126062 C264.207977,67.4237972 258.36929,100.639882 247.802425,115.583661 C237.235559,130.527439 230.708924,137.534357 224.363045,143.597929 C213.901849,163.472291 204.210724,192.05841 201.040665,193.89863 C199.317974,194.898653 185.554535,209.935828 165.378478,213.072952 C156.29755,214.484923 145.928065,211.742178 136.609215,209.016839 C128.532443,206.65475 121.12147,204.540231 117.537407,202.277454 C100.630422,191.603326 97.3909383,193.87449 83.6664108,169.184854 C82.0333296,166.247035 116.222351,119.790779 114.88542,117.070265 C109.372819,105.8527 111.6581,84.3055861 114.162075,68.6663467 Z M144.761928,95.2500432 C141.137448,87.9476773 158.001435,33.1496972 182.305226,44.2090403 C206.609016,55.2683833 202.505958,73.6120493 202.505958,78.7296251 C202.505958,83.847201 198.292235,97.9780542 189.56576,103.315118 C180.839285,108.652182 167.575016,109.44595 163.513543,107.978255 C159.45207,106.510559 148.386409,102.552409 144.761928,95.2500432 Z" id="Shape" fill="#03C0AF" fill-rule="nonzero"></path>
            <path d="M129.402529,32.8678103 C121.962768,40.7334612 117.953259,50.0491224 115.936027,61.1289395 C113.168885,76.3277024 108.686179,104.142148 115.268543,117.423193 C116.611871,120.133587 118.165289,125.931575 115.599875,127.514161 C111.813218,129.850124 82.8292179,138.118621 78.4782297,149.986264 C73.1105767,164.626936 94.6702304,185.520005 99.5397481,190.108943 C108.356468,198.417649 124.519045,208.229622 151.943286,213.199308 C194.576685,222.655524 218.768542,162.069366 224.928396,143.670252 C239.177256,129.579024 241.280416,127.882414 250.31691,113.125227 C259.353403,98.36804 265.305586,67.961401 251.502932,52.0097689 C237.700278,36.0581367 216.506088,19.0430624 192.045345,15.852736 C167.5846,12.6624096 148.513896,12.6624096 129.402529,32.8678103 Z" id="Path-Copy-3" stroke="#000000" stroke-width="1.3585"></path>
            <g id="eye" transform="translate(96.451211, 31.584251)">
                <path d="M33.840605,0.0732383615 C33.1921093,0.732471362 32.5437914,1.41579381 31.8954252,2.1239384 C20.9588193,14.0688838 17.6810347,29.3583425 17.1856683,49.092854 C10.1742641,45.685453 3.96785587,39.8304261 3.96785587,30.3142438 C3.96785587,12.2872309 13.4865681,0.0655271673 33.0499737,0.0655271673 C33.3149666,0.0655271673 33.5785168,0.0681059182 33.840605,0.0732383615 Z" id="Path" stroke="#000000" stroke-width="1.3585" fill="#FFFFFF"></path>
                <path d="M33.840605,0.0732383615 C33.1921093,0.732471362 32.5437914,1.41579381 31.8954252,2.1239384 C29.9162133,4.28563089 28.1878324,6.55685825 26.6813807,8.94414329 C23.2018173,3.76065168 17.0151223,3.62608276 15.1156603,4.97629797 C19.6719729,1.81864627 25.6405523,0.0655271673 33.0499737,0.0655271673 C33.3149666,0.0655271673 33.5785168,0.0681059182 33.840605,0.0732383615 Z" id="Path-Copy-4" fill="#F0F0F0"></path>
                <path d="M33.840605,0.0732383615 C33.1921093,0.732471362 32.5437914,1.41579381 31.8954252,2.1239384 C20.9588193,14.0688838 17.6810347,29.3583425 17.1856683,49.092854 C10.1742641,45.685453 3.96785587,39.8304261 3.96785587,30.3142438 C3.96785587,12.2872309 13.4865681,0.0655271673 33.0499737,0.0655271673 C33.3149666,0.0655271673 33.5785168,0.0681059182 33.840605,0.0732383615 Z" id="Path-Copy-5" stroke="#000000" stroke-width="1.3585"></path>
                <path d="M0.94517115,40.3117103 C0.94517115,44.5648631 4.99709547,45.6281514 6.6178652,45.6281514 C8.23863494,45.6281514 11.4801744,44.5648631 12.2905592,40.3117103 C13.1009441,36.0585574 10.6697895,32.8686927 6.6178652,32.8686927 C2.56594088,32.8686927 0.94517115,36.0585574 0.94517115,40.3117103 Z" id="Path" stroke="#000000" stroke-width="1.3585" fill="#000000"></path>
                <path d="M2.39638372,39.5399195 C2.39638372,41.3120666 3.91395497,41.7551033 4.52098346,41.7551033 C5.12801196,41.7551033 6.34206896,41.3120666 6.64558321,39.5399195 C6.94909745,37.7677725 6.03855471,36.4386622 4.52098346,36.4386622 C3.00341221,36.4386622 2.39638372,37.7677725 2.39638372,39.5399195 Z" id="Path" fill="#FFFFFF"></path>
            </g>
            <g id="eye" transform="translate(132.273183, 40.022694)">
                <path d="M0,37.4997704 C0,59.5307323 25.7204336,65.5052305 34.7573523,65.5052305 C43.794271,65.5052305 60.6515762,61.7711692 65.1700355,39.7402071 C69.6884948,17.7092451 56.1770338,0.53256285 33.5847372,0.53256285 C10.9924404,0.53256285 6.99122783e-16,15.4688083 0,37.4997704 Z" id="Path" stroke="#000000" stroke-width="1.3585" fill="#FFFFFF"></path>
                <path d="M51.0139743,4.79306565 C62.567101,11.1180853 68.3373922,24.2559231 65.1837493,39.8267717 C60.7366983,61.7837147 44.1458004,65.5052305 35.2516983,65.5052305 C28.958851,65.5052305 14.4462375,62.5244498 6.49552066,53.0039631 C13.9684891,57.2989927 22.6007773,58.8065021 27.0759749,58.8065021 C35.970077,58.8065021 52.5609748,55.0849864 57.0080258,33.1280433 C59.2916109,21.8530329 56.8960596,11.8537367 51.0139743,4.79306565 Z" id="Path" fill="#F0F0F0"></path>
                <path d="M0,37.4997704 C0,59.5307323 25.7204336,65.5052305 34.7573523,65.5052305 C43.794271,65.5052305 60.6515762,61.7711692 65.1700355,39.7402071 C69.6884948,17.7092451 56.1770338,0.53256285 33.5847372,0.53256285 C10.9924404,0.53256285 6.99122783e-16,15.4688083 0,37.4997704 Z" id="Path" stroke="#000000" stroke-width="1.3585"></path>
                <path d="M6.60144295,38.3541312 C6.57069385,43.057426 12.3729084,44.1948132 14.6968692,44.1794387 C17.02083,44.1640641 21.6764388,42.9574913 22.8691682,38.2465091 C24.0618978,33.535527 20.5990185,30.0311177 14.7891166,30.0695542 C8.97921479,30.1079907 6.63219215,33.6508364 6.60144295,38.3541312 Z" id="Path" fill="#000000" transform="translate(14.852382, 37.124416) rotate(66.000000) translate(-14.852382, -37.124416) "></path>
                <path d="M10.3220265,40.7668133 C9.31456257,39.8340803 9.10254361,38.5563173 10.4614911,37.1107841 C11.8204386,35.665251 13.3914052,35.4974808 14.1270797,36.7193205 C14.8627541,37.9411601 14.0274621,39.33077 13.483883,39.9089833 C12.940304,40.4871964 11.3294905,41.6995464 10.3220265,40.7668133 Z" id="Path" fill="#FFFFFF" transform="translate(11.960297, 38.505998) rotate(-58.000000) translate(-11.960297, -38.505998) "></path>
            </g>
            <path d="M89.8523564,163.536462 C85.3457042,164.082898 79.9239915,162.980692 77.093872,162.275391 C78.5854521,159.46386 81.012117,157.150636 83.180037,153.957794 C85.4159058,150.664879 86.9733715,148.439932 88.3444246,144.042585 C91.8110987,132.924002 100.911101,113.870455 111.780476,92.4903821 C113.003162,99.468139 111.952982,106.311881 112.493892,107.413169 C112.914139,108.268789 112.200118,113.686755 119.945635,119.32556 C121.861758,119.578222 124.288665,120.856455 127.90291,122.33863 C134.917591,125.215299 162.254564,133.558733 167.561432,135.601626 C186.522968,142.90092 219.172168,145.424716 224.901281,143.669232 C222.524687,146.28624 221.420962,158.007765 221.017748,159.241249 C217.364319,170.417559 206.090012,194.953384 186.416708,204.905719 C179.859765,208.222747 165.083404,215.32885 133.450527,204.967407 C121.282546,200.981749 94.2016326,186.550359 79.2833288,169.452802 C84.1056371,167.367322 86.6486972,165.509449 89.8523564,163.536462 Z" id="Combined-Shape" stroke="#000000" stroke-width="1.3585" fill="#FCDE32" stroke-linecap="round" stroke-linejoin="round"></path>
            <path d="M208.164088,167.277718 C205.019729,168.580254 200.19168,177.387989 197.635757,178.386606 C190.7512,181.076446 170.949402,189.979941 162.941662,192.379217 C155.960621,194.470874 118.936283,192.730712 103.226291,190.777765 C103.355128,194.164812 103.581948,197.238726 103.906753,199.999506 C104.765247,200.973672 98.6937695,201.892765 95.4431314,206.218144 C101.683288,208.455 110.723681,210.488913 112.323281,210.772735 C114.258821,211.116163 123.310225,213.474366 127.221922,212.865549 C131.075894,213.361736 139.352476,208.41144 140.181332,208.403266 C144.996944,208.355773 148.72195,207.758333 156.068104,207.764977 C163.414258,207.771622 176.839388,208.279453 187.345839,205.048466 C197.85229,201.817479 207.905744,189.915846 211.682245,182.172872 C212.054351,181.409941 214.110122,174.814892 215.907062,171.054219 C217.704003,167.293546 217.66876,161.118738 218.196136,158.991441 C219.202261,154.932991 218.408144,146.568294 218.006163,139.728991 C217.809874,136.389319 223.192421,143.500537 226.244947,144.945427 C230.059582,146.751055 231.765223,143.45316 232.004685,142.96219 C233.892935,139.090702 229.256668,96.034468 220.458594,95.3968596 C219.183909,95.3044815 220.010278,98.7725377 218.122027,102.644025 C217.882089,103.135972 212.147498,118.846068 210.120709,121.505652 C208.466584,123.676222 202.951371,128.835881 193.384798,133.71091 C183.702937,138.644688 169.975048,143.283046 169.401722,143.5796 C167.354213,144.638677 175.200444,152.506233 184.840178,146.31699 C192.03985,143.837944 210.726228,147.623393 209.509036,157.150684 C209.312771,158.6869 209.27608,164.114937 208.164088,167.277718 Z" id="body-shadow" fill="#EAC909" transform="translate(163.932565, 154.180262) rotate(27.000000) translate(-163.932565, -154.180262) "></path>
            <path d="M89.8523564,163.536462 C85.3457042,164.082898 79.9239915,162.980692 77.093872,162.275391 C78.5854521,159.46386 81.012117,157.150636 83.180037,153.957794 C85.4159058,150.664879 86.9733715,148.439932 88.3444246,144.042585 C91.8110987,132.924002 100.911101,113.870455 111.780476,92.4903821 C113.003162,99.468139 111.952982,106.311881 112.493892,107.413169 C112.914139,108.268789 112.200118,113.686755 119.945635,119.32556 C121.861758,119.578222 124.288665,120.856455 127.90291,122.33863 C134.917591,125.215299 162.254564,133.558733 167.561432,135.601626 C183.357899,141.682519 206.277107,143.950033 217.59425,143.689229 C218.172766,143.675898 221.671056,144.532007 223.403334,143.184703 C228.460941,139.251078 240.424318,127.574842 241.136645,127.356574 C241.159378,126.915464 243.364276,129.410445 242.978337,132.705235 C241.908121,141.841748 236.408916,162.370393 231.73505,171.725595 C228.726258,177.747985 226.390204,175.416795 224.610852,174.926504 C222.831501,174.436212 220.076699,161.988409 219.453819,163.584501 C214.66022,175.867805 203.827637,196.097875 186.416708,204.905719 C179.859765,208.222747 165.083404,215.32885 133.450527,204.967407 C121.282546,200.981749 94.2016326,186.550359 79.2833288,169.452802 C84.1056371,167.367322 86.6486972,165.509449 89.8523564,163.536462 Z" id="Combined-Shape-Copy" stroke="#000000" stroke-width="1.3585" stroke-linecap="round" stroke-linejoin="round"></path>
            <path d="M110.280041,193.765154 C106.452533,197.145622 105.689879,198.875303 105.687522,202.644229 C105.685165,206.413154 109.670854,210.257118 113.345975,205.912344 C117.021097,201.567571 119.963299,197.614856 117.54433,193.850912 C115.931684,191.341615 113.510254,191.313029 110.280041,193.765154 Z" id="foot" stroke="#000000" stroke-width="1.3585" fill="#DDBB9C" stroke-linecap="round" stroke-linejoin="round" transform="translate(112.056655, 199.893061) rotate(-73.000000) translate(-112.056655, -199.893061) "></path>
            <g id="laptop-bottom" transform="translate(17.723855, 109.636221)" fill="#E2E2E2" fill-rule="nonzero" stroke="#000000" stroke-width="1.3585">
                <path d="M105.771366,30.4709451 C107.963458,31.9374499 117.542494,39.5562684 119.301653,43.9463799 C119.706738,44.9573007 119.486353,46.9343778 114.146014,47.455457 C114.010011,47.4687275 90.9348863,50.0060613 44.9206417,55.0674584 C37.5010178,55.4071856 32.6692584,53.3376401 28.2463296,51.5859251 C23.8234576,49.8343275 3.52200358,39.0805137 1.13266347,37.2041127 C0.53533686,36.7349987 -1.65096022,34.1754681 4.49973787,34.2017209 C6.12625581,34.2086632 88.8008265,27.9965262 90.0699826,27.9858647 C95.7033676,26.4085132 100.937162,27.2368733 105.771366,30.4709451 Z" transform="translate(59.849698, 41.157302) scale(-1, 1) rotate(-28.000000) translate(-59.849698, -41.157302) "></path>
                <path d="M80.4936006,33.2724196 C81.9659296,34.1632632 90.718413,36.6493938 91.8854192,39.2961507 C92.1541484,39.9056253 89.2341613,42.1227307 88.3911233,41.3843324 C87.587319,40.680298 70.4659556,42.441723 37.0270329,46.6686073 C32.0196084,46.841866 29.8370493,46.6446055 26.8609055,45.5729708 C23.8847994,44.5014069 14.0742485,40.4372558 12.4706947,39.2991519 C12.069812,39.0146176 10.606339,37.4666527 14.7559859,37.5081272 C15.8533369,37.5190949 69.0550792,31.7138728 69.9114043,31.7127641 C73.7192859,30.7879639 77.2466847,31.3078491 80.4936006,33.2724196 Z" id="laptop-bottom-copy" transform="translate(51.897557, 38.996435) scale(-1, 1) rotate(-28.000000) translate(-51.897557, -38.996435) "></path>
                <path d="M83.4905909,40.4925458 C83.9301065,40.918946 85.2392562,41.4121469 85.6124128,42.7168213 C85.6983404,43.0172516 85.6676704,43.6107558 84.6229767,43.7982019 C84.5963712,43.8029757 80.5229315,44.3437505 72.4026577,45.4205265 C70.9487629,45.5658621 71.4969133,45.3566686 69.1082732,44.4756004 C66.7196331,43.5945322 65.0005287,42.6193023 64.5196964,42.071281 C64.3994899,41.9342715 63.9541571,41.1804344 65.1613615,41.1521759 C65.4805999,41.1447031 80.1444814,39.8510285 80.3934777,39.8403814 C81.4889595,39.3348205 82.5213305,39.5522086 83.4905909,40.4925458 Z" id="laptop-bottom-copy-2" transform="translate(74.991373, 42.519011) scale(-1, 1) rotate(-28.000000) translate(-74.991373, -42.519011) "></path>
            </g>
            <g id="sleeve" transform="translate(142.913254, 162.617760) scale(-1, 1) rotate(-22.000000) translate(-142.913254, -162.617760) translate(117.101754, 138.164760)">
                <path d="M40.3290107,23.2499165 C38.7295241,26.8535026 31.4298649,34.2762315 29.8308957,38.5240932 C28.2319266,42.7719551 31.8193388,46.4976255 35.8224895,43.0101697 C39.8256404,39.5227137 46.1348579,30.2359384 46.9346471,28.4912437" id="Path" stroke="#000000" stroke-width="1.3585" fill="#F3D4B7" stroke-linecap="round" stroke-linejoin="round" transform="translate(38.188085, 33.820003) scale(-1, 1) rotate(23.000000) translate(-38.188085, -33.820003) "></path>
                <path d="M12.5440637,22.7764875 C9.90610397,27.0676829 8.23553939,30.2258236 6.82409356,32.0975157 C14.5942987,40.8028201 16.0337677,44.8785187 17.4463075,45.8723539 C18.4515758,46.5796409 21.5956624,44.4601165 24.6227527,42.0277523 C27.9758776,39.3334087 31.1854468,36.2552071 31.1854296,36.2100566 C31.1854118,36.1635459 32.3488336,34.4141859 34.6756951,30.9619765 C35.2141615,30.1630898 39.0084943,27.5055353 41.2837752,27.1690368" id="Path" stroke="#000000" stroke-width="1.3585" fill="#FCDE32" stroke-linecap="round" stroke-linejoin="round" transform="translate(24.053934, 34.393477) scale(-1, 1) rotate(10.000000) translate(-24.053934, -34.393477) "></path>
                <path d="M7.29915234,23.387398 C11.6809583,25.8755669 14.6146541,29.031135 16.8667861,31.421453 C19.1189181,33.811771 22.2400285,35.8218481 25.4171754,38.4187261 C28.5943223,41.0156041 30.7124202,41.64942 36.0076651,36.2466476 C36.1458063,36.1057012 36.2767399,35.9875875 36.4006164,35.8911002 C33.9878598,41.3270853 33.6813543,43.5171411 32.7740164,44.4285887 C31.5216848,45.6865928 27.3519977,43.6892504 23.5592844,41.840325 C23.3011188,41.7144708 11.9114158,41.9644273 11.6902571,41.8361084 C6.44205586,38.791039 7.07418454,38.4969592 2.69265983,33.9673868 C1.49203777,31.4919456 0.813776507,29.5109189 0.657876049,28.0243067 C0.159403583,23.2710478 4.80768764,21.7300704 7.29915234,23.387398 Z" id="Path" fill="#EAC909"></path>
                <path d="M22.2481022,3.50234504 C19.6703144,7.92679197 6.54927042,30.373353 5.13782459,32.2450451 C12.9080298,40.9503496 14.3474987,45.0260482 15.7600385,46.0198833 C16.7653068,46.7271703 19.9093934,44.6076459 22.9364837,42.1752817 C26.2896087,39.4809382 28.3357566,38.1534567 29.4991606,36.357586 C30.6625647,34.5617153 37.3222254,27.6530647 39.5975062,27.3165662" id="Path-Copy" stroke="#000000" stroke-width="1.3585" stroke-linecap="round" stroke-linejoin="round" transform="translate(22.367665, 24.830170) scale(-1, 1) rotate(10.000000) translate(-22.367665, -24.830170) "></path>
            </g>
            <g id="ear" stroke-linecap="round" stroke-linejoin="round" transform="translate(226.295837, 22.133564)" stroke="#000000" stroke-width="1.3585">
                <path d="M7.29960242,4.85829879 C4.00754228,11.710706 4.52964499,15.4461661 4.4973892,19.9015688 C4.46513341,24.3569717 10.8254086,28.1112323 16.2669387,22.9389791 C21.7084689,17.7667259 20.913679,5.74082781 22.0131344,3.16634937" id="Path" fill="#0BD5C3" transform="translate(13.248918, 14.304474) rotate(-149.000000) translate(-13.248918, -14.304474) "></path>
                <path d="M17.1341302,15.1228832 C12.8505976,17.2299449 9.28098718,19.6881835 6.42529881,22.4975992" id="Path"></path>
            </g>
            <g id="nose" transform="translate(99.002217, 58.987569)" stroke="#000000" stroke-width="1.3585">
                <path d="M5.79356425,26.1227597 C5.79356425,30.4874267 6.17817193,31.5605802 5.14847661,35.9137637 C4.11878129,40.2669472 6.82325957,44.6237895 9.91234553,40.270606 C13.0014315,35.9174225 13.0014315,29.3876473 13.0014315,26.1227597 C13.0014315,22.8578721 5.79356425,21.7580928 5.79356425,26.1227597 Z" id="Path" fill="#FFFFFF"></path>
                <path d="M10.0076394,27.9736676 C10.0076394,32.3383344 11.0373347,33.4151469 10.0076394,37.7683304 C8.97794411,42.1215139 11.0373347,46.4746974 14.1264207,42.1215139 C17.2155067,37.7683304 17.2155067,31.2385552 17.2155067,27.9736676 C17.2155067,24.70878 10.0076394,23.6090006 10.0076394,27.9736676 Z" id="Path" fill="#FFFFFF"></path>
                <path d="M2.2112755,19.2801837 C1.79744715,23.7343082 2.85767773,31.2782408 12.1862088,31.0661924 C21.5147399,30.854144 23.9591875,29.4116082 24.6846685,23.8146926 C25.4101494,18.2177769 23.5599821,9.05905084 13.72605,10.4411199 C3.8921178,11.8231889 2.62510386,14.8260593 2.2112755,19.2801837 Z" id="Path" fill="#F3D4B7" transform="translate(13.481338, 20.685760) rotate(8.000000) translate(-13.481338, -20.685760) "></path>
                <path d="M6.16991949,7.87817576 C6.19684032,11.5020451 11.3577224,12.4483938 13.4193831,12.4645463 C15.4810439,12.4806988 19.5976351,11.6070364 20.6015446,7.99124326 C21.6054542,4.37545008 18.4927725,1.63331928 13.3386206,1.59293803 C8.18446876,1.55255678 6.14299865,4.25430635 6.16991949,7.87817576 Z" id="Path" fill="#9B8E7D" transform="translate(13.479383, 7.028628) rotate(8.000000) translate(-13.479383, -7.028628) "></path>
            </g>
            <path d="M49.4126685,100.008223 C57.1996535,100.886591 70.5791701,102.823289 89.5512183,105.818314 C93.6937967,106.519474 93.0268036,107.991549 94.4956917,112.796471 C96.5365791,119.472475 98.3533603,125.495429 102.710633,137.303259 C105.631518,145.218602 108.337454,151.943951 104.79961,151.887268 C101.261707,151.830584 30.6183273,140.769482 27.1108265,139.130736 C24.9026027,138.099018 21.9522319,134.323255 18.828743,126.939368 C16.9910656,122.595124 14.9089876,116.830205 12.5974938,111.182452 C6.35740414,95.935227 7.58094212,95.7589787 10.3067165,95.5765932 C13.0325502,95.3941842 37.732249,98.6907196 49.4126685,100.008223 Z" id="laptop" stroke="#000000" stroke-width="1.3585" fill="#E2E2E2" stroke-linecap="round" stroke-linejoin="round" transform="translate(57.278840, 123.728471) rotate(25.000000) translate(-57.278840, -123.728471) "></path>
            <path d="M83.3972194,137.191794 C88.0641724,139.673256 89.1031959,133.866404 89.1031959,129.627593 C89.1031959,125.388782 88.0359114,122.589639 84.0495084,120.470031 C80.0631055,118.350423 78.2710885,122.407449 78.2710885,126.64626 C78.2710885,130.885071 78.7302664,134.710331 83.3972194,137.191794 Z" id="Oval" stroke="#000000" stroke-width="1.3585" fill="#F34D4D"></path>
            <path d="M34.368129,106.409593 C37.1332674,105.564206 43.4516881,108.923769 41.0519996,113.436927 C38.6523112,117.950085 39.9776365,119.812592 39.4976988,120.715223 C39.0177611,121.617855 36.9232009,122.819795 33.4000795,122.104337 C29.8769581,121.388879 24.461169,118.509253 24.5184128,116.224052 C24.5756567,113.938852 25.0752956,115.176708 29.0018057,112.147098 C32.9283159,109.117488 31.6029905,107.254981 34.368129,106.409593 Z" id="Path-4" stroke="#000000" stroke-width="1.3585" fill="#FCDE32" transform="translate(33.051582, 114.300402) rotate(84.000000) translate(-33.051582, -114.300402) "></path>
            <path d="M42.5137518,130.447638 C43.868164,128.379336 46.8150589,127.566004 49.0507691,127.965435 C50.0221851,128.138987 49.3378643,126.114214 51.0180462,124.961237 C52.7921128,123.743834 56.8988088,126.231703 57.1614712,126.380751 C57.6872161,126.679087 55.8053358,129.859486 54.8034282,131.389483 C53.4904365,133.394532 51.0892386,137.061363 50.228319,138.37606 C47.5379684,142.484451 45.8102738,144.934794 44.5612146,144.214603 C43.0094736,143.319889 41.3976629,142.999058 40.5827619,142.400087 C39.4794564,141.589133 38.9511557,139.879982 39.7134226,138.94738 C40.4111455,138.093744 42.0565594,136.777013 44.0018018,137.178926 C41.2167056,135.243939 41.2342549,132.401537 42.5137518,130.447638 Z" id="Path-4-Copy" stroke="#000000" stroke-width="1.3585" fill="#50E3C2" stroke-linecap="round" stroke-linejoin="round" transform="translate(48.303508, 134.483263) rotate(89.000000) translate(-48.303508, -134.483263) "></path>
            <polygon id="Star" stroke="#000000" stroke-width="1.3585" fill="#52BADF" stroke-linecap="round" stroke-linejoin="round" points="61.999637 126.394302 56.591636 129.869269 57.6244723 122.509172 53.2493076 117.296722 59.2956365 116.222898 61.999637 109.526461 64.7036376 116.222898 70.7499665 117.296722 66.3748018 122.509172 67.4076381 129.869269"></polygon>
        </g>
    </g>
</svg>