<svg xmlns="http://www.w3.org/2000/svg" width="214" height="241" viewBox="0 0 214 241">
  <g fill="none" fill-rule="evenodd" transform="translate(1)">
    <path fill="#F3D4B7" stroke="#000" stroke-linecap="round" stroke-linejoin="round" d="M59.3332779,220.754605 C56.4839381,226.075894 56.0704621,229.635344 56.0704621,233.107024 C56.0704621,236.578704 58.7915545,240.107024 63.5404541,236.107024 C68.2893538,232.107024 68.4176012,224.107024 69.3673811,222.107024" transform="rotate(28 62.719 229.319)"/>
    <path fill="#F3D4B7" stroke="#000" stroke-linecap="round" stroke-linejoin="round" d="M154.715175,220.75464 C151.865836,226.075929 151.45236,229.635379 151.45236,233.107059 C151.45236,236.578739 154.173452,240.107059 158.922352,236.107059 C163.671251,232.107059 163.799499,224.107059 164.749279,222.107059" transform="scale(-1 1) rotate(18 0 -768.89)"/>
    <g stroke="#000" stroke-linecap="round" stroke-linejoin="round" transform="translate(160.83 31.985)">
      <path fill="#5CC8E6" d="M8.95629833,6.49362635 C5.21263223,14.5418309 5.18596544,15.8750724 5.21076067,21.1375114 C5.2355559,26.3999504 15.4508063,31.6079861 21.7250236,25.5745556 C27.9992408,19.5411252 27.5917195,8.4110834 28.8379924,5.38541417" transform="rotate(-149 17.023 16.833)"/>
      <path fill="#4AAED9" d="M11.2710464,26.8290847 C10.4944398,27.221565 12.2710464,25.5508594 17.2710464,23.1899721 C22.2710464,20.8290847 24.2710464,16.8290847 16.7640617,17.8141412 C14.1573859,18.1561857 11.3826987,20.3248436 8.44,24.3201149"/>
    </g>
    <g stroke="#000" stroke-linecap="round" stroke-linejoin="round" transform="matrix(-1 0 0 1 74.277 35.534)">
      <path fill="#5CC8E6" d="M13.9663234,7.23625129 C10.2226573,15.2844559 4.1921309,14.3920132 4.21692613,19.6544522 C4.24172136,24.9168912 17.0284736,28.5798127 23.3026909,22.5463822 C29.5769082,16.5129517 29.0001665,8.98448796 30.2464394,5.95881874" transform="rotate(-149 17.232 15.815)"/>
      <path fill="#4AAED9" d="M11.2710464,21.8290847 C10.4944398,22.221565 10.2710464,20.2674578 17.2710464,18.1899721 C24.2710464,16.1124864 24.2710464,12.8290847 16.7640617,13.8141412 C14.1573859,14.1561857 11.3826987,16.6581769 8.44,21.3201149"/>
    </g>
    <g transform="translate(50 43)">
      <path fill="#5CC8E6" stroke="#000" d="M16.5996094,19.1308594 C6.86958299,29.4014428 0.175103103,40.5620427 0.175103103,55.7727424 C0.175103103,80.817076 2.55116896,83.3609558 7.58006199,91.0650732 C8.03907179,93.1845947 8.37092399,95.7424818 8.50332946,99.0513743 C8.67489868,103.338992 5.31250349,109.588075 4.68951904,113.739309 C2.74577761,126.691357 1.26527789,138.690874 2.55116896,147.936336 C4.89053958,164.756239 9.2325288,176.257124 18.5033295,182.051374 C34.5033295,192.051374 61.5033295,194.051374 83.5033295,189.051374 C105.503329,184.051374 108.599609,180.594847 113.503329,175.775375 C118.40705,170.955903 127.503329,154.051374 125.503329,136.051374 C123.503329,118.051374 122.599609,111.75664 124.599609,94.6771554 C128.503329,89.6621094 131.952322,81.4683017 133.405902,74.6314051 C137.495108,55.3978693 137.495108,42.426503 128.503329,32.0513743 C115.503329,17.0513743 111.637908,5.13085937 88.5996094,2.13085937 C65.5613107,-0.869140625 34.5996094,0.130859375 16.5996094,19.1308594 Z"/>
      <path fill="#4AAED9" fill-rule="nonzero" d="M20.5068865,15.4478226 C28.3369569,13.3645442 40.8112318,10.4202313 45,8.74083134 C51,6.33525549 94,8.66805516 96,8.66805516 C96.8424134,8.66805516 102.65245,9.25919247 109.170588,9.87969744 C116.322846,15.3882775 120.816038,23.1814221 128.503329,32.0513743 C137.495108,42.426503 137.495108,55.3978693 133.405902,74.6314051 C131.952322,81.4683017 128.503329,89.6621094 124.599609,94.6771554 C123.894312,100.700217 123.550124,105.382073 123.48778,109.709044 C108.966758,112.68143 92.2379241,114.781645 81,115.475462 C58,116.895454 15,97.4246095 17,97.4246095 C19,97.4246095 35,100.703839 49,102 C63,103.296161 96.9559462,103.5 113,92.5 C120.913808,87.0741962 125.563969,80.4707019 127.403525,74.0730673 C127.645784,73.2305359 123.108671,76.1790034 119.269108,76.6484375 C113.607883,77.3405923 106.076391,76.7464994 99.1311403,75 C92.0934728,73.2302608 82.9038012,61.8431682 82.9038012,56.2333984 C82.9038012,53.2915928 128.642475,58.7857742 129,56.5072724 C130.436102,47.3550247 120,29.406586 104,21.1709153 C88,12.9352446 43,18.8435416 32,22.6853552 C31.4521313,22.8767015 45.9012457,26.2595872 53.1317652,38.3017746 C56.0543951,43.1693166 56.5785696,49.4832207 56,58.2982102 C55.1006865,72 39,81.5 31,81.5 C28.1937837,81.5 8.51899994,81.5399416 2.82794954,65.0970165 C0.962226195,59.7064564 3.68624302,46.8359071 11,26.4853684 C11.0471196,26.1252887 11.0959043,25.7756893 11.1463543,25.4365701 C12.8226425,23.281999 14.6502026,21.1885666 16.5996094,19.1308594 C17.8425254,17.8188924 19.1472432,16.59275 20.5068865,15.4478226 Z M123.491425,156.643194 C120.825955,165.757039 116.422013,172.906835 113.503329,175.775375 C108.599609,180.594847 105.503329,184.051374 83.5033295,189.051374 C61.5033295,194.051374 34.5033295,192.051374 18.5033295,182.051374 C10.8282917,177.254476 6.53132486,168.546408 3.95210514,156.147105 C6.15643141,156.190053 9.11341584,156.557704 12.6035815,156.557704 C23.3895919,156.557704 49.0019524,160.299561 56.1599769,159.000322 C63.3180014,157.701084 110,153.972154 121.074518,155.662109 C122.045432,155.810269 122.849126,156.146418 123.491425,156.643194 Z M58,66.3609558 C60,63.7219116 77.4849282,63.0970165 81,64.3824524 C84.5150718,65.6678882 86.6270513,75.7049233 87.3135256,82.8349494 C88,89.9649756 87.0134664,101.215134 100,99 C112.986534,96.7848657 76.8667184,106 75,106 C73.1332816,106 50.8494441,103.153499 53.4559021,102.775731 C58.8081641,102 61.0353515,100.798605 60.6075315,95.9438251 C60.2692754,92.1053906 59.5220225,88.8488594 59.5220225,86.1882909 C59.5220225,85.4387464 59.9920885,82 57.1599769,78.4290695 C54.3278653,74.858139 56,69 58,66.3609558 Z"/>
      <path stroke="#000" d="M16.5996094,19.1308594 C6.86958299,29.4014428 0.175103103,40.5620427 0.175103103,55.7727424 C0.175103103,80.817076 2.55116896,83.3609558 7.58006199,91.0650732 C8.03907179,93.1845947 8.37092399,95.7424818 8.50332946,99.0513743 C8.67489868,103.338992 5.31250349,109.588075 4.68951904,113.739309 C2.74577761,126.691357 1.26527789,138.690874 2.55116896,147.936336 C4.89053958,164.756239 9.2325288,176.257124 18.5033295,182.051374 C34.5033295,192.051374 61.5033295,194.051374 83.5033295,189.051374 C105.503329,184.051374 108.599609,180.594847 113.503329,175.775375 C118.40705,170.955903 127.503329,154.051374 125.503329,136.051374 C123.503329,118.051374 122.599609,111.75664 124.599609,94.6771554 C128.503329,89.6621094 131.952322,81.4683017 133.405902,74.6314051 C137.495108,55.3978693 137.495108,42.426503 128.503329,32.0513743 C115.503329,17.0513743 111.637908,5.13085937 88.5996094,2.13085937 C65.5613107,-0.869140625 34.5996094,0.130859375 16.5996094,19.1308594 Z"/>
    </g>
    <g stroke="#000" transform="translate(110.722 105.718)">
      <path fill="#F3D4B7" d="M1.07200391,12.0417427 C0.263839844,24.0417427 1.80325677,40.6451251 11.2759554,40.0417427 C20.748654,39.4383603 21.9182373,34.0417427 23.2638398,29.0417427 C24.1058095,25.9131456 24.1733849,19.0036628 23.4413013,13.2898261 C23.0033978,9.87203528 21.8931493,3.77912232 20.8776094,2.282 C18.1642976,-1.718 1.88016797,0.0417427342 1.07200391,12.0417427 Z"/>
      <path fill="#AA6535" d="M3.2172676,10.0205899 C2.63641267,19.4676999 3.74284383,32.5388648 10.5511936,32.0638465 C17.3595434,31.5888282 18.2001626,27.3402915 19.1672928,23.4039957 C20.134423,19.4676999 19.6799741,7.9289814 17.7298249,4.77994474 C15.7796758,1.63090809 3.79812252,0.573479971 3.2172676,10.0205899 Z"/>
      <path fill="#FEFEFE" d="M7.14503868,11.8067561 C7.14503868,15.8173078 7.51855469,20.4759288 7.51855469,23.8033941 C7.51855469,27.1308594 16.1450387,27.1308594 16.1450387,24.1308594 C16.1450387,21.1308594 16.1450387,14.8067561 16.1450387,11.8067561 C16.1450387,8.80675605 7.14503868,7.79620427 7.14503868,11.8067561 Z"/>
      <path d="M11.5996094,11.7903796 L11.5996094,26.1308594"/>
    </g>
    <path fill="#F3D4B7" stroke="#000" d="M106.432456,112.055925 C105.99888,115.160706 105.973244,120.392198 115.02483,120.193587 C117.169495,120.146528 119.737348,119.311152 121.487381,119.165971 C127.123379,118.698416 131.987674,118.336401 132.555515,115.358557 C132.996555,113.045673 133.086919,108.112726 129.717599,106.046573 C127.401918,104.626538 121.557349,105.422242 117.667196,105.836232 C108.116864,106.852579 106.866031,108.951144 106.432456,112.055925 Z" transform="rotate(-1 119.532 112.718)"/>
    <path fill="#9B8E7D" stroke="#000" d="M110.674194,104.621454 C110.674194,108.288121 116.70893,109.204788 119.122825,109.204788 C121.536719,109.204788 126.364508,108.288121 127.571456,104.621454 C128.778403,100.954788 125.157561,98.2047876 119.122825,98.2047876 C113.088089,98.2047876 110.674194,100.954788 110.674194,104.621454 Z" transform="scale(-1 1) rotate(8 0 -1601.485)"/>
    <path fill="#DDB27A" stroke="#000" d="M117.282108,0.848222227 C107.623127,0.848222227 98.6231274,12.2711203 90.6231274,18.8482222 C82.6231274,25.4253242 75.6231274,26.5158549 68.6231274,34.0677456 C61.6231274,41.6196363 61.6231274,65.9078875 64.6231274,70.5470002 C67.6231274,75.1861129 73.6231274,56.598395 93.6231274,54.2233086 C113.623127,51.8482222 143.623127,53.090169 153.623127,56.7016607 C163.623127,60.3131524 169.623127,66.9770421 169.623127,63.6450972 C169.623127,60.3131524 174.623127,47.6830433 169.623127,39.0406219 C164.623127,30.3982005 158.623127,25.4253242 147.623127,18.8482222 C136.623127,12.2711203 126.941088,0.848222227 117.282108,0.848222227 Z"/>
    <path fill="#C59B63" fill-rule="nonzero" d="M135.359518,9.97035714 C139.299832,13.0264082 143.362622,16.300788 147.623127,18.8482222 C150.17895,20.3763954 152.464845,21.8179638 154.530988,23.2390784 C157.59048,26.0789736 164.233425,31.3332259 165,32.4990293 C165.475517,33.2221933 166.872349,34.9536964 168.206773,36.7323379 C168.689558,37.4731502 169.160621,38.2411868 169.623127,39.0406219 C170.389556,40.365382 170.92102,41.7838389 171.271543,43.2481412 C171.313613,43.4614178 171.36242,43.6832272 171.417964,43.9135693 C171.520537,44.4233768 171.602525,44.9377862 171.666149,45.45483 C159.881311,42.7637708 153.325928,40.9578927 152,40.0371958 C150,38.6484375 131,36.3290181 131,36.4853684 C131,36.6417187 115.653889,36.3290181 119.687784,36.4853684 C123.72168,36.6417187 135.865993,34.609891 139.599609,34.609891 C143.333225,34.609891 151,34.4980586 152,32.4990293 C153,30.5 149,29.3506462 148,28.5339208 C147,27.7171955 142,23.3378906 141,21.5 C140.333333,20.2747396 137.6346,15.9414063 132.903801,8.5 C133.749036,9.00471327 134.567608,9.49483231 135.359518,9.97035714 Z M114.15599,8.5 C111.333833,11.5 104.016719,20.209018 108.808164,24.854509 C113.599609,29.5 122,30.5 126.866718,30.5 C131.733437,30.5 117.840023,34.4707368 112,31.9853684 C106.159977,29.5 101.899313,25.5 104,19.5 C108,11.5 110.333833,11.5 114.15599,8.5 Z"/>
    <path stroke="#000" d="M117.282108,0.848222227 C107.623127,0.848222227 98.6231274,12.2711203 90.6231274,18.8482222 C82.6231274,25.4253242 75.6231274,26.5158549 68.6231274,34.0677456 C61.6231274,41.6196363 61.6231274,65.9078875 64.6231274,70.5470002 C67.6231274,75.1861129 73.6231274,56.598395 93.6231274,54.2233086 C113.623127,51.8482222 143.623127,53.090169 153.623127,56.7016607 C163.623127,60.3131524 169.623127,66.9770421 169.623127,63.6450972 C169.623127,60.3131524 174.623127,47.6830433 169.623127,39.0406219 C164.623127,30.3982005 158.623127,25.4253242 147.623127,18.8482222 C136.623127,12.2711203 126.941088,0.848222227 117.282108,0.848222227 Z"/>
    <path fill="#AA6535" stroke="#000" d="M90.6231274,38.8482222 C77.5996094,41.790227 63.9752836,43.3731272 63.2093934,49.7591247 C62.1531484,58.5661022 62.8841044,63.8578257 64.6231274,66.5470002 C67.6231274,71.1861129 73.6231274,52.598395 93.6231274,50.2233086 C113.623127,47.8482222 143.623127,49.090169 153.623127,52.7016607 C163.623127,56.3131524 169.623127,66.9770421 169.623127,63.6450972 C169.623127,61.2064154 172.301584,53.7867869 171.777335,46.5952965 C171.585308,43.9611307 160.646645,41.790227 147.623127,38.8482222 C134.599609,35.9062175 103.646645,35.9062175 90.6231274,38.8482222 Z"/>
    <path fill="#88491E" stroke="#000" d="M146.599609,43.5339208 C151.599609,42.4030615 161.829108,43.8480549 167.070264,45.6621094 C170.564368,46.871479 172.148395,47.6107995 171.822344,47.8800707 L171.822344,52.6621094 C159.986167,50.7100417 153.245255,49.4250183 151.599609,48.8070393 C149.13114,47.8800707 141.599609,44.6647802 146.599609,43.5339208 Z"/>
    <path fill="#C59B63" stroke="#000" d="M185.556015,85.2372082 L185.542728,85.2232493 C171.252922,70.2232493 167.003989,58.3027344 141.679927,55.3027344 C116.355865,52.3027344 82.322273,53.3027344 62.5363883,72.3027344 C56.6733419,77.9329037 52.4726637,83.907109 49.5120475,90.6199771 C47.6603336,90.7280156 46.0805467,90.8455439 44.8124361,90.974401 C26.5996094,92.8250679 -1.40039062,78.4816627 12.5996094,70.7408313 C26.5996094,63 70.5996094,44.8398774 112.599609,43.854509 C154.599609,42.8691406 201.599609,58.5863767 209.599609,63.5 C216.511892,67.7455443 206.999919,80.2283318 185.556015,85.2372082 Z"/>
    <path stroke="#000" stroke-linecap="round" stroke-linejoin="round" d="M113.599609,8.66210937 C106.159977,15.9589844 100,19.1670736 104.866718,27.2392113 C109.733437,35.3113491 124.370111,32.8163133 132.599609,28.2392113 C138.085942,25.18781 134.841645,18.328776 122.866718,7.66210938 M139.599609,19.6621094 C141.937983,22.1112347 149.13114,30.6621094 153.920225,32.2994331 C156.958725,33.3382556 160.137567,33.3739525 161.829108,32.9210864"/>
    <path stroke="#000" stroke-linecap="round" stroke-linejoin="round" d="M77.7689467,18.9636078 C80.10732,21.4127331 87.3004776,29.9636078 92.0895621,31.6009316 C95.1280625,32.6397541 98.3069039,32.675451 99.9984453,32.2225848" transform="matrix(-1 0 0 1 177.767 0)"/>
    <g transform="translate(132 60)">
      <path fill="#FFF" stroke="#000" d="M0.345602567,32.2848363 C0.345602567,51.2273146 22.0192433,56.3642578 29.6343144,56.3642578 C37.2493854,56.3642578 51.4544017,53.1536683 55.2619372,34.2111901 C59.0694727,15.2687118 47.6838733,0.5 28.6461958,0.5 C9.60851816,0.5 0.345602567,13.3423581 0.345602567,32.2848363 Z"/>
      <path fill="#F0F0F0" d="M43.1298701,3.98725536 C53.0215804,9.44391413 57.9620653,20.7780605 55.2619372,34.2111901 C51.4544017,53.1536683 37.2493854,56.3642578 29.6343144,56.3642578 C24.2464203,56.3642578 11.8208172,53.792708 5.01346641,45.5792872 C11.4117722,49.2846529 18.80268,50.5851967 22.6343144,50.5851967 C30.2493854,50.5851967 44.4544017,47.3746071 48.2619372,28.4321289 C50.2171275,18.7050627 48.1660725,10.0785681 43.1298701,3.98725536 Z"/>
      <path stroke="#000" d="M0.345602567,32.2848363 C0.345602567,51.2273146 22.0192433,56.3642578 29.6343144,56.3642578 C37.2493854,56.3642578 51.4544017,53.1536683 55.2619372,34.2111901 C59.0694727,15.2687118 47.6838733,0.5 28.6461958,0.5 C9.60851816,0.5 0.345602567,13.3423581 0.345602567,32.2848363 Z"/>
      <path fill="#000" d="M13.3035999,28.3742446 C13.3035999,32.3742446 18.3035999,33.3742446 20.3035999,33.3742446 C22.3035999,33.3742446 26.3035999,32.3742446 27.3035999,28.3742446 C28.3035999,24.3742446 25.3035999,21.3742446 20.3035999,21.3742446 C15.3035999,21.3742446 13.3035999,24.3742446 13.3035999,28.3742446 Z" transform="rotate(66 20.4 27.374)"/>
      <path fill="#FFF" d="M19.6570943,29.6244625 C18.4715886,28.4298845 18.2321107,26.7811511 19.8562387,24.8991517 C21.4803667,23.0171523 23.3439727,22.7838862 24.2046528,24.3548643 C25.0653327,25.9258423 24.0624068,27.7300864 23.4127555,28.4828861 C22.7631044,29.2356858 20.8425999,30.8190407 19.6570943,29.6244625 Z" transform="rotate(-58 21.62 26.686)"/>
    </g>
    <g transform="translate(49 63)">
      <path fill="#FFF" stroke="#000" d="M0.453125,33.3356968 C0.453125,53.0023635 22.1267658,58.3356968 29.7418368,58.3356968 C37.3569078,58.3356968 51.5619241,55.0023635 55.3694596,35.3356968 C59.1769952,15.6690301 47.7913958,0.335696787 28.7537182,0.335696787 C9.71604059,0.335696787 0.453125,13.6690301 0.453125,33.3356968 Z"/>
      <path fill="#F0F0F0" d="M43.2373926,3.95627314 C53.1291028,9.62154502 58.0695877,21.3890063 55.3694596,35.3356968 C51.5619241,55.0023635 37.3569078,58.3356968 29.7418368,58.3356968 C24.3539428,58.3356968 11.9283396,55.6658343 5.12098883,47.1384068 C11.519296,50.9854323 18.9102028,52.3356968 22.7418368,52.3356968 C30.3569078,52.3356968 44.5619241,49.0023635 48.3694596,29.3356968 C50.3246499,19.2367559 48.2735949,10.2804624 43.2373926,3.95627314 Z"/>
      <path stroke="#000" d="M0.453125,33.3356968 C0.453125,53.0023635 22.1267658,58.3356968 29.7418368,58.3356968 C37.3569078,58.3356968 51.5619241,55.0023635 55.3694596,35.3356968 C59.1769952,15.6690301 47.7913958,0.335696787 28.7537182,0.335696787 C9.71604059,0.335696787 0.453125,13.6690301 0.453125,33.3356968 Z"/>
      <path fill="#000" d="M29.1149427,31.5463231 C25.977594,29.1824837 25.087395,24.1421504 28.7444262,20.9735162 C32.4014575,17.8048819 35.9486878,18.6765809 38.3546302,21.6741471 C40.7605727,24.6717134 39.7133353,28.5837457 38.1564723,30.0650344 C36.5996094,31.5463231 32.2522914,33.9101625 29.1149427,31.5463231 Z"/>
      <path fill="#FFF" d="M29.2482393,26.5219438 C28.2024564,25.7339974 27.9912031,24.6464891 29.4239127,23.405118 C30.8566223,22.1637469 32.5005853,22.0098841 33.2598263,23.0461048 C34.0190673,24.0823255 33.1343453,25.272409 32.5612614,25.7689574 C31.9881776,26.2655058 30.2940222,27.3098903 29.2482393,26.5219438 Z" transform="rotate(-34 30.98 24.584)"/>
    </g>
    <path fill="#F34D4D" stroke="#000" stroke-linecap="round" stroke-linejoin="round" d="M104.599609,154.162823 C91.8477104,150.1639 76.0369199,143.545047 73.5996094,142.701008 C71.5996094,142.008409 66.266276,138.995443 57.5996094,133.662109 C56.1380556,138.395234 47.0919687,133.727979 43,131 C34,125 32.7307769,151.096165 34,153 C36,156 45,166 50.7136049,177.670765 C52.3695465,181.053237 50.7694207,185.349401 51.0070702,188.928815 C51.1452018,191.009316 50.6875358,192.962567 50.5996094,194.801869 C50.3750189,199.5 48.5065721,201.794082 50.3750189,204.339039 C55.1928409,210.901253 68.4705044,213.646576 75.5996094,215.662109 C82.1955514,217.526908 94.5288847,219.193574 112.599609,220.662109 L114.599609,197.662109 L116.599609,161 C110.562253,157.057356 106.562254,154.778297 104.599609,154.162823 Z"/>
    <g transform="translate(37 129)">
      <path fill="#DC3D4F" fill-rule="nonzero" d="M70.94542,26.7067992 C72.8951007,27.7638022 75.4432389,29.3094705 78.5898347,31.343804 C78.8710666,32.944411 79.1349039,34.4968118 79.3813466,36.0010066 L77.5996094,68.6621094 L75.7209194,90.2670438 C75.4405254,91.2224493 75.2002189,91.7002189 75,91.5 C74,90.5 75,83.5 74,81.5 C73,79.5 67,79.6484375 64,79.6484375 C61,79.6484375 58,78.6484375 57,80.5 C56,82.3515625 54.6735052,84.4439608 51,84.6193356 C47.3264948,84.7947104 44,84.6193356 41,83.5 C38,82.3806644 31,78.6484375 31,77.5 C31,76.3515625 30,72.5050029 29,71.5 C28,70.4949971 21,60.8606739 24,61.9721541 C27,63.0836343 38,60.8606739 37,58.5 C36,56.1393261 36,51.8530135 36,51.6484375 C36,51.4438615 40,35.5 41,34.5 C42,33.5 63,38.7681684 64,39.746316 C65,40.7244636 64,45.9721541 64,48.8815914 C64,51.7910286 63,60.8606739 63,64.5 C63,68.1393261 72,67.8530135 74,67.8530135 C76,67.8530135 74.1918359,44.9032497 73,41.5 C71.8081641,38.0967503 69,36.5 67,35.5 C65,34.5 49,28.4084824 44,26.5 C40.6666667,25.2276784 40.6666667,23.5795014 44,21.5554689 L70.94542,26.7067992 Z M13.1808202,69.0498529 C13.3687722,68.1005956 13.5407134,67.0338937 13.5996094,65.8018695 C13.6875358,63.9625673 14.1452018,62.009316 14.0070702,59.9288146 C13.6381569,54.3723403 13.440147,53.8482803 13.5996094,48.2271527 C15.085178,46.6009881 9.51632143,41.6346678 8,38.3173339 C6.48367857,35 -2.17980934,29.3652418 3.81312049,30.4754616 C5.45401425,30.7794453 11.6772933,28.1744353 15.1436897,33.6970076 C18.610086,39.21958 20,45.9721541 19,48.2271527 C18,50.4821514 17.441115,55.9689511 17.441115,59.4844756 C17.441115,62.5249845 15.6151159,67.2492755 13.1808202,69.0498529 Z"/>
      <path stroke="#000" stroke-linecap="round" stroke-linejoin="round" d="M67.5996094,25.1628229 C54.8477104,21.1638996 39.0369199,14.5450473 36.5996094,13.7010079 C34.5996094,13.0084089 29.266276,9.99544271 20.5996094,4.66210938 C17.8433771,11.2981933 3.277,0.0112807471 3.277,1 C3.277,1.80459616 -3.69282689,20.0015366 3,31 C8.63048933,40.2527017 13.6971234,45.6926086 13.7117124,50.4490456 C13.7216022,53.673414 13.8063632,56.9058199 14.0070702,59.9288146 C14.1452018,62.009316 13.6875358,63.9625673 13.5996094,65.8018695 C13.3750189,70.5 11.5065721,72.7940823 13.3750189,75.339039 C18.1928409,81.9012534 31.4705044,84.6465758 38.5996094,86.6621094 C45.1955514,88.5269076 57.5288847,90.1935743 75.5996094,91.6621094 L77.5996094,68.6621094 L79.5996094,32 C73.5622535,28.057356 69.5622535,25.778297 67.5996094,25.1628229 Z"/>
    </g>
    <path fill="#F34D4D" stroke="#000" stroke-linecap="round" stroke-linejoin="round" d="M170.47601,161.69043 C161.47601,161.258642 137.47601,147.322914 134.47601,146.284016 C132.47601,145.591417 127.142677,142.578451 118.47601,137.245117 C117.809344,150.198795 117.47601,157.347233 117.47601,158.69043 C117.47601,160.394616 114.296873,175.650706 115.132088,189.268513 C115.284317,191.750525 114.648668,194.238821 114.032391,196.459307 C112.632001,201.505003 112.632001,203.5 116.101213,206.037675 C122.002706,210.354525 132.328937,213.732074 139.47601,216.245117 C146.071953,218.564373 158.738619,220.564373 177.47601,222.245117 L179.47601,201.245117 L180.47601,164.583008 C179.809344,162.942481 176.47601,161.978288 170.47601,161.69043 Z" transform="matrix(-1 0 0 1 293.632 0)"/>
    <g transform="translate(113 137)">
      <path fill="#DC3D4F" d="M13.3375398,24.1654391 C23.8304795,21.5516799 43.4617825,10.2170185 46.1559901,9.28401572 C48.1559901,8.5914167 53.4893235,5.57845052 62.1559901,0.245117188 C62.8226568,13.1987954 63.1559901,20.3472329 63.1559901,21.6904297 C63.1559901,23.3946161 66.3351272,38.6507059 65.4999121,52.2685134 C65.347684,54.7505245 65.9833322,57.2388211 66.5996094,59.4593067 C68,64.5050029 68,66.5 64.5307879,69.0376746 C64.0215383,69.4101828 63.4793409,69.7756968 62.9090817,70.1342645 C62.7745756,67.1016902 62.1505137,64.5146507 60,63.5050029 C56.1776563,61.7104453 50.9829127,65.6805727 49,66.0003223 C45.9012719,66.5 43.9056212,65.5110248 40.4756991,66.2499769 C31.5023537,68.1832196 22.381971,69.2246848 16,69.6787109 C9.61802903,70.1327371 2,71.6787109 2,71.6787109 C2,71.6787109 4,66.5 5,66.5 C5.40081274,66.5 13.6735172,64.3088306 23.4434135,61.5309832 C24.594714,61.2036371 36.7593936,53.4844756 33,53.4844756 C31.0120771,53.4844756 26.0953612,52.7306497 24.0134664,50.4844756 C19.412795,45.5207717 18.4799966,34.9809001 19.9038012,34.5582929 C23.2017956,33.5793972 26.4394275,32.5931951 29.3928835,31.6560197 C30.0273806,31.4546844 41.4525177,24.9382418 45,30.0967503 C46.141099,31.7560593 48.1324634,34.2304943 48.7181133,36.9765432 C49.0836083,38.6903104 49.291085,41.5098662 49.2783224,43.3030994 C49.2332833,49.6313991 46.2843878,54.6318838 46.6846053,54.498373 C52.204759,52.6568745 56,51.1503852 56,50.5 C56,49.1393261 57,48.3095754 57,40.8815914 C57,33.4536074 52,27.5 47,24.9625365 C42,22.4250729 25,25.250732 15,25.250732 C13.8379959,25.250732 13.3241135,24.8625242 13.3375398,24.1654391 Z"/>
      <path stroke="#000" stroke-linecap="round" stroke-linejoin="round" d="M57.4760098,24.6904297 C48.4760098,24.2586423 24.4760098,10.3229143 21.4760098,9.28401572 C19.4760098,8.5914167 14.1426764,5.57845052 5.47600982,0.245117188 C4.80934316,13.1987954 4.47600982,20.3472329 4.47600982,21.6904297 C4.47600982,23.3946161 1.29687277,38.6507059 2.13208785,52.2685134 C2.28431596,54.7505245 1.64866773,57.2388211 1.0323906,59.4593067 C-0.368000029,64.5050029 -0.368000029,66.5 3.10121204,69.0376746 C9.00270554,73.3545253 19.3289363,76.7320737 26.4760098,79.2451172 C33.0719518,81.5643726 45.7386185,83.5643726 64.4760098,85.2451172 L66.4760098,64.2451172 L67.4760098,27.5830078 C66.8093431,25.9424806 63.4760098,24.9782879 57.4760098,24.6904297 Z" transform="matrix(-1 0 0 1 67.632 0)"/>
    </g>
    <g stroke="#000" transform="translate(131 163)">
      <path fill="#F34D4D" d="M1.34560257,9.3173339 C1.69120513,11.789488 3.18532016,16.9689511 3.18532016,19.4844756 C3.18532016,22 6.31349471,23.5602391 10,23.5602391 C11.9319124,23.5602391 17.1863586,22.0229337 21.6654219,21.1460398 C25.1386421,20.4660661 27.9012719,17.8530135 27.9012719,15.0154855 C27.9012719,12.3645751 27.4063168,8.39583258 26.829108,7.3173339 C26,5.76816837 1,6.84517979 1.34560257,9.3173339 Z"/>
      <path fill="#DC3D4F" d="M18.7767043,21.7660227 C19.7484981,21.5437926 20.7240839,21.3303314 21.6654219,21.1460398 C25.1386421,20.4660661 27.9012719,17.8530135 27.9012719,15.0154855 C27.9012719,12.3645751 27.4063168,8.39583258 26.829108,7.3173339 C26.5115305,6.7239491 22.6476988,6.51586622 18.0203083,6.6239044 C10.566847,6.79792438 15.1245201,22.6012052 18.7767043,21.7660227 Z"/>
      <path fill="#F34D4D" d="M12.3456026,12.8897082 C12.6912051,15.7642416 13.1853202,16.306204 13.1853202,20.0606425 C13.1853202,23.8150811 15,23.3560723 18,22.474267 C21,21.5924616 21,19.9423748 21,18.7782478 C21,17.6141208 20.658216,12.3654938 19.829108,10.5641789 C19,8.76286396 12,10.0151748 12.3456026,12.8897082 Z"/>
      <path fill="#F34D4D" stroke-linejoin="round" d="M0.599609375,5.93444595 C5.93294271,3.10948707 14.266276,1.3636743 25.5996094,0.697007631 C27.5996094,6.12272729 28.5996094,9.44442787 28.5996094,10.6621094 C28.5996094,12.4886316 25.5996094,8.83558712 21.5996094,10.6621094 C18.9329427,11.8797909 17.5996094,13.0759984 17.5996094,14.250732 C15.5996094,13.0759984 13.5996094,12.4886316 11.5996094,12.4886316 C9.59960938,12.4886316 6.59960938,13.401472 2.59960938,15.2271527 C1.26627604,10.383771 0.599609375,7.28620211 0.599609375,5.93444595 Z"/>
      <path fill="#FCDE32" d="M13.0120771,8.49511518 C13.0120771,6.29523728 14.7071419,5.65195629 16.4022067,7.07353574 C18.0972714,8.49511518 18.0972714,10.6265019 16.4022067,10.965028 C14.7071419,11.3035541 13.0120771,10.6949931 13.0120771,8.49511518 Z"/>
    </g>
    <g stroke="#000" transform="matrix(-1 0 0 1 100 162)">
      <path fill="#F34D4D" d="M2.00194667,9.79930255 C2.36126989,12.2714567 3.51605615,17.2555861 3.51605615,20.4844756 C3.51605615,23.7133651 7.48218132,24.6360026 10.6012833,23.5602391 C12.9885708,22.7368749 23,20.4844756 27.1029477,19.2405699 C28.4083745,18.8447989 29.210977,17.3203311 29.0409566,16.302206 C28.5998921,13.6610004 27.7207038,9.43547956 27.0985181,8.3173339 C26.236494,6.76816837 1.64262345,7.32714844 2.00194667,9.79930255 Z"/>
      <path fill="#DC3D4F" d="M2.00194667,9.79930255 C2.36126989,12.2714567 3.51605615,17.2555861 3.51605615,20.4844756 C3.51605615,23.7133651 7.48218132,24.6360026 10.6012833,23.5602391 C11.6217543,23.2082835 14.035327,22.5952111 16.7850141,21.911409 C20.4679387,20.9955261 18.8368638,7.24726215 12.0629179,7.65232117 C6.62748389,7.97734171 1.84198132,8.69873636 2.00194667,9.79930255 Z"/>
      <path fill="#F34D4D" d="M12.6791516,11.7616503 C13.0247542,14.6722771 13.5188692,15.2210445 13.5188692,19.0226247 C13.5188692,22.824205 15.3335491,22.3594328 18.3335491,21.4665553 C21.3335491,20.5736777 21.3335491,18.902872 21.3335491,17.7241279 C21.3335491,16.5453838 20.9917651,11.2308537 20.1626571,9.40692104 C19.3335491,7.58298834 12.3335491,8.85102349 12.6791516,11.7616503 Z"/>
      <path fill="#F34D4D" stroke-linejoin="round" d="M0.599609375,4.93444595 C5.93294271,2.10948707 13.9329427,0.697007631 24.5996094,0.697007631 C27.266276,5.45606062 28.5996094,8.44442787 28.5996094,9.66210937 C28.5996094,11.4886316 25.5996094,7.83558712 21.5996094,9.66210937 C18.9329427,10.8797909 17.5996094,12.0759984 17.5996094,13.250732 C15.5996094,12.0759984 13.5996094,11.4886316 11.5996094,11.4886316 C9.59960938,11.4886316 6.59960938,12.401472 2.59960938,14.2271527 C1.26627604,9.38377104 0.599609375,6.28620211 0.599609375,4.93444595 Z"/>
      <path fill="#FCDE32" d="M12.0120771,7.49511518 C12.0120771,5.29523728 13.7071419,4.65195629 15.4022067,6.07353574 C17.0972714,7.49511518 17.0972714,9.62650193 15.4022067,9.965028 C13.7071419,10.3035541 12.0120771,9.69499308 12.0120771,7.49511518 Z"/>
    </g>
    <path fill="#F3D4B7" stroke="#000" stroke-linecap="round" stroke-linejoin="round" d="M30.7221852,96.5253293 C29.8719169,98.2814988 25.6961197,102.006366 20.5443341,107.235886 C16.4726431,111.369014 8.29170259,117.518725 10.132118,118.877329 C11.9311056,120.205352 21.567565,111.234165 21.1761757,112.416336 C19.9501643,116.119437 24.6913743,119.315302 27.7221852,115.525329 C30.7529961,111.735357 37.9617091,104.525329 38.9617091,102.525329" transform="rotate(117 24.414 107.769)"/>
    <path fill="#F3D4B7" stroke="#000" stroke-linecap="round" stroke-linejoin="round" d="M190.234701,160.220165 C188.72218,163.617604 182.184614,171.552324 180.672093,175.556966 C179.159571,179.561607 182.184614,182.136593 185.965919,178.846779 C189.747223,175.556966 195.70967,166.799792 196.465931,165.154885" transform="scale(-1 1) rotate(10 0 -1982.796)"/>
    <g transform="translate(50 140)">
      <path fill="#AA6535" stroke="#000" stroke-linecap="round" stroke-linejoin="round" d="M128.599609,38.6621094 C119.269108,44.3815914 94.5996094,52.1518693 77.5996094,53.6621094 C67.5615267,54.5538691 53.6881701,54.2570842 42.1558171,52.614375 C34.1575479,51.4750732 27.2853303,48.1693776 23.5996094,47.3119979 C14.5996094,45.2184 5.59960937,41.4055958 0.599609375,38.6621094 C0.599609375,40.9845452 -0.400390625,42.8116937 0.599609375,47.4055958 C2.31416076,50.5018279 12.7099737,55.9305513 24.6401404,58.8378573 C40.5427161,62.7132141 59.1715527,65.6621094 63.5996094,65.6621094 C71.3496094,65.6621094 95.5996094,61.2916294 105.599609,58.6621094 C115.599609,56.0325893 124.532716,52.0447502 128.599609,48.6621094 C129.599609,45.5784473 128.599609,41.8851997 128.599609,38.6621094 Z"/>
      <g transform="translate(0 38)">
        <path fill="#88491E" fill-rule="nonzero" d="M112.33516,18.6387567 C113.036084,18.1846973 113.924364,17.6484849 115,17.0301195 L115,10.5 C115.393485,10.3185868 115.847219,15.1233427 116.317464,14.9124577 C118.047051,14.1368105 120,13.1495712 120,11.8606739 L120,4.83585253 C123.492072,3.40351954 126.452116,1.97849617 128.599609,0.662109375 C128.599609,3.88519965 129.599609,7.57844734 128.599609,10.6621094 C125.475546,13.2605513 119.480004,16.2161115 112.33516,18.6387567 Z M110.003339,19.3973312 C108.567788,19.8449416 107.095638,20.2687257 105.599609,20.6621094 C95.5996094,23.2916294 71.3496094,27.6621094 63.5996094,27.6621094 C59.1715527,27.6621094 40.5427161,24.7132141 24.6401404,20.8378573 C12.7099737,17.9305513 2.31416076,12.5018279 0.599609375,9.40559578 C-0.400390625,4.81169369 0.599609375,2.98454525 0.599609375,0.662109375 C1.8331365,1.33894235 3.3101179,2.08085783 4.97049207,2.84598507 C4.65804493,4.50044715 4.45359408,6.38370995 4.32376022,7.94199578 C4.2762431,8.5123035 5.13946311,10.3497676 5.71612234,10.7731825 C9.1056584,13.2619661 14.9419356,16.9978515 21,18.119463 C23.4297291,18.5693116 27.248739,19.3470452 31.5309516,20.2334529 C31.1794185,17.2430982 31.5198298,15.062946 33.0437761,12.4436444 C35.7984371,13.3191797 38.882847,14.1481616 42.1558171,14.614375 C44.643458,14.9687234 47.2400274,15.260445 49.8835333,15.4911194 C49.6891648,17.1681015 49.2190661,19.1261052 48.2635958,21.7704705 C48,22.5 48.9341496,23.6374482 49.5198255,23.7603253 C53.7660413,24.6511982 55.0678444,25.1943253 56.1599769,25.2995605 C57.1599769,25.2995605 58.0878439,19.2859947 58.8081641,18.119463 C59.2258333,17.4430631 60.8981008,16.7002796 62.7769524,16.1374228 C65.1182502,16.1711291 67.4176473,16.1586038 69.6315918,16.1009568 C70.4911411,16.9095887 71.2365699,17.6920461 70,18.119463 C68.457007,18.6527942 64.8440099,17.7818073 64,18.6527942 C64.3783072,19.2799831 64.646129,20.6621094 64,21.5 C63.8081641,22.5 64.4278775,23.0215296 65,23.5050029 C65.5721225,23.9884763 65.1623966,24.770976 65,25.5 C66.707484,25.3695572 68.0096027,25.6722377 70,25.5 C70.3677589,21.1967565 70.3629328,14.2936577 71.3212891,16.5 C72.1674823,18.4481189 73,20.5417071 73,22.5 C73,24.6166623 76.5034164,24.5360953 76.8667184,24.5 C81.8969452,24.0002298 108.202934,18.586564 108.901272,17.8530135 C109.352986,17.378522 109.608536,18.6651283 110.003339,19.3973312 Z"/>
        <path stroke="#000" stroke-linecap="round" stroke-linejoin="round" d="M128.599609,0.662109375 C119.269108,6.38159138 94.5996094,14.1518693 77.5996094,15.6621094 C67.5615267,16.5538691 53.6881701,16.2570842 42.1558171,14.614375 C34.1575479,13.4750732 27.2853303,10.1693776 23.5996094,9.31199787 C14.5996094,7.21839995 5.59960937,3.40559578 0.599609375,0.662109375 C0.599609375,2.98454525 -0.400390625,4.81169369 0.599609375,9.40559578 C2.31416076,12.5018279 12.7099737,17.9305513 24.6401404,20.8378573 C40.5427161,24.7132141 59.1715527,27.6621094 63.5996094,27.6621094 C71.3496094,27.6621094 95.5996094,23.2916294 105.599609,20.6621094 C115.599609,18.0325893 124.532716,14.0447502 128.599609,10.6621094 C129.599609,7.57844734 128.599609,3.88519965 128.599609,0.662109375 Z"/>
      </g>
      <path fill="#AA6535" stroke="#000" d="M106,47.5602391 C106,46.5602391 106.058607,44.9267301 107.829108,44.7133651 C109.599609,44.5 111.170892,43.5 113,43.5 C113,43.5 115,43.5 115,47.5602391 C115,51.6204782 115,55.9820266 115,56.8530135 C115,57.7240004 112.5,59.2759996 110.5,59.5 C108.5,59.7240004 106,59.2759996 106,58.5 C107.744186,57.9221943 107.744186,57.9221943 108.901272,57.5 C110.008896,57.0958534 109,52.0836343 109,50.9721541 C109,49.8606739 108.658216,46.988738 107.829108,46.988738 C107,46.988738 107,47.5602391 106,47.5602391 Z"/>
      <g fill="#FCDE32" fill-rule="nonzero" stroke="#000" transform="translate(58 52)">
        <path d="M4.59960938,0.475341797 C8.59960938,0.475341797 10.5996094,0.475341797 11.5996094,0.475341797 C12.5996094,0.475341797 13.5996094,1.70761303 13.5996094,4.88373179 C13.5996094,8.05985055 13.5996094,11.1690443 13.5996094,12.93267 C13.5996094,14.6962957 13.5996094,15.3196939 10.5996094,15.3196939 C7.59960937,15.3196939 4.59960937,15.3196939 3.59960937,15.3196939 C2.59960937,15.3196939 0.599609375,15.4256222 0.599609375,12.93267 C0.599609375,10.4397178 0.599609375,6.447931 0.599609375,4.88373179 C0.599609375,3.31953258 0.599609375,0.475341797 4.59960938,0.475341797 Z M4.57762718,2.62260399 C1.59960938,2.62260399 2.44458008,4.67937874 2.44458008,5.8105284 C2.44458008,6.94167806 2.44458008,9.82833611 2.44458008,11.6311129 C2.44458008,13.4338897 3.86661148,13.3572877 4.57762718,13.3572877 C5.28864289,13.3572877 7.42168999,13.3572877 9.5547371,13.3572877 C11.6877842,13.3572877 11.6877842,12.9064777 11.6877842,11.6311129 C11.6877842,10.3557481 11.6877842,8.10733665 11.6877842,5.8105284 C11.6877842,3.51372015 11.3106251,2.62260399 10.5996094,2.62260399 C9.88859367,2.62260399 7.55564499,2.62260399 4.57762718,2.62260399 Z"/>
        <path d="M3.09960938,4.66210937 C4.59960937,4.66210937 5.59960938,4.4947853 5.59960938,5.57844734 C5.59960938,6.66210937 4.59960938,6.66210937 4.59960938,6.66210937 C4.59960937,6.66210937 1.59960937,6.66210937 1.59960937,6.66210937 C1.59960937,6.66210937 0.599609375,6.66210937 0.599609375,5.66210937 C0.599609375,4.66210937 1.59960938,4.66210937 3.09960938,4.66210937 Z M3.30816406,9.29956055 C4.80816406,9.29956055 5.80816406,9.13223647 5.80816406,10.2158985 C5.80816406,11.2995605 4.80816406,11.2995605 4.80816406,11.2995605 C4.80816406,11.2995605 1.80816406,11.2995605 1.80816406,11.2995605 C1.80816406,11.2995605 0.808164062,11.2995605 0.808164062,10.2995605 C0.808164062,9.29956055 1.80816406,9.29956055 3.30816406,9.29956055 Z"/>
      </g>
      <g transform="translate(116)">
        <path fill="#F34D4D" stroke="#000" stroke-linecap="round" stroke-linejoin="round" d="M22.0905551,2.42786765 C19.655065,6.59750726 13.971038,15.1009052 11.5266572,18.1502034 C7.52665718,23.140094 4.85999051,26.5170471 3.52665718,28.2810627 C10.8599905,36.4803931 15.1933238,41.0479992 16.5266572,41.9838808 C18.5266572,43.3877032 26.5266572,32.2280598 26.5266572,32.1471147 C26.5266572,32.0931513 28.1933238,29.6056392 31.5266572,24.6845782" transform="scale(-1 1) rotate(10 0 -178.064)"/>
        <path fill="#DC3D4F" d="M10.1900361,4.22284604 C13.5435813,8.07418733 19.9601286,14.7470314 22.7206975,17.1708518 C24.3232302,18.5778992 25.7486063,19.8340616 26.996826,20.939339 C25.7025437,22.5569663 24.0667715,24.3197684 23,24.6919703 C21,25.3897802 20,27 16.4763625,23.250732 C13.5638979,20.4754616 13.5638979,20.4754616 12,18.6580035 C9,21.3405579 10,21.001464 10,23.250732 C10,25.5 15,32.0533886 18,34.5 C21,36.9466114 23,37.5437519 28,32.4536074 C28.1304389,32.3208167 28.2540721,32.2095376 28.3710417,32.1186335 C24.9373173,37.5212925 22.7920812,40.6519757 21.9353334,41.510683 C20.2094891,43.2404746 10.3931753,33.6395566 10.3791193,33.5598413 C10.3697487,33.5066977 8.29645048,31.3463901 4.15922471,27.0789184 L9.36651089,4.4792799 C9.64035809,4.39170927 9.91495416,4.30622084 10.1900361,4.22284604 Z"/>
        <path stroke="#000" stroke-linecap="round" stroke-linejoin="round" d="M22.0905551,2.42786765 C19.655065,6.59750726 13.971038,15.1009052 11.5266572,18.1502034 C7.52665718,23.140094 4.85999051,26.5170471 3.52665718,28.2810627 C10.8599905,36.4803931 15.1933238,41.0479992 16.5266572,41.9838808 C18.5266572,43.3877032 26.5266572,32.2280598 26.5266572,32.1471147 C26.5266572,32.0931513 28.1933238,29.6056392 31.5266572,24.6845782" transform="scale(-1 1) rotate(10 0 -178.064)"/>
        <path fill="#1D487A" stroke="#000" stroke-linecap="round" stroke-linejoin="round" d="M10.604264,7.70049567 C14.8797337,9.43687272 17.5343323,9.15569916 21.8382525,10.7278943 C30.2876181,13.8143948 27.2466825,21.8761443 21.3859217,20.3789255 C10.7249495,17.6554212 7.25223763,16.8506491 7.18491706,16.0512772 C6.91367267,12.8304913 8.74577184,10.2690295 10.604264,7.70049567 Z" transform="scale(-1 1) rotate(-65 0 40.985)"/>
        <path fill="#E8DB54" stroke="#000" d="M8.97141596,5.32478708 C8.97141596,3.12490918 10.6664807,2.48162819 12.3615455,3.90320764 C14.0566103,5.32478708 14.0566103,7.45617383 12.3615455,7.79469991 C10.6664807,8.13322598 8.97141596,7.52466498 8.97141596,5.32478708 Z" transform="rotate(14 11.302 5.515)"/>
      </g>
      <g stroke="#000" transform="translate(17 3)">
        <path fill="#1D487A" stroke-linecap="round" stroke-linejoin="round" d="M52.6805038,9.49429703 C63.2275693,9.49429703 79.4040519,5.55533699 92.8275898,1.21513425 C96.6628863,1.21513425 99.5393587,2.41337354 101.457007,4.55533699 C101.457007,6.72543836 99,10.2380233 96.6628863,12.3405758 C80.2718557,17.5975882 68.9393382,20.3626041 51.6805038,21.3897802 C51.6805038,16.5975882 52.6805038,14.1222171 52.6805038,9.49429703 Z"/>
        <path fill="#1D487A" stroke-linecap="round" stroke-linejoin="round" d="M1.680993,9.49429703 C12.2280585,9.49429703 29.4045411,4.55533699 42.828079,0.215134247 C46.6633755,0.215134247 49.5398479,1.41337354 51.4574962,3.55533699 C51.4574962,5.72543836 49.5398479,7.49429703 46.6633755,11.3405758 C30.2723449,16.5975882 17.9398274,20.3626041 0.680993,21.3897802 C0.680993,16.5975882 1.680993,14.1222171 1.680993,9.49429703 Z" transform="matrix(-1 0 0 1 52.138 0)"/>
        <path fill="#FCDE32" d="M27.5996094,14.1222171 C27.5996094,11.1628229 28.3773872,11.2167969 29.9329427,9.66210938 C31.4884983,8.10742188 34.5996094,10.2444341 34.5996094,14.1222171 C34.5996094,18 32.266276,18 31.0996094,18 C29.9329427,18 27.5996094,17.0816112 27.5996094,14.1222171 Z"/>
        <path fill="#FCDE32" d="M63.0134187,13.8873105 C63.0134187,10.9279163 63.7911964,10.9818903 65.346752,9.42720283 C66.9023075,7.87251533 70.0134187,10.0095275 70.0134187,13.8873105 C70.0134187,17.7650934 67.6800853,17.7650934 66.5134187,17.7650934 C65.346752,17.7650934 63.0134187,16.8467046 63.0134187,13.8873105 Z" transform="scale(-1 1) rotate(4 0 -1891.354)"/>
      </g>
      <path fill="#AA6535" stroke="#000" d="M32.2934366,47.5602391 C33.3329631,47.2737823 44.5649911,41.0967188 56.0505195,36.7535135 C67.027859,32.6024778 100,18.0554689 109,13.5 C114.212676,10.8615352 117.070264,9.5 124.874807,3.55509039 C125.188977,3.31577932 126.955691,1.7292036 128.271489,0.672948785 C129.000618,0.0876413558 130.405935,1.08813642 130.684701,1.29540436 C132.349423,2.53315556 132.553321,3.31218931 132.553321,4.37558089 C132.553321,6.5 123.874807,11.5 115.269108,16.4754616 C106.663409,21.4509231 66.5255677,39.1239582 59.2963683,41.7051362 C47.9597354,45.752869 33.8975216,53.5 32.2934366,53.5 C29.6664509,53.5 30.2603785,48.1204782 32.2934366,47.5602391 Z"/>
      <path fill="#AA6535" stroke="#000" d="M40,44 C41,47.0003223 43,49.8606739 43,49.8606739 C43,49.8606739 43.9409874,51.5 46,49.8606739 C48.0590126,48.2213478 48,48.5 47,46.5602391 C46.2547551,45.1146422 45.0057396,43.5302132 44.3398001,42.3977864 C43,40.119463 42,41.1716693 40.9833844,41.6417743 C40.2081788,42.0002461 39.5272207,42.5815096 40,44 Z"/>
      <path fill="#FCDE32" stroke="#000" stroke-linejoin="round" d="M97,16.5 C98,16.1469865 99,15.4886316 101,18.5 C103,21.5113684 105,22.5 105,23.5 C105,24.5 100,26.9926319 99,27.746316 C98,28.5 96,28.7993026 95,26.5 C94.6527616,26.1099964 95,26.5 97,25.5 C97.4338843,26.5 97.4338843,26.7681684 98.4338843,26.5 C100,25.5 102.867114,24.3671143 102,23.5 C101,22.5 100,21.5 100,21.5 C100,21.5 99,22.5 98,22.5 C97,22.5 98,21.001464 99,20.250732 C98.9204251,19.5 98.4338843,19.5 98,18.4886316 C97.7107438,17.8143861 96.0440771,18.4848422 93,20.5 C92,19.2118045 96,16.8530135 97,16.5 Z"/>
      <g transform="translate(12.832 43.459)">
        <path fill="#88491E" stroke="#000" d="M5.11828425,7.70241833 C5.11828425,11.6963816 5.11828425,17.6569305 5.11828425,18.329254 C5.11828425,19.0015776 11.4208835,23.0649582 15.7826564,24.2458623 C20.1444293,25.4267665 20.1444293,25.4267665 21.5914213,24.4926233 C23.0384132,23.5584801 24.3369441,22.5630625 24.3369441,20.0959393 C24.3369441,17.6288162 24.3369441,10.0047471 24.3369441,8.32573597 C24.3369441,6.39996388 23.4952011,5.4864337 21.5914213,5.02720246 C16.9234962,3.90120199 9.22094196,3.90120199 7.53091641,3.90120199 C5.11828425,3.90120199 5.11828425,3.7084551 5.11828425,7.70241833 Z"/>
        <path stroke="#000" d="M24.1684721,11.0412335 L20.1684721,13.5133876"/>
        <path fill="#AA6535" stroke="#000" d="M1.82312062,8.82841879 C1.82312062,12.822382 1.82312062,18.7829309 1.82312062,19.4552545 C1.82312062,20.1275781 2.95239337,21.884054 7.31416629,23.0649582 C11.6759392,24.2458623 16.9234962,25.6186237 18.2962576,25.6186237 C19.6690191,25.6186237 21.0417805,23.689063 21.0417805,21.2219398 C21.0417805,18.7548166 21.0417805,11.1307476 21.0417805,9.45173644 C21.0417805,7.7727253 6.64838492,5.02720246 4.23575277,5.02720246 C1.82312062,5.02720246 1.82312062,4.83445557 1.82312062,8.82841879 Z"/>
        <g transform="translate(1 5)">
          <path fill="#88491E" d="M20.0417805,8.69041797 C19.1446007,9.3635192 17.9187774,9.95295359 17.1684721,10.2033428 C15.8750354,10.634984 11.7680814,10.156642 10.1684721,11.0989377 C8.56886268,12.0412335 6.16847206,10.7450742 6.16847206,10.2033428 C6.16847206,9.66161151 4.16847206,7.66069644 3.16847206,6.16383747 C2.54821484,5.2353999 1.96264772,4.63260994 0.823120616,3.94998685 C0.823120616,3.90926867 0.823120616,3.8687435 0.823120616,3.82841879 C0.823120616,-0.165544431 0.823120616,0.0272024595 3.23575277,0.0272024595 C5.64838492,0.0272024595 20.0417805,2.7727253 20.0417805,4.45173644 C20.0417805,5.13302613 20.0417805,6.79315775 20.0417805,8.69041797 Z"/>
          <path stroke="#000" d="M0.823120616,3.82841879 C0.823120616,7.82238202 0.823120616,13.7829309 0.823120616,14.4552545 C0.823120616,15.1275781 1.95239337,16.884054 6.31416629,18.0649582 C10.6759392,19.2458623 15.9234962,20.6186237 17.2962576,20.6186237 C18.6690191,20.6186237 20.0417805,18.689063 20.0417805,16.2219398 C20.0417805,13.7548166 20.0417805,6.13074758 20.0417805,4.45173644 C20.0417805,2.7727253 5.64838492,0.0272024595 3.23575277,0.0272024595 C0.823120616,0.0272024595 0.823120616,-0.165544431 0.823120616,3.82841879 Z"/>
        </g>
        <path fill="#AA6535" stroke="#000" d="M11.6759392,2.28167962 C15.7826564,3.51459745 18.2962576,3.51459745 21.0417805,3.65444104 C22.1227269,3.7094992 23.9060142,5.2900398 23.7873033,6.04783191 C22.1227269,5.02720246 21.0417805,8.01657527 20.0417805,10.1887011 C19.0749818,12.2887095 18.8098589,12.41039 16.2962576,12.41039 C13.7826564,12.41039 11.9344847,12.1419331 10.805212,13.148923 C9.67593921,14.1559128 8.53249461,14.8874559 7.61669404,13.148923 C6.70089346,11.41039 4.27562351,8.68909121 3.23575277,8.38403312 C2.19588203,8.07897502 0.823120616,7.13858946 0.823120616,6.08289596 C0.823120616,5.02720246 1.82312062,0.523833923 3.19588203,0.523833923 C4.56864345,0.523833923 7.56922201,1.0487618 11.6759392,2.28167962 Z"/>
        <path fill="#FCDE32" stroke="#000" d="M7.43090198,8.54452528 C7.43090198,6.61498362 8.95528059,6.05075346 10.4796592,7.29763937 C12.0040378,8.54452528 12.0040378,10.4139925 10.4796592,10.7109181 C8.95528059,11.0078438 7.43090198,10.474067 7.43090198,8.54452528 Z" transform="rotate(30 9.527 8.711)"/>
      </g>
    </g>
    <g transform="rotate(96 -21 81.541)">
      <path fill="#F34D4D" stroke="#000" stroke-linecap="round" stroke-linejoin="round" d="M22.04706,8.89969293 C20.04706,13.9235455 16.7847158,17.2959818 12.7847158,23.310777 C10.1180491,27.3206404 7.45138244,30.6975936 4.78471578,33.4416364 C12.1180491,41.6409668 16.4513825,46.2085728 17.7847158,47.1444544 C19.7847158,48.5482769 27.7847158,37.3886334 27.7847158,37.3076883 C27.7847158,37.2746537 34.910735,27.969592 40.9503067,18.8946042 C44.7766201,13.1452317 47.9719685,6.9221923 49.2647443,5.01364369" transform="rotate(13 27.025 26.14)"/>
      <path fill="#DC3D4F" fill-rule="nonzero" d="M32.0015992,10.6131219 C31.042493,12.7249446 29.2617701,16.0464488 29,16.5554689 C28,18.5 23.6518953,22.3558198 22.8845153,24.7589577 C22.1171354,27.1620956 20.8845153,27.3130118 17.8845153,24.7589577 C15.1182111,22.4038608 12.9946204,20.9278015 13.7861788,20.1799152 C18.4265777,15.7955374 21.667266,11.2724904 24.9538382,7.33183829 C25.3661986,8.15985108 25.6105752,4.01350122 25.4436962,2.42575321 C26.1466169,2.35187326 28.6414499,0.959363684 31.5834854,6.63503429 C31.9955067,7.42989118 32.1348779,8.75592037 32.0015992,10.6131219 Z M43.4824031,11.4174573 C47.9907818,4.90408238 50.6526955,1.53018367 51.4681445,1.29576117 C54.0943221,0.540796556 55.6856676,4.78700214 54.600732,8.23785731 C54.2598342,9.322151 52.7524388,10.6310462 51.5611128,11.7617679 C50.7082723,12.5712233 47.983133,15.9719529 41.5993386,22.2016114 C39.9272706,23.8333075 36.6620462,26.7813822 31.8036655,31.0458355 C27.4487675,35.0909331 25.2652489,37.1397721 25.2531098,37.1923524 C25.2349011,37.2712229 14.929567,46.345237 13.2966182,44.5274923 C12.9563843,44.1487551 12.4104278,43.3584559 11.6587487,42.1565946 C13.8748647,41.5305274 17.5250989,39.9749011 19,38.5 C21,36.5 28,30.5 29,29.5 C29.6495489,28.8504511 42.5588005,11.8937336 43.4824031,11.4174573 Z"/>
      <path stroke="#000" stroke-linecap="round" stroke-linejoin="round" d="M18.5258489,8.68255055 C16.5258489,13.7064031 16.3666966,16.0103247 12.3666966,22.0251199 C9.70002994,26.0349833 7.0333633,29.4119365 4.36669664,32.1559793 C11.7000299,40.3553097 16.0333633,44.9229157 17.3666966,45.8587973 C19.3666966,47.2626198 27.3666966,36.1029763 27.3666966,36.0220312 C27.3666966,35.9680678 34.6473438,26.2366082 37.9806771,21.3155473" transform="rotate(13 21.174 27.332)"/>
      <path fill="#1D487A" stroke="#000" stroke-linecap="round" stroke-linejoin="round" d="M13.9471202,9.05699199 C18.2225899,10.793369 20.8771885,10.5121955 25.1811086,12.0843907 C33.6304743,15.1708912 30.5895387,23.2326407 24.7287779,21.7354219 C14.0678057,19.0119176 10.5950937,18.2071454 10.5277732,17.4077735 C10.2565288,14.1869877 12.088628,11.6255258 13.9471202,9.05699199 Z" transform="rotate(-69 20.45 15.488)"/>
      <path fill="#FCDE32" stroke="#000" d="M24.0332113,6.67045563 C24.0332113,4.47057773 25.3646397,3.82729674 26.6960681,5.24887618 C28.0274965,6.67045563 28.0274965,8.80184238 26.6960681,9.14036845 C25.3646397,9.47889452 24.0332113,8.87033353 24.0332113,6.67045563 Z" transform="rotate(49 25.864 6.86)"/>
    </g>
    <path fill="#FCDE32" fill-rule="nonzero" stroke="#000" d="M116.298828,168.497833 C116.298828,166.072388 117.993893,165.363147 119.688958,166.93049 C121.384022,168.497833 121.384022,170.847764 119.688958,171.221001 C117.993893,171.594238 116.298828,170.923278 116.298828,168.497833 Z M116.394292,184.740738 C116.394292,182.315293 118.089357,181.606053 119.784422,183.173395 C121.479487,184.740738 121.479487,187.090669 119.784422,187.463906 C118.089357,187.837143 116.394292,187.166183 116.394292,184.740738 Z"/>
    <path fill="#FCDE32" stroke="#000" d="M118.383391,211.167096 C118.383391,209.001431 119.964805,208.368154 121.546219,209.767625 C123.127633,211.167096 123.127633,213.265335 121.546219,213.598597 C119.964805,213.931858 118.383391,213.332761 118.383391,211.167096 Z" transform="rotate(-54 120.558 211.354)"/>
  </g>
</svg>
