<svg xmlns="http://www.w3.org/2000/svg" width="431" height="325" viewBox="0 0 431 325">
  <g fill="none" fill-rule="evenodd" transform="translate(-2 -10)">
    <path fill="#F3D4B7" stroke="#000" stroke-linecap="round" stroke-linejoin="round" d="M35.627956,257.843707 C33.627956,261.974566 27.627956,267.974566 25.627956,272.843707 C23.627956,277.712847 27.627956,280.843707 32.627956,276.843707 C37.627956,272.843707 42.8674799,265.843707 43.8674799,263.843707" transform="rotate(13 34.485 268.257)"/>
    <g transform="translate(23 235)">
      <path fill="#F34D4D" stroke="#000" stroke-linecap="round" stroke-linejoin="round" d="M23.712187,2.67501068 C21.712187,7.69886323 16.8232981,13.4227156 12.8232981,19.4375108 C10.1566314,23.4473742 7.48996479,26.8243274 4.82329813,29.5683702 C12.1566314,37.7677006 16.4899648,42.3353066 17.8232981,43.2711882 C19.8232981,44.6750107 27.8232981,33.5153672 27.8232981,33.4344221 C27.8232981,33.3804587 29.4899648,30.8929466 32.8232981,25.9718857" transform="rotate(13 18.823 23.034)"/>
      <path fill="#DC3D4F" fill-rule="nonzero" d="M28.970166,9.76389185 L29.4100436,12.7572563 C29.386493,13.4232405 29.2617701,14.0464488 29,14.5554689 C28,16.5 21,22.6743409 21,23.9625365 C21,25.250732 19,26.5165906 16,23.9625365 C13.2336958,21.6074396 13.0182046,23.2023376 11.433346,20.3289652 C12.2103428,19.6441515 12.9946204,18.9278015 13.7861788,18.1799152 C18.4265777,13.7955374 23.6923716,9.7887767 26.9789438,5.84812454 C27.3913042,6.67613733 27.7316563,7.35602174 28,7.70383852 C28.3526183,8.16088877 28.7052366,8.90575753 28.970166,9.76389205 L28.970166,9.76389185 Z M31.2227005,25.0923728 L31.8036655,29.0458355 C27.4487675,33.0909331 25.2652489,35.1397721 25.2531098,35.1923524 C25.2349011,35.2712229 14.929567,44.345237 13.2966182,42.5274923 C12.9563843,42.1487551 12.4104278,41.3584559 11.6587487,40.1565946 C13.8748647,39.5305274 17.5250989,37.9749011 19,36.5 C21,34.5 28,28.5 29,27.5 C29.6495489,26.8504511 30.2990979,25.5686491 31.2227005,25.0923728 Z"/>
      <path stroke="#000" stroke-linecap="round" stroke-linejoin="round" d="M23.712187,2.67501068 C21.712187,7.69886323 16.8232981,13.4227156 12.8232981,19.4375108 C10.1566314,23.4473742 7.48996479,26.8243274 4.82329813,29.5683702 C12.1566314,37.7677006 16.4899648,42.3353066 17.8232981,43.2711882 C19.8232981,44.6750107 27.8232981,33.5153672 27.8232981,33.4344221 C27.8232981,33.3804587 29.4899648,30.8929466 32.8232981,25.9718857" transform="rotate(13 18.823 23.034)"/>
      <path fill="#1D487A" stroke="#000" stroke-linecap="round" stroke-linejoin="round" d="M13.9471202,7.05699199 C18.2225899,8.79336904 20.8771885,8.51219548 25.1811086,10.0843907 C33.6304743,13.1708912 30.5895387,21.2326407 24.7287779,19.7354219 C14.0678057,17.0119176 10.5950937,16.2071454 10.5277732,15.4077735 C10.2565288,12.1869877 12.088628,9.62552584 13.9471202,7.05699199 Z" transform="rotate(-69 20.45 13.488)"/>
      <path fill="#E8DB54" stroke="#000" d="M23.8617176,5.04805461 C23.8617176,2.84817671 25.5567824,2.20489572 27.2518472,3.62647516 C28.9469119,5.04805461 28.9469119,7.17944136 27.2518472,7.51796743 C25.5567824,7.8564935 23.8617176,7.24793251 23.8617176,5.04805461 Z" transform="rotate(49 26.192 5.238)"/>
    </g>
    <path fill="#4AAED9" stroke="#000" stroke-linecap="round" stroke-linejoin="round" d="M166.071385,292.113348 C163.652743,296.862729 160.748135,299.440311 160.748135,302.53887 C160.748135,305.637429 167.440112,311.915917 171.471182,308.345819 C175.502251,304.775722 174.133523,293.898397 174.939737,292.113348" transform="rotate(-96 167.844 300.763)"/>
    <path fill="#F3D4B7" stroke="#000" stroke-linecap="round" stroke-linejoin="round" d="M64.1343194,314.863034 C62.205748,319.509722 62.205748,321.436958 62.205748,324.468519 C62.205748,327.50008 64.0475154,330.581101 67.2618011,327.088197 C70.4760868,323.595293 70.5628908,316.609486 71.205748,314.863034" transform="rotate(28 66.706 321.751)"/>
    <path fill="#F3D4B7" stroke="#000" stroke-linecap="round" stroke-linejoin="round" d="M128.044643,316.070995 C125.36461,322.066886 125.36461,324.553711 125.36461,328.46551 C125.36461,332.377308 127.924016,336.352928 132.390736,331.845832 C136.857456,327.338736 136.978083,318.324543 137.871428,316.070995" transform="matrix(-1 0 0 1 263.236 0)"/>
    <path fill="#5CC8E6" stroke="#000" d="M54.0382986,155.997519 C47.0311761,163.393926 43.2548287,172.153839 41.3549028,182.572664 C38.7486755,196.864709 34.5266492,223.019818 40.7262339,235.508551 C41.9914445,238.05725 40.9093639,241.775362 41.0382986,244.997519 C42.7190297,287 47.0382986,302.997519 63.0382986,312.997519 C79.0382986,322.997519 96.0382986,327.997519 118.038299,322.997519 C140.038299,317.997519 151.038299,310.44552 154.038299,308.721519 C157.038299,306.997519 167.038299,293.997519 165.038299,275.997519 C163.038299,257.997519 157.038299,244.997519 167.038299,230.997519 C177.038299,216.997519 182.038299,188.997519 169.038299,173.997519 C156.038299,158.997519 136.076597,142.997519 113.038299,139.997519 C90,136.997519 72.0382986,136.997519 54.0382986,155.997519 Z"/>
    <path fill="#4AAED9" fill-rule="nonzero" d="M40.0416926,190.161595 C42.3473691,192.774976 43.9098022,187.952382 45.876545,188.999992 C46.9365252,189.564604 52.0182066,193.603518 54.0816401,199 C55.0690723,201.582424 54.2075064,207.272116 56,209 C63.9675294,216.680342 58.9551857,223.724184 58,225 C56,227.671346 49,227 47,226 C45,225 44,219.843071 42,222.218171 C42,224.072724 43.3333333,227.199006 46,231.597017 C50,238.194033 78,241 99,239.335697 C120,237.671394 156,232.234014 162,225 C168,217.765986 172,203.561627 169,195.985368 C166,188.40911 158,181.918178 152,177.5 C146,173.081822 134,166.919408 115,160.921086 C96,154.922765 61,158 49,162.5 C48.9589031,162.515411 48.9179205,162.530755 48.8770523,162.546032 C50.3634521,160.251697 52.0739211,158.071029 54.0382986,155.997519 C72.0382986,136.997519 90,136.997519 113.038299,139.997519 C136.076597,142.997519 156.038299,158.997519 169.038299,173.997519 C182.038299,188.997519 177.038299,216.997519 167.038299,230.997519 C157.038299,244.997519 163.038299,257.997519 165.038299,275.997519 C167.038299,293.997519 157.038299,306.997519 154.038299,308.721519 C151.038299,310.44552 140.038299,317.997519 118.038299,322.997519 C96.0382986,327.997519 79.0382986,322.997519 63.0382986,312.997519 C47.0382986,302.997519 42.7190297,287 41.0382986,244.997519 C40.9093639,241.775362 41.9914445,238.05725 40.7262339,235.508551 C35.509359,224.999434 37.6720448,204.813134 40.0416926,190.161595 Z M69,215.066391 C65.5699566,208.225208 86,157 109,167.360887 C132,177.721775 129,195.376413 129,200.170787 C129,204.965161 123.190434,219.5 114.932096,224.5 C106.673757,229.5 91.0027426,229.718171 87.1591499,228.343168 C83.3155571,226.968165 72.4300434,221.907574 69,215.066391 Z"/>
    <path stroke="#000" d="M54.0382986,155.997519 C47.0311761,163.393926 43.2548287,172.153839 41.3549028,182.572664 C38.7486755,196.864709 34.5266492,223.019818 40.7262339,235.508551 C41.9914445,238.05725 40.9093639,241.775362 41.0382986,244.997519 C42.7190297,287 47.0382986,302.997519 63.0382986,312.997519 C79.0382986,322.997519 96.0382986,327.997519 118.038299,322.997519 C140.038299,317.997519 151.038299,310.44552 154.038299,308.721519 C157.038299,306.997519 167.038299,293.997519 165.038299,275.997519 C163.038299,257.997519 157.038299,244.997519 167.038299,230.997519 C177.038299,216.997519 182.038299,188.997519 169.038299,173.997519 C156.038299,158.997519 136.076597,142.997519 113.038299,139.997519 C90,136.997519 72.0382986,136.997519 54.0382986,155.997519 Z"/>
    <path fill="#4AAED9" stroke="#000" stroke-linecap="round" stroke-linejoin="round" d="M56.6108448,128.75822 C54.0394162,134.079509 54.0394162,136.28654 54.0394162,139.75822 C54.0394162,143.2299 56.495106,146.75822 60.7808203,142.75822 C65.0665346,138.75822 65.1822733,130.75822 66.0394162,128.75822" transform="scale(1 -1) rotate(-8 -1894.093 0)"/>
    <g transform="rotate(9 -498.545 131.619)">
      <path fill="#DDB27A" stroke="#000" d="M109.282108,0.848222227 C99.6231274,0.848222227 90.6231274,12.2711203 82.6231274,18.8482222 C74.6231274,25.4253242 67.6231274,26.5158549 60.6231274,34.0677456 C55.6635153,39.4183811 54.2178678,53.1705848 54.8634991,62.3830736 C55.1291122,66.1730979 65.6231274,56.598395 85.6231274,54.2233086 C105.623127,51.8482222 135.623127,53.090169 145.623127,56.7016607 C155.623127,60.3131524 161.623127,66.9770421 161.623127,63.6450972 C161.623127,60.3131524 166.623127,47.6830433 161.623127,39.0406219 C156.623127,30.3982005 150.623127,25.4253242 139.623127,18.8482222 C128.623127,12.2711203 118.941088,0.848222227 109.282108,0.848222227 Z"/>
      <path fill="#C59B63" fill-rule="nonzero" d="M127.359518,9.97035714 C131.299832,13.0264082 135.362622,16.300788 139.623127,18.8482222 C142.17895,20.3763954 144.464845,21.8179638 146.530988,23.2390784 C149.59048,26.0789736 156.233425,31.3332259 157,32.4990293 C157.475517,33.2221933 158.872349,34.9536964 160.206773,36.7323379 C160.689558,37.4731502 161.160621,38.2411868 161.623127,39.0406219 C162.389556,40.365382 162.92102,41.7838389 163.271543,43.2481412 C163.313613,43.4614178 163.36242,43.6832272 163.417964,43.9135693 C163.520537,44.4233768 163.602525,44.9377862 163.666149,45.45483 C151.881311,42.7637708 145.325928,40.9578927 144,40.0371958 C142,38.6484375 123,36.3290181 123,36.4853684 C123,36.6417187 107.653889,36.3290181 111.687784,36.4853684 C115.72168,36.6417187 127.865993,34.609891 131.599609,34.609891 C135.333225,34.609891 143,34.4980586 144,32.4990293 C145,30.5 141,29.3506462 140,28.5339208 C139,27.7171955 134,23.3378906 133,21.5 C132.333333,20.2747396 129.6346,15.9414063 124.903801,8.5 C125.749036,9.00471327 126.567608,9.49483231 127.359518,9.97035714 Z M106.15599,8.5 C103.333833,11.5 96.0167187,20.209018 100.808164,24.854509 C105.599609,29.5 114,30.5 118.866718,30.5 C123.733437,30.5 109.840023,34.4707368 104,31.9853684 C98.1599769,29.5 93.8993135,25.5 96,19.5 C100,11.5 102.333833,11.5 106.15599,8.5 Z"/>
      <path stroke="#000" d="M109.282108,0.848222227 C99.6231274,0.848222227 90.6231274,12.2711203 82.6231274,18.8482222 C74.6231274,25.4253242 67.6231274,26.5158549 60.6231274,34.0677456 C55.3268826,39.7815544 54.0378105,55.0761471 55.023424,64.1921713 C55.3404871,67.1247158 65.6231274,56.598395 85.6231274,54.2233086 C105.623127,51.8482222 135.623127,53.090169 145.623127,56.7016607 C155.623127,60.3131524 161.623127,66.9770421 161.623127,63.6450972 C161.623127,60.3131524 166.623127,47.6830433 161.623127,39.0406219 C156.623127,30.3982005 150.623127,25.4253242 139.623127,18.8482222 C128.623127,12.2711203 118.941088,0.848222227 109.282108,0.848222227 Z"/>
      <path fill="#AA6535" stroke="#000" d="M82.6231274,38.8482222 C69.5996094,41.790227 55.9752836,43.3731272 55.2093934,49.7591247 C54.1531484,58.5661022 65.6231274,52.598395 85.6231274,50.2233086 C105.623127,47.8482222 135.623127,49.090169 145.623127,52.7016607 C155.623127,56.3131524 161.623127,66.9770421 161.623127,63.6450972 C161.623127,61.2064154 164.301584,53.7867869 163.777335,46.5952965 C163.585308,43.9611307 152.646645,41.790227 139.623127,38.8482222 C126.599609,35.9062175 95.6466454,35.9062175 82.6231274,38.8482222 Z"/>
      <path fill="#88491E" stroke="#000" d="M91.6706455,36.2550323 C98.7743897,35.2714967 112.611746,38.0728364 133.182713,44.6590514 C139.672295,47.3986718 142.917086,49.5252249 142.917086,51.0387106 C142.917086,52.5521963 139.672295,52.9313932 133.182713,52.1763012 C112.346818,48.0597137 100.798692,45.5156959 98.5383344,44.5442477 C95.1477988,43.0870754 81.0150293,37.7303356 91.6706455,36.2550323 Z" transform="rotate(-11 115.339 44.308)"/>
      <path fill="#C59B63" stroke="#000" d="M177.542728,85.2232493 C165.414887,69.231097 155.053236,58.9284722 129.729174,55.9284722 C104.405112,52.9284722 64.1326284,54.1358071 44.3467436,73.1358071 C38.4836972,78.7659764 44.4726637,83.907109 41.5120475,90.6199771 C39.6603336,90.7280156 38.0805467,90.8455439 36.8124361,90.974401 C18.5996094,92.8250679 -9.40039062,78.4816627 4.59960938,70.7408313 C18.5996094,63 62.5996094,44.8398774 104.599609,43.854509 C146.599609,42.8691406 193.599609,58.5863767 201.599609,63.5 C208.511892,67.7455443 198.999919,80.2283318 177.556015,85.2372082 L177.542728,85.2232493 Z"/>
      <path stroke="#000" stroke-linecap="round" stroke-linejoin="round" d="M105.599609,8.66210937 C98.1599769,15.9589844 92,19.1670736 96.8667184,27.2392113 C101.733437,35.3113491 116.370111,32.8163133 124.599609,28.2392113 C130.085942,25.18781 126.841645,18.328776 114.866718,7.66210938 M131.599609,19.6621094 C133.937983,22.1112347 141.13114,30.6621094 145.920225,32.2994331 C148.958725,33.3382556 152.137567,33.3739525 153.829108,32.9210864"/>
      <path stroke="#000" stroke-linecap="round" stroke-linejoin="round" d="M69.7689467,18.9636078 C72.10732,21.4127331 79.3004776,29.9636078 84.0895621,31.6009316 C87.1280625,32.6397541 90.3069039,32.675451 91.9984453,32.2225848" transform="matrix(-1 0 0 1 161.767 0)"/>
    </g>
    <g transform="translate(24 154)">
      <path fill="#FFF" stroke="#000" d="M31.9312055,0.0688791244 C31.3001368,0.688873768 30.6692412,1.33152403 30.0382986,1.99751898 C19.3955924,13.2314866 16.2058918,27.6108979 15.7238374,46.1707871 C8.90085083,42.9661988 2.86122757,37.4596703 2.86122757,28.5099028 C2.86122757,11.5558798 12.1241432,0.0616269099 31.1618208,0.0616269099 C31.4196926,0.0616269099 31.6761604,0.0640521704 31.9312055,0.0688791244 Z"/>
      <path fill="#000" stroke="#000" d="M0.27773694,20.3608873 C0.27773694,24.3608873 4.22077379,25.3608873 5.79798853,25.3608873 C7.37520328,25.3608873 10.5296328,24.3608873 11.3182401,20.3608873 C12.1068475,16.3608873 9.74102539,13.3608873 5.79798853,13.3608873 C1.85495168,13.3608873 0.27773694,16.3608873 0.27773694,20.3608873 Z"/>
      <path fill="#FFF" d="M5.27773694,19.277554 C5.27773694,20.9442207 6.75452645,21.3608873 7.34524225,21.3608873 C7.93595806,21.3608873 9.11738967,20.9442207 9.41274757,19.277554 C9.70810547,17.6108873 8.82203177,16.3608873 7.34524225,16.3608873 C5.86845274,16.3608873 5.27773694,17.6108873 5.27773694,19.277554 Z"/>
    </g>
    <g transform="translate(58 161.5)">
      <path fill="#FFF" stroke="#000" d="M0,35.2068966 C0,55.8908046 23.7583113,61.5 32.1058349,61.5 C40.4533585,61.5 56.0246786,57.9942529 60.1984404,37.3103448 C64.3722022,16.6264368 51.8914835,0.5 31.0226745,0.5 C10.1538654,0.5 6.4578914e-16,14.5229885 0,35.2068966 Z"/>
      <path fill="#F0F0F0" d="M47.1222958,4.5 C57.7940747,10.4382847 63.1241705,22.7728268 60.211108,37.3916165 C56.103307,58.0060314 40.778071,61.5 32.562469,61.5 C26.7496811,61.5 13.3441843,58.7014752 6,49.763106 C12.9028817,53.7955217 20.8766427,55.2108565 25.010443,55.2108565 C33.2260451,55.2108565 48.551281,51.7168879 52.659082,31.102473 C54.7684603,20.5168582 52.5556573,11.1289557 47.1222958,4.5 Z"/>
      <path stroke="#000" d="M0,35.2068966 C0,55.8908046 23.7583113,61.5 32.1058349,61.5 C40.4533585,61.5 56.0246786,57.9942529 60.1984404,37.3103448 C64.3722022,16.6264368 51.8914835,0.5 31.0226745,0.5 C10.1538654,0.5 6.4578914e-16,14.5229885 0,35.2068966 Z"/>
      <path fill="#000" d="M6.79722363,18.882681 C6.79489553,23.2387873 12.2342056,24.3249036 14.4101625,24.3237396 C16.5861194,24.3225755 20.9386152,23.2312208 22.0289217,18.8745324 C23.1192283,14.5178441 19.8570391,11.2525105 14.4171469,11.2554207 C8.97725483,11.2583309 6.79955183,14.5265747 6.79722363,18.882681 Z" transform="rotate(66 14.518 17.79)"/>
      <path fill="#FFF" d="M14.8250378,19.0707429 C13.8898054,18.2120545 13.700347,17.0277769 14.9802618,15.6771237 C16.2601767,14.3264705 17.72955,14.1600949 18.4087995,15.288914 C19.088049,16.417733 18.2979252,17.7129277 17.7859592,18.253189 C17.2739933,18.7934502 15.7602703,19.9294313 14.8250378,19.0707429 Z" transform="rotate(-58 16.372 16.962)"/>
    </g>
    <g stroke="#000" transform="translate(26 181)">
      <path fill="#F3D4B7" d="M20,19 C25,21.5962256 27.5083182,21.8075489 27.5083182,27 C27.5083182,32.1924511 20.5644851,35.2981128 15.3212891,34 C10.078093,32.7018872 14.3412513,39.2517808 12,32.7612169 C9.6587487,26.270653 5,22.3763146 12,21.0782019 C19,19.7800891 15,16.4037744 20,19 Z"/>
      <path fill="#F34D4D" d="M17.1765706,24 C24.5081667,27 29.5622617,39 23.5996094,42 C17.636957,45 17.5996094,40 16.5996094,35 C15.5996094,30 9,28 8,26 C7,24 9.84497442,21 17.1765706,24 Z" transform="rotate(-12 17.018 32.818)"/>
      <path stroke-linecap="round" stroke-linejoin="round" d="M14.7961521,25.6970374 C19.9744877,29.6970374 22.5228935,33.1970374 21.7961521,37.6970374" transform="rotate(-12 18.357 31.697)"/>
      <path fill="#FFF" d="M5.62648399,24.003362 C5.62648399,28.0139138 6,29 5,33 C4,37 6.62648399,41.003362 9.62648399,37.003362 C12.626484,33.003362 12.626484,27.003362 12.626484,24.003362 C12.626484,21.003362 5.62648399,19.9928102 5.62648399,24.003362 Z"/>
      <path fill="#FFF" d="M9.71902971,25.7041016 C9.71902971,29.7146533 10.7190297,30.7041016 9.71902971,34.7041016 C8.71902971,38.7041016 10.7190297,42.7041016 13.7190297,38.7041016 C16.7190297,34.7041016 16.7190297,28.7041016 16.7190297,25.7041016 C16.7190297,22.7041016 9.71902971,21.6935498 9.71902971,25.7041016 Z"/>
      <path fill="#F3D4B7" d="M2.16932205,17.7952132 C1.73574639,21.8954586 2.7099581,28.8273351 11.7615438,28.5650453 C20.8131295,28.3027554 23.1950022,26.9581775 23.9391632,21.8044546 C24.6833241,16.6507317 22.9543945,8.23913097 13.4040626,9.5813426 C3.85373066,10.9235542 2.60289772,13.6949679 2.16932205,17.7952132 Z" transform="rotate(8 13.089 19.005)"/>
      <path fill="#9B8E7D" d="M5.99316657,7.29231298 C5.99316657,10.6256463 10.9931666,11.4589797 12.9931666,11.4589797 C14.9931666,11.4589797 18.9931666,10.6256463 19.9931666,7.29231298 C20.9931666,3.95897964 17.9931666,1.45897965 12.9931666,1.45897965 C7.99316657,1.45897965 5.99316657,3.95897965 5.99316657,7.29231298 Z" transform="rotate(8 13.089 6.459)"/>
    </g>
    <path fill="#F34D4D" stroke="#000" stroke-linecap="round" stroke-linejoin="round" d="M57.6207875,251.624058 C53.1194683,248.182811 48.8736908,244.730261 48.1352368,244.178011 C47.2091114,243.485412 44.7394438,240.472446 40.7262339,235.139113 C40.7262339,257.746051 41.6457543,274.459304 43.4847952,285.278873 C44.2121271,289.557961 42.5155877,293.271086 43.3807957,295.816042 C44.6037558,299.413305 45.058209,300.889667 47.4669231,303.67544 C49.47685,306 50.5697978,308.228451 52.0613621,309.139113 C57.6207875,300.889667 59.9991287,253.442293 57.6207875,251.624058 Z"/>
    <path fill="#F34D4D" stroke="#000" stroke-linecap="round" stroke-linejoin="round" d="M156.913,252.445313 C149.764625,252.102359 134.461974,254.632855 117.497589,253.489486 C113.103349,253.193322 122.289408,243.375581 116.913,243.375581 C97.5796669,243.375581 78.2463336,241.389155 58.9130003,237.416303 C59.9048326,240.599264 60.3277148,242.797812 60.1816467,244.011945 C58.858159,255.012921 56.4352768,264.407941 56.9130003,272.197008 C57.0652284,274.679019 55.4604559,281.701147 54.8441788,283.921632 C53.4437882,288.967328 53.4437882,293.962325 56.9130003,296.5 C62.8144938,300.816851 85.7168191,314.22403 116.913,318 C128.913,319.452474 145.579667,317.785807 166.913,313 C168.438724,306.990795 169.105391,298.24698 168.913,286.768555 C168.72061,275.29013 167.387276,263.813242 164.913,252.337891 C165.579667,252.697363 162.913,252.733171 156.913,252.445313 Z" transform="matrix(-1 0 0 1 222.913 0)"/>
    <path fill="#DC3D4F" d="M166.988008,279.348467 C164.019223,280.578879 160.913155,282.056555 158.5,283 C152,285.541233 118,296.203841 110.440178,298.472154 C103.849625,300.449639 68.9072057,298.840981 54.0816401,297.013586 C54.200349,300.206005 54.4118033,303.103191 54.7160033,305.705143 C55.5254269,306.622631 55.4255701,308.450144 58.7708466,308.754429 C63,309.139113 60.4905256,303.88228 62,304.148438 C65,304.677412 82,307 84,307 C86,307 84.0666397,308.213365 91,308.213365 C97.9333603,308.213365 97.9333603,307.213365 98.9333603,307.213365 C99.9333603,307.213365 116,305.623857 124,304.148438 C132,302.673018 147,298.472154 152,296.203841 C153.869534,295.355703 161.851447,289.311559 165.112196,292.103542 C166.076506,292.929223 166.514524,294.375663 166.764368,295.847691 C169.460318,293.165867 169.35761,288.56522 168.068821,283.921632 C167.99664,283.661558 167.910899,283.335615 167.816008,282.958811 C165.108681,282.061824 163.464202,280.752674 164,278.601596 C166,270.572153 161.788825,257.047356 160,256 C156.818498,254.137233 146.04553,251.973679 137.74454,252.583909 C135.608962,252.740902 135.720035,254.919947 135,256 C133,259 131,261.148438 123,264.148438 C115,267.148438 116,266 114,260 C113.358508,258.075523 111.055527,258.295886 109,258 C104.646947,257.373394 99.2466026,258.320746 97.9333603,259 C96,260 83,263.000216 83,264.148438 C83,265.296659 89,271.454305 89,273.227153 C89,275 91,284.124093 91,285.856678 C91,287.589263 87.1591499,290.268168 83,289.5 C78.8408501,288.731832 74.0548606,288.631416 71.6218687,287.589263 C69.1888767,286.54711 64,285.011262 64,284 C64,282.988738 64,274.738023 64,274.738023 C64,274.738023 58.0226041,278.443647 54.174181,281.379111 C54.6377064,271.697611 55.9129794,262.017204 58,252.337891 C57.3333333,252.697363 60,252.733171 66,252.445313 C73.1483751,252.102359 88.451026,254.632855 105.415411,253.489486 C109.809651,253.193322 100.623593,243.375581 106,243.375581 C125.333333,243.375581 144.666667,241.389155 164,237.416303 C163.008168,240.599264 162.585285,242.797812 162.731354,244.011945 C164.054841,255.012921 166.477723,264.407941 166,272.197008 C165.910896,273.649802 166.42376,276.658087 166.988008,279.348467 Z"/>
    <path stroke="#000" stroke-linecap="round" stroke-linejoin="round" d="M156.913,252.445313 C149.764625,252.102359 134.461974,254.632855 117.497589,253.489486 C113.103349,253.193322 122.289408,243.375581 116.913,243.375581 C97.5796669,243.375581 78.2463336,241.389155 58.9130003,237.416303 C59.9048326,240.599264 60.3277148,242.797812 60.1816467,244.011945 C58.858159,255.012921 56.4352768,264.407941 56.9130003,272.197008 C57.0652284,274.679019 55.4604559,281.701147 54.8441788,283.921632 C53.4437882,288.967328 53.4437882,293.962325 56.9130003,296.5 C62.8144938,300.816851 85.7168191,314.22403 116.913,318 C128.913,319.452474 145.579667,317.785807 166.913,313 C168.438724,306.990795 169.105391,298.24698 168.913,286.768555 C168.72061,275.29013 167.387276,263.813242 164.913,252.337891 C165.579667,252.697363 162.913,252.733171 156.913,252.445313 Z" transform="matrix(-1 0 0 1 222.913 0)"/>
    <path fill="#FCDE32" stroke="#000" d="M58.9999544,262.40102 C58.9999544,259.975575 60.3451652,259.266334 61.690376,260.833677 C63.0355868,262.40102 63.0355868,264.75095 61.690376,265.124188 C60.3451652,265.497425 58.9999544,264.826464 58.9999544,262.40102 Z" transform="rotate(10 60.85 262.61)"/>
    <path fill="#FCDE32" fill-rule="nonzero" stroke="#000" d="M58,282.401083 C58,279.975638 59.3452108,279.266397 60.6904216,280.83374 C62.0356324,282.401083 62.0356324,284.751013 60.6904216,285.124251 C59.3452108,285.497488 58,284.826527 58,282.401083 Z M58.1700806,306.778485 C56.7796381,305.505539 57.1107301,303.853917 58.7469262,303.397115 C60.3831222,302.940312 61.7302746,304.173627 61.206561,305.648904 C60.6828473,307.12418 59.5605231,308.051431 58.1700806,306.778485 Z"/>
    <g stroke="#000" transform="matrix(-1 0 0 1 52 254)">
      <path fill="#F34D4D" d="M1.00187141,10.7266097 C1.18404679,13.2040551 1.97163056,18.3946042 1.97163056,20.9155128 C1.97163056,23.4364214 3.6205662,25 5.56381133,25 C6.58216857,25 9.35191288,23.4594042 11.7129343,22.5806335 C13.5437517,21.8992043 13,19.2805588 13,16.4369575 C13,13.7803731 11.7390973,9.80313598 11.4348368,8.72232891 C10.9977941,7.16984758 0.819696028,8.24916421 1.00187141,10.7266097 Z"/>
      <path fill="#F34D4D" d="M7.00999677,13.0778418 C7.28913383,15.8744229 7.68822176,16.4016882 7.68822176,20.054313 C7.68822176,23.7069378 9.15390647,23.2603765 11.5769532,22.4024842 C14,21.5445918 14,19.9392525 14,18.8066945 C14,17.6741366 13.7239472,12.5678432 13.0542913,10.8153767 C12.3846355,9.06291031 6.73085971,10.2812606 7.00999677,13.0778418 Z"/>
      <path fill="#F34D4D" stroke-linejoin="round" d="M-5.68434189e-14,5.40679905 C5.76190476,4.41595487 9.42857143,2.94651001 11,0.998464494 C13.9335938,5.87771077 14.9335938,9.30733555 14,11.2873388 C13.029316,11.091479 13.5,9.59250869 12,10.4536074 C11,11.0276731 10.6666667,12.1184954 11,13.7260742 C9.98726111,12.2808867 8.69517738,11.5582929 7.12374881,11.5582929 C5.55232024,11.5582929 3.70154682,12.3721953 1.57142857,14 C0.851793271,9.79659339 0.327983747,6.93219307 -5.68434189e-14,5.40679905 Z"/>
      <path fill="#FCDE32" d="M8,7.29963042 C8,4.97666705 8.45454545,4.29739381 9.90909091,5.79851212 C11.3636364,7.29963042 11.3636364,9.55027049 9.90909091,9.90773746 C8.45454545,10.2652044 8,9.6225938 8,7.29963042 Z"/>
    </g>
    <g stroke="#000" transform="scale(-1 1) rotate(7 -2175.331 -601.918)">
      <path fill="#F34D4D" d="M2.6588311,9.41062993 C2.97745628,12.2513047 4.00144794,17.9784115 4.00144794,21.6886271 C4.00144794,25.3988427 7.39648838,25.4664705 10.1623114,24.2303443 C12.2792074,23.2842424 21.2785811,21.6886271 24.9168165,20.2592941 C26.0743867,19.8045261 26.7860839,18.0528079 26.6353206,16.8829123 C26.2442124,13.8479858 25.4646036,8.99257234 24.9128886,7.70774624 C24.1484999,5.92764871 2.34020592,6.56995517 2.6588311,9.41062993 Z"/>
      <path fill="#DC3D4F" d="M1.63893552,9.76328151 C1.96151644,12.4857197 2.99822096,17.9744487 2.99822096,21.530235 C2.99822096,25.0860214 6.55879322,26.102068 9.35895397,24.9173928 C10.2750775,24.5298047 12.4418523,23.8546641 14.9103724,23.101633 C18.2167025,22.093025 16.7524118,6.95286929 10.6711303,7.398937 C5.79149218,7.75686304 1.4953273,8.5512926 1.63893552,9.76328151 Z"/>
      <path fill="#F34D4D" d="M11.7202794,12.3777818 C12.0392932,15.8197278 12.4953937,16.4686697 12.4953937,20.9642079 C12.4953937,25.4597461 14.1704619,24.9101323 16.9396582,23.8542648 C19.7088545,22.7983973 19.7088545,20.822595 19.7088545,19.4286775 C19.7088545,18.0347601 19.3933656,11.7500912 18.6280446,9.59320948 C17.8627236,7.43632772 11.4012656,8.93583583 11.7202794,12.3777818 Z"/>
      <path fill="#F34D4D" stroke-linejoin="round" d="M0.501341854,3.85797116 C6.32670013,3.14270711 13.5508035,2.13408461 22.173652,0.832103682 C24.3201098,5.40372146 25.6176326,8.68736865 26.0662204,10.6830453 C23.8302187,10.9575917 21.6618223,9.49918088 19.3732112,10.4411902 C17.8474705,11.0691963 16.987843,12.443142 16.7943288,14.5630271 C14.3469171,13.2550985 12.2303541,12.6011342 10.4446398,12.6011342 C8.65892548,12.6011342 5.98035405,13.6806086 2.40892548,15.8395575 C1.65193062,9.67432909 1.01606941,5.68046697 0.501341854,3.85797116 Z"/>
      <path fill="#FCDE32" d="M12.6120304,7.41631002 C12.6120304,4.62875397 14.0665759,3.81362609 15.5211213,5.61496805 C16.9756668,7.41631002 16.9756668,10.1170781 15.5211213,10.5460385 C14.0665759,10.9749988 12.6120304,10.2038661 12.6120304,7.41631002 Z"/>
    </g>
    <g transform="translate(36 235)">
      <path fill="#AA6535" stroke="#000" stroke-linecap="round" stroke-linejoin="round" d="M130.444444,40 C121,47 96.138258,56.8609363 80.4444444,59 C56.6269783,62.246316 30.1301654,58.5072682 26.4444444,57.6498885 C17.4444444,55.5562906 11.4444444,52.7434864 6.44444444,50 C6.44444444,52.3224359 5.44444444,54.1495843 6.44444444,58.7434864 C8.15899583,61.8397185 15.5548088,63.2684419 27.4849755,66.1757479 C43.3875511,70.0511047 62.144625,69.2519148 66.4444444,69 C80.9793787,68.1484375 92.4762309,66.0679754 108.444444,61 C119,57.6498885 129.27452,51.6365862 132.444444,49 C133.444444,45.916338 132.444444,38.2271527 130.444444,40 Z"/>
      <path fill="#88491E" d="M130.444444,40 C129.843864,40.4451358 129.18094,40.9018407 128.461993,41.3673932 C127.334563,42.0974583 130,48.5602391 127.31116,50.2205836 C115.363863,57.5979749 94.5787993,64.1364864 81.447974,65.9262153 C76.4144534,66.6122832 70.2611061,67.7216749 65.2286048,67.459402 C63.7553064,67.3826198 62.2923653,65.2739836 60.8458202,65.1386373 C57.6274346,64.8375083 54.4902106,64.4041621 51.5006549,63.895251 C50.7132393,63.7612095 51.112583,67.5438342 50.170356,67.478435 C43.2773944,67 35.6183962,65.847781 28.8392405,63.7712694 C26.3212891,63 25.0443221,61 25.4444444,57.6498885 C25.7979252,54.6902938 8,58.9721541 9.44444444,51 C9.44444444,53.3224359 5.44444444,54.1495843 6.44444444,58.7434864 C8.15899583,61.8397185 15.5548088,63.2684419 27.4849755,66.1757479 C43.3875511,70.0511047 62.144625,69.2519148 66.4444444,69 C80.9793787,68.1484375 92.4762309,66.0679754 108.444444,61 C119,57.6498885 129.27452,51.6365862 132.444444,49 C133.444444,45.916338 132.444444,38.2271527 130.444444,40 Z"/>
      <path stroke="#000" stroke-linecap="round" stroke-linejoin="round" d="M130.444444,40 C121,47 96.138258,56.8609363 80.4444444,59 C56.6269783,62.246316 30.1301654,58.5072682 26.4444444,57.6498885 C17.4444444,55.5562906 11.4444444,52.7434864 6.44444444,50 C6.44444444,52.3224359 5.44444444,54.1495843 6.44444444,58.7434864 C8.15899583,61.8397185 15.5548088,63.2684419 27.4849755,66.1757479 C43.3875511,70.0511047 62.144625,69.2519148 66.4444444,69 C80.9793787,68.1484375 92.4762309,66.0679754 108.444444,61 C119,57.6498885 129.27452,51.6365862 132.444444,49 C133.444444,45.916338 132.444444,38.2271527 130.444444,40 Z"/>
      <path fill="#AA6535" stroke="#000" d="M52.7449032,57.2133651 C54.4898065,57.1804141 57.0866872,57 58.9157952,57 C58.9157952,57 60.9157952,56.622604 60.9157952,60.0602391 C60.9157952,63.4978742 60.9157952,68.9262153 59.9157952,70.3530135 C58.9157952,71.7798117 55.4157952,70.7759996 53.4157952,71 C51.4157952,71.2240004 51.9157952,66.2821989 51.9157952,63.4721541 C51.9157952,60.6621094 51,57.246316 52.7449032,57.2133651 Z"/>
      <g fill="#FCDE32" fill-rule="nonzero" stroke="#000" transform="translate(11 52)">
        <path d="M4.59960937,0.356199159 C7,0.470120641 9.39891947,1.11392148 11.3989195,2 C13.3989195,2.88607852 13.5996094,2.70761303 13.5996094,5.88373179 C13.5996094,9.05985055 13.5996094,11.1690443 13.5996094,12.93267 C13.5996094,14.6962957 13.457007,15.6621094 10.457007,15.6621094 C7.45700698,15.6621094 6.19921875,14.6393878 4.59960937,14.3196939 C3,14 1.59960937,13.4256222 1.59960937,10.93267 C1.59960937,8.43971775 1.59960937,5.447931 1.59960937,3.88373179 C1.59960937,2.31953258 2.19921875,0.242277678 4.59960937,0.356199159 Z M5.50802438,3 C2.08565156,2.62260399 3.44458008,3.67937874 3.44458008,4.8105284 C3.44458008,5.94167806 3.44458008,6.82833611 3.44458008,8.63111292 C3.44458008,10.4338897 4,12 5,12 C6,12 7,12.55287 9,12.9262153 C11,13.2995605 11.0901699,11.7475189 11.0901699,10.4721541 C11.0901699,9.1967893 11.0901699,9.94960241 11.0901699,7.65279416 C11.0901699,5.35598591 11.0258609,5 9.97853323,4.5 C8.93120552,4 8.9303972,3.37739601 5.50802438,3 Z"/>
        <path d="M4.00054496,4.5 C5.50054496,4.5 6.59960938,4.4947853 6.59960938,5.57844734 C6.59960938,6.66210937 5.59960938,6.66210937 5.59960938,6.66210937 C5.59960938,6.66210937 2,6.29930255 2,6.29930255 C2,6.29930255 -2.5313085e-14,6.01603084 -2.5313085e-14,5.01603084 C-2.5313085e-14,4.01603084 2.50054496,4.5 4.00054496,4.5 Z M5,8.29956055 C6.5,8.29956055 7,8.80786921 7,9.89153124 C7,10.9751933 6,10.9751933 6,10.9751933 C6,10.9751933 3.06656564,10.4747723 1.64805055,10.3619559 C-0.188424571,10.2158985 -0.188424571,8.29956055 1,8.13536666 C2.18842457,7.97117278 3.5,8.29956055 5,8.29956055 Z"/>
      </g>
      <g stroke="#000" transform="translate(3)">
        <path fill="#1D487A" stroke-linecap="round" stroke-linejoin="round" d="M1.74863564,10.494297 C9.95048319,10.494297 13.6634148,5.26665265 17.8697682,0.146090106 C18.7022947,4.21513425 18.7022947,8.54980212 17.5320838,13.9586717 C12.2133777,18.0596867 10.5120499,19.9672365 0.970993023,21.3897802 C0.970993023,16.5975882 1.74863564,15.1222171 1.74863564,10.494297 Z" transform="matrix(-1 0 0 1 19.428 0)"/>
        <path fill="#1D487A" stroke-linecap="round" stroke-linejoin="round" d="M18.6775756,12.7075539 C30.3076543,12.7075539 47.7501976,10.4454195 62.8961787,6.04033064 C67.1252982,6.04033064 70.2971378,7.23856993 72.4116976,9.38053338 C72.4116976,11.5506347 69.6152399,14.0670249 67.0381424,16.1695774 C48.9640178,21.4265899 35.5155196,25.610557 18.7185449,24.1240155 C18.7185449,19.3318235 18.6775756,17.335474 18.6775756,12.7075539 Z" transform="rotate(5 45.545 15.234)"/>
        <path fill="#FCDE32" d="M7.59960938,13.9986647 C7.59960938,11.708146 8.04405382,11.7499209 8.93294271,10.5466203 C9.8218316,9.34331971 11.5996094,10.9973293 11.5996094,13.9986647 C11.5996094,17 10.266276,17 9.59960938,17 C8.93294271,17 7.59960938,16.2891833 7.59960938,13.9986647 Z"/>
        <path fill="#FCDE32" d="M27.0145841,16.9221906 C27.0145841,13.9627965 27.6812508,14.0167704 29.0145841,12.4620829 C30.3479175,10.9073954 33.0145841,13.0444077 33.0145841,16.9221906 C33.0145841,20.7999736 31.0145841,20.7999736 30.0145841,20.7999736 C29.0145841,20.7999736 27.0145841,19.8815848 27.0145841,16.9221906 Z" transform="scale(-1 1) rotate(4 0 -843.13)"/>
      </g>
      <path fill="#AA6535" stroke="#000" d="M6,48.8566783 C6.71902971,45.82 20.2101374,36.3725076 33.7439372,26.9973623 C47.2777369,17.6222171 66.7924442,14.1345546 80.447974,11.9558423 C95.5283279,9.54980212 126.379936,9.37558089 127,9.37558089 C128.999868,9.37558089 130.125373,15.8880996 127.31116,15.9246095 C121.5,16 96,14.5498021 81,17.5554689 C66,20.5611356 52.3735378,22.3897802 37.9897859,30.948985 C28.3747242,36.67053 9.87625119,50.5892633 6,54.7964392 C5.14081421,55.7289757 5.77749294,49.7963924 6,48.8566783 Z"/>
      <path fill="#AA6535" stroke="#000" d="M9.15601336,45.0138004 C9.81157543,48 10.1560134,49.8744743 11.1560134,50.8744743 C11.9668206,51.6852815 12.6518347,51.3331455 13.4470616,50.8351652 C13.9671397,50.5094863 16.000545,48.7402391 15.000545,47 C14.8273311,46.6985665 13.3735559,48.8027703 13,48.4587665 C12.1977833,47.7200134 11.2667229,44.4084132 11.1560134,43 C11.1149997,42.4782363 12.1427376,42.3396555 13,41.6015962 C12.3506733,40.5296151 11.1560134,41 9.81157543,41.9861996 C9.06544396,42.5335172 8.82874239,43.5230241 9.15601336,45.0138004 Z"/>
      <g stroke="#000" transform="translate(0 45)">
        <path fill="#FCDE32" d="M1.1700806,6.77848501 C-0.220361914,5.50553885 0.110730053,3.85391727 1.74692615,3.39711482 C3.38312225,2.94031237 4.73027463,4.17362654 4.20656097,5.6489035 C3.68284731,7.12418047 2.56052311,8.05143118 1.1700806,6.77848501 Z"/>
        <path fill="#88491E" d="M3.0085722,6.29600865 C3.0085722,10.3082685 3.0085722,14.0474073 3.0085722,14.7228108 C3.0085722,15.3982144 3.50670945,16.7609967 5.00112118,16.7609967 C6.49553291,16.7609967 7.98994464,17.8516568 7.98994464,15.3732316 C7.98994464,12.8948063 7.98994464,5.23581083 7.98994464,3.54910801 C7.98994464,1.6145138 8.19871181,0.53745206 6.71374662,0.227162562 C5.58705089,-0.00826507947 5.97219703,3.60216131e-05 4.65806066,3.60216131e-05 C2.78203713,3.60216131e-05 3.0085722,2.28374878 3.0085722,6.29600865 Z"/>
        <path d="M8,4.57166087 L3,4.42833913"/>
      </g>
      <path fill="#FCDE32" stroke="#000" stroke-linejoin="round" d="M43.1591499,19.3166655 C44.1591499,18.963652 45.1591499,18.3052971 47.1591499,21.3166655 C49.1591499,24.3280338 51.1591499,25.3166655 51.1591499,26.3166655 C51.1591499,27.3166655 46.1591499,29.8092974 45.1591499,30.5629814 C44.1591499,31.3166655 42.1591499,31.615968 41.1591499,29.3166655 C40.8119114,28.9266619 41.1591499,29.3166655 43.1591499,28.3166655 C43.5930342,29.3166655 43.5930342,29.5848338 44.5930342,29.3166655 C46.1591499,28.3166655 49.0262641,27.1837797 48.1591499,26.3166655 C47.1591499,25.3166655 46.1591499,24.3166655 46.1591499,24.3166655 C46.1591499,24.3166655 45.1591499,25.3166655 44.1591499,25.3166655 C43.1591499,25.3166655 44.1591499,23.8181295 45.1591499,23.0673975 C45.0795749,22.3166655 44.5930342,22.3166655 44.1591499,21.3052971 C43.8698937,20.6310515 42.203227,21.3015076 39.1591499,23.3166655 C38.1591499,22.0284699 42.1591499,19.6696789 43.1591499,19.3166655 Z"/>
    </g>
    <g transform="scale(-1 1) rotate(-61 157.61 267.472)">
      <path fill="#F3D4B7" stroke="#000" stroke-linecap="round" stroke-linejoin="round" d="M34.9820773,26.8416355 C33.4695555,30.2390747 26.5736223,37.2402147 25.0611005,41.2448558 C23.5485788,45.249497 26.9319903,48.7580633 30.7132946,45.4682498 C34.494599,42.1784362 40.4570459,33.4212626 41.2133068,31.7763558" transform="scale(-1 1) rotate(50 0 -33.86)"/>
      <path fill="#F34D4D" stroke="#000" stroke-linecap="round" stroke-linejoin="round" d="M11.0218395,28.2700927 C9.6664904,32.2063124 8.90754982,33.7753522 7.57421649,35.5393678 C14.9075498,43.7386982 16.2651983,47.5782994 17.5985317,48.514181 C18.5474308,49.180224 21.5167779,47.1820764 24.3757723,44.8892137 C27.5426965,42.3493967 30.5742165,39.4479606 30.5742165,39.4054198 C30.5742165,39.3615975 31.6733265,37.7129325 33.8715465,34.4594248 C34.3802436,33.7065203 37.963734,31.2012069 40.1121296,30.8833381" transform="scale(-1 1) rotate(10 0 -234.072)"/>
      <path fill="#DC3D4F" d="M7.8921764,27.3384496 C12.0296678,29.6826423 14.7997906,32.6556155 16.9263514,34.9076194 C19.0529122,37.1596232 22,39.0533886 25,41.5 C28,43.9466114 30,44.5437519 35,39.4536074 C35.1304389,39.3208167 35.2540721,39.2095376 35.3710417,39.1186335 C33.0928121,44.240069 32.8033964,46.3033986 31.9466486,47.1621059 C30.7641427,48.3473164 26.8269432,46.4655489 23.2456987,44.7236104 C23.0019275,44.6050386 15.9529575,43.6873078 15.7441299,43.566414 C10.7885505,40.6975455 8.67427393,41.4691777 4.53704816,37.201706 C2.5380534,35.6183284 1.35577677,34.3680849 0.990218276,33.4509756 C0.650202817,32.5979484 0.855921024,31.3405629 1.60737289,29.678819 C2.81087893,27.1569273 5.5396273,25.7770222 7.8921764,27.3384496 Z"/>
      <path stroke="#000" stroke-linecap="round" stroke-linejoin="round" d="M12.2396583,7.27265005 C9.80416817,11.4422897 8.50805631,23.1082979 9.18480133,28.4308128 C7.8294522,32.3670324 7.07051162,33.9360723 5.73717829,35.7000879 C13.0705116,43.8994183 14.4281601,47.7390195 15.7614935,48.6749011 C16.7103926,49.340944 19.6797398,47.3427964 22.5387341,45.0499337 C25.7056583,42.5101167 27.6380683,41.2586272 28.7371783,39.5661399 C29.8362883,37.8736526 29.8362883,37.8736526 32.0345083,34.6201448 C32.5432054,33.8672403 36.1266958,31.3619269 38.2750914,31.0440581" transform="scale(-1 1) rotate(10 0 -223.493)"/>
      <g stroke="#000" transform="rotate(36 14.317 49.087)">
        <path fill="#1D487A" stroke-linecap="round" stroke-linejoin="round" d="M3.45553399,5.85168312 C7.73100369,7.58806017 10.3856023,7.30688661 14.6895225,8.87908178 C23.1388881,11.9655823 20.0979525,20.0273318 14.2371917,18.530113 C3.57621949,15.8066087 0.103507595,15.0018366 0.0361870246,14.2024647 C-0.235057365,10.9816788 1.5970418,8.42021698 3.45553399,5.85168312 Z" transform="scale(-1 1) rotate(-73 0 25.74)"/>
        <path fill="#E8DB54" d="M1.82268592,3.47597453 C1.82268592,1.27609663 3.51775066,0.632815641 5.21281546,2.05439509 C6.90788026,3.47597453 6.90788026,5.60736128 5.21281546,5.94588736 C3.51775066,6.28441343 1.82268592,5.67585243 1.82268592,3.47597453 Z" transform="matrix(0 1 1 0 .488 -.488)"/>
      </g>
    </g>
    <g stroke="#000" stroke-linecap="round" stroke-linejoin="round" transform="translate(147 145)">
      <path fill="#4AAED9" d="M6.79328947,4.23140826 C3.75223196,10.6853283 4.26727003,14.2192912 4.26727003,18.4299144 C4.26727003,22.6405377 10.2579911,26.2319105 15.3264202,21.3805145 C20.3948494,16.5291185 19.5677688,5.15793463 20.5814547,2.73223664" transform="rotate(-149 12.408 13.22)"/>
      <path d="M16,14 C12,16 8.66666667,18.3333333 6,21"/>
    </g>
    <g stroke="#000" transform="translate(92)">
      <path fill="#FCDE32" d="M194.924163,103.052344 C188.924163,106.044566 183.924163,105.052344 185.924163,109.052344 C187.924163,113.052344 189.924163,113.992599 191.924163,116.052344 C193.924163,118.112089 197.924163,113.044566 198.924163,109.052344 C199.924163,105.060122 200.924163,100.060122 194.924163,103.052344 Z" transform="rotate(8 192.578 109.334)"/>
      <path fill="#FCDE32" d="M227.574219,25.6835937 C260.574219,-0.31640625 331.574219,1.68359375 338.574219,61.6835938 C345.574219,121.683594 256.574219,137.683594 237.574219,137.683594 C218.574219,137.683594 189.574219,118.683594 189.574219,93.6835938 C189.574219,68.6835938 194.574219,51.6835938 227.574219,25.6835937 Z" transform="rotate(8 264.27 73.75)"/>
      <path stroke-linecap="round" d="M11 255C28.9521167 251.213249 60.1693068 231.417639 91.2716834 206.170777 139.323873 167.165173 188.53639 118.46513 194 109.254484M4.9157952 259C4 259.718403.306340923 262.144368.306340923 270.572184"/>
    </g>
  </g>
</svg>
