<svg xmlns="http://www.w3.org/2000/svg" width="213" height="237" viewBox="0 0 213 237">
  <g fill="none" fill-rule="evenodd" transform="rotate(-28 110.876 188.194)">
    <g transform="rotate(29 -203.861 241.802)">
      <path fill="#F3D4B7" stroke="#000" stroke-linecap="round" stroke-linejoin="round" d="M12.627956,22.843707 C10.627956,26.974566 4.62795601,32.974566 2.62795601,37.843707 C0.627956012,42.712847 4.62795601,45.843707 9.62795601,41.843707 C14.627956,37.843707 19.8674799,30.843707 20.8674799,28.843707" transform="rotate(13 11.485 33.257)"/>
      <path fill="#F34D4D" stroke="#000" stroke-linecap="round" stroke-linejoin="round" d="M23.712187,2.67501068 C21.712187,7.69886323 16.8232981,13.4227156 12.8232981,19.4375108 C10.1566314,23.4473742 7.48996479,26.8243274 4.82329813,29.5683702 C12.1566314,37.7677006 16.4899648,42.3353066 17.8232981,43.2711882 C19.8232981,44.6750107 27.8232981,33.5153672 27.8232981,33.4344221 C27.8232981,33.3804587 29.4899648,30.8929466 32.8232981,25.9718857" transform="rotate(13 18.823 23.034)"/>
      <path fill="#DC3D4F" fill-rule="nonzero" d="M28.970166,9.76389185 L29.4100436,12.7572563 C29.386493,13.4232405 29.2617701,14.0464488 29,14.5554689 C28,16.5 21,22.6743409 21,23.9625365 C21,25.250732 19,26.5165906 16,23.9625365 C13.2336958,21.6074396 13.0182046,23.2023376 11.433346,20.3289652 C12.2103428,19.6441515 12.9946204,18.9278015 13.7861788,18.1799152 C18.4265777,13.7955374 23.6923716,9.7887767 26.9789438,5.84812454 C27.3913042,6.67613733 27.7316563,7.35602174 28,7.70383852 C28.3526183,8.16088877 28.7052366,8.90575753 28.970166,9.76389205 L28.970166,9.76389185 Z M31.2227005,25.0923728 L31.8036655,29.0458355 C27.4487675,33.0909331 25.2652489,35.1397721 25.2531098,35.1923524 C25.2349011,35.2712229 14.929567,44.345237 13.2966182,42.5274923 C12.9563843,42.1487551 12.4104278,41.3584559 11.6587487,40.1565946 C13.8748647,39.5305274 17.5250989,37.9749011 19,36.5 C21,34.5 28,28.5 29,27.5 C29.6495489,26.8504511 30.2990979,25.5686491 31.2227005,25.0923728 Z"/>
      <path stroke="#000" stroke-linecap="round" stroke-linejoin="round" d="M23.712187,2.67501068 C21.712187,7.69886323 16.8232981,13.4227156 12.8232981,19.4375108 C10.1566314,23.4473742 7.48996479,26.8243274 4.82329813,29.5683702 C12.1566314,37.7677006 16.4899648,42.3353066 17.8232981,43.2711882 C19.8232981,44.6750107 27.8232981,33.5153672 27.8232981,33.4344221 C27.8232981,33.3804587 29.4899648,30.8929466 32.8232981,25.9718857" transform="rotate(13 18.823 23.034)"/>
      <path fill="#1D487A" stroke="#000" stroke-linecap="round" stroke-linejoin="round" d="M13.9471202,7.05699199 C18.2225899,8.79336904 20.8771885,8.51219548 25.1811086,10.0843907 C33.6304743,13.1708912 30.5895387,21.2326407 24.7287779,19.7354219 C14.0678057,17.0119176 10.5950937,16.2071454 10.5277732,15.4077735 C10.2565288,12.1869877 12.088628,9.62552584 13.9471202,7.05699199 Z" transform="rotate(-69 20.45 13.488)"/>
      <path fill="#E8DB54" stroke="#000" d="M23.8617176,5.04805461 C23.8617176,2.84817671 25.5567824,2.20489572 27.2518472,3.62647516 C28.9469119,5.04805461 28.9469119,7.17944136 27.2518472,7.51796743 C25.5567824,7.8564935 23.8617176,7.24793251 23.8617176,5.04805461 Z" transform="rotate(49 26.192 5.238)"/>
    </g>
    <path fill="#4AAED9" stroke="#000" stroke-linecap="round" stroke-linejoin="round" d="M177.216178,229.934101 C174.797536,234.683482 171.892928,237.261064 171.892928,240.359623 C171.892928,243.458182 178.584905,249.73667 182.615975,246.166572 C186.647044,242.596475 185.278316,231.71915 186.08453,229.934101" transform="rotate(-77 178.989 238.584)"/>
    <path fill="#F3D4B7" stroke="#000" stroke-linecap="round" stroke-linejoin="round" d="M68.936036,199.040967 C67.0074646,203.687655 67.0074646,205.614891 67.0074646,208.646452 C67.0074646,211.678013 68.849232,214.759034 72.0635177,211.26613 C75.2778034,207.773226 76.3073349,197.267465 76.9501921,195.521013" transform="rotate(86 71.979 204.169)"/>
    <path fill="#5CC8E6" stroke="#000" d="M121.038299,76.997519 C114.031176,84.393926 110.254829,93.1538395 108.354903,103.572664 C105.748676,117.864709 101.526649,144.019818 107.726234,156.508551 C108.991445,159.05725 110.454528,164.509346 108.038299,165.997519 C104.471844,168.194125 77.173326,175.969345 73.0753572,187.128996 C68.0198448,200.896244 88.3257581,220.542887 92.9121027,224.858062 C101.216112,232.671092 116.438799,241.897709 142.268262,246.570917 C182.422437,255.463 205.207485,198.491252 211.00913,181.189781 C224.429388,167.939198 226.410245,166.343803 234.921247,152.466991 C243.432249,138.590178 249.038299,109.997519 236.038299,94.997519 C223.038299,79.997519 203.076597,63.997519 180.038299,60.997519 C157,57.997519 139.038299,57.997519 121.038299,76.997519 Z"/>
    <path fill="#4AAED9" fill-opacity=".5" fill-rule="nonzero" d="M107.041693,111.161595 C109.347369,113.774976 110.909802,108.952382 112.876545,109.999992 C113.936525,110.564604 119.018207,114.603518 121.08164,120 C122.069072,122.582424 121.207506,128.272116 123,130 C130.967529,137.680342 125.955186,144.724184 125,146 C123,148.671346 116,148 114,147 C112,146 111,140.843071 109,143.218171 C109,145.072724 110.333333,148.199006 113,152.597017 C117,159.194033 145,162 166,160.335697 C187,158.671394 223,153.234014 229,146 C235,138.765986 239,124.561627 236,116.985368 C233,109.40911 225,102.918178 219,98.5 C213,94.0818224 201,87.9194081 182,81.9210864 C163,75.9227646 128,79 116,83.5 C115.958903,83.5154113 115.91792,83.5307555 115.877052,83.5460325 C117.363452,81.2516969 119.073921,79.0710286 121.038299,76.997519 C139.038299,57.997519 157,57.997519 180.038299,60.997519 C203.076597,63.997519 223.038299,79.997519 236.038299,94.997519 C249.038299,109.997519 243.512832,141.115833 233.512832,155.115833 C223.512832,169.115833 217.336322,175.680228 211.330871,181.360853 C201.430871,199.980045 192.259633,226.7608 189.259633,228.4848 C186.259633,230.208801 140.703608,231.619223 124.703608,221.619223 C108.703608,211.619223 109.71903,208 108.038299,165.997519 C107.909364,162.775362 108.991444,159.05725 107.726234,156.508551 C102.509359,145.999434 104.672045,125.813134 107.041693,111.161595 Z M136,136.066391 C132.569957,129.225208 153,78 176,88.3608873 C199,98.7217746 196,116.376413 196,121.170787 C196,125.965161 190.190434,140.5 181.932096,145.5 C173.673757,150.5 158.002743,150.718171 154.15915,149.343168 C150.315557,147.968165 139.430043,142.907574 136,136.066391 Z"/>
    <path fill="#4AAED9" stroke="#000" stroke-linecap="round" stroke-linejoin="round" d="M123.610845,49.7582199 C121.039416,55.0795089 121.039416,57.2865402 121.039416,60.7582199 C121.039416,64.2298996 123.495106,67.7582199 127.78082,63.7582199 C132.066535,59.7582199 132.182273,51.7582199 133.039416,49.7582199" transform="scale(1 -1) rotate(-8 -697.34 0)"/>
    <g transform="rotate(9 36.85 517.777)">
      <path fill="#DDB27A" stroke="#000" d="M109.282108,0.848222227 C99.6231274,0.848222227 90.6231274,12.2711203 82.6231274,18.8482222 C74.6231274,25.4253242 67.6231274,26.5158549 60.6231274,34.0677456 C55.6635153,39.4183811 54.2178678,53.1705848 54.8634991,62.3830736 C55.1291122,66.1730979 65.6231274,56.598395 85.6231274,54.2233086 C105.623127,51.8482222 135.623127,53.090169 145.623127,56.7016607 C155.623127,60.3131524 161.623127,66.9770421 161.623127,63.6450972 C161.623127,60.3131524 166.623127,47.6830433 161.623127,39.0406219 C156.623127,30.3982005 150.623127,25.4253242 139.623127,18.8482222 C128.623127,12.2711203 118.941088,0.848222227 109.282108,0.848222227 Z"/>
      <path fill="#C59B63" fill-rule="nonzero" d="M127.359518,9.97035714 C131.299832,13.0264082 135.362622,16.300788 139.623127,18.8482222 C142.17895,20.3763954 144.464845,21.8179638 146.530988,23.2390784 C149.59048,26.0789736 156.233425,31.3332259 157,32.4990293 C157.475517,33.2221933 158.872349,34.9536964 160.206773,36.7323379 C160.689558,37.4731502 161.160621,38.2411868 161.623127,39.0406219 C162.389556,40.365382 162.92102,41.7838389 163.271543,43.2481412 C163.313613,43.4614178 163.36242,43.6832272 163.417964,43.9135693 C163.520537,44.4233768 163.602525,44.9377862 163.666149,45.45483 C151.881311,42.7637708 145.325928,40.9578927 144,40.0371958 C142,38.6484375 123,36.3290181 123,36.4853684 C123,36.6417187 107.653889,36.3290181 111.687784,36.4853684 C115.72168,36.6417187 127.865993,34.609891 131.599609,34.609891 C135.333225,34.609891 143,34.4980586 144,32.4990293 C145,30.5 141,29.3506462 140,28.5339208 C139,27.7171955 134,23.3378906 133,21.5 C132.333333,20.2747396 129.6346,15.9414063 124.903801,8.5 C125.749036,9.00471327 126.567608,9.49483231 127.359518,9.97035714 Z M106.15599,8.5 C103.333833,11.5 96.0167187,20.209018 100.808164,24.854509 C105.599609,29.5 114,30.5 118.866718,30.5 C123.733437,30.5 109.840023,34.4707368 104,31.9853684 C98.1599769,29.5 93.8993135,25.5 96,19.5 C100,11.5 102.333833,11.5 106.15599,8.5 Z"/>
      <path stroke="#000" d="M109.282108,0.848222227 C99.6231274,0.848222227 90.6231274,12.2711203 82.6231274,18.8482222 C74.6231274,25.4253242 67.6231274,26.5158549 60.6231274,34.0677456 C55.3268826,39.7815544 54.0378105,55.0761471 55.023424,64.1921713 C55.3404871,67.1247158 65.6231274,56.598395 85.6231274,54.2233086 C105.623127,51.8482222 135.623127,53.090169 145.623127,56.7016607 C155.623127,60.3131524 161.623127,66.9770421 161.623127,63.6450972 C161.623127,60.3131524 166.623127,47.6830433 161.623127,39.0406219 C156.623127,30.3982005 150.623127,25.4253242 139.623127,18.8482222 C128.623127,12.2711203 118.941088,0.848222227 109.282108,0.848222227 Z"/>
      <path fill="#AA6535" stroke="#000" d="M82.6231274,38.8482222 C69.5996094,41.790227 55.9752836,43.3731272 55.2093934,49.7591247 C54.1531484,58.5661022 65.6231274,52.598395 85.6231274,50.2233086 C105.623127,47.8482222 135.623127,49.090169 145.623127,52.7016607 C155.623127,56.3131524 161.623127,66.9770421 161.623127,63.6450972 C161.623127,61.2064154 164.301584,53.7867869 163.777335,46.5952965 C163.585308,43.9611307 152.646645,41.790227 139.623127,38.8482222 C126.599609,35.9062175 95.6466454,35.9062175 82.6231274,38.8482222 Z"/>
      <path fill="#88491E" stroke="#000" d="M91.6706455,36.2550323 C98.7743897,35.2714967 112.611746,38.0728364 133.182713,44.6590514 C139.672295,47.3986718 142.917086,49.5252249 142.917086,51.0387106 C142.917086,52.5521963 139.672295,52.9313932 133.182713,52.1763012 C112.346818,48.0597137 100.798692,45.5156959 98.5383344,44.5442477 C95.1477988,43.0870754 81.0150293,37.7303356 91.6706455,36.2550323 Z" transform="rotate(-11 115.339 44.308)"/>
      <path fill="#C59B63" stroke="#000" d="M177.542728,85.2232493 C165.414887,69.231097 155.053236,58.9284722 129.729174,55.9284722 C104.405112,52.9284722 64.1326284,54.1358071 44.3467436,73.1358071 C38.4836972,78.7659764 44.4726637,83.907109 41.5120475,90.6199771 C39.6603336,90.7280156 38.0805467,90.8455439 36.8124361,90.974401 C18.5996094,92.8250679 -9.40039062,78.4816627 4.59960938,70.7408313 C18.5996094,63 62.5996094,44.8398774 104.599609,43.854509 C146.599609,42.8691406 193.599609,58.5863767 201.599609,63.5 C208.511892,67.7455443 198.999919,80.2283318 177.556015,85.2372082 L177.542728,85.2232493 Z"/>
      <path stroke="#000" stroke-linecap="round" stroke-linejoin="round" d="M105.599609,8.66210937 C98.1599769,15.9589844 92,19.1670736 96.8667184,27.2392113 C101.733437,35.3113491 116.370111,32.8163133 124.599609,28.2392113 C130.085942,25.18781 126.841645,18.328776 114.866718,7.66210938 M131.599609,19.6621094 C133.937983,22.1112347 141.13114,30.6621094 145.920225,32.2994331 C148.958725,33.3382556 152.137567,33.3739525 153.829108,32.9210864"/>
      <path stroke="#000" stroke-linecap="round" stroke-linejoin="round" d="M69.7689467,18.9636078 C72.10732,21.4127331 79.3004776,29.9636078 84.0895621,31.6009316 C87.1280625,32.6397541 90.3069039,32.675451 91.9984453,32.2225848" transform="matrix(-1 0 0 1 161.767 0)"/>
    </g>
    <g transform="translate(90 75)">
      <path fill="#FFF" stroke="#000" d="M32.9312055,0.0688791244 C32.3001368,0.688873768 31.6692412,1.33152403 31.0382986,1.99751898 C20.3955924,13.2314866 17.2058918,27.6108979 16.7238374,46.1707871 C9.90085083,42.9661988 3.86122757,37.4596703 3.86122757,28.5099028 C3.86122757,11.5558798 13.1241432,0.0616269099 32.1618208,0.0616269099 C32.4196926,0.0616269099 32.6761604,0.0640521704 32.9312055,0.0688791244 Z"/>
      <path fill="#000" stroke="#000" d="M0.919771539,37.9123078 C0.919771539,41.9123078 4.86280839,42.9123078 6.44002313,42.9123078 C8.01723788,42.9123078 11.1716674,41.9123078 11.9602747,37.9123078 C12.7488821,33.9123078 10.38306,30.9123078 6.44002313,30.9123078 C2.49698628,30.9123078 0.919771539,33.9123078 0.919771539,37.9123078 Z"/>
      <path fill="#FFF" d="M2.33198564,37.186455 C2.33198564,38.8531217 3.80877515,39.2697883 4.39949095,39.2697883 C4.99020676,39.2697883 6.17163837,38.8531217 6.46699627,37.186455 C6.76235417,35.5197883 5.87628047,34.2697883 4.39949095,34.2697883 C2.92270144,34.2697883 2.33198564,35.5197883 2.33198564,37.186455 Z"/>
    </g>
    <g transform="translate(125 82.5)">
      <path fill="#FFF" stroke="#000" d="M0,35.2068966 C0,55.8908046 23.7583113,61.5 32.1058349,61.5 C40.4533585,61.5 56.0246786,57.9942529 60.1984404,37.3103448 C64.3722022,16.6264368 51.8914835,0.5 31.0226745,0.5 C10.1538654,0.5 6.4578914e-16,14.5229885 0,35.2068966 Z"/>
      <path fill="#F0F0F0" d="M47.1222958,4.5 C57.7940747,10.4382847 63.1241705,22.7728268 60.211108,37.3916165 C56.103307,58.0060314 40.778071,61.5 32.562469,61.5 C26.7496811,61.5 13.3441843,58.7014752 6,49.763106 C12.9028817,53.7955217 20.8766427,55.2108565 25.010443,55.2108565 C33.2260451,55.2108565 48.551281,51.7168879 52.659082,31.102473 C54.7684603,20.5168582 52.5556573,11.1289557 47.1222958,4.5 Z"/>
      <path stroke="#000" d="M0,35.2068966 C0,55.8908046 23.7583113,61.5 32.1058349,61.5 C40.4533585,61.5 56.0246786,57.9942529 60.1984404,37.3103448 C64.3722022,16.6264368 51.8914835,0.5 31.0226745,0.5 C10.1538654,0.5 6.4578914e-16,14.5229885 0,35.2068966 Z"/>
      <path fill="#000" d="M6.00000075,35.9488871 C5.99767265,40.3049934 11.4369827,41.3911097 13.6129396,41.3899457 C15.7888965,41.3887816 20.1413923,40.2974269 21.2316988,35.9407385 C22.3220054,31.5840502 19.0598162,28.3187166 13.619924,28.3216268 C8.18003195,28.324537 6.00232895,31.5927808 6.00000075,35.9488871 Z" transform="rotate(66 13.72 34.856)"/>
      <path fill="#FFF" d="M9.50108585,38.2603246 C8.56585345,37.4016362 8.37639505,36.2173586 9.65630985,34.8667054 C10.9362248,33.5160522 12.4055981,33.3496766 13.0848476,34.4784957 C13.7640971,35.6073147 12.9739733,36.9025094 12.4620073,37.4427707 C11.9500414,37.9830319 10.4363184,39.119013 9.50108585,38.2603246 Z" transform="rotate(-58 11.048 36.151)"/>
    </g>
    <path fill="#F34D4D" stroke="#000" stroke-linecap="round" stroke-linejoin="round" d="M103.61689,152.233508 C99.1155706,148.792261 94.8697931,145.339711 94.1313391,144.787461 C93.2052137,144.094862 90.7355461,141.081896 86.7223362,135.748563 C86.7223362,158.355501 87.6418566,175.068754 89.4808975,185.888323 C90.2082294,190.167411 89.8495472,192.702791 89.376898,196.425492 C88.9186128,200.035058 87.8664078,203.017149 87.8140506,206.016692 C91.8308938,205.086654 101.116523,202.412919 102.830645,197.277437 C108.296216,180.902675 105.427412,153.617647 103.61689,152.233508 Z" transform="rotate(27 96.364 170.883)"/>
    <path fill="#F34D4D" stroke="#000" stroke-linecap="round" stroke-linejoin="round" d="M181.646755,176.439449 C174.49838,176.096495 159.195729,178.626991 142.231344,177.483622 C137.837104,177.187458 147.001647,167.743092 141.646755,167.369717 C122.51363,166.035641 91.996045,156.945115 87.792183,153.159941 C88.7840153,156.342902 85.0614694,166.791948 84.9154013,168.006081 C83.5919136,179.007057 83.47091,204.456399 96.3441757,220.80507 C100.634724,226.253941 110.450574,238.218166 141.646755,241.994136 C153.646755,243.44661 182.567984,241.930912 202.142324,233.285126 C197.886126,228.501322 196.730489,225.557769 193.553976,221.299458 C191.467213,218.502022 193.710685,214.5769 193.646755,210.762691 C193.454365,199.284266 192.121031,187.807378 189.646755,176.332027 C190.313422,176.691499 187.646755,176.727307 181.646755,176.439449 Z" transform="scale(-1 1) rotate(-25 0 843.921)"/>
    <path fill="#DC3D4F" d="M201.506552,201.772483 C198.537767,203.002895 186.747772,210.530824 184.334617,211.474269 C177.834617,214.015502 159.137912,222.424553 151.57809,224.692866 C144.987537,226.670351 110.045118,225.061693 95.219552,223.234298 C95.3382609,226.426717 95.5497152,229.323903 95.8539152,231.925855 C96.6633388,232.843343 96.563482,234.670856 99.9087585,234.975141 C104.137912,235.359825 101.628438,230.102992 103.137912,230.36915 C106.137912,230.898124 123.137912,233.220712 125.137912,233.220712 C127.137912,233.220712 125.204552,234.434077 132.137912,234.434077 C139.071272,234.434077 139.071272,233.434077 140.071272,233.434077 C141.071272,233.434077 157.137912,231.844569 165.137912,230.36915 C173.137912,228.89373 192.211232,218.612822 196.270232,215.267656 C196.948022,214.709064 200.710807,208.570102 199.419595,206.736817 C197.910808,204.594615 191.37561,206.64085 193.455414,204.632407 C196.507314,201.685221 198.12962,196.726768 198.629176,194.721192 C200.629176,186.691749 194.670644,181.242265 192.881819,180.194909 C189.700317,178.332142 187.183442,178.194391 178.882451,178.804621 C176.746874,178.961614 176.857947,181.14066 176.137912,182.220712 C174.137912,185.220712 172.137912,187.36915 164.137912,190.36915 C156.137912,193.36915 157.137912,192.220712 155.137912,186.220712 C154.49642,184.296235 152.193439,184.516598 150.137912,184.220712 C145.784859,183.594106 140.384515,184.541458 139.071272,185.220712 C137.137912,186.220712 124.137912,189.220928 124.137912,190.36915 C124.137912,191.517371 130.137912,197.675017 130.137912,199.447865 C130.137912,201.220712 132.137912,210.344805 132.137912,212.07739 C132.137912,213.809975 128.297062,216.48888 124.137912,215.720712 C119.978762,214.952544 115.192773,214.852128 112.759781,213.809975 C110.326789,212.767822 105.137912,211.231974 105.137912,210.220712 C105.137912,209.20945 105.137912,200.958735 105.137912,200.958735 C105.137912,200.958735 99.160516,204.664359 95.3120929,207.599823 C95.7756183,197.918323 97.0508913,188.237916 99.1379119,178.558603 C98.4712452,178.918075 101.137912,178.953883 107.137912,178.666025 C114.286287,178.323071 129.588938,180.853567 146.553323,179.710198 C150.947563,179.414034 141.84734,170.273293 147.137912,169.596293 C166.241376,167.151748 190.241381,159.569451 199.344725,153.727437 C198.352893,156.910398 202.905237,169.358132 203.051306,170.572265 C204.374793,181.573241 203.820391,183.810129 202.663472,192.791306 C202.476926,194.239465 202.558757,198.790392 201.506552,201.772483 Z" transform="rotate(27 149.52 194.361)"/>
    <path stroke="#000" stroke-linecap="round" stroke-linejoin="round" d="M181.646755,176.439449 C174.49838,176.096495 159.195729,178.626991 142.231344,177.483622 C137.837104,177.187458 147.001647,167.743092 141.646755,167.369717 C122.51363,166.035641 91.996045,156.945115 87.792183,153.159941 C88.7840153,156.342902 85.0614694,166.791948 84.9154013,168.006081 C83.5919136,179.007057 83.47091,204.456399 96.3441757,220.80507 C100.634724,226.253941 110.450574,238.218166 141.646755,241.994136 C153.646755,243.44661 182.567984,241.930912 202.142324,233.285126 C197.886126,228.501322 196.730489,225.557769 193.553976,221.299458 C191.467213,218.502022 193.710685,214.5769 193.646755,210.762691 C193.454365,199.284266 192.121031,187.807378 189.646755,176.332027 C190.313422,176.691499 187.646755,176.727307 181.646755,176.439449 Z" transform="scale(-1 1) rotate(-25 0 843.921)"/>
    <path fill="#FCDE32" stroke="#000" d="M107.271013,168.354992 C107.271013,165.929547 108.616224,165.220306 109.961435,166.787649 C111.306645,168.354992 111.306645,170.704922 109.961435,171.07816 C108.616224,171.451397 107.271013,170.780436 107.271013,168.354992 Z" transform="rotate(37 109.12 168.564)"/>
    <path fill="#FCDE32" fill-rule="nonzero" stroke="#000" d="M92.7834603,184.617447 C92.7834603,182.192002 94.1286711,181.482761 95.4738819,183.050104 C96.8190927,184.617447 96.8190927,186.967377 95.4738819,187.340615 C94.1286711,187.713852 92.7834603,187.042891 92.7834603,184.617447 Z M92.9535409,208.994849 C91.5630984,207.721903 91.8941904,206.070281 93.5303865,205.613479 C95.1665825,205.156676 96.5137349,206.389991 95.9900213,207.865268 C95.4663076,209.340544 94.3439834,210.267795 92.9535409,208.994849 Z" transform="rotate(27 94.282 195.906)"/>
    <g stroke="#000" transform="scale(-1 1) rotate(-25 301.09 314.73)">
      <path fill="#F34D4D" d="M1.00187141,10.7266097 C1.18404679,13.2040551 1.97163056,18.3946042 1.97163056,20.9155128 C1.97163056,23.4364214 3.6205662,25 5.56381133,25 C6.58216857,25 9.35191288,23.4594042 11.7129343,22.5806335 C13.5437517,21.8992043 13,19.2805588 13,16.4369575 C13,13.7803731 11.7390973,9.80313598 11.4348368,8.72232891 C10.9977941,7.16984758 0.819696028,8.24916421 1.00187141,10.7266097 Z"/>
      <path fill="#F34D4D" d="M7.00999677,13.0778418 C7.28913383,15.8744229 7.68822176,16.4016882 7.68822176,20.054313 C7.68822176,23.7069378 9.15390647,23.2603765 11.5769532,22.4024842 C14,21.5445918 14,19.9392525 14,18.8066945 C14,17.6741366 13.7239472,12.5678432 13.0542913,10.8153767 C12.3846355,9.06291031 6.73085971,10.2812606 7.00999677,13.0778418 Z"/>
      <path fill="#F34D4D" stroke-linejoin="round" d="M-5.68434189e-14,5.40679905 C5.76190476,4.41595487 9.42857143,2.94651001 11,0.998464494 C13.9335938,5.87771077 14.9335938,9.30733555 14,11.2873388 C13.029316,11.091479 13.5,9.59250869 12,10.4536074 C11,11.0276731 10.6666667,12.1184954 11,13.7260742 C9.98726111,12.2808867 8.69517738,11.5582929 7.12374881,11.5582929 C5.55232024,11.5582929 3.70154682,12.3721953 1.57142857,14 C0.851793271,9.79659339 0.327983747,6.93219307 -5.68434189e-14,5.40679905 Z"/>
      <path fill="#FCDE32" d="M8,7.29963042 C8,4.97666705 8.45454545,4.29739381 9.90909091,5.79851212 C11.3636364,7.29963042 11.3636364,9.55027049 9.90909091,9.90773746 C8.45454545,10.2652044 8,9.6225938 8,7.29963042 Z"/>
    </g>
    <g stroke="#000" transform="scale(-1 1) rotate(-18 496.427 514.795)">
      <path fill="#F34D4D" d="M2.6588311,9.41062993 C2.97745628,12.2513047 4.00144794,17.9784115 4.00144794,21.6886271 C4.00144794,25.3988427 7.39648838,25.4664705 10.1623114,24.2303443 C12.2792074,23.2842424 21.2785811,21.6886271 24.9168165,20.2592941 C26.0743867,19.8045261 26.7860839,18.0528079 26.6353206,16.8829123 C26.2442124,13.8479858 25.4646036,8.99257234 24.9128886,7.70774624 C24.1484999,5.92764871 2.34020592,6.56995517 2.6588311,9.41062993 Z"/>
      <path fill="#DC3D4F" d="M1.63893552,9.76328151 C1.96151644,12.4857197 2.99822096,17.9744487 2.99822096,21.530235 C2.99822096,25.0860214 6.55879322,26.102068 9.35895397,24.9173928 C10.2750775,24.5298047 12.4418523,23.8546641 14.9103724,23.101633 C18.2167025,22.093025 16.7524118,6.95286929 10.6711303,7.398937 C5.79149218,7.75686304 1.4953273,8.5512926 1.63893552,9.76328151 Z"/>
      <path fill="#F34D4D" d="M11.7202794,12.3777818 C12.0392932,15.8197278 12.4953937,16.4686697 12.4953937,20.9642079 C12.4953937,25.4597461 14.1704619,24.9101323 16.9396582,23.8542648 C19.7088545,22.7983973 19.7088545,20.822595 19.7088545,19.4286775 C19.7088545,18.0347601 19.3933656,11.7500912 18.6280446,9.59320948 C17.8627236,7.43632772 11.4012656,8.93583583 11.7202794,12.3777818 Z"/>
      <path fill="#F34D4D" stroke-linejoin="round" d="M0.501341854,3.85797116 C6.32670013,3.14270711 13.5508035,2.13408461 22.173652,0.832103682 C24.3201098,5.40372146 25.6176326,8.68736865 26.0662204,10.6830453 C23.8302187,10.9575917 21.6618223,9.49918088 19.3732112,10.4411902 C17.8474705,11.0691963 16.987843,12.443142 16.7943288,14.5630271 C14.3469171,13.2550985 12.2303541,12.6011342 10.4446398,12.6011342 C8.65892548,12.6011342 5.98035405,13.6806086 2.40892548,15.8395575 C1.65193062,9.67432909 1.01606941,5.68046697 0.501341854,3.85797116 Z"/>
      <path fill="#FCDE32" d="M12.6120304,7.41631002 C12.6120304,4.62875397 14.0665759,3.81362609 15.5211213,5.61496805 C16.9756668,7.41631002 16.9756668,10.1170781 15.5211213,10.5460385 C14.0665759,10.9749988 12.6120304,10.2038661 12.6120304,7.41631002 Z"/>
    </g>
    <path fill="#F3D4B7" stroke="#000" stroke-linecap="round" stroke-linejoin="round" d="M104.131171,227.960653 C100.526442,231.149772 99.8088002,232.782252 99.8088002,236.340355 C99.8088002,239.898457 103.566844,243.52975 107.027409,239.430175 C110.487974,235.330601 113.258127,231.600722 110.976476,228.045894 C109.455376,225.676009 107.173607,225.647596 104.131171,227.960653 Z" transform="rotate(-73 105.809 233.747)"/>
    <g transform="rotate(27 -225.126 274.25)">
      <path fill="#AA6535" stroke="#000" stroke-linecap="round" stroke-linejoin="round" d="M124.480263,37.8955902 C115.035819,44.8955902 95.1384103,56.8434839 79.4445967,58.9825476 C55.6271306,62.2288636 30.1301654,58.5072682 26.4444444,57.6498885 C17.4444444,55.5562906 11.4444444,52.7434864 6.44444444,50 C6.44444444,52.3224359 5.44444444,54.1495843 6.44444444,58.7434864 C8.15899583,61.8397185 15.5548088,63.2684419 27.4849755,66.1757479 C43.3875511,70.0511047 62.144625,69.2519148 66.4444444,69 C80.9793787,68.1484375 89.6868599,64.4108546 103.48011,58.9130426 C111.131845,55.8631596 120.310796,49.4798192 123.48072,46.843233 C124.48072,43.759571 126.480263,36.1227429 124.480263,37.8955902 Z"/>
      <path fill="#88491E" d="M124.396779,38.1876409 C123.796199,38.6327767 122.115975,40.0718769 121.397028,40.5374294 C120.269598,41.2674945 120.57358,46.6564276 118.263952,48.3558673 C108.132302,55.8108024 95.7277056,61.2485864 81.4654264,64.9263676 C77.4162616,65.9705164 71.2609538,67.7391273 66.2284525,67.4768544 C64.7551541,67.4000722 62.2923653,65.2739836 60.8458202,65.1386373 C57.6274346,64.8375083 54.4902106,64.4041621 51.5006549,63.895251 C50.7132393,63.7612095 51.112583,67.5438342 50.170356,67.478435 C43.2773944,67 35.6183962,65.847781 28.8392405,63.7712694 C26.3212891,63 25.0443221,61 25.4444444,57.6498885 C25.7979252,54.6902938 8,58.9721541 9.44444444,51 C9.44444444,53.3224359 5.44444444,54.1495843 6.44444444,58.7434864 C8.15899583,61.8397185 15.5548088,63.2684419 27.4849755,66.1757479 C43.3875511,70.0511047 62.144625,69.2519148 66.4444444,69 C80.9793787,68.1484375 87.083823,65.2655798 101.462963,59.8779855 C112.131693,55.880612 120.23157,50.2284482 123.397236,47.1352837 C124.397236,44.0516217 126.396779,36.4147936 124.396779,38.1876409 Z"/>
      <path stroke="#000" stroke-linecap="round" stroke-linejoin="round" d="M124.480263,37.8955902 C115.035819,44.8955902 96.138258,56.8609363 80.4444444,59 C56.6269783,62.246316 30.1301654,58.5072682 26.4444444,57.6498885 C17.4444444,55.5562906 11.4444444,52.7434864 6.44444444,50 C6.44444444,52.3224359 5.44444444,54.1495843 6.44444444,58.7434864 C8.15899583,61.8397185 15.5548088,63.2684419 27.4849755,66.1757479 C43.3875511,70.0511047 62.144625,69.2519148 66.4444444,69 C80.9793787,68.1484375 86.8489264,65.22495 101.462963,59.8779855 C112.130043,55.9751279 120.310796,49.4798192 123.48072,46.843233 C124.48072,43.759571 126.480263,36.1227429 124.480263,37.8955902 Z"/>
      <path fill="#AA6535" stroke="#000" d="M52.7449032,57.2133651 C54.4898065,57.1804141 57.0866872,57 58.9157952,57 C58.9157952,57 60.9157952,56.622604 60.9157952,60.0602391 C60.9157952,63.4978742 60.9157952,68.9262153 59.9157952,70.3530135 C58.9157952,71.7798117 55.4157952,70.7759996 53.4157952,71 C51.4157952,71.2240004 51.9157952,66.2821989 51.9157952,63.4721541 C51.9157952,60.6621094 51,57.246316 52.7449032,57.2133651 Z"/>
      <g fill="#FCDE32" fill-rule="nonzero" stroke="#000" transform="translate(11 52)">
        <path d="M4.59960937,0.356199159 C7,0.470120641 9.39891947,1.11392148 11.3989195,2 C13.3989195,2.88607852 13.5996094,2.70761303 13.5996094,5.88373179 C13.5996094,9.05985055 13.5996094,11.1690443 13.5996094,12.93267 C13.5996094,14.6962957 13.457007,15.6621094 10.457007,15.6621094 C7.45700698,15.6621094 6.19921875,14.6393878 4.59960937,14.3196939 C3,14 1.59960937,13.4256222 1.59960937,10.93267 C1.59960937,8.43971775 1.59960937,5.447931 1.59960937,3.88373179 C1.59960937,2.31953258 2.19921875,0.242277678 4.59960937,0.356199159 Z M5.50802438,3 C2.08565156,2.62260399 3.44458008,3.67937874 3.44458008,4.8105284 C3.44458008,5.94167806 3.44458008,6.82833611 3.44458008,8.63111292 C3.44458008,10.4338897 4,12 5,12 C6,12 7,12.55287 9,12.9262153 C11,13.2995605 11.0901699,11.7475189 11.0901699,10.4721541 C11.0901699,9.1967893 11.0901699,9.94960241 11.0901699,7.65279416 C11.0901699,5.35598591 11.0258609,5 9.97853323,4.5 C8.93120552,4 8.9303972,3.37739601 5.50802438,3 Z"/>
        <path d="M4.00054496,4.5 C5.50054496,4.5 6.59960938,4.4947853 6.59960938,5.57844734 C6.59960938,6.66210937 5.59960938,6.66210937 5.59960938,6.66210937 C5.59960938,6.66210937 2,6.29930255 2,6.29930255 C2,6.29930255 -2.5313085e-14,6.01603084 -2.5313085e-14,5.01603084 C-2.5313085e-14,4.01603084 2.50054496,4.5 4.00054496,4.5 Z M5,8.29956055 C6.5,8.29956055 7,8.80786921 7,9.89153124 C7,10.9751933 6,10.9751933 6,10.9751933 C6,10.9751933 3.06656564,10.4747723 1.64805055,10.3619559 C-0.188424571,10.2158985 -0.188424571,8.29956055 1,8.13536666 C2.18842457,7.97117278 3.5,8.29956055 5,8.29956055 Z"/>
      </g>
      <g stroke="#000" transform="translate(3)">
        <path fill="#1D487A" stroke-linecap="round" stroke-linejoin="round" d="M1.74863564,10.494297 C9.95048319,10.494297 13.6634148,5.26665265 17.8697682,0.146090106 C18.7022947,4.21513425 18.7022947,8.54980212 17.5320838,13.9586717 C12.2133777,18.0596867 10.5120499,19.9672365 0.970993023,21.3897802 C0.970993023,16.5975882 1.74863564,15.1222171 1.74863564,10.494297 Z" transform="matrix(-1 0 0 1 19.428 0)"/>
        <path fill="#1D487A" stroke-linecap="round" stroke-linejoin="round" d="M18.6775756,12.7075539 C30.3076543,12.7075539 47.7501976,10.4454195 62.8961787,6.04033064 C67.1252982,6.04033064 70.2971378,7.23856993 72.4116976,9.38053338 C72.4116976,11.5506347 69.6152399,14.0670249 67.0381424,16.1695774 C48.9640178,21.4265899 35.5155196,25.610557 18.7185449,24.1240155 C18.7185449,19.3318235 18.6775756,17.335474 18.6775756,12.7075539 Z" transform="rotate(5 45.545 15.234)"/>
        <path fill="#FCDE32" d="M7.59960938,13.9986647 C7.59960938,11.708146 8.04405382,11.7499209 8.93294271,10.5466203 C9.8218316,9.34331971 11.5996094,10.9973293 11.5996094,13.9986647 C11.5996094,17 10.266276,17 9.59960938,17 C8.93294271,17 7.59960938,16.2891833 7.59960938,13.9986647 Z"/>
        <path fill="#FCDE32" d="M27.0145841,16.9221906 C27.0145841,13.9627965 27.6812508,14.0167704 29.0145841,12.4620829 C30.3479175,10.9073954 33.0145841,13.0444077 33.0145841,16.9221906 C33.0145841,20.7999736 31.0145841,20.7999736 30.0145841,20.7999736 C29.0145841,20.7999736 27.0145841,19.8815848 27.0145841,16.9221906 Z" transform="scale(-1 1) rotate(4 0 -843.13)"/>
      </g>
      <path fill="#AA6535" stroke="#000" d="M6,48.8566783 C6.71902971,45.82 20.2101374,36.3725076 33.7439372,26.9973623 C47.2777369,17.6222171 69.0694481,12.3587554 82.4825742,9.99105172 C104.368642,6.12769256 125.343847,10.9164297 126.370689,12.5054489 C126.845768,13.2406236 128.492215,19.5533071 126.258955,18.9067002 C120.805853,17.327836 106.802402,11.0824909 84.0344479,15.6081307 C61.2664935,20.1337706 52.3735378,22.3897802 37.9897859,30.948985 C28.3747242,36.67053 9.87625119,50.5892633 6,54.7964392 C5.14081421,55.7289757 5.77749294,49.7963924 6,48.8566783 Z"/>
      <path fill="#AA6535" stroke="#000" d="M9.15601336,45.0138004 C9.81157543,48 10.1560134,49.8744743 11.1560134,50.8744743 C11.9668206,51.6852815 12.6518347,51.3331455 13.4470616,50.8351652 C13.9671397,50.5094863 16.000545,48.7402391 15.000545,47 C14.8273311,46.6985665 13.3735559,48.8027703 13,48.4587665 C12.1977833,47.7200134 11.2667229,44.4084132 11.1560134,43 C11.1149997,42.4782363 12.1427376,42.3396555 13,41.6015962 C12.3506733,40.5296151 11.1560134,41 9.81157543,41.9861996 C9.06544396,42.5335172 8.82874239,43.5230241 9.15601336,45.0138004 Z"/>
      <g stroke="#000" transform="translate(0 45)">
        <path fill="#FCDE32" d="M1.1700806,6.77848501 C-0.220361914,5.50553885 0.110730053,3.85391727 1.74692615,3.39711482 C3.38312225,2.94031237 4.73027463,4.17362654 4.20656097,5.6489035 C3.68284731,7.12418047 2.56052311,8.05143118 1.1700806,6.77848501 Z"/>
        <path fill="#88491E" d="M3.0085722,6.29600865 C3.0085722,10.3082685 3.0085722,14.0474073 3.0085722,14.7228108 C3.0085722,15.3982144 3.50670945,16.7609967 5.00112118,16.7609967 C6.49553291,16.7609967 7.98994464,17.8516568 7.98994464,15.3732316 C7.98994464,12.8948063 7.98994464,5.23581083 7.98994464,3.54910801 C7.98994464,1.6145138 8.19871181,0.53745206 6.71374662,0.227162562 C5.58705089,-0.00826507947 5.97219703,3.60216131e-05 4.65806066,3.60216131e-05 C2.78203713,3.60216131e-05 3.0085722,2.28374878 3.0085722,6.29600865 Z"/>
        <path d="M8,4.57166087 L3,4.42833913"/>
      </g>
      <path fill="#FCDE32" stroke="#000" stroke-linejoin="round" d="M43.1591499,19.3166655 C44.1591499,18.963652 45.1591499,18.3052971 47.1591499,21.3166655 C49.1591499,24.3280338 51.1591499,25.3166655 51.1591499,26.3166655 C51.1591499,27.3166655 46.1591499,29.8092974 45.1591499,30.5629814 C44.1591499,31.3166655 42.1591499,31.615968 41.1591499,29.3166655 C40.8119114,28.9266619 41.1591499,29.3166655 43.1591499,28.3166655 C43.5930342,29.3166655 43.5930342,29.5848338 44.5930342,29.3166655 C46.1591499,28.3166655 49.0262641,27.1837797 48.1591499,26.3166655 C47.1591499,25.3166655 46.1591499,24.3166655 46.1591499,24.3166655 C46.1591499,24.3166655 45.1591499,25.3166655 44.1591499,25.3166655 C43.1591499,25.3166655 44.1591499,23.8181295 45.1591499,23.0673975 C45.0795749,22.3166655 44.5930342,22.3166655 44.1591499,21.3052971 C43.8698937,20.6310515 42.203227,21.3015076 39.1591499,23.3166655 C38.1591499,22.0284699 42.1591499,19.6696789 43.1591499,19.3166655 Z"/>
    </g>
    <g fill="#E2E2E2" fill-rule="nonzero" stroke="#000" transform="translate(16.824 149.092)">
      <path d="M99.0849568,28.5568651 C101.137903,29.9306865 110.10826,37.0689484 111.754058,41.1841376 C112.13304,42.1317514 111.925523,43.985552 106.92201,44.4769267 C106.794584,44.4894407 85.1747002,46.8805871 42.0623579,51.650366 C35.1109062,51.9728041 30.5852352,50.0349712 26.4424204,48.3949169 C22.2996587,46.7549726 3.2853726,36.6830318 1.04784537,34.9250005 C0.488471462,34.4854798 -1.55846913,32.0868473 4.20396259,32.108217 C5.72780564,32.1138682 83.1869594,26.2458308 84.3760077,26.2351653 C89.6546267,24.7532874 94.5576098,25.5271874 99.0849568,28.5568651 Z" transform="scale(-1 1) rotate(-28 0 263.427)"/>
      <path d="M75.4014276,31.1917803 C76.7803484,32.0262481 84.9790345,34.3525981 86.0709793,36.8335507 C86.3224239,37.4048453 83.5855866,39.4851176 82.7961534,38.7932486 C82.0434594,38.1335783 66.0019242,39.7941011 34.6715478,43.7748172 C29.9801172,43.9399039 27.9354326,43.7561061 25.1477182,42.7529239 C22.360039,41.749808 13.1709065,37.9444826 11.6691747,36.8782556 C11.2937472,36.611691 9.92347,35.1611093 13.8111555,35.1978064 C14.8392323,35.2075107 64.6857659,29.7365388 65.4880374,29.7350476 C69.0560408,28.8659572 72.3605042,29.3515347 75.4014276,31.1917803 Z" transform="scale(-1 1) rotate(-28 0 231.527)"/>
      <path d="M78.2005905,37.9728201 C78.6121374,38.3723761 79.8383891,38.8341049 80.1873026,40.0571555 C80.2676477,40.3387901 80.2386006,40.8952689 79.2597526,41.0715672 C79.234824,41.0760571 75.4182281,41.58523 67.809965,42.5990859 C66.4477682,42.7361178 66.9614279,42.5396913 64.7240314,41.714872 C62.486635,40.8900528 60.8765607,39.9765955 60.4263692,39.4630308 C60.3138227,39.3346357 59.8969985,38.6280817 61.028015,38.6009501 C61.327106,38.5937753 75.0660369,37.3731061 75.2993214,37.3629921 C76.3259194,36.8884063 77.2930091,37.0916823 78.2005905,37.9728201 Z" transform="scale(-1 1) rotate(-28 0 321.581)"/>
    </g>
    <g transform="scale(-1 1) rotate(-22 385.807 525.37)">
      <path fill="#F3D4B7" stroke="#000" stroke-linecap="round" stroke-linejoin="round" d="M39.0892651,26.203586 C37.5767433,29.6010252 30.6808101,36.6021651 29.1682883,40.6068062 C27.6557666,44.6114474 31.0391781,48.1200138 34.8204824,44.8302003 C38.6017868,41.5403867 44.5642337,32.7832131 45.3204946,31.1383063" transform="scale(-1 1) rotate(23 0 -145.987)"/>
      <path fill="#F34D4D" stroke="#000" stroke-linecap="round" stroke-linejoin="round" d="M12.8467136,25.7665492 C10.3544585,29.810661 8.7760068,32.7868608 7.44267347,34.5508764 C14.7760068,42.7502068 16.1336553,46.589808 17.4669887,47.5256896 C18.4158878,48.1917325 21.3852349,46.193585 24.2442293,43.9007222 C27.4111535,41.3609052 30.4426735,38.4594691 30.4426735,38.4169284 C30.4426735,38.373106 31.5417835,36.7244411 33.7400035,33.4709333 C34.2487005,32.7180288 37.832191,30.2127154 39.9805866,29.8948467" transform="scale(-1 1) rotate(10 0 -234.314)"/>
      <path fill="#DC3D4F" d="M7.8921764,26.3384496 C12.0296678,28.6826423 14.7997906,31.6556155 16.9263514,33.9076194 C19.0529122,36.1596232 22,38.0533886 25,40.5 C28,42.9466114 30,43.5437519 35,38.4536074 C35.1304389,38.3208167 35.2540721,38.2095376 35.3710417,38.1186335 C33.0928121,43.240069 32.8033964,45.3033986 31.9466486,46.1621059 C30.7641427,47.3473164 26.8269432,45.4655489 23.2456987,43.7236104 C23.0019275,43.6050386 15.9529575,42.6873078 15.7441299,42.566414 C10.7885505,39.6975455 8.67427393,40.4691777 4.53704816,36.201706 C2.5380534,34.6183284 1.35577677,33.3680849 0.990218276,32.4509756 C0.650202817,31.5979484 0.855921024,30.3405629 1.60737289,28.678819 C2.81087893,26.1569273 5.5396273,24.7770222 7.8921764,26.3384496 Z"/>
      <path stroke="#000" stroke-linecap="round" stroke-linejoin="round" d="M22.019055,7.60239271 C19.5835649,11.7720323 7.18684903,32.9258941 5.8535157,34.6899097 C13.186849,42.8892401 14.5444975,46.7288413 15.8778309,47.6647229 C16.82673,48.3307658 19.7960772,46.3326182 22.6550715,44.0397555 C25.8219957,41.4999385 27.7544058,40.248449 28.8535157,38.5559617 C29.9526257,36.8634743 36.2430332,30.3517487 38.3914288,30.0338799" transform="scale(-1 1) rotate(10 0 -225.162)"/>
      <g stroke="#000" transform="rotate(-4 30.463 -159.4)">
        <path fill="#1D487A" stroke-linecap="round" stroke-linejoin="round" d="M3.45553399,5.85168312 C7.73100369,7.58806017 10.3856023,7.30688661 14.6895225,8.87908178 C23.1388881,11.9655823 20.0979525,20.0273318 14.2371917,18.530113 C3.57621949,15.8066087 0.103507595,15.0018366 0.0361870246,14.2024647 C-0.235057365,10.9816788 1.5970418,8.42021698 3.45553399,5.85168312 Z" transform="scale(-1 1) rotate(-73 0 25.74)"/>
        <path fill="#E8DB54" d="M1.82268592,3.47597453 C1.82268592,1.27609663 3.51775066,0.632815641 5.21281546,2.05439509 C6.90788026,3.47597453 6.90788026,5.60736128 5.21281546,5.94588736 C3.51775066,6.28441343 1.82268592,5.67585243 1.82268592,3.47597453 Z" transform="matrix(0 1 1 0 .488 -.488)"/>
      </g>
    </g>
    <g stroke="#000" stroke-linecap="round" stroke-linejoin="round" transform="translate(214 66)">
      <path fill="#4AAED9" d="M6.79328947,4.23140826 C3.75223196,10.6853283 4.26727003,14.2192912 4.26727003,18.4299144 C4.26727003,22.6405377 10.2579911,26.2319105 15.3264202,21.3805145 C20.3948494,16.5291185 19.5677688,5.15793463 20.5814547,2.73223664" transform="rotate(-149 12.408 13.22)"/>
      <path d="M16,14 C12,16 8.66666667,18.3333333 6,21"/>
    </g>
    <g stroke="#000" transform="translate(87 102)">
      <path fill="#F34D4D" d="M14.3470946,19.3052844 C21.6786908,22.3052844 26.7327858,34.3052844 20.7701335,37.3052844 C14.8074811,40.3052844 14.7701334,35.3052844 13.7701335,30.3052844 C12.7701335,25.3052844 6.17052407,23.3052844 5.17052407,21.3052844 C4.17052407,19.3052844 7.01549849,16.3052844 14.3470946,19.3052844 Z" transform="scale(-1 1) rotate(-34 0 74.531)"/>
      <path stroke-linecap="round" stroke-linejoin="round" d="M7.96541423,20.0073832 C13.1437499,24.0073832 15.6921556,27.5073832 14.9654142,32.0073832" transform="scale(-1 1) rotate(-12 0 135.673)"/>
      <path fill="#FFF" d="M11.626484,24.003362 C11.626484,28.0139138 12,29 11,33 C10,37 12.626484,41.003362 15.626484,37.003362 C18.626484,33.003362 18.626484,27.003362 18.626484,24.003362 C18.626484,21.003362 11.626484,19.9928102 11.626484,24.003362 Z"/>
      <path fill="#FFF" d="M15.7190297,25.7041016 C15.7190297,29.7146533 16.7190297,30.7041016 15.7190297,34.7041016 C14.7190297,38.7041016 16.7190297,42.7041016 19.7190297,38.7041016 C22.7190297,34.7041016 22.7190297,28.7041016 22.7190297,25.7041016 C22.7190297,22.7041016 15.7190297,21.6935498 15.7190297,25.7041016 Z"/>
      <path fill="#F3D4B7" d="M8.16932205,17.7952132 C7.73574639,21.8954586 8.7099581,28.8273351 17.7615438,28.5650453 C26.8131295,28.3027554 29.1950022,26.9581775 29.9391632,21.8044546 C30.6833241,16.6507317 28.9543945,8.23913097 19.4040626,9.5813426 C9.85373066,10.9235542 8.60289772,13.6949679 8.16932205,17.7952132 Z" transform="rotate(8 19.089 19.005)"/>
      <path fill="#9B8E7D" d="M11.9931666,7.29231298 C11.9931666,10.6256463 16.9931666,11.4589797 18.9931666,11.4589797 C20.9931666,11.4589797 24.9931666,10.6256463 25.9931666,7.29231298 C26.9931666,3.95897964 23.9931666,1.45897965 18.9931666,1.45897965 C13.9931666,1.45897965 11.9931666,3.95897965 11.9931666,7.29231298 Z" transform="rotate(8 19.089 6.459)"/>
    </g>
    <path fill="#E2E2E2" stroke="#000" stroke-linecap="round" stroke-linejoin="round" d="M46.6798344,139.639204 C54.029003,140.460791 66.655923,142.27535 84.5605942,145.082882 C88.4700709,145.740389 87.8393298,147.128376 89.2218856,151.655887 C91.1428222,157.946455 92.8527596,163.621695 96.955913,174.7472 C99.7064496,182.205149 102.255063,188.541687 98.915855,188.491119 C95.5765912,188.44055 28.9075702,178.072358 25.5982791,176.530652 C23.5148425,175.560028 20.7331333,172.003707 17.7909364,165.046826 C16.0599207,160.953806 14.0993701,155.521981 11.922187,150.200772 C6.04468182,135.835115 7.19968117,135.668011 9.77259673,135.49391 C12.3455683,135.319787 35.6561362,138.406871 46.6798344,139.639204 Z" transform="rotate(25 54.085 161.99)"/>
    <path fill="#F34D4D" stroke="#000" d="M71.6952279,185.489035 C76.2604074,187.916384 77.2767727,182.236163 77.2767727,178.089789 C77.2767727,173.943415 76.2327627,171.205313 72.3332923,169.131928 C68.433822,167.058543 66.680884,171.027096 66.680884,175.17347 C66.680884,179.319844 67.1300484,183.061686 71.6952279,185.489035 Z"/>
    <path fill="#FCDE32" stroke="#000" d="M36.1405921,132.2513 C38.8454304,131.424348 45.0260636,134.710649 42.6787058,139.125387 C40.331348,143.540125 41.6277716,145.362016 41.1583,146.244963 C40.6888285,147.127911 38.6399449,148.30364 35.1936532,147.603784 C31.7473615,146.903929 26.4496759,144.087099 26.5056714,141.851733 C26.561667,139.616366 27.0504101,140.827228 30.8912938,137.863686 C34.7321774,134.900143 33.4357538,133.078252 36.1405921,132.2513 Z" transform="rotate(84 34.853 139.97)"/>
    <path fill="#50E3C2" stroke="#000" stroke-linecap="round" stroke-linejoin="round" d="M33.9837341,160.477771 C35.3086103,158.454573 38.1912415,157.658978 40.3781969,158.049698 C41.328429,158.219465 40.6590313,156.238847 42.3025731,155.111013 C44.0379521,153.920159 48.0550923,156.353774 48.3120267,156.499572 C48.8263065,156.791401 46.9854649,159.902444 46.0054062,161.399076 C44.7210472,163.360401 42.372213,166.947268 41.5300676,168.233295 C38.8983862,172.252094 37.2083679,174.649001 35.9865473,173.944516 C34.4686456,173.069313 32.8919841,172.755479 32.0948538,172.16957 C31.0156085,171.3763 30.4988285,169.704421 31.2444724,168.792156 C31.92698,167.957136 33.5365118,166.66912 35.4393338,167.062267 C32.714973,165.169477 32.7321395,162.389061 33.9837341,160.477771 Z" transform="rotate(89 39.647 164.425)"/>
    <polygon fill="#52BADF" stroke="#000" stroke-linecap="round" stroke-linejoin="round" points="58.44 164.416 53.15 167.815 54.16 160.616 49.88 155.517 55.795 154.466 58.44 147.916 61.085 154.466 66.999 155.517 62.72 160.616 63.73 167.815"/>
  </g>
</svg>
