<?xml version="1.0" encoding="UTF-8"?>
<svg width="247px" height="293px" viewBox="0 0 247 293" version="1.1" xmlns="http://www.w3.org/2000/svg" xmlns:xlink="http://www.w3.org/1999/xlink">
    <!-- Generator: Sketch 54.1 (76490) - https://sketchapp.com -->
    <title>Gopher pink</title>
    <desc>Created with Sketch.</desc>
    <g id="Gopher-pink" stroke="none" stroke-width="1" fill="none" fill-rule="evenodd">
        <g id="gopher-pink" transform="translate(21.500000, 19.812933)">
            <path d="M44.4992143,228.318573 C41.5363866,233.903224 41.1164872,237.644218 41.1289991,241.294418 C41.1415109,244.944618 44.0020137,248.664179 48.9576069,244.475606 C53.9132001,240.287033 54.0185869,231.876119 55.0053808,229.776698" id="leg-2" stroke="#000000" stroke-width="1.183" fill="#FFD7E2" stroke-linecap="round" stroke-linejoin="round" transform="translate(48.067057, 237.323835) rotate(28.000000) translate(-48.067057, -237.323835) "></path>
            <path d="M144.151872,228.313454 C141.186558,233.906873 140.763374,237.652166 140.772245,241.306137 C140.781116,244.960108 143.634963,248.680646 148.589594,244.482748 C153.544225,240.284851 153.657863,231.865115 154.645722,229.762526" id="leg-" stroke="#000000" stroke-width="1.183" fill="#FFD7E2" stroke-linecap="round" stroke-linejoin="round" transform="translate(147.708917, 237.327837) scale(-1, 1) rotate(18.000000) translate(-147.708917, -237.327837) "></path>
            <g id="ear" transform="translate(151.830230, 29.028042)" stroke="#000000" stroke-linecap="round" stroke-linejoin="round" stroke-width="1.183">
                <path d="M8.39901706,6.85502576 C4.44733359,15.35043 4.41918506,16.7577533 4.44535804,22.3126005 C4.47153102,27.8674477 15.2543933,33.3648687 21.8772384,26.9961898 C28.5000835,20.6275108 28.0699182,8.8790266 29.3854404,5.68523561" fill="#FF90B0" transform="translate(16.913714, 17.768531) rotate(211.000000) translate(-16.913714, -17.768531) "></path>
                <path d="M10.8417586,28.3198468 C10.0219998,28.7341353 11.8973237,26.9705967 17.1751495,24.4785263 C22.4529752,21.9864559 24.5641055,17.7641953 16.6399941,18.8039866 C13.888478,19.1650368 10.9596149,21.4541965 7.85340471,25.6714657" id="Path" fill="#FCDE32"></path>
            </g>
            <g id="ear-copy" transform="translate(39.588469, 49.347671) scale(-1, 1) translate(-39.588469, -49.347671) translate(22.171644, 32.898447)" stroke="#000000" stroke-linecap="round" stroke-linejoin="round" stroke-width="1.183">
                <path d="M13.6818829,7.6631419 C9.74472773,16.1827252 3.36780001,15.2218638 3.40719483,20.7987158 C3.44658965,26.3755679 16.972266,30.2893293 23.5894401,23.9112123 C30.2066142,17.5330952 29.5780957,9.55347499 30.8879136,6.35019033" id="ear" fill="#FFADC3" transform="translate(17.147463, 16.775825) rotate(211.000000) translate(-17.147463, -16.775825) "></path>
                <path d="M10.8417586,23.1659029 C10.0219998,23.5824188 9.78619345,21.5086415 17.1751495,19.3039301 C24.5641055,17.0992187 24.5641055,13.6147408 16.6399941,14.6601224 C13.888478,15.0231138 10.9596149,17.6783275 7.85340471,22.6257636" id="Path" fill="#FF90B0"></path>
            </g>
            <g id="body" transform="translate(35.718064, 42.574461)">
                <path d="M17.1169601,20.0536332 C7.08368345,30.8196165 0.180560443,42.5185462 0.180560443,58.4629315 C0.180560443,84.7152743 2.63067982,87.3818578 7.81630555,95.4575821 C8.28962105,97.6793383 8.6318159,100.360605 8.76834798,103.829101 C8.9452644,108.323532 5.47807532,114.874038 4.83567466,119.225505 C2.83135373,132.802294 1.30471209,145.380606 2.63067982,155.072021 C5.0429603,172.703229 9.52027387,184.758857 19.0800124,190.832592 C35.5786755,201.314941 63.4201694,203.41141 86.1058311,198.170236 C108.791493,192.929062 111.984273,189.305809 117.040824,184.253871 C122.097376,179.201933 131.477155,161.482017 129.414822,142.61379 C127.352489,123.745563 126.420603,117.147204 128.482936,99.2438924 C132.508321,93.9869465 136.064806,85.3979118 137.563689,78.2312387 C141.780341,58.0699765 141.780341,44.4729385 132.508321,33.5973671 C119.103157,17.8738446 115.117264,5.37834553 91.3609439,2.23364103 C67.6046235,-0.91106348 35.6779561,0.137171355 17.1169601,20.0536332 Z" fill="#FFADC3"></path>
                <path d="M21.1460132,16.1929458 C29.220119,14.0091808 42.0831727,10.9228494 46.4024899,9.1624439 C52.5894885,6.6408355 96.9296455,9.08615737 98.9919784,9.08615737 C99.8606468,9.08615737 105.851761,9.7058081 112.573047,10.356243 C119.948215,16.1305285 124.581443,24.2995742 132.508321,33.5973671 C141.780341,44.4729385 141.780341,58.0699765 137.563689,78.2312387 C136.064806,85.3979118 132.508321,93.9869465 128.482936,99.2438924 C127.755656,105.557475 127.400742,110.46516 127.336455,115.000842 C112.362865,118.1166 95.1126519,120.318119 83.5244818,121.045401 C59.8076536,122.533887 9.20623553,96.6646633 11.2685684,96.6646633 C11.8178292,96.6646633 5.9328825,94.8303585 2.60545189,84.641569 C1.81865035,81.9584957 1.20455023,78.6817561 0.791196612,74.3508202 C8.03004687,95.0333768 41.1185589,106.034459 50.5271556,106.919953 C64.9634858,108.278635 99.977718,108.492305 116.521808,96.9617223 C124.682261,91.2742058 129.477351,84.3521929 131.37424,77.6459695 C131.624049,76.7627987 126.94553,79.8534852 122.986302,80.3455623 C117.148636,81.071103 109.382415,80.4483542 102.220705,78.6176127 C94.9636987,76.7625104 85.4876177,64.8261633 85.4876177,58.9458072 C85.4876177,55.862104 81.6184301,36.3050894 93.9638308,21.8238834 C75.4859401,20.5734079 56.9377346,23.4624325 45.5949037,27.4895554 C45.02996,27.6901313 47.3318242,27.5262141 54.7876932,40.1492545 C57.8014111,45.2515815 58.3419223,51.8700357 57.7453207,61.1102147 C56.8179788,75.4729082 40.2154912,85.4311391 31.9661597,85.4311391 C29.0724837,85.4311391 8.78450686,85.4730073 2.91608666,68.2369604 C0.992215362,62.5863876 3.80113009,49.0950294 11.3428309,27.7628858 C11.391419,27.3854377 11.4417242,27.0189754 11.4937465,26.6634989 C13.2222786,24.4050024 15.1067972,22.2105936 17.1169601,20.0536332 C18.3986134,18.6783838 19.7439946,17.3930985 21.1460132,16.1929458 Z M127.340214,164.198852 C124.59167,173.752302 120.050473,181.246968 117.040824,184.253871 C111.984273,189.305809 108.791493,192.929062 86.1058311,198.170236 C63.4201694,203.41141 35.5786755,201.314941 19.0800124,190.832592 C11.165771,185.804316 6.73488301,176.676216 4.07527819,163.678835 C6.34830547,163.723855 9.39744858,164.109239 12.9963903,164.109239 C24.1185623,164.109239 50.5291688,168.031584 57.9102835,166.669677 C65.2913982,165.30777 113.428309,161.398976 124.84798,163.170446 C125.849154,163.325752 126.677896,163.678115 127.340214,164.198852 Z M59.8076536,69.5618656 C61.8699865,66.7955276 79.8998577,66.1404907 83.5244818,67.4879294 C87.1491058,68.835368 87.5499506,75.1318369 86.5187841,78.1850183 C85.4876177,81.2381998 83.4466073,80.0591021 83.041815,82.3192978 C82.6370228,84.5794935 83.6501155,88.9542788 82.9238878,91.7205481 C82.1976601,94.4868175 79.2623804,95.0351813 77.3374831,95.0351813 C75.4125858,95.0351813 73.8311144,94.0457122 71.8597044,91.7205481 C70.5454311,90.1704387 70.1120334,87.5498516 70.5595113,83.8587869 C68.8813388,84.1334375 67.9388674,84.2707628 67.7320971,84.2707628 C67.4219415,84.2707628 61.6721717,83.8587869 58.9414499,82.2120828 C56.2107282,80.5653788 57.7453207,72.3282037 59.8076536,69.5618656 Z" id="shadow" fill="#FF90B0"></path>
                <path d="M17.1169601,20.0536332 C7.08368345,30.8196165 0.180560443,42.5185462 0.180560443,58.4629315 C0.180560443,84.7152743 2.63067982,87.3818578 7.81630555,95.4575821 C8.28962105,97.6793383 8.6318159,100.360605 8.76834798,103.829101 C8.9452644,108.323532 5.47807532,114.874038 4.83567466,119.225505 C2.83135373,132.802294 1.30471209,145.380606 2.63067982,155.072021 C5.0429603,172.703229 9.52027387,184.758857 19.0800124,190.832592 C35.5786755,201.314941 63.4201694,203.41141 86.1058311,198.170236 C108.791493,192.929062 111.984273,189.305809 117.040824,184.253871 C122.097376,179.201933 131.477155,161.482017 129.414822,142.61379 C127.352489,123.745563 126.420603,117.147204 128.482936,99.2438924 C132.508321,93.9869465 136.064806,85.3979118 137.563689,78.2312387 C141.780341,58.0699765 141.780341,44.4729385 132.508321,33.5973671 C119.103157,17.8738446 115.117264,5.37834553 91.3609439,2.23364103 C67.6046235,-0.91106348 35.6779561,0.137171355 17.1169601,20.0536332 Z" id="body-over-shadow" stroke="#000000" stroke-width="1.183"></path>
            </g>
            <g id="hat" transform="translate(10.560428, 0.000000)">
                <path d="M31.4444421,59.1545471 C34.5663258,41.3344996 35.6069537,21.9030362 40.8100932,15.2819046 C46.0132328,8.66077295 74.1101862,0.339857388 95.9633723,0.339857388 C117.816558,0.339857388 144.872884,4.41972993 152.157279,15.2819046 C159.441675,26.1440792 162.563558,45.6619247 165.685442,57.5926406 C168.807326,69.5233565 178.172977,108.308045 187.538628,117.742159 C196.904279,127.176273 202.107419,135.635004 194.823023,135.635004 C187.538628,135.635004 180.254233,135.670891 177.132349,126.712051 C174.010465,117.753212 159.441675,83.1099064 156.319791,75.8127656 C153.197907,68.5156247 156.319791,56.4591317 146.95414,50.6551295 C137.588489,44.8511273 88.6789769,42.6803899 78.2726979,44.8511273 C67.8664188,47.0218646 58.5007676,57.9182738 48.0944886,68.5156247 C37.6882095,79.1129755 26.2413025,96.7780979 19.9975351,103.067189 C13.7537677,109.35628 7.51000022,130.679071 7.51000022,131.953226 C7.51000022,133.22738 -3.93690675,127.854482 3.3474886,111.631775 C10.6318839,95.4090682 28.3225584,76.9745946 31.4444421,59.1545471 Z" id="Path-7" stroke="#000000" stroke-width="1.3" fill="#59BCB0"></path>
                <path d="M36.6475816,59.6891103 C39.7694653,41.8690628 43.931977,30.2889149 49.1351165,23.6677833 C54.338256,17.0466516 113.654047,27.1923141 135.507233,27.1923141 C157.360419,27.1923141 144.872884,4.41972993 152.157279,15.2819046 C159.441675,26.1440792 162.563558,45.6619247 165.685442,57.5926406 C168.807326,69.5233565 178.172977,108.308045 187.538628,117.742159 C196.904279,127.176273 202.107419,135.635004 194.823023,135.635004 C187.538628,135.635004 180.254233,135.670891 177.132349,126.712051 C174.010465,117.753212 159.441675,83.1099064 156.319791,75.8127656 C153.197907,68.5156247 156.319791,56.4591317 146.95414,50.6551295 C137.588489,44.8511273 88.6789769,42.6803899 78.2726979,44.8511273 C67.8664188,47.0218646 58.5007676,57.9182738 48.0944886,68.5156247 C37.6882095,79.1129755 26.2413025,96.7780979 19.9975351,103.067189 C13.7537677,109.35628 7.51000022,130.679071 7.51000022,131.953226 C7.51000022,133.22738 4.3881165,129.950951 11.6725119,113.728245 C18.9569072,97.5055379 33.5256979,77.5091578 36.6475816,59.6891103 Z" id="Path-7-Copy" fill="#4CA39D"></path>
                <path d="M31.4444421,59.1545471 C34.5663258,41.3344996 35.6069537,21.9030362 40.8100932,15.2819046 C46.0132328,8.66077295 74.1101862,0.339857388 95.9633723,0.339857388 C117.816558,0.339857388 144.872884,4.41972993 152.157279,15.2819046 C159.441675,26.1440792 162.563558,45.6619247 165.685442,57.5926406 C168.807326,69.5233565 178.172977,108.308045 187.538628,117.742159 C196.904279,127.176273 202.107419,135.635004 194.823023,135.635004 C187.538628,135.635004 180.254233,135.670891 177.132349,126.712051 C174.010465,117.753212 159.441675,83.1099064 156.319791,75.8127656 C153.197907,68.5156247 156.319791,56.4591317 146.95414,50.6551295 C137.588489,44.8511273 88.6789769,42.6803899 78.2726979,44.8511273 C67.8664188,47.0218646 58.5007676,57.9182738 48.0944886,68.5156247 C37.6882095,79.1129755 26.2413025,96.7780979 19.9975351,103.067189 C13.7537677,109.35628 7.51000022,130.679071 7.51000022,131.953226 C7.51000022,133.22738 -3.93690675,127.854482 3.3474886,111.631775 C10.6318839,95.4090682 28.3225584,76.9745946 31.4444421,59.1545471 Z" id="Path-7-Copy-2" stroke="#000000" stroke-width="1.3"></path>
                <path d="M35.6069537,75.7944001 C27.2819304,83.5287041 15.8350235,97.1355123 9.59125604,111.631775 C3.3474886,126.128038 -3.93690675,137.650861 5.42874441,141.924413 C14.7943956,146.197965 17.9162793,123.48198 22.0787909,115.710289 C26.2413025,107.938598 35.6069537,104.431264 39.7694653,92.9628176 C43.931977,81.4943714 43.931977,68.0600962 35.6069537,75.7944001 Z" id="Path-8" stroke="#000000" stroke-width="1.3" fill="#FFFFFF"></path>
                <g id="Group-4" transform="translate(0.000000, 71.279969)">
                    <path d="M35.6069537,4.51443127 C27.2819304,12.2487352 26.2413025,14.1459273 19.9975351,28.64219 C13.7537677,43.1384527 12.7131398,57.2774569 5.42874441,70.6444441 C14.7943956,74.9179964 17.9162793,52.2020108 22.0787909,44.43032 C26.2413025,36.6586292 35.6069537,33.1512949 39.7694653,21.6828487 C43.931977,10.2144026 43.931977,-3.21987267 35.6069537,4.51443127 Z" id="Path-8-Copy-2" fill="#F0F0F0"></path>
                    <path d="M184.924007,9.46925822 C176.527499,17.1807688 164.97404,30.7385198 158.65249,45.1658554 C152.33094,59.593191 144.970778,71.0677244 154.380785,75.2895804 C163.790792,79.5114365 166.994561,56.9221147 171.203668,49.1850947 C175.412774,41.4480747 196.702594,22.1247668 200.921976,10.7130269 C205.141358,-0.69871295 193.320514,1.75774768 184.924007,9.46925822 Z" id="Path-8-Copy" stroke="#000000" stroke-width="1.3" fill="#F0F0F0" transform="translate(175.851630, 39.361698) rotate(-65.000000) translate(-175.851630, -39.361698) "></path>
                    <path d="M35.6069537,4.51443127 C27.2819304,12.2487352 15.8350235,25.8555434 9.59125604,40.3518061 C3.3474886,54.8480688 -3.93690675,66.3708918 5.42874441,70.6444441 C14.7943956,74.9179964 17.9162793,52.2020108 22.0787909,44.43032 C26.2413025,36.6586292 35.6069537,33.1512949 39.7694653,21.6828487 C43.931977,10.2144026 43.931977,-3.21987267 35.6069537,4.51443127 Z" id="Path-8-Copy-3" stroke="#000000" stroke-width="1.3"></path>
                </g>
                <g id="Group-3" transform="translate(38.455497, 15.723523)">
                    <path d="M1.31396801,43.4310246 C1.31396801,23.909972 1.29676553,9.13580779 9.63899126,5.58103157 C17.981217,2.02625534 67.914154,0.606616873 83.5235726,0.606616873 C99.1329912,0.606616873 106.715306,7.52993981 110.714749,18.3287723 C114.714192,29.1276047 120.90681,52.4413424 108.346156,48.2034651 C95.7855026,43.9655878 61.0464163,41.2742796 47.1015959,43.9655878 C33.1567755,46.656896 1.31396801,62.9520771 1.31396801,43.4310246 Z" id="Path-6" stroke="#000000" stroke-width="1.3" fill="#FFFFFF"></path>
                    <path d="M1.31396801,43.4310246 C2.04800102,40.1848128 1.31396801,35.611862 1.31396801,32.1246316 C2.84674221,34.4784692 1.31341861,38.3654992 10.74735,39.5797188 C21.7273684,40.9929317 38.2054935,39.0457249 54.2136775,38.3744283 C71.5491428,37.6474728 88.3335083,38.054717 96.9877622,35.9662974 C109.544101,32.936238 107.733422,15.0235677 105.376759,8.72573607 C104.759626,7.07653995 110.637467,20.0879815 110.714749,18.3287723 C114.714192,29.1276047 120.90681,52.4413424 108.346156,48.2034651 C95.7855026,43.9655878 61.0464163,41.2742796 47.1015959,43.9655878 C33.1567755,46.656896 1.31396801,62.9520771 1.31396801,43.4310246 Z" id="Path-6-Copy" fill="#F0F0F0"></path>
                    <path d="M1.31396801,43.4310246 C1.31396801,23.909972 1.29676553,9.13580779 9.63899126,5.58103157 C17.981217,2.02625534 67.914154,0.606616873 83.5235726,0.606616873 C99.1329912,0.606616873 106.715306,7.52993981 110.714749,18.3287723 C114.714192,29.1276047 120.90681,52.4413424 108.346156,48.2034651 C95.7855026,43.9655878 61.0464163,41.2742796 47.1015959,43.9655878 C33.1567755,46.656896 1.31396801,62.9520771 1.31396801,43.4310246 Z" id="Path-6-Copy-2" stroke="#000000" stroke-width="1.3"></path>
                </g>
            </g>
            <g id="face" transform="translate(35.718064, 59.991286)">
                <g id="teeth" transform="translate(71.704248, 56.346131)" stroke="#000000" stroke-width="1.3">
                    <path d="M0.15133346,2.89026191 C0.15133346,7.02013455 0.541060322,11.8173576 0.541060322,15.2438207 C0.541060322,18.6702839 9.54193972,18.6702839 9.54193972,15.5810287 C9.54193972,12.4917735 9.54193972,5.97951711 9.54193972,2.89026191 C9.54193972,-0.198993297 0.15133346,-1.23961074 0.15133346,2.89026191 Z" id="tooth-2" fill="#FEFEFE"></path>
                    <path d="M4.79923562,2.8733982 L4.79923562,17.6405322" id="tooth"></path>
                </g>
                <path d="M59.9249591,53.6015518 C59.4733072,56.7986149 59.4478047,62.1857678 68.8921506,61.9834031 C71.1298764,61.9354552 73.8089662,61.0758328 75.6349092,60.9267493 C81.5153788,60.4466242 86.5906815,60.074995 87.1824554,57.008678 C87.6420848,54.627077 87.7351951,49.5473672 84.2191662,47.4189313 C81.8026545,45.9560906 75.7046404,46.7740793 71.6457672,47.1994618 C61.6812259,48.2437767 60.376611,50.4044887 59.9249591,53.6015518 Z" id="mug" stroke="#000000" stroke-width="1.3" fill="#F3D4B7" transform="translate(73.593189, 54.286709) rotate(-1.000000) translate(-73.593189, -54.286709) "></path>
                <path d="M64.3524492,45.9653016 C64.3455519,49.7420273 70.6388803,50.6748569 73.1569014,50.6703162 C75.6749225,50.6657754 80.712689,49.7125125 81.9785969,45.9335165 C83.2445047,42.1545204 79.472646,39.3287872 73.1775933,39.340139 C66.8825406,39.3514909 64.3593465,42.1885759 64.3524492,45.9653016 Z" id="nose" stroke="#000000" stroke-width="1.3" fill="#E57299" transform="translate(73.287427, 45.005219) scale(-1, 1) rotate(8.000000) translate(-73.287427, -45.005219) "></path>
                <g id="eye-2" transform="translate(86.602258, 0.000000)">
                    <path d="M0.36060196,33.2453662 C0.36060196,52.751416 22.9748938,58.0411923 30.9204642,58.0411923 C38.8660347,58.0411923 53.6875585,54.7350821 57.6603437,35.2290323 C61.633129,15.7229825 49.7533866,0.514875867 29.8894606,0.514875867 C10.0255345,0.514875867 0.36060196,13.7393164 0.36060196,33.2453662 Z" fill="#FFFFFF"></path>
                    <path d="M45.0017365,4.10588312 C55.3227539,9.72488696 60.4776593,21.3962439 57.6603437,35.2290323 C53.6875585,54.7350821 38.8660347,58.0411923 30.9204642,58.0411923 C25.2987319,58.0411923 12.3338489,55.3931344 5.23105434,46.9353501 C11.907051,50.7509568 19.6187294,52.090194 23.6166594,52.090194 C31.5622298,52.090194 46.3837537,48.7840839 50.3565389,29.2780341 C52.3965858,19.2615708 50.2565136,10.378423 45.0017365,4.10588312 Z" id="shadow" fill="#F0F0F0"></path>
                    <path d="M0.36060196,33.2453662 C0.36060196,52.751416 22.9748938,58.0411923 30.9204642,58.0411923 C38.8660347,58.0411923 53.6875585,54.7350821 57.6603437,35.2290323 C61.633129,15.7229825 49.7533866,0.514875867 29.8894606,0.514875867 C10.0255345,0.514875867 0.36060196,13.7393164 0.36060196,33.2453662 Z" id="eye-copy-3" stroke="#000000" stroke-width="1.3"></path>
                    <path d="M37.3808576,30.3537347 C37.3605713,34.5183054 42.5155484,35.5340902 44.5795679,35.5239471 C46.6435874,35.5138039 50.776698,34.4523749 51.828994,30.2827326 C52.8812901,26.1130903 49.8004756,23.004877 44.6404269,23.0302348 C39.4803781,23.0555927 37.4011439,26.1891639 37.3808576,30.3537347 Z" id="pupil-2" fill="#000000" transform="translate(44.707590, 29.277051) rotate(66.000000) translate(-44.707590, -29.277051) "></path>
                    <path d="M45.4297066,30.813673 C44.3609811,30.00107 44.1394883,28.8869705 45.5896164,27.6253523 C47.0397446,26.363734 48.7113656,26.2162152 49.4900655,27.2811418 C50.2687653,28.3460683 49.3758442,29.5585137 48.7957929,30.063161 C48.2157417,30.5678083 46.4984321,31.6262759 45.4297066,30.813673 Z" id="white-of-the-eye-copy" fill="#FFFFFF" transform="translate(47.179762, 28.840871) rotate(-58.000000) translate(-47.179762, -28.840871) "></path>
                </g>
                <g id="eye" transform="translate(0.000000, 3.089255)">
                    <path d="M0.47279094,34.3274916 C0.47279094,54.5792757 23.0870828,60.071285 31.0326532,60.071285 C38.9782236,60.071285 53.7997475,56.6387792 57.7725327,36.3869951 C61.7453179,16.1352109 49.8655756,0.345684349 30.0016496,0.345684349 C10.1377235,0.345684349 0.47279094,14.0757075 0.47279094,34.3274916 Z" fill="#FFFFFF"></path>
                    <path d="M45.1139255,4.07397913 C55.4349428,9.90780267 60.5898483,22.0253663 57.7725327,36.3869951 C53.7997475,56.6387792 38.9782236,60.071285 31.0326532,60.071285 C25.4109208,60.071285 12.4460379,57.3219894 5.34324332,48.5408562 C12.0192401,52.5023371 19.7309184,53.8927746 23.7288484,53.8927746 C31.6744188,53.8927746 46.4959426,50.4602688 50.4687279,30.2084847 C52.5087748,19.8090827 50.3687025,10.586324 45.1139255,4.07397913 Z" id="shadow" fill="#F0F0F0"></path>
                    <path d="M0.47279094,34.3274916 C0.47279094,54.5792757 23.0870828,60.071285 31.0326532,60.071285 C38.9782236,60.071285 53.7997475,56.6387792 57.7725327,36.3869951 C61.7453179,16.1352109 49.8655756,0.345684349 30.0016496,0.345684349 C10.1377235,0.345684349 0.47279094,14.0757075 0.47279094,34.3274916 Z" id="eye-copy-3" stroke="#000000" stroke-width="1.3"></path>
                    <path d="M43.1337174,31.0400857 C39.8602056,28.605918 38.9313713,23.415626 42.7471203,20.1527194 C46.5628692,16.8898128 50.2640518,17.7874463 52.7744138,20.8741954 C55.2847758,23.9609444 54.1920877,27.9893664 52.5676557,29.5147261 C50.9432238,31.0400857 46.4072293,33.4742534 43.1337174,31.0400857 Z" id="pupil" fill="#000000"></path>
                    <path d="M43.2926574,25.8639288 C42.2009644,25.0425593 41.9745629,23.9167176 43.4554835,22.642181 C44.9364041,21.3676443 46.6437262,21.2189494 47.4392351,22.2952262 C48.234744,23.3715029 47.3229307,24.5964746 46.7305625,25.1062893 C46.1381942,25.6161039 44.3843504,26.6852982 43.2926574,25.8639288 Z" id="white-of-the-eye" fill="#FFFFFF" transform="translate(45.079794, 23.870813) rotate(-34.000000) translate(-45.079794, -23.870813) "></path>
                </g>
            </g>
            <path d="M197.751168,162.173663 C195.207264,161.041044 190.967797,164.817854 190.886601,169.798082 C190.805405,174.778311 188.63276,184.602076 192.143989,186.165376 C195.655219,187.728676 200.295072,163.306282 197.751168,162.173663 Z" id="Path-11" stroke="#000000" stroke-width="1.3" fill="#4CA39D"></path>
            <path d="M16.1121866,160.537842 C14.0339538,164.873911 7.77621684,171.160819 5.7006448,176.273132 C3.62507276,181.385445 7.82259683,184.691716 13.0409816,180.504048 C18.2593664,176.31638 23.7176155,168.975309 24.7569677,166.876069" id="hand" stroke="#000000" stroke-width="1.183" fill="#FFD7E2" stroke-linecap="round" stroke-linejoin="round" transform="translate(14.957948, 171.473192) rotate(28.000000) translate(-14.957948, -171.473192) "></path>
            <path d="M197.862917,162.669946 C195.99192,166.230382 189.778457,177.054543 187.909998,181.252656 C186.041538,185.450769 191.10677,189.874065 195.806008,186.437934 C200.505245,183.001803 206.616109,172.130715 207.551833,170.407011" id="hand-2" stroke="#000000" stroke-width="1.183" fill="#FFD7E2" stroke-linecap="round" stroke-linejoin="round" transform="translate(197.532062, 175.168838) scale(-1, 1) rotate(37.000000) translate(-197.532062, -175.168838) "></path>
            <g id="jacket" transform="translate(8.625225, 137.399397)">
                <path d="M112.241761,24.5721966 C120.63645,28.4509035 138.515278,15.8978966 141.66274,14.8053543 C143.761048,14.0769928 148.766171,10.9288463 156.459967,5.05553057 C157.735649,11.0117079 158.320589,14.6867257 158.43293,16.3859682 C163.541583,19.1486525 169.920167,22.7855864 172.741729,23.5584347 C179.214014,25.3312448 183.559927,26.5559635 185.779466,27.2325909 C185.077543,34.1485848 183.999402,37.6193518 183.519019,40.9645024 C183.199997,43.1860188 183.416815,46.2799168 183.195498,46.9265857 C182.363637,49.3572162 170.804426,46.5564372 166.842435,45.683836 C165.152598,45.3116609 163.289991,44.9944263 161.254616,44.7321322 C161.464618,47.0705395 161.596665,48.856112 161.596665,49.6732463 C161.596665,55.204142 157.892325,70.0968927 154.252588,72.7656007 C148.061012,77.3053529 136.740207,83.2036801 127.297822,86.23849 C120.319949,88.4811981 95.8722283,94.1228517 72.6877426,88.7159178 C49.5032569,83.3089838 32.5255953,73.5964834 27.4709583,66.6954276 C25.5106701,64.0190615 23.6640904,51.0446253 24.8917019,40.6504957 C19.530171,40.631678 14.9845694,41.380263 14.9570877,41.4279753 C14.9146258,41.5016955 5.70431385,46.7101347 4.62353883,44.3799783 C3.90302215,42.8265407 2.36184254,36.3880833 0,25.0646063 C3.86237895,23.9676693 8.05676808,22.2943138 12.5831674,20.0445397 C19.0876746,16.811579 25.3906113,12.9595097 29.8907917,9.65186383 C33.6805433,6.71563803 32.69569,4.23880105 34.0015121,-5.68434189e-14 C43.0941797,8.41308176 48.6896674,12.9838034 50.7879753,13.7121649 C53.3450893,14.5997865 69.6511098,19.3823618 83.0344371,19.3823618 C88.2906223,19.3823618 89.9326633,26.2823216 92.9714862,35.2897258 C94.2951525,32.6543457 95.3353444,30.5074896 96.0920621,28.8491573 C99.112266,22.2304386 110.047675,23.5584347 112.241761,24.5721966 Z" id="Path" stroke="#000000" fill="#59BCB0" stroke-linecap="round" stroke-linejoin="round"></path>
                <path d="M78.86349,57.3351025 C78.2545457,60.9444947 77.7508854,64.5665603 77.5141816,67.503739 C81.4470779,68.431314 85.4233586,69.0705 89.4430236,69.4212969 C89.714948,64.0037588 89.8509102,60.7628485 89.8509102,59.6985662 C89.8509102,59.3807627 89.8832391,58.902684 89.9413158,58.2974092 C86.157649,58.2583255 82.4321284,57.9007078 78.86349,57.3351025 Z M81.0990678,46.1491843 C84.5655437,46.6291923 88.0622102,47.0306804 91.410437,47.3385556 C92.1908351,41.9615339 92.9714862,36.6368882 92.9714862,35.2897258 C92.9714862,32.5962764 96.6256209,28.0088656 97.6523501,26.6808241 C98.6790792,25.3527826 100.703024,25.6963006 103.596323,24.5721966 C105.525189,23.8227939 108.224729,23.8227939 111.694942,24.5721966 C112.873019,26.0505387 113.829155,27.3605844 114.563349,28.5023334 L132.388113,24.6569402 C130.186675,16.9037764 131.271221,16.4984839 138.09236,22.4476246 L158.149975,14.4245787 L161.738578,19.0007582 C158.541721,21.9656477 157.34552,24.5256697 158.149975,26.6808241 C158.371865,27.2752753 158.681022,28.1471824 159.077444,29.2965455 C161.009978,28.8983645 162.794123,28.6346287 164.299073,28.5282328 C164.728002,25.0876116 165.69049,23.0435989 167.598318,22.2304386 C168.83806,21.7020317 170.23796,22.7374388 172.741729,23.5584347 C173.63684,23.8519451 175.318541,24.1898658 177.786833,24.5721966 C175.88687,25.5745288 174.321672,27.0757697 173.09124,29.0759195 C174.635128,29.32104 176.200326,29.6411663 177.786833,30.0362985 L175.666749,36.2809865 C173.947717,35.991565 172.365592,35.7590699 170.920374,35.5835009 C170.664703,37.4023154 170.602723,39.5050033 170.947143,41.7397985 C172.838471,42.0752632 174.097629,42.4808029 174.106461,42.6069854 C174.141301,43.1047644 175.996147,45.7470074 173.761694,46.0383114 C173.4309,46.0814369 173.059122,46.1040259 172.65662,46.110242 C173.050725,46.5650159 173.534005,47.03787 174.106461,47.5288043 L167.598318,45.8594271 C167.555401,45.8135068 167.512869,45.7672177 167.470721,45.7205598 C164.474306,45.3661877 161.742108,44.9729971 161.624157,45.4949033 C161.623293,45.498724 161.62243,45.5025463 161.621568,45.5063705 C160.998304,52.9444474 160.479071,57.1331057 160.063869,58.0723454 C159.62295,59.0697609 158.421649,62.8642761 156.459967,69.4558911 C156.237387,69.7590895 156.030533,70.0379623 155.839405,70.2925095 C155.067406,72.0733239 154.305189,73.4223763 153.822717,73.4995473 C153.393318,73.5682293 151.458805,74.6230479 148.758105,76.1160215 C148.663332,76.3728887 148.566153,76.6247725 148.466583,76.8714581 C145.095573,78.4696695 142.963201,79.6213694 140.512163,80.6170361 C134.367905,83.8738231 127.825267,87.019076 124.97507,87.019076 C123.42372,87.019076 121.104661,87.4027603 118.272401,87.9377356 L114.815518,88.8750072 C114.837054,88.7802956 114.858462,88.6858893 114.879743,88.5917884 C111.477034,89.25038 107.5966,89.9822463 103.549767,90.5031131 C103.53405,90.6423549 103.518236,90.7819858 103.502325,90.9220059 C102.178021,90.9072772 101.02297,90.8973478 100.037173,90.892218 C96.1015227,91.252259 92.095324,91.3449901 88.2906223,90.9220059 C84.9754007,90.5534393 80.8775107,89.8360381 76.4896854,88.9037897 L66.4311204,87.019076 C66.4177129,86.8503527 66.4044766,86.6822112 66.3914113,86.5146513 C62.1473005,85.4147297 57.9708204,84.2146675 54.2628599,83.0234771 C52.13674,82.8316773 50.4769325,82.3421776 49.283423,81.554974 C49.1796845,81.4865512 49.077181,81.3704349 48.9761486,81.2104115 C45.3753869,79.8798444 42.6721495,78.6355804 41.4819832,77.6450034 C40.3022303,76.6630935 38.8471496,75.6311513 37.3249198,74.611776 C35.1110541,73.7645552 33.5018395,72.7211519 32.4972761,71.4815662 C29.772044,69.7243797 27.6058409,68.2542581 27.4393915,67.5044262 C27.0928388,65.9432542 25.8791035,63.1058659 25.8791035,59.6985662 C27.064275,61.184049 28.7745287,62.8071457 30.9186342,64.4920165 C30.7566878,61.512431 30.7067104,57.7297947 30.8922086,53.9538404 C28.4511051,51.6249852 26.8227621,49.6906804 26.1331794,48.4950093 C25.9669952,50.6427791 25.8854984,52.9957789 25.8791035,55.7956363 C25.0228293,61.0688017 24.6240434,57.2450187 24.6827459,44.3242872 C24.6810873,44.2771905 24.6813239,44.2325604 24.6833704,44.190115 C24.6884492,43.1241736 24.6966117,41.996916 24.7078577,40.8083422 L22.7585276,40.8083422 C22.7870338,40.4911728 22.81554,40.177236 22.8440463,39.8665319 L19.6048225,40.5078266 C19.6158078,40.6076305 19.6268501,40.7078025 19.6379516,40.8083422 L17.7725587,40.8705743 L14.9570877,41.4279753 L13.3967997,36.2809865 L13.4134736,36.2828402 L8.78018635,22.2304386 L18.0776636,16.7663366 C18.0776636,17.4441817 18.0776636,19.265549 18.0776636,22.2304386 C18.0776636,22.4857266 18.0815196,22.7649446 18.0892314,23.0680926 C21.1155252,22.1282101 23.5238038,21.450398 25.314067,21.0346561 C25.5024125,20.2155708 25.690758,19.5376048 25.8791035,19.0007582 C26.743652,16.5365103 27.2489187,14.7071798 27.3949036,13.5127667 C27.4053445,12.8708951 27.4201738,12.1340511 27.4393915,11.3022347 L31.3047508,8.96047671 L31.3047508,5.05754674 L78.1399103,19.0007582 C81.4029282,19.2551606 83.8990695,19.81133 85.6283342,20.6692666 C88.2222312,21.9561714 90.6310542,28.4751265 89.8509102,28.4751265 C89.0707663,28.4751265 84.563693,27.6945405 83.6097584,30.0362985 C82.9776485,31.5880279 82.9306395,34.5107296 81.5467908,36.3061567 C82.2776634,38.6318125 82.5979975,40.8454167 82.0494704,42.5838429 C81.7729821,43.4601066 81.4474993,44.6860135 81.0990678,46.1491843 Z M24.2531427,27.1409828 C22.4180039,27.0945016 20.4109325,27.9374446 18.4450854,28.8269611 C18.6319991,31.0848413 18.8902275,33.7853042 19.2197705,36.9283498 L23.0810662,37.3576257 C23.4717584,33.3448589 23.8624506,29.9393113 24.2531427,27.1409828 Z M164.008439,35.206796 C162.862424,35.266334 161.933849,35.4162836 161.222712,35.656645 C161.784218,37.3441604 162.413364,39.2467372 163.110152,41.3643754 C163.718411,41.3027944 164.330008,41.2677587 164.936376,41.2544265 C164.356095,39.4985615 164.046783,37.4826846 164.008439,35.206796 Z M29.6487921,30.4781115 C29.4476768,31.1776155 29.2607265,31.8775893 29.0879414,32.578033 C28.5785034,34.643214 28.1364911,36.4628193 27.7572093,38.1552077 C29.3327218,39.7026895 30.9167884,41.1933101 32.509409,42.6270696 C33.1347818,40.4828993 34.0868343,37.9473229 35.2437548,35.300705 C33.1185102,33.4903641 31.1423721,31.7925515 29.6487921,30.4781115 Z M32.2657234,23.1861982 C33.9707309,24.5521808 36.2157061,26.3465889 38.6782484,28.2701834 C39.5570472,26.648125 40.4732584,25.0775257 41.3981657,23.6244802 C38.7844888,21.9104654 36.2534122,20.2394708 34.2934979,18.8996452 C33.5577469,20.3265119 32.881822,21.7553629 32.2657234,23.1861982 Z M67.0614296,54.6496245 C63.1086008,53.4847011 59.6112244,52.1902596 56.7817752,51.0041896 C56.3437544,53.4936421 55.9578918,56.3371953 55.6431065,59.1343896 C58.9964305,60.9313834 62.384104,62.5000465 65.8061267,63.8403788 C65.9363614,61.6522326 66.1446926,59.7295548 66.4311204,58.0723454 C66.6206714,56.9756447 66.832576,55.8274683 67.0614296,54.6496245 Z M69.352483,44.1682468 C69.9904801,41.5272228 70.6348764,39.0589639 71.2228929,37.0167767 C68.628212,36.5671161 65.7591577,35.9756437 63.1435365,35.3504422 C61.9060828,37.6969224 60.7669814,39.992358 59.8559509,41.7820101 C62.5465531,42.640432 65.7974996,43.4430626 69.3524771,44.1682456 Z M47.4585608,45.6363473 C46.0300194,44.4228071 43.939689,42.6613323 41.6324438,40.7132691 C41.5795184,40.8046102 41.5293286,40.8884865 41.4819832,40.9645024 C40.7361312,42.1620123 40.11855,45.1443024 39.6351373,48.6179718 C41.8288392,50.333807 44.0382665,51.9451101 46.2634193,53.4518812 C46.3491899,50.8208212 46.5585035,48.6556832 46.9164706,47.3590634 C47.0621281,46.8314665 47.2446187,46.2538134 47.4585608,45.6363473 Z M50.9965172,37.3691434 C51.9078812,35.4969175 52.8830252,33.6211672 53.8452411,31.8878953 C52.6331408,31.0155587 50.4986437,29.5929951 47.9975166,27.9479896 C47.0584771,29.7205057 46.139113,31.5716772 45.2905683,33.3155019 C47.274746,34.7854205 49.22457,36.1810385 50.9965172,37.3691434 Z M105.245959,57.393559 C105.362276,59.737706 105.45379,62.1059833 105.45379,64.3820822 C105.45379,65.837267 105.418467,67.4337428 105.347822,69.1715096 C109.333044,68.7075312 113.357968,67.9452368 117.422594,66.8846265 C117.292972,63.7778885 117.065148,59.7657387 116.762338,55.634916 C113.049211,56.3325105 109.167906,56.9372199 105.245959,57.393559 Z M104.793485,47.9657028 C108.483478,47.8039205 112.263889,47.2059492 115.950071,46.3361391 C115.80769,44.976065 115.658176,43.6758124 115.50255,42.4699284 C114.980342,42.5437672 114.510323,42.5838429 114.104696,42.5838429 C109.434882,42.5838429 110.533113,40.8743989 110.533113,37.7520549 C110.533113,36.9533788 110.360424,36.0871585 110.015046,35.1533942 C107.973124,35.8477045 106.368632,37.1173034 105.45379,39.7041813 C104.810415,41.5234386 104.701173,44.470561 104.793485,47.9657028 Z M131.507273,52.1714512 C132.203969,55.2176222 132.628521,57.7266605 132.78093,59.6985662 C132.825136,60.2705173 132.851016,60.8729006 132.858569,61.5057161 C135.349895,60.4247112 137.855433,59.2369162 140.375183,57.942331 C140.049621,55.173426 139.636708,52.3700712 139.16876,49.6436023 C137.051943,50.46155 134.455831,51.3225617 131.507273,52.1714512 Z M128.827764,42.1794886 C131.845028,40.9518179 134.570683,39.6618204 136.845789,38.4509681 C136.624695,37.5592848 136.402443,36.7051548 136.181021,35.8954309 C135.763107,36.0553322 135.398435,36.1859531 135.099261,36.2809865 C133.865994,36.6727378 131.057797,37.7392699 127.823884,38.8860425 C128.177152,40.0206501 128.511779,41.1184655 128.827764,42.1794886 Z M150.061431,43.7173258 C150.591757,46.338801 150.966383,49.0557593 151.191487,51.7837786 C153.312421,50.4600992 155.44311,49.0631252 157.583553,47.5928566 C157.740984,47.4847178 157.921055,47.3105525 158.123768,47.070361 C157.98016,44.557612 157.254891,42.221658 156.159819,39.4200127 C154.433363,40.723886 152.34375,42.2185326 150.061431,43.7173258 Z M146.730457,33.1232239 C148.661937,32.3081666 150.699139,31.5755502 152.724635,30.9459282 C152.464766,30.2756544 152.19965,29.5777033 151.930254,28.8491573 C150.644512,29.4347132 148.424095,30.473023 145.98047,31.5979719 C146.240091,32.0929049 146.490058,32.6017162 146.730457,33.1232239 Z M77.6651648,77.6390488 C77.8149861,79.6358852 78.0215746,81.8036321 78.2849303,84.1422897 C80.8377653,84.560364 83.3981943,84.8744703 85.9457702,85.067611 C86.8505481,85.1362054 87.7360971,85.1978942 88.6034644,85.2526713 C88.7299321,82.9450028 88.8467836,80.7912789 88.9540191,78.7914996 C88.7327917,78.7853926 88.511656,78.7784057 88.2906223,78.7705288 C84.650083,78.6407924 81.1019307,78.2463377 77.6651648,77.6390488 Z M65.7184113,74.5936087 C61.8525177,73.3053721 58.1903494,71.7895712 54.7673781,70.1430734 C54.7522072,70.6156392 54.7444309,71.0397604 54.7444309,71.4073561 C54.7444309,73.4330389 54.9215381,75.5391829 55.2757524,77.7257884 C58.7249011,79.0723079 62.3333021,80.3047679 66.0326486,81.366385 C65.8871037,78.970107 65.7823579,76.7125149 65.7184113,74.5936087 Z M46.5315047,65.6920974 C43.5895714,63.9205421 40.9089532,62.1025999 38.5235114,60.3307404 C38.4158977,62.1428443 38.3614072,63.5932293 38.3614072,64.3820822 C38.3614072,65.736671 38.481912,67.5265715 38.7229216,69.7517839 C41.3487699,71.3023502 44.2478602,72.8405251 47.354738,74.3118961 C47.0108627,71.7610433 46.7287253,68.7639011 46.5315047,65.6920974 Z M104.798119,77.8638786 C104.606926,80.2119153 104.373918,82.7272087 104.099096,85.4097586 C108.401209,85.1558191 112.24517,84.6139814 115.909958,83.7826228 C116.558354,80.5519607 117.013893,77.7833699 117.276575,75.4768506 C113.22386,76.462493 109.039679,77.2823292 104.798119,77.8638786 Z M131.991157,71.0456387 C131.600072,73.4263508 131.077098,76.0260754 130.422234,78.8448126 C133.604398,77.452168 136.932854,75.8423653 140.58679,74.0143624 C140.718335,73.9485526 140.848814,73.8831149 140.978235,73.818047 C141.141122,71.8801155 141.17707,69.7233921 141.110076,67.4305439 C138.290096,68.6597741 135.232384,69.8824867 131.991157,71.0456387 Z M151.317044,62.4253547 C151.189845,64.5276157 150.970971,66.5649683 150.663648,68.4933353 C153.544921,66.694423 155.125928,65.3872399 156.053011,64.3923129 C156.373215,62.6669233 156.693405,60.7810961 156.983728,58.8974084 C155.539736,59.9391367 153.625313,61.1400939 151.317044,62.4253547 Z" id="Combined-Shape" fill="#4CA39D"></path>
                <path d="M92.9714862,35.2897258 C90.6310542,43.1341873 88.2906223,71.8500434 88.2906223,75.3102861 C88.2906223,77.6171146 88.2906223,82.8210212 88.2906223,90.9220059" id="Path-9" stroke="#000000" stroke-width="1.3"></path>
                <path d="M112.241761,24.5721966 C120.63645,28.4509035 138.515278,15.8978966 141.66274,14.8053543 C143.761048,14.0769928 148.766171,10.9288463 156.459967,5.05553057 C157.735649,11.0117079 158.320589,14.6867257 158.43293,16.3859682 C163.541583,19.1486525 169.920167,22.7855864 172.741729,23.5584347 C179.214014,25.3312448 183.559927,26.5559635 185.779466,27.2325909 C185.077543,34.1485848 183.999402,37.6193518 183.519019,40.9645024 C183.199997,43.1860188 183.416815,46.2799168 183.195498,46.9265857 C182.363637,49.3572162 170.804426,46.5564372 166.842435,45.683836 C165.152598,45.3116609 163.289991,44.9944263 161.254616,44.7321322 C161.464618,47.0705395 161.596665,48.856112 161.596665,49.6732463 C161.596665,55.204142 157.892325,70.0968927 154.252588,72.7656007 C148.061012,77.3053529 136.740207,83.2036801 127.297822,86.23849 C120.319949,88.4811981 95.8722283,94.1228517 72.6877426,88.7159178 C49.5032569,83.3089838 32.5255953,73.5964834 27.4709583,66.6954276 C25.5106701,64.0190615 23.6640904,51.0446253 24.8917019,40.6504957 C19.530171,40.631678 14.9845694,41.380263 14.9570877,41.4279753 C14.9146258,41.5016955 5.70431385,46.7101347 4.62353883,44.3799783 C3.90302215,42.8265407 2.36184254,36.3880833 0,25.0646063 C3.86237895,23.9676693 8.05676808,22.2943138 12.5831674,20.0445397 C19.0876746,16.811579 25.3906113,12.9595097 29.8907917,9.65186383 C33.6805433,6.71563803 32.69569,4.23880105 34.0015121,-5.68434189e-14 C43.0941797,8.41308176 48.6896674,12.9838034 50.7879753,13.7121649 C53.3450893,14.5997865 69.6511098,19.3823618 83.0344371,19.3823618 C88.2906223,19.3823618 89.9326633,26.2823216 92.9714862,35.2897258 C94.2951525,32.6543457 95.3353444,30.5074896 96.0920621,28.8491573 C99.112266,22.2304386 110.047675,23.5584347 112.241761,24.5721966 Z" id="outline-jacket" stroke="#000000" stroke-width="1.3" stroke-linecap="round" stroke-linejoin="round"></path>
                <path d="M35.2408313,58.0723454 C39.4418322,58.0723454 52.403999,55.1695413 54.7444309,53.7815482 C57.0848629,52.3935552 59.196598,59.6985662 58.6451509,61.2597382 C58.0937037,62.8209102 49.283423,64.3820822 43.0422712,65.9432542 C36.8011193,67.5044262 34.1856851,68.0000565 33.1529702,65.5529612 C32.1202554,63.1058659 31.0398305,58.0723454 35.2408313,58.0723454 Z" id="Path-13" stroke="#000000" stroke-width="1.3" fill="#59BCB0" transform="translate(45.474569, 60.429305) scale(1, -1) rotate(34.000000) translate(-45.474569, -60.429305) "></path>
                <path d="M126.959685,61.9752754 C131.160686,61.9752754 144.122853,59.0724712 146.463285,57.6844782 C148.803717,56.2964852 150.915452,63.6014962 150.364005,65.1626682 C149.812558,66.7238402 141.002277,68.2850122 134.761125,69.8461841 C128.519973,71.4073561 125.904539,71.9029864 124.871824,69.4558911 C123.83911,67.0087958 122.758685,61.9752754 126.959685,61.9752754 Z" id="pocekt" stroke="#000000" stroke-width="1.3" fill="#59BCB0" transform="translate(137.193423, 64.332235) rotate(-144.000000) translate(-137.193423, -64.332235) "></path>
            </g>
            <path d="M105.369102,176.870925 C105.369102,174.173682 106.776522,173.384963 108.183942,175.127944 C109.591362,176.870925 109.591362,179.484192 108.183942,179.899254 C106.776522,180.314317 105.369102,179.568168 105.369102,176.870925 Z" id="button" stroke="#000000" stroke-width="1.3" fill="#1D487A"></path>
            <path d="M103.433899,192.336285 C103.433899,189.639042 104.841319,188.850323 106.248739,190.593304 C107.656159,192.336285 107.656159,194.949552 106.248739,195.364614 C104.841319,195.779677 103.433899,195.033528 103.433899,192.336285 Z" id="button-copy-6" stroke="#000000" stroke-width="1.3" fill="#1D487A"></path>
            <path d="M101.121174,207.538909 C101.130128,205.270055 102.79376,204.600066 104.448988,206.05968 C106.104215,207.519295 106.09554,209.71751 104.433149,210.073189 C102.770757,210.428868 101.112221,209.807764 101.121174,207.538909 Z" id="button-copy-7" stroke="#000000" stroke-width="1.3" fill="#1D487A" transform="translate(103.403165, 207.726564) rotate(-54.000000) translate(-103.403165, -207.726564) "></path>
            <g id="collar" transform="translate(118.931783, 141.269802)">
                <path d="M4.40659278,34.7743371 C13.8116783,32.8052476 13.8116783,33.0647536 25.8292875,27.7869279 C37.8468967,22.5091021 46.2069727,15.151377 51.4320202,10.9930906 C48.2969917,6.60862967 49.3420012,3.93937392 47.2519822,0.342234013 C45.1619632,1.51723011 39.9369157,5.41718508 35.7568777,7.88539768 C31.5768397,10.3536103 10.6766498,19.2945061 0.226554793,20.1368436 C3.36158329,27.3069853 4.40659278,30.5929601 4.40659278,34.7743371 Z" id="Path-3" stroke="#000000" stroke-width="1.183" fill="#59BCB0" stroke-linecap="round" stroke-linejoin="round"></path>
                <path d="M33.6668587,13.1042209 C45.6844679,7.82639517 49.9242099,8.51061314 49.5385276,7.43022556 C48.6420095,4.91886614 48.7133292,2.85736417 47.2519822,0.342234013 C45.1619632,1.51723011 39.9369157,5.41718508 35.7568777,7.88539768 C31.5768397,10.3536103 10.6766498,19.2945061 0.226554793,20.1368436 C0.913035745,21.7068981 1.49930366,23.0907131 1.99633042,24.3384708 C2.50885053,25.6251236 3.36158329,27.7869279 4.40659278,29.9184712 C10.9823131,28.1628036 25.1235643,16.8562167 33.6668587,13.1042209 Z" id="Path-3-Copy-2" fill="#55AEA8"></path>
                <path d="M4.40659278,34.7743371 C13.8116783,32.8052476 13.8116783,33.0647536 25.8292875,27.7869279 C37.8468967,22.5091021 46.2069727,15.151377 51.4320202,10.9930906 C48.2969917,6.60862967 49.3420012,3.93937392 47.2519822,0.342234013 C45.1619632,1.51723011 39.9369157,5.41718508 35.7568777,7.88539768 C31.5768397,10.3536103 10.6766498,19.2945061 0.226554793,20.1368436 C3.36158329,27.3069853 4.40659278,30.5929601 4.40659278,34.7743371 Z" id="Path-3-Copy-4" stroke="#000000" stroke-width="1.183" stroke-linecap="round" stroke-linejoin="round"></path>
            </g>
            <g id="collar" transform="translate(37.653267, 133.528991)">
                <path d="M5.03087918,38.1613255 C14.4091695,36.1557713 14.4091695,36.4200831 26.3925406,31.0445198 C38.3759116,25.6689566 48.7962342,16.024752 54.0063955,11.7894603 C50.8802987,7.32380559 51.922331,4.60511918 49.8382665,0.941365572 C47.754202,2.13812086 42.5440406,6.11029721 38.3759116,8.62421746 C34.2077825,11.1381377 11.2830728,22.3948309 0.86275013,23.2527673 C3.98884692,30.5556894 5.03087918,33.9025156 5.03087918,38.1613255 Z" id="Path-3-Copy" stroke="#000000" stroke-width="1.3" fill="#59BCB0" stroke-linecap="round" stroke-linejoin="round" transform="translate(27.434573, 19.551346) scale(-1, 1) translate(-27.434573, -19.551346) "></path>
                <path d="M22.4763179,20.7757121 C33.9386728,16.9228341 54.1234226,3.31010926 54.0058845,2.96360574 C53.7847231,2.3116198 53.5000503,1.64386561 53.100445,0.941365572 C51.0163804,2.13812086 45.8062191,6.11029721 41.6380901,8.62421746 C37.469961,11.1381377 14.5452512,22.3948309 4.12492861,23.2527673 C4.77131787,24.7628071 5.32860367,26.1037053 5.80599805,27.3184981 C8.92989845,26.1512753 16.2241243,23.3297291 22.4763179,20.7757121 Z" id="Path-3-Copy-7" fill="#55AEA8" transform="translate(29.065662, 14.129932) scale(-1, 1) translate(-29.065662, -14.129932) "></path>
                <path d="M5.03087918,38.1613255 C14.4091695,36.1557713 14.4091695,36.4200831 26.3925406,31.0445198 C38.3759116,25.6689566 48.7962342,16.024752 54.0063955,11.7894603 C50.8802987,7.32380559 51.922331,4.60511918 49.8382665,0.941365572 C47.754202,2.13812086 42.5440406,6.11029721 38.3759116,8.62421746 C34.2077825,11.1381377 11.2830728,22.3948309 0.86275013,23.2527673 C3.98884692,30.5556894 5.03087918,33.9025156 5.03087918,38.1613255 Z" id="Path-3-Copy-8" stroke="#000000" stroke-width="1.3" stroke-linecap="round" stroke-linejoin="round" transform="translate(27.434573, 19.551346) scale(-1, 1) translate(-27.434573, -19.551346) "></path>
            </g>
            <g id="sleeve-rolled" transform="translate(190.359213, 174.197127) scale(1, -1) rotate(156.000000) translate(-190.359213, -174.197127) translate(174.747493, 157.609675)">
                <path d="M8.60816459,26.2088522 C9.86315014,27.6260147 16.0237814,24.3535245 21.0380972,20.4126794 C24.8741418,17.3978599 27.9621706,13.8810657 28.1310128,12.4364002 C26.7606653,9.4976807 23.1215427,4.69178626 21.6877721,5.97283721 C21.3212465,6.30032197 21.2280324,7.57362662 19.3050638,9.61889893 C17.0578275,12.009063 12.807672,15.3126652 10.2396424,17.252747 C6.40909762,20.1466274 4.79216133,20.2744734 2.46795175,20.8255591 C4.58630371,23.4154784 5.81397664,23.97758 8.60816459,26.2088522 Z" id="Path-3-Copy-3" stroke="#000000" stroke-width="1.183" fill="#59BCB0" stroke-linejoin="round" transform="translate(15.299482, 16.152858) scale(-1, 1) rotate(115.000000) translate(-15.299482, -16.152858) "></path>
                <path d="M13.6847237,31.9551638 C17.5207683,28.9403443 20.608797,25.4235501 20.7776392,23.9788846 C19.4072918,21.040165 15.7681692,16.2342706 14.3343986,17.5153216 C13.8939993,17.9088112 13.2365261,20.5934381 10.9594762,22.302795 C12.7020329,26.0397199 13.6419777,25.3935652 13.6847237,31.9551638 Z" id="Path-3-Copy-5" fill="#55AEA8" transform="translate(15.868558, 24.628949) scale(-1, 1) rotate(115.000000) translate(-15.868558, -24.628949) "></path>
                <path d="M8.5514926,26.2978094 C9.80647815,27.7149719 15.9671094,24.4424817 20.9814252,20.5016367 C24.8174698,17.4868171 27.9054986,13.970023 28.0743408,12.5253574 C26.7039933,9.58663791 21.8966296,4.34497709 21.6311001,6.06179442 C21.0984586,9.50566219 15.2034502,13.3663286 9.81377575,17.4960569 C7.17708885,19.5163645 4.73548934,20.3634306 2.41127976,20.9145163 C4.52963172,23.5044356 5.75730465,24.0665372 8.5514926,26.2978094 Z" id="Path-3-Copy-6" stroke="#000000" stroke-width="1.3" stroke-linejoin="round" transform="translate(15.242810, 16.179284) scale(-1, 1) rotate(115.000000) translate(-15.242810, -16.179284) "></path>
            </g>
            <g id="sleeve-rolled-copy" transform="translate(16.619988, 170.460891) scale(-1, 1) rotate(6.000000) translate(-16.619988, -170.460891) translate(1.619988, 154.460891)">
                <path d="M8.55742755,25.3264763 C9.77659305,26.7171058 15.6913655,23.5678928 20.4968267,19.759043 C24.1730936,16.8452023 27.3079819,14.9266455 27.4608109,13.5189409 C26.1200526,10.6436755 22.3970896,4.44204411 21.0240936,5.68153061 C19.6510977,6.9210171 5.0449847,17.6193057 2.60308262,20.034574 C4.66232626,22.5748042 5.84931679,23.1313781 8.55742755,25.3264763 Z" id="Path-3-Copy-3" fill="#59BCB0" transform="translate(15.031947, 15.590649) scale(-1, 1) rotate(115.000000) translate(-15.031947, -15.590649) "></path>
                <path d="M15.6407876,29.67774 C17.2131334,27.9979411 19.7372771,26.3211437 19.826095,25.5030444 C18.4853367,22.627779 14.7623736,16.4261477 13.3893777,17.6656342 C12.967646,18.0463568 11.2973928,19.319501 9.11463685,20.9709057 C12.6227218,23.4410736 14.5075957,30.8883735 15.6407876,29.67774 Z" id="Path-3-Copy-5" fill="#55AEA8" transform="translate(14.470366, 23.656859) scale(-1, 1) rotate(115.000000) translate(-14.470366, -23.656859) "></path>
                <path d="M8.43025916,25.5260906 C9.64942466,26.9167202 15.5641971,23.7675072 20.3696583,19.9586574 C24.0459252,17.0448167 27.633207,15.4814685 27.786036,14.0737639 C26.4452778,11.1984985 22.2699212,4.64165851 20.8969252,5.881145 C19.5239293,7.1206315 4.91781631,17.8189201 2.47591422,20.2341884 C4.53515787,22.7744186 5.7221484,23.3309925 8.43025916,25.5260906 Z" id="Path-3-Copy-6" stroke="#000000" stroke-width="1.3" stroke-linejoin="round" transform="translate(15.130975, 15.794052) scale(-1, 1) rotate(115.000000) translate(-15.130975, -15.794052) "></path>
            </g>
        </g>
    </g>
</svg>