<?xml version="1.0" encoding="UTF-8"?>
<svg width="290px" height="290px" viewBox="0 0 290 290" version="1.1" xmlns="http://www.w3.org/2000/svg" xmlns:xlink="http://www.w3.org/1999/xlink">
    <!-- Generator: Sketch 54.1 (76490) - https://sketchapp.com -->
    <title>Artboard</title>
    <desc>Created with Sketch.</desc>
    <g id="Artboard" stroke="none" stroke-width="1" fill="none" fill-rule="evenodd">
        <g id="pink-gopher" transform="translate(137.758144, 139.836288) rotate(-194.000000) translate(-137.758144, -139.836288) translate(27.258144, 6.836288)">
            <g id="gopher-mountie" transform="translate(110.273218, 133.260203) rotate(193.000000) translate(-110.273218, -133.260203) translate(23.773218, 17.760203)">
                <g id="ear" stroke-linecap="round" stroke-linejoin="round" transform="translate(122.886821, 0.008414)" fill-rule="nonzero" stroke="#000000" stroke-width="1.40402351">
                    <path d="M8.48837848,6.92795982 C4.49465116,15.5137507 4.46620314,16.9360472 4.49265459,22.5499951 C4.51910604,28.1639429 15.4166924,33.7198537 22.1100011,27.2834154 C28.8033098,20.846977 28.3685678,8.97349497 29.6980864,5.74572373" id="Path" fill="#FFC96F" transform="translate(17.093667, 17.957580) rotate(-149.000000) translate(-17.093667, -17.957580) "></path>
                    <path d="M10.9571093,28.6211552 C10.1286287,29.0398516 12.0239051,27.2575498 17.3578842,24.738965 C22.6918631,22.2203803 24.8254548,17.9531971 16.8170349,19.0040512 C14.0362442,19.3689429 11.0762195,21.6824581 7.93696084,25.9445967" id="Path" fill="#F8B547"></path>
                </g>
                <g id="ear-copy" stroke-linecap="round" stroke-linejoin="round" transform="translate(36.432838, 27.924273) scale(-1, 1) translate(-36.432838, -27.924273) translate(18.650257, 10.949992)" fill="#F8B547" fill-rule="nonzero" stroke="#000000" stroke-width="1.40402351">
                    <path d="M13.8274518,7.74467493 C9.84840736,16.3549021 3.40363245,15.3838177 3.44344641,21.0200045 C3.48326038,26.6561914 17.1528428,30.6115932 23.8404202,24.1656163 C30.5279977,17.7196394 29.8927921,9.65512018 31.2165456,6.41775424" id="ear" transform="translate(17.329904, 16.954312) rotate(-149.000000) translate(-17.329904, -16.954312) "></path>
                    <path d="M10.9571093,23.4123761 C10.1286287,23.8333234 9.89031345,21.7374823 17.3578842,19.5093139 C24.8254548,17.2811455 24.8254548,13.7595946 16.8170349,14.8160984 C14.0362442,15.1829519 11.0762195,17.8664157 7.93696084,22.86649" id="Path"></path>
                </g>
                <g id="body" transform="translate(18.650257, 15.545261)">
                    <path d="M20.9887228,20.2669934 C10.8486974,31.1475213 3.87212873,42.9709213 3.87212873,59.0849466 C3.87212873,85.6166008 6.34831609,88.3115552 11.5891142,96.473201 C12.0674655,98.7185956 12.4133011,101.428389 12.5512858,104.933789 C12.7300845,109.476038 9.2260064,116.096238 8.57677093,120.494003 C6.55112507,134.21524 5.7365878,153.729556 2.48552135,162.530988 C-3.1774569,177.862055 6.85213205,198.049771 16.4797185,204.299691 C33.3719019,215.265552 60.1627993,216.2345 86.499911,214.03567 C112.837023,211.836839 128.346213,210.273216 136.531421,203.069808 C144.716628,195.866399 150.96516,173.593004 148.880885,154.524029 C146.79661,135.455054 131.455299,118.393589 133.539575,100.299796 C137.607787,94.9869186 141.202113,86.3065011 142.716941,79.0635782 C146.978457,58.6878107 146.978457,44.9461073 137.607787,33.9548256 C124.060001,18.0640129 120.031699,5.43556832 96.022624,2.2574058 C72.0135487,-0.920756721 39.7471981,0.138630788 20.9887228,20.2669934 Z" id="Path" fill="#FFC96F" fill-rule="nonzero"></path>
                    <path d="M27.3339346,14.5288776 C34.0831733,11.0341961 36.5710166,9.42251998 40.5495661,7.80099965 C43.9105013,6.43119777 56.4655777,2.2426248 71.2649321,1.33460681 C83.9989187,0.553309972 99.3997365,2.95120502 100.3637,2.95120502 C101.156947,2.95120502 110.063289,4.56780323 115.519749,9.04776712 C124.150846,14.9231475 128.923606,23.7687563 137.607787,33.9548256 C146.978457,44.9461073 146.978457,58.6878107 142.716941,79.0635782 C141.202113,86.3065011 137.607787,94.9869186 133.539575,100.299796 C133.000429,104.980174 133.627259,109.701449 134.889004,114.459341 C119.209623,117.890708 100.467156,120.327382 88.1027859,121.103379 C83.5201968,121.390986 76.2718385,140.081914 70.2647708,138.724186 C44.8519618,132.980341 13.3923183,96.4632425 15.0781074,96.4632425 C15.7408984,96.4632425 7.13336673,93.8203999 4.72388061,77.3181177 C4.58021426,76.1314904 4.45377573,74.8591541 4.34529257,73.4891619 C11.3544929,94.6646724 45.1817715,105.926713 54.7543854,106.827643 C69.3443107,108.200781 104.731076,108.416725 121.451186,96.7634621 C129.698463,91.0154334 134.54457,84.019774 136.46164,77.2421997 C136.714108,76.3496325 131.985812,79.4732022 127.984459,79.9705148 C122.084684,80.7037749 114.235834,80.0744004 106.997927,78.2241807 C99.6637101,76.3493412 90.0868086,64.2859974 90.0868086,58.3430775 C90.0868086,55.2265653 112.135924,41.8354567 124.612673,27.2001782 C128.974632,22.0835817 112.181033,9.68376933 100.3637,6.18440144 C93.1316218,4.04282675 82.0253324,2.03388987 69.6483339,2.95120502 C62.0975681,3.51082631 51.5247616,4.34678119 45.3993607,6.18440144 C29.2333786,11.0341961 31.1235899,21.105337 27.6167804,22.3503835 C27.0458258,22.5530934 51.5250574,26.5891962 59.0602529,39.3465392 C62.1060352,44.5031524 62.6522971,51.1920234 62.049348,60.5305131 C61.1121398,75.0460182 44.3330103,85.1101995 35.9959102,85.1101995 C33.071447,85.1101995 12.5676167,85.1525131 6.63675952,67.7330837 C4.71043673,62.0753106 7.47901782,48.6395113 14.9425028,27.4256859 C16.7875738,24.9741738 18.8154935,22.5989287 20.9887228,20.2669934 C22.9626708,18.1488928 25.0861953,16.2419482 27.3339346,14.5288776 Z M147.085667,147.38054 C147.923952,150.300302 148.559762,153.229606 148.880885,156.167552 C150.96516,175.236527 143.409193,195.685877 138.298844,200.791566 C133.188493,205.897254 119.578686,211.608755 91.2133079,213.066722 C66.4633743,214.338855 39.746722,214.902016 22.261742,207.987526 C22.198836,206.968579 21.5932408,205.372708 21.943637,204.385171 C19.1764496,204.014647 16.7363953,203.946015 15.2250719,204.457545 C5.56362279,198.319188 0.842032718,183.778738 0.634488937,166.219251 C0.587344819,162.230567 1.52297494,156.31804 2.79266196,149.780622 C6.82500776,150.994749 12.2591534,152.673514 19.6407186,154.045695 C44.178659,158.607125 65.5385432,151.59034 87.4958019,151.59034 C104.547666,151.59034 130.447316,146.829744 147.085667,147.38054 Z M36.0815175,206.498161 C47.5870696,208.438855 65.828313,209.801279 78.9121722,209.801279 C90.1812487,209.801279 104.527979,205.987499 113.926527,203.322525 C116.107604,200.255388 117.070022,196.43302 112.229657,194.618486 C105.668105,192.158721 86.8154871,187.239191 66.8363632,189.698956 C46.8572393,192.158721 49.8390829,193.388603 38.7099923,195.848368 C34.6191229,196.752537 30.9609359,202.484582 36.0815175,206.498161 Z M64.1336231,70.3019676 C66.217898,67.5061972 84.4395978,66.8441911 88.1027859,68.2059658 C91.765974,69.5677404 92.1710837,75.9312005 91.1289461,79.0168662 C90.0868086,82.1025319 88.0240829,80.9108893 87.6149839,83.1951323 C87.2058848,85.4793753 88.2297564,89.900706 87.4958019,92.6964069 C86.7618476,95.4921079 83.795338,96.0463061 81.8499608,96.0463061 C79.9045836,96.0463061 78.3062861,95.0463096 76.3139015,92.6964069 C74.985645,91.1298052 74.5476361,88.4813364 74.999875,84.7510007 C73.3038476,85.0285734 72.3513488,85.1673598 72.1423785,85.1673598 C71.828923,85.1673598 66.0179787,84.7510007 63.2582035,83.0867766 C60.4984282,81.4225525 62.049348,73.0977381 64.1336231,70.3019676 Z" id="shadow" fill="#F8B547" fill-rule="nonzero"></path>
                    <path d="M20.9887228,20.2669934 C10.8486974,31.1475213 3.87212873,42.9709213 3.87212873,59.0849466 C3.87212873,85.6166008 6.34831609,88.3115552 11.5891142,96.473201 C12.0674655,98.7185956 12.4133011,101.428389 12.5512858,104.933789 C12.7300845,109.476038 9.2260064,116.096238 8.57677093,120.494003 C6.55112507,134.21524 12.0391892,151.071317 6.34831609,156.721906 C-5.63016606,168.615597 3.47215259,195.333772 13.1336018,201.472128 C29.807802,212.066003 43.0387144,216.005336 74.0817356,214.03567 C105.124757,212.066003 128.312656,213.468952 139.749566,199.561683 C151.186476,185.654415 154.399562,146.951712 134.433174,124.886616 C114.466786,102.821519 131.455299,118.393589 133.539575,100.299796 C137.607787,94.9869186 141.202113,86.3065011 142.716941,79.0635782 C146.978457,58.6878107 146.978457,44.9461073 137.607787,33.9548256 C124.060001,18.0640129 120.031699,5.43556832 96.022624,2.2574058 C72.0135487,-0.920756721 39.7471981,0.138630788 20.9887228,20.2669934 Z" id="body-over-shadow" stroke="#000000" stroke-width="1.40402351"></path>
                </g>
                <g id="face" transform="translate(20.723306, 31.530794)">
                    <g id="teeth" transform="translate(74.083743, 58.562223)" stroke="#000000" stroke-width="1.40402351">
                        <path d="M0.152943569,2.92101278 C0.152943569,7.09482512 0.546816922,11.9430881 0.546816922,15.4060071 C0.546816922,18.8689259 9.64346099,18.8689259 9.64346099,15.7468027 C9.64346099,12.6246794 9.64346099,6.04313606 9.64346099,2.92101278 C9.64346099,-0.201110481 0.152943569,-1.25279955 0.152943569,2.92101278 Z" id="tooth-2" fill="#FEFEFE" fill-rule="nonzero"></path>
                        <path d="M4.85029699,2.90396966 L4.85029699,17.8282183" id="tooth"></path>
                    </g>
                    <path d="M62.1791276,55.7884426 C61.7226704,59.0195208 61.6968965,64.4639901 71.2417255,64.2594725 C73.5032594,64.2110144 76.2108534,63.342246 78.0562234,63.1915763 C83.9992581,62.7063429 89.1285594,62.3307598 89.7266295,59.2318189 C90.1911492,56.8248789 90.2852501,51.6911237 86.7318124,49.5400422 C84.2895903,48.0616376 78.1266964,48.8883293 74.024639,49.3182377 C63.9540803,50.3736635 62.6355848,52.5573644 62.1791276,55.7884426 Z" id="mug" stroke="#000000" stroke-width="1.40402351" fill="#F3D4B7" fill-rule="nonzero" transform="translate(75.992781, 56.480890) rotate(-1.000000) translate(-75.992781, -56.480890) "></path>
                    <path d="M66.6537242,48.0709467 C66.6467536,51.8878548 73.0070397,52.8306092 75.5518512,52.8260201 C78.0966627,52.8214311 83.1880285,51.8580259 84.4674049,48.0388233 C85.7467813,44.2196207 81.9347921,41.3638232 75.5727633,41.3752958 C69.2107345,41.3867684 66.6606949,44.2540385 66.6537242,48.0709467 Z" id="nose" stroke="#000000" stroke-width="1.40402351" fill="#E75F33" fill-rule="nonzero" transform="translate(75.683766, 47.100649) scale(-1, 1) rotate(8.000000) translate(-75.683766, -47.100649) "></path>
                    <g id="eye-2" transform="translate(89.140258, 0.000000)">
                        <path d="M0.364438577,35.2156778 C0.364438577,54.9292618 23.2193347,60.2753185 31.2494419,60.2753185 C39.279549,60.2753185 54.2587662,56.934033 58.2738197,37.220449 C62.2888733,17.5068651 50.2827368,2.13695209 30.2074689,2.13695209 C10.132201,2.13695209 0.364438577,15.5020938 0.364438577,35.2156778 Z" id="Path" stroke="#000000" stroke-width="1.40402351" fill="#FFFFFF" fill-rule="nonzero"></path>
                        <path d="M45.4805316,5.76616579 C55.9113592,11.4449529 61.12111,23.2404869 58.2738197,37.220449 C54.2587662,56.934033 39.279549,60.2753185 31.2494419,60.2753185 C25.5678971,60.2753185 12.4650746,57.5990866 5.28671001,49.051316 C12.0337373,52.9075189 19.8274628,54.2610048 23.8679284,54.2610048 C31.8980355,54.2610048 46.8772527,50.9197193 50.8923062,31.2061353 C52.9540582,21.0831021 50.7912167,12.1054422 45.4805316,5.76616579 Z" id="shadow" fill="#F0F0F0" fill-rule="nonzero"></path>
                        <path d="M0.364438577,35.2156778 C0.364438577,54.9292618 23.2193347,60.2753185 31.2494419,60.2753185 C39.279549,60.2753185 54.2587662,56.934033 58.2738197,37.220449 C62.2888733,17.5068651 50.2827368,2.13695209 30.2074689,2.13695209 C10.132201,2.13695209 0.364438577,15.5020938 0.364438577,35.2156778 Z" id="eye-copy-3" stroke="#000000" stroke-width="1.40402351"></path>
                        <path d="M12.6869514,52.4552808 C12.6664492,56.6641603 17.8762726,57.6907525 19.9622523,57.6805015 C22.0482319,57.6702504 26.2253165,56.5975284 27.2888085,52.3835233 C28.3523004,48.169518 25.2387077,45.028235 20.0237587,45.0538627 C14.8088097,45.0794904 12.7074536,48.2464012 12.6869514,52.4552808 Z" id="pupil-2" fill="#000000" fill-rule="nonzero" transform="translate(20.091637, 51.367142) rotate(66.000000) translate(-20.091637, -51.367142) "></path>
                        <path d="M20.8214363,52.920112 C19.7413402,52.0988634 19.5174908,50.9729105 20.9830474,49.6978693 C22.4486042,48.422828 24.1380104,48.2737397 24.9249953,49.3499965 C25.7119801,50.4262533 24.8095588,51.6515985 24.2233361,52.161615 C23.6371134,52.6716314 21.9015325,53.7413605 20.8214363,52.920112 Z" id="white-of-the-eye-copy" fill="#FFFFFF" fill-rule="nonzero" transform="translate(22.590112, 50.926320) rotate(-58.000000) translate(-22.590112, -50.926320) "></path>
                        <path d="M2.88236528,36.5155075 C14.1985528,26.8159183 24.8117773,22.5308328 36.8309277,20.3495254 C44.8436946,18.8953205 52.3878196,19.4341866 59.4633026,21.9661236 C56.8391964,11.565275 50.3728036,5.09888215 40.0641241,2.5669451 C24.6011049,-1.23096046 19.0483474,2.5669451 14.1985528,5.80014152 C9.34875812,9.03333794 4.49896349,13.8831326 2.88236528,20.3495254 C1.26576707,26.8159183 2.17940236,28.9972256 2.88236528,36.5155075 Z" id="Path-23" stroke="#000000" stroke-width="1.4" fill="#FFC96F" stroke-linejoin="round" transform="translate(30.722170, 18.747390) scale(-1, 1) translate(-30.722170, -18.747390) "></path>
                    </g>
                    <g id="eye" transform="translate(0.000000, 3.122123)">
                        <path d="M2.0944194,36.3093164 C2.0944194,56.776569 24.9493156,62.3270103 32.9794227,62.3270103 C41.0095298,62.3270103 55.988747,58.8579844 60.0038006,38.390732 C64.0188541,17.9234794 52.0127176,1.96596046 31.9374497,1.96596046 C11.8621818,1.96596046 2.0944194,15.8420639 2.0944194,36.3093164 Z" id="Path" stroke="#000000" stroke-width="1.40402351" fill="#FFFFFF" fill-rule="nonzero"></path>
                        <path d="M47.2105124,5.73392236 C57.64134,11.6298147 62.8510909,23.8763029 60.0038006,38.390732 C55.988747,58.8579844 41.0095298,62.3270103 32.9794227,62.3270103 C27.297878,62.3270103 14.1950554,59.5484637 7.01669083,50.6739038 C13.7637181,54.6775331 21.5574437,56.0827638 25.5979092,56.0827638 C33.6280163,56.0827638 48.6072335,52.6137379 52.6222871,32.1464854 C54.684039,21.6364393 52.5211975,12.3155552 47.2105124,5.73392236 Z" id="shadow" fill="#F0F0F0" fill-rule="nonzero"></path>
                        <path d="M2.0944194,36.3093164 C2.0944194,56.776569 24.9493156,62.3270103 32.9794227,62.3270103 C41.0095298,62.3270103 55.988747,58.8579844 60.0038006,38.390732 C64.0188541,17.9234794 52.0127176,1.96596046 31.9374497,1.96596046 C11.8621818,1.96596046 2.0944194,15.8420639 2.0944194,36.3093164 Z" id="eye-copy-3" stroke="#000000" stroke-width="1.40402351"></path>
                        <path d="M34.5939074,57.826523 C31.285567,55.366457 30.3468504,50.1209431 34.203197,46.8233208 C38.0595436,43.5256986 41.8001047,44.4328825 44.3371758,47.5524729 C46.8742467,50.6720634 45.7699329,54.7433457 44.1282179,56.2849344 C42.4865028,57.826523 37.9022476,60.286589 34.5939074,57.826523 Z" id="pupil" fill="#000000" fill-rule="nonzero"></path>
                        <path d="M35.0526888,53.4541699 C33.9311802,52.437668 33.6985953,51.0443604 35.2199619,49.4670327 C36.7413284,47.8897048 38.4952798,47.7056845 39.312515,49.0376519 C40.1297504,50.3696193 39.1930343,51.8856071 38.5844876,52.5165381 C37.9759411,53.1474693 36.1741973,54.4706717 35.0526888,53.4541699 Z" id="white-of-the-eye" fill="#FFFFFF" fill-rule="nonzero" transform="translate(36.888634, 50.987550) rotate(-34.000000) translate(-36.888634, -50.987550) "></path>
                        <path d="M1.29475828,37.1912902 C12.6109457,27.4917009 23.9271332,19.4087099 36.8599189,19.4087099 C45.481776,19.4087099 53.025901,19.9475759 59.4922938,21.0253081 C54.1036331,9.17025454 47.6372403,2.7038617 40.0931153,1.62612956 C28.7769278,0.0095313544 19.0773386,3.24272777 14.227544,6.47592419 C9.37774932,9.70912061 4.5279547,14.5589152 2.91135649,21.0253081 C1.29475828,27.4917009 1.29475828,27.4917009 1.29475828,37.1912902 Z" id="Path-23" stroke="#000000" stroke-width="1.4" fill="#FFC96F" stroke-linejoin="round"></path>
                    </g>
                </g>
                <g id="jacket" transform="translate(0.866283, 98.446300)">
                    <path d="M137.262487,27.8956612 C139.383119,27.1595503 144.441495,23.9779092 152.217148,18.0421045 C153.506402,24.0616524 154.097566,27.7757704 154.211103,29.4930921 C166.659461,40.3842676 173.770921,61.5749021 170.289392,70.9720775 C169.631754,72.7471431 168.045377,74.6971257 167.879242,76.7173284 C167.109628,86.0758037 171.654911,96.9411681 168.042182,98.9054717 C162.750719,92.4052934 152.467384,84.6533959 149.986283,86.4725745 C143.728833,91.0606272 133.631848,96.5268811 122.744733,95.1692786 C111.715717,93.7939816 96.6815466,101.718207 73.2503901,96.2537464 C60.6056689,93.3048272 47.3332409,94.8853193 37.1622089,97.6406035 C28.485926,99.9909671 22.4013787,103.196198 17.2367244,105.173966 C15.2555798,102.469125 16.0510248,85.0407476 15.3839256,87.3235231 C14.3271716,87.3235231 0.625336768,79.2490533 0.625336768,63.2281277 C0.625336768,51.9886883 8.45277475,30.9786821 24.3013428,22.6873403 C28.1314154,19.7198746 27.1360838,17.2166854 28.4557991,12.9327857 C37.6452079,21.4353782 43.3002287,26.0547299 45.4208616,26.7908409 C46.7177589,27.2410179 69.9605544,36.143883 92.2821026,36.4452376 C114.440584,36.7443906 135.677843,28.4457204 137.262487,27.8956612 Z" id="jacket-color" fill="#59BCB0" fill-rule="nonzero"></path>
                    <path d="M107.528483,37.7664176 C116.012488,41.686392 134.081537,28.9998276 137.262487,27.8956612 C139.383119,27.1595503 144.441495,23.9779092 152.217148,18.0421045 C153.506402,24.0616524 154.097566,27.7757704 154.211103,29.4930921 C162.078942,39.4947375 178.437161,55.0990325 168.042182,76.488408 C170.289392,84.7315354 169.575693,104.084427 167.829627,98.9054717 C166.083562,93.7265165 152.560805,84.5848987 149.986283,86.4725745 C143.728833,91.0606272 132.287581,93.3320623 122.744733,96.399161 C115.69262,98.6657305 90.9847875,100.677761 67.5536309,95.2133002 C51.2007944,91.3995986 28.4557991,98.1996988 18.6260067,105.173966 C14.5174034,104.618962 16.4372073,86.4303017 15.1811179,86.1913448 C6.89506646,84.6150167 0.625336768,74.7500582 0.625336768,61.5749021 C0.625336768,51.0392011 6.3308501,33.7368472 24.3013428,22.6873403 C28.1314154,19.7198746 27.1360838,17.2166854 28.4557991,12.9327857 C37.6452079,21.4353782 43.3002287,26.0547299 45.4208616,26.7908409 C48.0051819,27.6879063 64.48469,32.5213656 78.0104089,32.5213656 C83.3225171,32.5213656 84.9820287,39.4947375 88.053183,48.5979758 C89.3909324,45.9345566 90.4421915,43.7648591 91.2069603,42.0888829 C94.2592975,35.3997445 105.311054,36.7418698 107.528483,37.7664176 Z" id="outline-jacket" stroke="#000000" stroke-width="1.40402351" stroke-linecap="round" stroke-linejoin="round"></path>
                    <path d="M21.1517814,13.8128626 C19.5351832,4.11327338 14.6853886,0.880076962 19.5351832,0.880076962 C24.3849778,0.880076962 22.7683796,4.11327338 27.6181742,8.96306801 C32.4679689,13.8128626 42.1675581,20.2792555 55.1003438,25.1290501 C68.0331295,29.9788447 100.365094,36.4452376 119.764272,29.9788447 C139.163451,23.5124519 148.86304,17.0460591 152.096236,13.8128626 C155.329433,10.5796662 156.946031,7.3464698 158.562629,4.11327338 C160.179227,0.880076962 166.64562,12.1962644 161.795826,15.4294609 C156.946031,18.6626573 158.562629,20.2792555 158.562629,25.1290501 C158.562629,29.9788447 155.329433,28.3622465 152.096236,34.8286394 C148.86304,41.2950322 119.764272,52.6112197 105.214888,52.6112197 C90.6655044,52.6112197 80.9659152,52.6112197 61.5667366,47.761425 C42.1675581,42.9116304 38.9343617,36.4452376 30.8513707,33.2120412 C22.7683796,29.9788447 22.7683796,23.5124519 21.1517814,13.8128626 Z" id="Path-29" stroke="#000000" stroke-width="1.4" fill="#59BCB0"></path>
                    <path d="M158.562629,18.6626573 C150.479638,26.7456483 135.930254,31.5954429 126.230665,36.4452376" id="Path-30" stroke="#000000" stroke-width="1.4" stroke-linecap="round"></path>
                </g>
                <path d="M92.7319929,151.27057 C92.7319929,148.544629 94.1543873,147.747519 95.5767817,149.509044 C96.9991762,151.27057 96.9991762,153.91164 95.5767817,154.331119 C94.1543873,154.750597 92.7319929,153.99651 92.7319929,151.27057 Z" id="button" stroke="#000000" stroke-width="1.40402351" fill="#1D487A" fill-rule="nonzero"></path>
                <path d="M90.7762006,166.900473 C90.7762006,164.174533 92.198595,163.377423 93.6209894,165.138948 C95.0433838,166.900473 95.0433838,169.541544 93.6209894,169.961023 C92.198595,170.380501 90.7762006,169.626413 90.7762006,166.900473 Z" id="button-copy-6" stroke="#000000" stroke-width="1.40402351" fill="#1D487A" fill-rule="nonzero"></path>
                <path d="M88.4388695,182.264845 C88.4479185,179.971852 90.1292505,179.294734 91.802089,180.769879 C93.4749273,182.245022 93.4661601,184.466626 91.7860816,184.826088 C90.1060032,185.185551 88.4298205,184.557839 88.4388695,182.264845 Z" id="button-copy-7" stroke="#000000" stroke-width="1.40402351" fill="#1D487A" fill-rule="nonzero" transform="translate(90.745140, 182.454497) rotate(-54.000000) translate(-90.745140, -182.454497) "></path>
            </g>
            <g id="laptop" transform="translate(121.858839, 82.017147) rotate(193.000000) translate(-121.858839, -82.017147) translate(43.453826, 16.544919)">
                <path d="M138.774622,69.7224117 C150.564546,64.8173834 134.080178,80.1702307 129.535767,82.1039545 C124.991358,84.0376785 37.416049,106.889766 32.8472823,106.309796 C29.970916,105.944657 9.15216324,103.018277 22.8313524,99.0958324 C38.0145691,94.7421151 129.277718,73.6734612 138.774622,69.7224117 Z" id="Path" stroke="#000000" stroke-width="1.431" fill="#E2E2E2" fill-rule="nonzero" stroke-linecap="round" stroke-linejoin="round" transform="translate(80.581545, 87.540574) rotate(16.000000) translate(-80.581545, -87.540574) "></path>
                <path d="M138.699053,68.0863903 C136.808149,71.6847075 131.623166,81.2723293 129.734826,85.5151079 C127.846488,89.7578865 132.965612,94.2282442 137.714846,90.7555548 C142.464081,87.2828653 148.639961,76.2961141 149.58564,74.5540706" id="hand-2" stroke="#000000" stroke-width="1.40402351" fill="#FFD7E2" fill-rule="nonzero" stroke-linecap="round" stroke-linejoin="round" transform="translate(139.459264, 80.042412) scale(-1, 1) rotate(-89.000000) translate(-139.459264, -80.042412) "></path>
                <g id="sleeve-rolled-copy-2" transform="translate(143.274059, 77.587761) rotate(-90.000000) translate(-143.274059, -77.587761) translate(131.957871, 65.463274)">
                    <path d="M21.9047453,10.8452297 C22.7228087,12.8684789 18.7288339,15.2614153 13.7161122,19.1202725 C9.88128732,22.0723698 5.8544001,23.9693175 4.55422964,23.5220295 C2.46118521,20.7006764 -0.511611338,14.5273563 1.05469882,13.4918258 C2.62100897,12.4562952 14.6275076,2.56036876 17.6001447,0.812057226 C19.1515859,4.31423395 20.8801647,6.74705455 21.9047453,10.8452297 Z" id="Path-3-Copy-3" fill="#59BCB0" fill-rule="nonzero"></path>
                    <path d="M11.4278816,21.2209636 C9.27798809,22.2370808 4.98332255,24.1083774 4.1809436,23.8616461 C1.95833391,21.1837128 -0.746237676,14.4824071 0.917031437,13.4995163 C1.42792386,13.19761 2.77807021,12.7450244 5.12184719,11.0482581 C5.77565285,14.0654823 7.26778907,16.2858403 8.78338406,18.1308476 C9.24235266,18.6895722 14.424241,16.7459967 20.7501897,12.6144152 C21.2088001,13.1364565 11.039151,20.7349377 11.4278816,21.2209636 Z" id="Path-3-Copy-5" fill="#55AEA8" fill-rule="nonzero"></path>
                    <path d="M21.8246699,10.083363 C22.6427333,12.1066122 18.7288339,15.2614153 13.7161122,19.1202725 C9.88128732,22.0723698 5.8544001,23.9693175 4.55422964,23.5220295 C2.46118521,20.7006764 -0.511611338,14.5273563 1.05469882,13.4918258 C2.62100897,12.4562952 14.9731078,2.52404472 17.9457449,0.775733185 C19.8492311,4.04236616 20.8000893,5.98518785 21.8246699,10.083363 Z" id="Path-3-Copy-9" stroke="#000000" stroke-width="1.40402351" stroke-linejoin="round"></path>
                </g>
                <path d="M20.040607,66.3756843 C17.9402629,70.757886 11.6159468,77.1116834 9.5182918,82.2783892 C7.42063676,87.4450949 11.6628203,90.786542 16.936726,86.5543195 C22.2106317,82.3220969 26.46502,78.3700554 27.5154303,76.2484807" id="hand" stroke="#000000" stroke-width="1.40402351" fill="#FFD7E2" fill-rule="nonzero" stroke-linecap="round" stroke-linejoin="round" transform="translate(18.243121, 77.427380) rotate(-110.000000) translate(-18.243121, -77.427380) "></path>
                <g id="sleeve-rolled-copy" transform="translate(15.657028, 75.051137) scale(-1, 1) rotate(-79.000000) translate(-15.657028, -75.051137) translate(4.340841, 62.926651)">
                    <path d="M21.9017403,10.8408881 C22.7198038,12.8641373 18.7258289,15.2570737 13.7131073,19.1159309 C9.87828237,22.0680282 5.85139515,23.9649759 4.55122469,23.5176879 C2.45818026,20.6963348 -0.51461629,14.5230147 1.05169386,13.4874843 C2.61800402,12.4519536 14.6245027,2.55602717 17.5971397,0.807715639 C19.1485809,4.30989236 20.8771597,6.74271296 21.9017403,10.8408881 Z" id="Path-3-Copy-3" fill="#59BCB0" fill-rule="nonzero"></path>
                    <path d="M11.4248766,21.216622 C9.27498313,22.2327392 4.9803176,24.1040358 4.17793865,23.8573045 C1.95532895,21.1793712 -0.749242627,14.4780655 0.914026485,13.4951747 C1.42491891,13.1932685 2.77506525,12.7406828 5.11884224,11.0439165 C5.7726479,14.0611408 7.26478412,16.2814988 8.78037911,18.126506 C9.23934771,18.6852306 14.4212361,16.7416551 20.7471848,12.6100736 C21.2057951,13.1321149 11.036146,20.7305961 11.4248766,21.216622 Z" id="Path-3-Copy-5" fill="#55AEA8" fill-rule="nonzero"></path>
                    <path d="M21.8216649,10.0790214 C22.6397283,12.1022706 18.7258289,15.2570737 13.7131073,19.1159309 C9.87828237,22.0680282 5.85139515,23.9649759 4.55122469,23.5176879 C2.45818026,20.6963348 -0.51461629,14.5230147 1.05169386,13.4874843 C2.61800402,12.4519536 14.9701028,2.51970314 17.9427399,0.771391598 C19.8462262,4.03802457 20.7970843,5.98084627 21.8216649,10.0790214 Z" id="Path-3-Copy-9" stroke="#000000" stroke-width="1.40402351" stroke-linejoin="round"></path>
                </g>
                <path d="M67.4064138,49.2738809 C82.8393144,41.8908706 104.264745,30.6980096 128.002781,22.0811242 C133.244056,22.1738468 132.158056,23.7989273 133.32054,28.5463334 C134.935707,35.1424258 137.062512,39.3454004 138.443417,52.3321939 C139.312846,60.5088 140.956086,64.9891711 136.297563,68.3230275 C131.639042,71.6568837 45.5701471,109.468365 41.2920227,108.308487 C38.5986374,107.578251 35.5382321,104.193549 31.1539139,97.5685842 C27.6038721,92.2042603 25.4980717,88.7687076 22.9006565,83.4357749 C16.8423299,70.9970061 16.511649,70.21912 21.0193409,68.2476244 C25.5270329,66.2761287 52.0783143,56.6067548 67.4064138,49.2738809 Z" id="laptop-copy" stroke="#000000" stroke-width="1.431" fill="#E2E2E2" fill-rule="nonzero" stroke-linecap="round" stroke-linejoin="round" transform="translate(78.701021, 65.207874) rotate(25.000000) translate(-78.701021, -65.207874) "></path>
                <path d="M44.8300038,56.9118459 C42.3781606,53.0382031 30.7414065,49.5358756 30.5480894,55.5319974 C30.3547723,61.5281191 33.8275439,66.1895372 38.3884786,66.1243031 C42.9494135,66.0590691 46.0163922,63.1488147 45.058505,62.1201922 C44.1006178,61.0915699 39.1356299,60.224861 38.1688601,60.0560977" id="Path-4" stroke="#000000" stroke-width="1.431" stroke-linecap="round"></path>
                <path d="M62.8276912,53.5351866 C56.4463663,52.4082026 53.5843562,56.2859426 53.3964728,58.8826749 C53.2085893,61.4794072 51.9419105,65.6388931 58.3232356,66.7658772 C64.7045606,67.8928612 68.1884791,63.2483165 68.3351072,60.6442982 C68.4817351,58.0402798 69.2090162,54.6621707 62.8276912,53.5351866 Z" id="Path-5" stroke="#000000" stroke-width="1.431"></path>
                <path d="M103.36719,54.5811639 C97.2132883,53.4541798 95.0132366,56.557829 94.832049,59.1545614 C94.6508615,61.7512937 92.8693666,66.6848704 99.0232681,67.8118544 C105.17717,68.9388385 108.955482,66.1242213 109.096884,63.5202029 C109.238286,60.9161846 109.521091,55.7081479 103.36719,54.5811639 Z" id="Path-5-Copy" stroke="#000000" stroke-width="1.431"></path>
                <path d="M88.058833,56.9042694 C88.2160505,54.3002511 76.8648154,51.5539383 74.8398343,56.480229 C72.8148531,61.4065197 72.5004182,66.6145564 79.3426026,67.7415404 C86.1847873,68.8685244 88.6751387,65.7721612 88.2097683,63.9422337" id="Path-6" stroke="#000000" stroke-width="1.431" stroke-linecap="round"></path>
                <path d="M42.1037318,75.2563497 C43.0069436,72.6526879 34.1647632,69.0713799 30.9868519,73.8716905 C27.8089405,78.672001 31.0201915,82.4967021 36.5061421,84.1247545 C41.9920927,85.7528069 42.2820501,82.0099158 43.0402833,81.2776995" id="Path-6-Copy" stroke="#000000" stroke-width="1.431" stroke-linecap="round"></path>
                <path d="M116.094369,67.4494868 C116.202715,64.4927083 116.80792,60.1648314 117.909983,54.4658564 L122.490123,61.6064302 L126.381608,68.3148287 C129.063401,60.3791799 130.33743,55.7985417 130.203694,54.5729139" id="Path-7" stroke="#000000" stroke-width="1.431" stroke-linecap="round" stroke-linejoin="round"></path>
                <path d="M69.0720179,84.9469572 C68.9091947,81.9909933 68.6100763,77.9404047 68.1746626,72.7951914 L74.4769424,79.6067265 L79.0650005,85.0841281 C80.301111,78.3279098 80.7962191,74.3398247 80.5503248,73.119873" id="Path-7-Copy" stroke="#000000" stroke-width="1.431" stroke-linecap="round" stroke-linejoin="round"></path>
                <path d="M49.0162915,84.7783069 C50.0862596,81.7942015 51.8182144,77.6978893 54.2121556,72.4893702 C56.5115955,75.047667 57.9072099,77.4352957 58.3989987,79.6522565 C58.8907874,81.8692173 59.2596289,83.5319379 59.5055232,84.6404184" id="Path-8" stroke="#000000" stroke-width="1.431" stroke-linecap="round" stroke-linejoin="round"></path>
                <path d="M50.4529221,78.8262188 C52.1514151,79.3418678 55.3950656,79.5913558 60.1838739,79.574683" id="Path-9" stroke="#000000" stroke-width="1.431" stroke-linecap="round"></path>
                <path d="M84.0443821,85.4652503 C86.0181757,82.6590081 88.1854549,78.5383498 90.5462199,73.1032754 C92.2707997,75.0170907 93.3789841,77.079644 93.8707728,79.290935 C94.3625616,81.5022261 95.0188331,83.7285253 95.8395875,85.9698327" id="Path-8-Copy" stroke="#000000" stroke-width="1.431" stroke-linecap="round" stroke-linejoin="round"></path>
                <path d="M86.0774368,80.6141653 C88.6244308,81.4356875 91.8784811,81.5503467 95.8395875,80.9581427" id="Path-9-Copy" stroke="#000000" stroke-width="1.431" stroke-linecap="round"></path>
                <path d="M116.458954,85.6627103 C117.528922,82.3785164 118.44694,78.029082 119.213008,72.6144068 C121.628459,74.5051302 123.533992,76.7643588 124.929606,79.392093 C126.325221,82.019827 126.952489,84.2956156 126.811412,86.2194585" id="Path-8-Copy-2" stroke="#000000" stroke-width="1.431" stroke-linecap="round" stroke-linejoin="round" transform="translate(121.644897, 79.416933) scale(-1, 1) translate(-121.644897, -79.416933) "></path>
                <path d="M116.919802,80.9810472 C119.466796,81.8025695 122.475597,81.8025695 125.946205,80.9810472" id="Path-9-Copy-2" stroke="#000000" stroke-width="1.431" stroke-linecap="round"></path>
                <path d="M102.380083,85.044555 C102.816745,84.5552319 102.340556,80.8409805 100.951515,73.9018008 C108.700592,74.1688048 112.427258,75.505906 112.131513,77.9131045 C111.204938,85.4548975 105.488824,85.9813581 102.380083,85.044555 Z" id="Path-10" stroke="#000000" stroke-width="1.431" stroke-linecap="round" stroke-linejoin="round"></path>
            </g>
            <path d="M179.935169,33.6796047 C175.501776,37.6018473 174.619161,39.6096045 174.619161,43.9856528 C174.619161,48.3616998 179.241112,52.8277632 183.4972,47.7857693 C187.753288,42.7437741 191.160252,38.1564616 188.354089,33.7844424 C186.483314,30.8697625 183.677008,30.8348166 179.935169,33.6796047 Z" id="foot" stroke="#000000" stroke-width="1.431" fill="#FFC96F" fill-rule="nonzero" stroke-linecap="round" stroke-linejoin="round" transform="translate(181.998455, 40.796023) rotate(122.000000) translate(-181.998455, -40.796023) "></path>
            <path d="M68.4876336,7.94991372 C64.0542409,11.8721563 63.1716256,13.8799135 63.1716256,18.2559618 C63.1716256,22.6320088 67.7935766,27.0980722 72.0496646,22.0560782 C76.3057526,17.0140831 79.7127162,12.4267705 76.9065538,8.05475135 C75.0357785,5.14007149 72.2294721,5.10512561 68.4876336,7.94991372 Z" id="foot-copy" stroke="#000000" stroke-width="1.431" fill="#FFC96F" fill-rule="nonzero" stroke-linecap="round" stroke-linejoin="round" transform="translate(70.550920, 15.066332) scale(-1, 1) rotate(100.000000) translate(-70.550920, -15.066332) "></path>
        </g>
    </g>
</svg>