<?xml version="1.0" encoding="UTF-8"?>
<svg width="440px" height="311px" viewBox="0 0 440 311" version="1.1" xmlns="http://www.w3.org/2000/svg" xmlns:xlink="http://www.w3.org/1999/xlink">
    <!-- Generator: Sketch 54.1 (76490) - https://sketchapp.com -->
    <title>Artboard</title>
    <desc>Created with Sketch.</desc>
    <g id="Artboard" stroke="none" stroke-width="1" fill="none" fill-rule="evenodd">
        <g id="gopher-зштл-copy" transform="translate(308.430561, 159.257972) scale(-1, 1) translate(-308.430561, -159.257972) translate(207.430561, 47.757972)">
            <path d="M31.4992143,202.318573 C28.5363866,207.903224 28.1164872,211.644218 28.1289991,215.294418 C28.1415109,218.944618 31.0020137,222.664179 35.9576069,218.475606 C40.9132001,214.287033 41.0185869,205.876119 42.0053808,203.776698" id="leg-2" stroke="#000000" stroke-width="1.183" fill="#FFD7E2" stroke-linecap="round" stroke-linejoin="round" transform="translate(35.067057, 211.323835) rotate(28.000000) translate(-35.067057, -211.323835) "></path>
            <path d="M131.151872,202.313454 C128.186558,207.906873 127.763374,211.652166 127.772245,215.306137 C127.781116,218.960108 130.634963,222.680646 135.589594,218.482748 C140.544225,214.284851 140.657863,205.865115 141.645722,203.762526" id="leg-" stroke="#000000" stroke-width="1.183" fill="#FFD7E2" stroke-linecap="round" stroke-linejoin="round" transform="translate(134.708917, 211.327837) scale(-1, 1) rotate(18.000000) translate(-134.708917, -211.327837) "></path>
            <g id="ear" transform="translate(133.203292, 0.973735)" stroke="#000000" stroke-linecap="round" stroke-linejoin="round" stroke-width="1.183">
                <path d="M9.8724312,7.78039804 C5.14934741,17.3572018 5.08241921,18.928184 4.97502908,25.1256163 C4.86763895,31.3230486 17.0466431,37.1905656 24.7678414,29.9207398 C32.4890397,22.650914 32.2881078,9.55262726 33.8694673,5.95649477" fill="#FF90B0" transform="translate(19.421896, 19.621328) rotate(211.000000) translate(-19.421896, -19.621328) "></path>
                <path d="M12.5431263,31.1786485 C11.594725,31.6347581 13.7643384,29.6931957 19.8703991,26.9495584 C25.9764597,24.2059212 28.4188839,19.5574363 19.2512632,20.7021914 C16.0679592,21.0996885 12.6794775,23.6199318 9.08581818,28.2629214" id="Path" fill="#FCDE32"></path>
            </g>
            <g id="ear-copy" transform="translate(34.298315, 21.187584) scale(-1, 1) translate(-34.298315, -21.187584) translate(14.148315, 1.687584)" stroke="#000000" stroke-linecap="round" stroke-linejoin="round" stroke-width="1.183">
                <path d="M15.7730014,8.01099685 C11.3732736,18.1259553 3.87470804,16.8130574 4.06159661,23.5002517 C4.24848519,30.187446 20.2005212,35.2210115 27.7955005,27.7411221 C35.3904799,20.2612326 34.4524602,10.6784464 35.9068573,6.87101296" id="ear" fill="#FFADC3" transform="translate(19.982513, 19.166581) rotate(211.000000) translate(-19.982513, -19.166581) "></path>
                <path d="M12.5431263,27.0045927 C11.594725,27.5102767 11.3219142,24.9925432 19.8703991,22.315845 C28.4188839,19.6391468 28.4188839,15.4087084 19.2512632,16.6778863 C16.0679592,17.1185872 12.6794775,20.3422317 9.08581818,26.3488198" id="Path" fill="#FCDE32"></path>
            </g>
            <g id="body" transform="translate(17.518064, 11.374461)">
                <path d="M18.6106578,19.1151897 C8.57738111,29.881173 0.0590816049,40.4278711 0.0590816049,56.3722564 C0.0590816049,82.6245992 7.83067982,92.5818578 13.0163056,100.657582 C13.489621,102.879338 13.8318159,105.560605 13.968348,109.029101 C14.1452644,113.523532 10.6780753,120.074038 10.0356747,124.425505 C8.03135373,138.002294 6.50471209,150.580606 7.83067982,160.272021 C10.2429603,177.903229 14.7202739,189.958857 24.2800124,196.032592 C40.7786755,206.514941 68.6201694,208.61141 91.3058311,203.370236 C113.991493,198.129062 117.184273,194.505809 122.240824,189.453871 C127.297376,184.401933 136.677155,166.682017 134.614822,147.81379 C132.552489,128.945563 131.620603,122.347204 133.682936,104.443892 C137.708321,99.1869465 141.264806,90.5979118 142.763689,83.4312387 C146.980341,63.2699765 152.928635,41.9506293 143.656616,31.075058 C130.251452,15.3515354 116.518478,4.79521263 92.7621574,1.65050812 C69.005837,-1.49419638 37.1716537,-0.801272229 18.6106578,19.1151897 Z" stroke="#000000" stroke-width="1.183" fill="#FFADC3"></path>
                <path d="M124.749972,22.4237132 C128.783673,27.170441 132.548126,32.7447407 137.708321,38.7973671 C146.980341,49.6729385 146.980341,63.2699765 142.763689,83.4312387 C141.264806,90.5979118 137.708321,99.1869465 133.682936,104.443892 C132.955656,110.757475 132.600742,115.66516 132.536455,120.200842 C117.562865,123.3166 100.312652,125.518119 88.7244818,126.245401 C65.0076536,127.733887 14.4062355,101.864663 16.4685684,101.864663 C16.7520629,101.864663 14.5623851,100.982792 11.745896,98.6385179 C8.88618926,94.6512434 6.01298345,90.775893 4.25104229,82.9738712 C15.7098874,100.339407 47.2374253,111.320939 55.7271556,112.119953 C70.1634858,113.478635 105.177718,113.692305 121.721808,102.161722 C129.882261,96.4742058 134.677351,89.5521929 136.57424,82.8459695 C136.824049,81.9627987 132.14553,85.0534852 128.186302,85.5455623 C122.348636,86.271103 114.582415,85.6483542 107.420705,83.8176127 C100.163699,81.9625104 90.6876177,70.0261633 90.6876177,64.1458072 C90.6876177,61.062104 90.2701554,44.8069742 102.615556,30.3257681 C84.1376653,29.0752926 62.1377346,28.6624325 50.7949037,32.6895554 C50.22996,32.8901313 52.5318242,32.7262141 59.9876932,45.3492545 C63.0014111,50.4515815 63.5419223,57.0700357 62.9453207,66.3102147 C62.0179788,80.6729082 45.4154912,90.6311391 37.1661597,90.6311391 C34.2724837,90.6311391 13.9845069,90.6730073 8.11608666,73.4369604 C6.19221536,67.7863876 9.00113009,54.2950294 16.5428309,32.9628858 C20.19134,32.5361504 22.7030389,31.8517338 24.0779275,30.9096359 C26.1402604,29.496489 44.1336221,35.0221726 50.3206207,32.5005642 C53.4376032,31.2301891 66.4337626,29.4162558 78.5592802,29.1908218 C90.5020917,28.9687845 101.592217,30.3257681 102.615556,30.3257681 C103.807554,30.3257681 115.171583,26.1342472 124.749972,22.4237132 Z M132.540214,169.398852 C129.79167,178.952302 125.250473,186.446968 122.240824,189.453871 C117.184273,194.505809 113.991493,198.129062 91.3058311,203.370236 C68.6201694,208.61141 40.7786755,206.514941 24.2800124,196.032592 C16.365771,191.004316 11.934883,181.876216 9.27527819,168.878835 C11.5483055,168.923855 14.5974486,169.309239 18.1963903,169.309239 C29.3185623,169.309239 55.7291688,173.231584 63.1102835,171.869677 C70.4913982,170.50777 118.628309,166.598976 130.04798,168.370446 C131.049154,168.525752 131.877896,168.878115 132.540214,169.398852 Z M65.0076536,74.7618656 C67.0699865,71.9955276 85.0998577,71.3404907 88.7244818,72.6879294 C92.3491058,74.035368 92.7499506,80.3318369 91.7187841,83.3850183 C90.6876177,86.4381998 88.6466073,85.2591021 88.241815,87.5192978 C87.8370228,89.7794935 88.8501155,94.1542788 88.1238878,96.9205481 C87.3976601,99.6868175 84.4623804,100.235181 82.5374831,100.235181 C80.6125858,100.235181 79.0311144,99.2457122 77.0597044,96.9205481 C75.7454311,95.3704387 75.3120334,92.7498516 75.7595113,89.0587869 C74.0813388,89.3334375 73.1388674,89.4707628 72.9320971,89.4707628 C72.6219415,89.4707628 66.8721717,89.0587869 64.1414499,87.4120828 C61.4107282,85.7653788 62.9453207,77.5282037 65.0076536,74.7618656 Z" id="shadow" fill="#FF90B0"></path>
                <path d="M18.6106578,19.1151897 C8.57738111,29.881173 0.0590816049,40.4278711 0.0590816049,56.3722564 C0.0590816049,82.6245992 7.83067982,92.5818578 13.0163056,100.657582 C13.489621,102.879338 13.8318159,105.560605 13.968348,109.029101 C14.1452644,113.523532 10.6780753,120.074038 10.0356747,124.425505 C8.03135373,138.002294 6.50471209,150.580606 7.83067982,160.272021 C10.2429603,177.903229 14.7202739,189.958857 24.2800124,196.032592 C40.7786755,206.514941 68.6201694,208.61141 91.3058311,203.370236 C113.991493,198.129062 117.184273,194.505809 122.240824,189.453871 C127.297376,184.401933 136.677155,166.682017 134.614822,147.81379 C132.552489,128.945563 131.620603,122.347204 133.682936,104.443892 C137.708321,99.1869465 141.264806,90.5979118 142.763689,83.4312387 C146.980341,63.2699765 152.928635,41.9506293 143.656616,31.075058 C130.251452,15.3515354 116.518478,4.79521263 92.7621574,1.65050812 C69.005837,-1.49419638 37.1716537,-0.801272229 18.6106578,19.1151897 Z" id="body-copy-3" stroke="#000000" stroke-width="1.183"></path>
            </g>
            <g id="face" transform="translate(22.718064, 33.991286)">
                <g id="teeth" transform="translate(71.704248, 56.346131)" stroke="#000000" stroke-width="1.3">
                    <path d="M0.15133346,2.2792397 C0.15133346,5.5360275 0.541060322,9.31908297 0.541060322,12.0211671 C0.541060322,14.7232513 9.54193972,14.7232513 9.54193972,12.2870869 C9.54193972,9.85092252 9.54193972,4.71540409 9.54193972,2.2792397 C9.54193972,-0.156924679 0.15133346,-0.977548093 0.15133346,2.2792397 Z" id="tooth-2" fill="#FEFEFE"></path>
                    <path d="M4.79923562,2.26594111 L4.79923562,13.9111965" id="tooth"></path>
                </g>
                <path d="M63.7886263,53.0730959 C63.4168249,56.0409356 63.3958311,61.0418398 71.1704502,60.8539843 C73.012554,60.8094742 75.2179903,60.011485 76.7211131,59.8730905 C81.5619365,59.4273895 85.7399438,59.0824054 86.2270942,56.2359376 C86.6054627,54.0250928 86.6821114,49.3095887 83.7877039,47.3337576 C81.7984229,45.9757998 76.778516,46.7351403 73.4372372,47.1300237 C65.2343914,48.0994632 64.1604277,50.1052562 63.7886263,53.0730959 Z" id="mug" stroke="#000000" stroke-width="1.3" fill="#F3D4B7" transform="translate(75.040362, 53.709129) rotate(-1.000000) translate(-75.040362, -53.709129) "></path>
                <path d="M67.9050442,45.7168799 C67.8995248,49.4936056 72.9356054,50.4264352 74.9505896,50.4218945 C76.9655737,50.4173537 80.9969219,49.4640908 82.0099334,45.6850948 C83.0229449,41.9060987 80.0046082,39.0803655 74.9671477,39.0917173 C69.9296873,39.1030692 67.9105636,41.9401542 67.9050442,45.7168799 Z" id="nose" stroke="#000000" stroke-width="1.3" fill="#FCDE32" transform="translate(75.055040, 44.756797) scale(-1, 1) rotate(8.000000) translate(-75.055040, -44.756797) "></path>
                <g id="eye-2" transform="translate(86.602258, 0.000000)">
                    <path d="M0.36060196,33.2453662 C0.36060196,52.751416 22.9748938,58.0411923 30.9204642,58.0411923 C38.8660347,58.0411923 53.6875585,54.7350821 57.6603437,35.2290323 C61.633129,15.7229825 49.7533866,0.514875867 29.8894606,0.514875867 C10.0255345,0.514875867 0.36060196,13.7393164 0.36060196,33.2453662 Z" fill="#FFFFFF"></path>
                    <path d="M45.0017365,4.10588312 C55.3227539,9.72488696 60.4776593,21.3962439 57.6603437,35.2290323 C53.6875585,54.7350821 38.8660347,58.0411923 30.9204642,58.0411923 C25.2987319,58.0411923 12.3338489,55.3931344 5.23105434,46.9353501 C11.907051,50.7509568 19.6187294,52.090194 23.6166594,52.090194 C31.5622298,52.090194 46.3837537,48.7840839 50.3565389,29.2780341 C52.3965858,19.2615708 50.2565136,10.378423 45.0017365,4.10588312 Z" id="shadow" fill="#F0F0F0"></path>
                    <path d="M0.36060196,33.2453662 C0.36060196,52.751416 22.9748938,58.0411923 30.9204642,58.0411923 C38.8660347,58.0411923 53.6875585,54.7350821 57.6603437,35.2290323 C61.633129,15.7229825 49.7533866,0.514875867 29.8894606,0.514875867 C10.0255345,0.514875867 0.36060196,13.7393164 0.36060196,33.2453662 Z" id="eye-copy-3" stroke="#000000" stroke-width="1.3"></path>
                    <path d="M39.7093641,22.0775491 C35.134268,24.3145327 36.536699,31.154213 37.555181,33.6663867 C38.573663,36.1785604 41.7544011,40.643662 46.8387382,39.6627652 C51.9230754,38.6818685 53.8266744,33.2358702 51.2804694,26.9554358 C48.7342644,20.6750015 44.2844602,19.8405655 39.7093641,22.0775491 Z" id="pupil-2" fill="#000000"></path>
                    <path d="M47.961263,32.9268357 C46.3631195,33.5449862 45.0110134,33.0219141 44.6272673,30.5552019 C44.2435211,28.0884896 45.211881,26.1448494 46.8867737,26.0200414 C48.5616664,25.8952333 49.2681993,27.7140656 49.4216977,28.7007505 C49.5751962,29.6874354 49.5594065,32.3086853 47.961263,32.9268357 Z" id="white-of-the-eye-copy" fill="#FFFFFF"></path>
                </g>
                <g id="eye" transform="translate(0.000000, 3.089255)">
                    <path d="M0.47279094,34.3274916 C0.47279094,54.5792757 23.0870828,60.071285 31.0326532,60.071285 C38.9782236,60.071285 53.7997475,56.6387792 57.7725327,36.3869951 C61.7453179,16.1352109 49.8655756,0.345684349 30.0016496,0.345684349 C10.1377235,0.345684349 0.47279094,14.0757075 0.47279094,34.3274916 Z" fill="#FFFFFF"></path>
                    <path d="M45.1139255,4.07397913 C55.4349428,9.90780267 60.5898483,22.0253663 57.7725327,36.3869951 C53.7997475,56.6387792 38.9782236,60.071285 31.0326532,60.071285 C25.4109208,60.071285 12.4460379,57.3219894 5.34324332,48.5408562 C12.0192401,52.5023371 19.7309184,53.8927746 23.7288484,53.8927746 C31.6744188,53.8927746 46.4959426,50.4602688 50.4687279,30.2084847 C52.5087748,19.8090827 50.3687025,10.586324 45.1139255,4.07397913 Z" id="shadow" fill="#F0F0F0"></path>
                    <path d="M0.47279094,34.3274916 C0.47279094,54.5792757 23.0870828,60.071285 31.0326532,60.071285 C38.9782236,60.071285 53.7997475,56.6387792 57.7725327,36.3869951 C61.7453179,16.1352109 49.8655756,0.345684349 30.0016496,0.345684349 C10.1377235,0.345684349 0.47279094,14.0757075 0.47279094,34.3274916 Z" id="eye-copy-3" stroke="#000000" stroke-width="1.3"></path>
                    <path d="M39.7235169,35.1126633 C35.1637213,31.6038131 33.8699137,24.1220129 39.1850114,19.4185364 C44.5001091,14.71506 49.655623,16.0089978 53.152399,20.4585433 C56.649175,24.9080887 55.1271293,30.7150548 52.8643981,32.913859 C50.6016669,35.1126633 44.2833124,38.6215135 39.7235169,35.1126633 Z" id="pupil" fill="#000000"></path>
                    <path d="M42.5921091,28.9289987 C40.5607317,28.8268188 39.3439256,27.6571817 40.1107433,24.9246765 C40.877561,22.1921713 42.8611848,20.6293032 44.7391987,21.2779842 C46.6172126,21.9266652 46.5116029,24.1382143 46.2048758,25.2312164 C45.8981487,26.3242185 44.6234866,29.0311787 42.5921091,28.9289987 Z" id="white-of-the-eye" fill="#FFFFFF"></path>
                </g>
            </g>
            <path d="M12.9839076,153.714372 C10.9056748,158.05044 4.64793778,164.337348 2.57236574,169.449661 C0.4967937,174.561975 4.69431777,177.868245 9.91270258,173.680577 C15.1310874,169.492909 20.5893364,162.151838 21.6286886,160.052598" id="hand" stroke="#000000" stroke-width="1.183" fill="#FFD7E2" stroke-linecap="round" stroke-linejoin="round" transform="translate(11.829669, 164.649721) rotate(-6.000000) translate(-11.829669, -164.649721) "></path>
            <path d="M185.978963,133.583274 C184.107966,137.14371 177.894503,147.967871 176.026043,152.165984 C174.157584,156.364097 179.222816,160.787393 183.922053,157.351262 C188.621291,153.915131 194.732155,143.044043 195.667878,141.320339" id="hand-2" stroke="#000000" stroke-width="1.183" fill="#FFD7E2" stroke-linecap="round" stroke-linejoin="round" transform="translate(185.648107, 146.082166) scale(-1, 1) rotate(43.000000) translate(-185.648107, -146.082166) "></path>
            <g id="jacket" transform="translate(0.825225, 111.399397)" stroke="#000000" stroke-linejoin="round">
                <g id="Group-7" transform="translate(0.070689, -0.000000)">
                    <path d="M172.172006,83.7517648 C164.001884,84.6732373 158.295112,85.2320761 146.119763,79.9860404 C138.002865,76.4886832 133.896883,71.5647525 133.801819,65.2142484 C133.113759,57.5846971 132.94992,52.9221935 133.3103,51.2267377 C133.85087,48.6835539 119.322789,50.0349799 116.50932,50.7660014 C114.633674,51.2533491 110.368423,50.8663574 103.713567,49.6050265 C103.5866,46.0339247 103.125864,41.9488639 102.331358,37.349844 C101.139601,30.4513142 96.1638502,28.6391519 99.7881747,26.6365385 C103.412499,24.6339252 113.204332,23.7124526 119.101555,20.9788178 C123.033037,19.1563945 127.478478,17.0002024 132.437879,14.5102414 C159.331759,25.5428833 174.38406,31.8434484 177.594782,33.4119369 C182.410864,35.7646695 183.106545,54.5359344 183.837566,57.3494033 C184.202342,58.7533074 191.233384,70.2927465 189.163436,76.1529963 C188.560977,77.8586259 187.946527,79.4689915 187.277956,80.9072429 C185.640168,84.4305019 175.078719,83.4239292 172.172006,83.7517648 Z" id="Path-32-Copy" stroke-width="1.2" fill="#52BADF" transform="translate(144.015825, 49.431474) scale(-1, 1) translate(-144.015825, -49.431474) "></path>
                    <path d="M104.574986,68.0627088 C109.470902,63.7871968 111.823635,58.9711145 118.801999,51.1511121 L111.332116,36.2729117 L127.051954,43.601395 C131.343817,40.0835159 145.093743,27.5006539 146.905905,25.2277554 C148.718068,22.9548568 157.96933,16.9470167 158.239615,15.6754248 C158.509901,14.4038329 154.96541,12.3213855 154.234389,9.50791651 C153.503367,6.69444755 153.042631,2.6093867 151.230469,4.88228527 C149.316911,6.12496441 147.542379,7.30319852 145.906873,8.41698758 C141.392494,11.4913062 131.403129,21.04651 116.578151,24.0975633 C112.493091,24.5582996 106.073708,25.606784 104.51342,30.8364249 C103.533113,34.1221355 104.783722,40.7830618 102.271304,47.6374046 C99.107716,56.2682625 98.1371922,71.3286329 98.1371922,73.3395274 C98.1371922,75.6463558 99.2371583,72.7241332 104.574986,68.0627088 Z" id="Path-9" stroke-width="1.3" fill="#52BADF"></path>
                    <path d="M94.1319654,67.1720191 C96.3147689,69.4080453 96.6587988,76.126385 95.164055,87.3270381 C87.894884,84.009871 81.5369246,82.6584451 76.0901768,83.2727601 C67.9200551,84.1942327 46.3029931,79.5993843 34.1276447,74.3533486 C26.0107458,70.8559914 21.7987175,67.7456259 21.49156,65.022252 C21.9583858,57.9558033 22.3719888,53.5748511 22.732369,51.8793953 C23.2729394,49.3362115 19.467555,57.6501337 16.6540861,58.3811552 C13.8406171,59.1121767 -2.29995327,46.0553604 1.05408609,42.7811552 C2.49430852,41.3752135 6.69959779,29.9154819 13.6699539,21.4019605 C16.2376295,18.2658279 20.9333685,14.6432584 27.7571708,10.5342522 C54.6510514,21.5668941 69.7033525,27.8674592 72.914074,29.4359477 C77.7301563,31.7886804 87.3931039,55.1072876 88.1241253,57.9207566 C88.8551468,60.7342256 90.8577602,63.8179797 94.1319654,67.1720191 Z" id="Path-32" stroke-width="1.2" fill="#52BADF"></path>
                    <path d="M33.147422,62.9517436 C38.0433384,58.6762317 38.864455,61.0658367 55.0039863,47.6618582 L47.5341032,32.7836578 L63.2539421,40.112141 C67.5458044,36.5942619 70.232306,32.2921386 71.7741831,31.2908319 C74.1784625,29.7294746 84.1091997,23.2803785 85.921362,21.0074799 C87.7335242,18.7345813 96.9847867,12.7267412 97.2550719,11.4551494 C97.5253571,10.1835575 93.9808667,8.10111 93.2498452,5.28764104 C92.5188237,2.47417208 92.0580874,-1.61088877 90.2459251,0.662009798 C83.0504988,5.33477432 77.8208134,9.09632722 74.5568691,11.9466685 C71.2929249,14.7970098 67.6051166,17.557256 52.7801389,20.6083093 C48.6950781,21.0690456 42.2756955,22.11753 40.7154075,27.3471709 C39.7351003,30.6328815 33.0060387,43.5719332 30.4936212,50.4262759 C27.330033,59.0571338 22.0353899,69.0791161 22.0353899,71.0900106 C22.0353899,73.3968391 27.8095946,67.613168 33.147422,62.9517436 Z" id="Path-9-Copy" stroke-width="1.3" fill="#52BADF" transform="translate(59.652567, 35.806958) scale(-1, 1) translate(-59.652567, -35.806958) "></path>
                    <path d="M60.8002913,61.4161958 C57.9868224,62.1472173 50.5477222,65.8821588 44.9207843,67.3442018 C39.2938463,68.8062448 44.8409502,73.9724464 44.8409502,73.9724464 C44.8409502,73.9724464 62.9933558,69.8566027 63.5339262,67.3134189 C64.2096392,64.1344392 63.9458453,60.5988889 60.8002913,61.4161958 Z" id="Path-33" stroke-width="1.3" stroke-linecap="round" transform="translate(53.118488, 67.634660) rotate(22.000000) translate(-53.118488, -67.634660) "></path>
                    <path d="M135.877543,61.5888577 C133.064074,62.3198792 125.624974,66.0548207 119.998036,67.5168637 C114.371098,68.9789066 119.918202,74.1451083 119.918202,74.1451083 C119.918202,74.1451083 138.070607,70.0292646 138.611178,67.4860808 C139.286891,64.3071011 139.023097,60.7715508 135.877543,61.5888577 Z" id="Path-33-Copy-2" stroke-width="1.3" stroke-linecap="round" transform="translate(128.195740, 67.807321) scale(-1, 1) rotate(29.000000) translate(-128.195740, -67.807321) "></path>
                    <path d="M48.532071,39.7015676 C45.7186021,40.4325891 38.2795019,44.1675307 32.652564,45.6295736" id="Path-33-Copy" stroke-width="1.3" stroke-linecap="round" transform="translate(40.592317, 42.665571) rotate(57.000000) translate(-40.592317, -42.665571) "></path>
                </g>
            </g>
        </g>
        <g id="gopher-canadian-toxedo" transform="translate(116.272825, 148.751848) rotate(-1.000000) translate(-116.272825, -148.751848) translate(14.772825, 20.251848)">
            <path d="M72.6588866,23.666794 C76.0120786,7.94018901 74.3499158,-2.40810624 82.2812723,1.21730191 C90.2126288,4.84271006 93.974145,0.808977798 101.769393,0.536761723 C109.564642,0.264545649 116.24216,5.23453122 123.509479,27.0942218 C130.776798,48.9539123 69.3056945,39.3933989 72.6588866,23.666794 Z" id="Path-35" stroke="#000000" stroke-width="1.2" fill="#1D487A"></path>
            <path d="M55.3333658,58.5634175 C44.9333658,45.5634175 41.0333658,32.5634175 41.0333658,24.7634175 C41.0333658,16.9634175 57.9333658,9.1634175 64.4333658,13.0634175 C70.9333658,16.9634175 76.1333658,28.6634175 98.2333658,28.6634175 C120.333366,28.6634175 115.133366,28.6634175 124.233366,20.8634175 C133.333366,13.0634175 141.133366,10.4634175 147.633366,20.8634175 C154.133366,31.2634175 150.233366,41.6634175 146.333366,50.7634175 C142.433366,59.8634175 138.533366,78.0634175 122.933366,78.0634175 C107.333366,78.0634175 65.7333658,71.5634175 55.3333658,58.5634175 Z" id="Path-34" stroke="#000000" stroke-width="1.2" fill="#52BADF"></path>
            <path d="M55.203337,237.94175 C52.2405093,243.526402 51.8206099,247.267396 51.8331218,250.917596 C51.8456336,254.567796 54.7061364,258.287356 59.6617296,254.098783 C64.6173228,249.91021 64.7227096,241.499297 65.7095035,239.399876" id="leg-2" stroke="#000000" stroke-width="1.183" fill="#F3D4B7" stroke-linecap="round" stroke-linejoin="round" transform="translate(58.771180, 246.947013) rotate(4.000000) translate(-58.771180, -246.947013) "></path>
            <path d="M137.648704,229.431977 C134.68339,235.025396 134.260207,238.770689 134.269077,242.42466 C134.277948,246.07863 137.131796,249.799169 142.086426,245.601271 C147.041057,241.403373 147.154695,232.983637 148.142555,230.881048" id="leg-" stroke="#000000" stroke-width="1.183" fill="#F3D4B7" stroke-linecap="round" stroke-linejoin="round" transform="translate(141.205749, 238.446360) scale(-1, 1) rotate(18.000000) translate(-141.205749, -238.446360) "></path>
            <g id="ear" transform="translate(134.503292, 37.373735)" stroke="#000000" stroke-linecap="round" stroke-linejoin="round" stroke-width="1.183">
                <path d="M8.11323561,7.318586 C4.1364324,14.6499422 4.03783692,15.8317472 3.77142367,20.4892887 C3.50501042,25.1468302 12.8601464,29.1949915 19.1145237,23.5079771 C25.3689011,17.8209627 25.5972123,7.98983243 26.9401746,5.24253167" fill="#0BD5C3" transform="translate(15.353016, 15.767738) rotate(211.000000) translate(-15.353016, -15.767738) "></path>
                <path d="M10.0345011,24.1643422 C9.27578001,24.4988226 11.0114708,23.0750102 15.8963192,21.0630095 C20.7811677,19.0510089 22.7351071,15.64212 15.4010105,16.481607 C12.8543673,16.7731049 10.143582,18.6212834 7.26865455,22.0261423" id="Path" fill="#03C0AF"></path>
            </g>
            <g id="ear-copy" transform="translate(39.498315, 52.387584) scale(-1, 1) translate(-39.498315, -52.387584) translate(23.248315, 36.787584)" stroke="#000000" stroke-linecap="round" stroke-linejoin="round" stroke-width="1.183">
                <path d="M12.7275053,6.43165804 C9.15805765,14.5534667 3.12739971,13.5222591 3.25874988,18.8829266 C3.39010005,24.2435941 16.2130085,28.2336259 22.3462983,22.2152813 C28.4795881,16.1969367 27.7520197,8.51697951 28.933276,5.46037438" id="ear" fill="#0BD5C3" transform="translate(16.094958, 15.343859) rotate(211.000000) translate(-16.094958, -15.343859) "></path>
                <path d="M10.1154245,21.6036742 C9.35058469,22.0082214 9.13057597,19.9940345 16.0245154,17.852676 C22.9184548,15.7113174 22.9184548,12.3269667 15.5252122,13.342309 C12.9580316,13.6948697 10.2253851,16.2737854 7.32727273,21.0790559" id="Path" fill="#03C0AF"></path>
            </g>
            <g id="body" transform="translate(18.818064, 38.674461)">
                <path d="M18.6106578,19.1151897 C8.57738111,29.881173 0.0590816049,40.4278711 0.0590816049,56.3722564 C0.0590816049,82.6245992 7.83067982,92.5818578 13.0163056,100.657582 C13.489621,102.879338 13.8318159,105.560605 13.968348,109.029101 C14.1452644,113.523532 10.6780753,120.074038 10.0356747,124.425505 C8.03135373,138.002294 6.50471209,150.580606 7.83067982,160.272021 C10.2429603,177.903229 14.7202739,189.958857 24.2800124,196.032592 C40.7786755,206.514941 68.6201694,208.61141 91.3058311,203.370236 C113.991493,198.129062 117.184273,194.505809 122.240824,189.453871 C127.297376,184.401933 136.677155,166.682017 134.614822,147.81379 C132.552489,128.945563 131.620603,122.347204 133.682936,104.443892 C137.708321,99.1869465 141.264806,90.5979118 142.763689,83.4312387 C146.980341,63.2699765 152.928635,41.9506293 143.656616,31.075058 C130.251452,15.3515354 116.518478,4.79521263 92.7621574,1.65050812 C69.005837,-1.49419638 37.1716537,-0.801272229 18.6106578,19.1151897 Z" stroke="#000000" stroke-width="1.183" fill="#0BD5C3"></path>
                <path d="M124.749972,22.4237132 C128.783673,27.170441 132.548126,32.7447407 137.708321,38.7973671 C146.980341,49.6729385 146.980341,63.2699765 142.763689,83.4312387 C141.264806,90.5979118 137.708321,99.1869465 133.682936,104.443892 C132.955656,110.757475 132.600742,115.66516 132.536455,120.200842 C117.562865,123.3166 100.312652,125.518119 88.7244818,126.245401 C65.0076536,127.733887 14.4062355,101.864663 16.4685684,101.864663 C16.7520629,101.864663 14.5623851,100.982792 11.745896,98.6385179 C8.88618926,94.6512434 6.01298345,90.775893 4.25104229,82.9738712 C15.7098874,100.339407 47.2374253,111.320939 55.7271556,112.119953 C70.1634858,113.478635 105.177718,113.692305 121.721808,102.161722 C129.882261,96.4742058 134.677351,89.5521929 136.57424,82.8459695 C136.824049,81.9627987 132.14553,85.0534852 128.186302,85.5455623 C122.348636,86.271103 114.582415,85.6483542 107.420705,83.8176127 C100.163699,81.9625104 90.6876177,70.0261633 90.6876177,64.1458072 C90.6876177,61.062104 90.2701554,44.8069742 102.615556,30.3257681 C84.1376653,29.0752926 62.1377346,28.6624325 50.7949037,32.6895554 C50.22996,32.8901313 52.5318242,32.7262141 59.9876932,45.3492545 C63.0014111,50.4515815 63.5419223,57.0700357 62.9453207,66.3102147 C62.0179788,80.6729082 45.4154912,90.6311391 37.1661597,90.6311391 C34.2724837,90.6311391 13.9845069,90.6730073 8.11608666,73.4369604 C6.19221536,67.7863876 9.00113009,54.2950294 16.5428309,32.9628858 C20.19134,32.5361504 22.7030389,31.8517338 24.0779275,30.9096359 C26.1402604,29.496489 44.1336221,35.0221726 50.3206207,32.5005642 C53.4376032,31.2301891 66.4337626,29.4162558 78.5592802,29.1908218 C90.5020917,28.9687845 101.592217,30.3257681 102.615556,30.3257681 C103.807554,30.3257681 115.171583,26.1342472 124.749972,22.4237132 Z M132.540214,169.398852 C129.79167,178.952302 125.250473,186.446968 122.240824,189.453871 C117.184273,194.505809 113.991493,198.129062 91.3058311,203.370236 C68.6201694,208.61141 40.7786755,206.514941 24.2800124,196.032592 C16.365771,191.004316 11.934883,181.876216 9.27527819,168.878835 C11.5483055,168.923855 14.5974486,169.309239 18.1963903,169.309239 C29.3185623,169.309239 55.7291688,173.231584 63.1102835,171.869677 C70.4913982,170.50777 118.628309,166.598976 130.04798,168.370446 C131.049154,168.525752 131.877896,168.878115 132.540214,169.398852 Z M65.0076536,74.7618656 C67.0699865,71.9955276 85.0998577,71.3404907 88.7244818,72.6879294 C92.3491058,74.035368 92.7499506,80.3318369 91.7187841,83.3850183 C90.6876177,86.4381998 88.6466073,85.2591021 88.241815,87.5192978 C87.8370228,89.7794935 88.8501155,94.1542788 88.1238878,96.9205481 C87.3976601,99.6868175 84.4623804,100.235181 82.5374831,100.235181 C80.6125858,100.235181 79.0311144,99.2457122 77.0597044,96.9205481 C75.7454311,95.3704387 75.3120334,92.7498516 75.7595113,89.0587869 C74.0813388,89.3334375 73.1388674,89.4707628 72.9320971,89.4707628 C72.6219415,89.4707628 66.8721717,89.0587869 64.1414499,87.4120828 C61.4107282,85.7653788 62.9453207,77.5282037 65.0076536,74.7618656 Z" id="shadow" fill="#03C0AF"></path>
                <path d="M18.6106578,19.1151897 C8.57738111,29.881173 0.0590816049,40.4278711 0.0590816049,56.3722564 C0.0590816049,82.6245992 7.83067982,92.5818578 13.0163056,100.657582 C13.489621,102.879338 13.8318159,105.560605 13.968348,109.029101 C14.1452644,113.523532 10.6780753,120.074038 10.0356747,124.425505 C8.03135373,138.002294 6.50471209,150.580606 7.83067982,160.272021 C10.2429603,177.903229 14.7202739,189.958857 24.2800124,196.032592 C40.7786755,206.514941 68.6201694,208.61141 91.3058311,203.370236 C113.991493,198.129062 117.184273,194.505809 122.240824,189.453871 C127.297376,184.401933 136.677155,166.682017 134.614822,147.81379 C132.552489,128.945563 131.620603,122.347204 133.682936,104.443892 C137.708321,99.1869465 141.264806,90.5979118 142.763689,83.4312387 C146.980341,63.2699765 152.928635,41.9506293 143.656616,31.075058 C130.251452,15.3515354 116.518478,4.79521263 92.7621574,1.65050812 C69.005837,-1.49419638 37.1716537,-0.801272229 18.6106578,19.1151897 Z" id="body-copy" stroke="#000000" stroke-width="1.183"></path>
            </g>
            <g id="face" transform="translate(27.918064, 58.691286)">
                <g id="teeth" transform="translate(64.782161, 58.829146)" stroke="#000000" stroke-width="1.3">
                    <path d="M0.189166825,2.33570167 C0.189166825,5.67316752 0.676325402,9.5499379 0.676325402,12.3189588 C0.676325402,15.0879798 11.9274247,15.0879798 11.9274247,12.591466 C11.9274247,10.0949523 11.9274247,4.83221539 11.9274247,2.33570167 C11.9274247,-0.160812061 0.189166825,-1.00176419 0.189166825,2.33570167 Z" id="tooth-2" fill="#FEFEFE"></path>
                    <path d="M5.99904453,2.32207363 L5.99904453,14.2558085" id="tooth"></path>
                </g>
                <path d="M55.4524017,55.9215393 C55.0681932,59.0567383 55.1477938,64.3285076 64.4785366,63.9874454 C66.6893454,63.9066348 69.3206022,63.0249075 71.1224423,62.8513716 C76.9252879,62.2924975 81.9344271,61.8519828 82.4596743,58.8425979 C82.8676325,56.5052158 82.8608359,51.5332587 79.3442258,49.5038175 C76.9273147,48.1090143 70.9160236,49.0017864 66.9125572,49.4795041 C57.0840396,50.652302 55.8366103,52.7863402 55.4524017,55.9215393 Z" id="mug" stroke="#000000" stroke-width="1.3" fill="#F3D4B7"></path>
                <path d="M77.7271822,47.3882718 C78.3722372,51.2905614 72.4726275,52.986059 70.0482781,53.2740291 C67.6239287,53.5619991 62.6139662,53.1623669 60.7567366,49.4040623 C58.8995069,45.6457577 62.0522397,42.2870854 68.1131131,41.5671602 C74.1739866,40.847235 77.0821272,43.4859821 77.7271822,47.3882718 Z" id="nose" stroke="#000000" stroke-width="1.3" fill="#0BC0B0"></path>
                <g id="eye-2" transform="translate(80.750469, 0.574931)">
                    <path d="M0.344575206,32.1371874 C0.344575206,50.9930355 21.9537874,56.1064858 29.5462214,56.1064858 C37.1386553,56.1064858 51.3014448,52.9105794 55.0976618,34.0547312 C58.8938788,15.1988831 47.542125,0.497713338 28.5610401,0.497713338 C9.57995522,0.497713338 0.344575206,13.2813392 0.344575206,32.1371874 Z" fill="#FFFFFF"></path>
                    <path d="M43.0016593,3.96902035 C52.8639648,9.40072406 57.7897633,20.6830357 55.0976618,34.0547312 C51.3014448,52.9105794 37.1386553,56.1064858 29.5462214,56.1064858 C24.1743438,56.1064858 11.7856779,53.5466966 4.99856303,45.3708384 C11.3778488,49.0592582 18.7467858,50.3538542 22.5670301,50.3538542 C30.159464,50.3538542 44.3222535,47.1579477 48.1184705,28.3020996 C50.0678487,18.6195184 48.0228907,10.0324756 43.0016593,3.96902035 Z" id="shadow" fill="#F0F0F0"></path>
                    <path d="M0.344575206,32.1371874 C0.344575206,50.9930355 21.9537874,56.1064858 29.5462214,56.1064858 C37.1386553,56.1064858 51.3014448,52.9105794 55.0976618,34.0547312 C58.8938788,15.1988831 47.542125,0.497713338 28.5610401,0.497713338 C9.57995522,0.497713338 0.344575206,13.2813392 0.344575206,32.1371874 Z" id="eye-copy-3" stroke="#000000" stroke-width="1.3"></path>
                    <path d="M37.9445035,21.3416308 C33.572745,23.5040483 34.9128457,30.1157392 35.8860619,32.5441738 C36.859278,34.9726084 39.8986499,39.2888732 44.7570165,38.340673 C49.6153831,37.3924729 51.4343778,32.1280078 49.0013374,26.0569213 C46.5682971,19.9858348 42.316262,19.1792133 37.9445035,21.3416308 Z" id="pupil-2" fill="#000000"></path>
                    <path d="M45.8296513,31.8292745 C44.3025364,32.42682 43.010524,31.9211837 42.6438332,29.5366951 C42.2771424,27.1522066 43.202464,25.2733544 44.8029171,25.1527066 C46.4033701,25.0320589 47.0785015,26.7902634 47.2251778,27.7440588 C47.3718541,28.6978542 47.3567662,31.2317291 45.8296513,31.8292745 Z" id="white-of-the-eye-copy" fill="#FFFFFF"></path>
                </g>
                <g id="eye" transform="translate(0.244542, 3.364354)">
                    <path d="M0.452234813,33.2319334 C0.452234813,52.8373839 22.0832966,58.1541163 29.6834074,58.1541163 C37.2835183,58.1541163 51.4606281,54.8311586 55.2606835,35.225708 C59.0607389,15.6202574 47.6975071,0.33465187 28.69723,0.33465187 C9.69695293,0.33465187 0.452234813,13.6264828 0.452234813,33.2319334 Z" fill="#FFFFFF"></path>
                    <path d="M43.1524505,3.94395852 C53.0247279,9.5915962 57.955507,21.3224291 55.2606835,35.225708 C51.4606281,54.8311586 37.2835183,58.1541163 29.6834074,58.1541163 C24.3060982,58.1541163 11.9049058,55.4925642 5.11092838,46.9916799 C11.4966657,50.8267308 18.8730527,52.1727924 22.6971593,52.1727924 C30.2972701,52.1727924 44.4743799,48.8498347 48.2744353,29.2443841 C50.2257846,19.176878 48.178759,10.2484626 43.1524505,3.94395852 Z" id="shadow" fill="#F0F0F0"></path>
                    <path d="M0.452234813,33.2319334 C0.452234813,52.8373839 22.0832966,58.1541163 29.6834074,58.1541163 C37.2835183,58.1541163 51.4606281,54.8311586 55.2606835,35.225708 C59.0607389,15.6202574 47.6975071,0.33465187 28.69723,0.33465187 C9.69695293,0.33465187 0.452234813,13.6264828 0.452234813,33.2319334 Z" id="eye-copy-3" stroke="#000000" stroke-width="1.3"></path>
                    <path d="M37.9964074,33.9920464 C33.6348638,30.5951808 32.3973088,23.3521614 37.4813152,18.7987959 C42.5653217,14.2454304 47.4966829,15.4980724 50.8414251,19.805611 C54.1861674,24.1131497 52.7302976,29.7347871 50.565946,31.8634167 C48.4015944,33.9920464 42.357951,37.388912 37.9964074,33.9920464 Z" id="pupil" fill="#000000"></path>
                    <path d="M40.7402783,28.0057328 C38.7972216,27.9068139 37.6333202,26.7745057 38.366798,24.1292081 C39.1002758,21.4839105 40.997655,19.9709211 42.7940162,20.5988996 C44.5903773,21.226878 44.4893592,23.3678458 44.1959681,24.4259648 C43.902577,25.4840839 42.683335,28.1046517 40.7402783,28.0057328 Z" id="white-of-the-eye" fill="#FFFFFF"></path>
                </g>
            </g>
            <path d="M12.98772,179.334244 C10.9094872,183.670313 4.65175022,189.95722 2.57617818,195.069534 C0.500606145,200.181847 4.69813022,203.488117 9.91651502,199.300449 C15.1348998,195.112781 20.5931489,187.771711 21.6325011,185.672471" id="hand" stroke="#000000" stroke-width="1.183" fill="#F3D4B7" stroke-linecap="round" stroke-linejoin="round" transform="translate(11.833481, 190.269594) rotate(-11.000000) translate(-11.833481, -190.269594) "></path>
            <path d="M187.289427,160.182787 C185.41843,163.743222 179.204967,174.567384 177.336508,178.765496 C175.468048,182.963609 180.53328,187.386906 185.232518,183.950775 C189.931755,180.514644 196.042619,169.643555 196.978343,167.919851" id="hand-2" stroke="#000000" stroke-width="1.183" fill="#F3D4B7" stroke-linecap="round" stroke-linejoin="round" transform="translate(186.958572, 172.681678) scale(-1, 1) rotate(47.000000) translate(-186.958572, -172.681678) "></path>
            <g id="jacket" transform="translate(3.425225, 142.299397)" stroke="#000000" stroke-linejoin="round">
                <g id="Group-7" transform="translate(0.070689, 0.000000)">
                    <path d="M92.8319654,63.5720191 C95.0147689,65.8080453 97.6672591,71.0454439 100.789436,79.2842149 C88.9033443,78.92893 80.2369246,79.0584451 74.7901768,79.6727601 C66.6200551,80.5942327 45.0029931,75.9993843 32.8276447,70.7533486 C24.7107458,67.2559914 20.4987175,64.1456259 20.19156,61.422252 C20.0292193,55.6240375 20.128239,51.8772023 20.4886193,50.1817464 C20.8489996,48.4862906 18.7592683,50.727253 14.2194256,56.9046335 C2.89856502,47.2639573 -1.64385218,41.3522174 0.592174056,39.1694139 C3.94621341,35.8952087 15.8741013,15.1476084 21.7713244,12.4139736 C25.7028065,10.5915503 27.2647553,8.76497654 26.4571708,6.93425219 C54.4199003,23.8891418 70.0066258,33.1508308 73.2173474,34.7193192 C78.0334297,37.0720519 92.5642485,48.1150151 93.29527,50.928484 C94.0262915,53.741953 89.5577602,60.2179797 92.8319654,63.5720191 Z" id="Path-32" stroke-width="1.2" fill="#1D487A"></path>
                    <path d="M156.120479,81.4509728 C147.950357,82.3724454 137.092122,81.4505987 124.916774,76.204563 C116.799875,72.7072058 113.993102,67.8286445 116.496454,61.568879 C115.808394,53.9393278 115.644554,49.2768242 116.004935,47.5813684 C116.545505,45.0381846 103.316632,46.4349799 100.503163,47.1660014 C98.6275172,47.6533491 94.3471431,47.6994268 87.6620409,47.3042346 C85.8330423,42.8065016 84.5212904,38.2581252 83.7267852,33.6591053 C82.5350275,26.7605755 80.1576931,25.0391519 83.7820176,23.0365385 C87.4063422,21.0339252 97.198175,20.1124526 103.095398,17.3788178 C107.02688,15.5563945 111.472321,13.4002024 116.431721,10.9102414 C127.847385,15.6032169 135.706544,18.8421832 140.009198,20.6271403 C152.290782,25.7221586 188.029119,58.9170038 188.760141,61.7304727 C189.491162,64.5439417 186.478771,68.7261956 184.408823,74.5864454 C183.806363,76.292075 186.149756,79.6896037 184.181976,81.0824858 C180.506217,83.6843524 159.027192,81.1231373 156.120479,81.4509728 Z" id="Path-32-Copy" stroke-width="1.2" fill="#1D487A" transform="translate(135.362746, 46.586352) scale(-1, 1) translate(-135.362746, -46.586352) "></path>
                    <path d="M160.309658,32.9787811 C162.12182,30.7058826 155.370122,13.392386 155.640407,12.1207942 C155.910693,10.8492023 151.742631,-0.990613296 149.930469,1.28228527 C148.016911,2.52496441 146.242379,3.70319852 144.606873,4.81698758 C140.092494,7.89130618 129.701962,13.2349469 117.299683,30.5783453 C113.214622,31.0390816 158.497495,35.2516797 160.309658,32.9787811 Z" id="Path-9" stroke-width="1.3" fill="#52BADF"></path>
                    <path d="M62.8173414,24.605909 C64.6295037,22.3330105 48.8455689,8.48873315 49.1158541,7.21714127 C49.3861393,5.94554939 42.3953424,-1.84194827 40.5831801,0.43095029 C38.669622,1.67362943 36.8950901,2.85186354 35.2595844,3.96565261 C30.7452056,7.03997121 20.354674,12.3836119 7.95239471,29.7270103 C3.86733387,30.1877466 61.0051792,26.8788076 62.8173414,24.605909 Z" id="Path-9-Copy-5" stroke-width="1.3" fill="#52BADF" transform="translate(35.352851, 14.894101) scale(-1, 1) translate(-35.352851, -14.894101) "></path>
                    <path d="M36.5630171,41.1671112 C44.1930451,34.7930759 66.2467537,27.3916339 77.2931098,21.3269527 C82.7153006,18.3500562 99.7443504,9.52481642 99.8333405,9.10615084 C100.103626,7.83455896 54.7322749,11.0857929 52.9201126,13.3586915 C51.0065545,14.6013706 49.2320226,15.7796047 47.5965169,16.8933938 C43.7203404,19.5330928 16.779645,37.2452049 5.67033096,50.565069 C3.84121142,52.7581498 4.36790103,56.9951562 10.4929805,54.748589 C18.924612,51.6560208 29.9741502,46.6713727 36.5630171,41.1671112 Z" id="Path-9-Copy-4" stroke-width="1.3" fill="#52BADF" transform="translate(52.289426, 32.103541) scale(-1, 1) translate(-52.289426, -32.103541) "></path>
                    <path d="M124.204048,42.0443713 C131.834076,35.670336 147.646508,29.9943752 158.692864,23.929694 C164.115055,20.9527974 169.979161,14.8455789 170.068152,14.4269133 C170.338437,13.1553214 132.698404,13.5781927 130.886242,15.8510912 C128.972683,17.0937704 127.198152,18.2720045 125.562646,19.3857936 C121.048267,22.4601122 98.3106249,45.5501743 88.3706538,58.9052099 C84.2855929,59.3659461 112.82876,51.5471519 124.204048,42.0443713 Z" id="Path-9-Copy-3" stroke-width="1.3" fill="#52BADF"></path>
                    <path d="M134.338059,42.1321294 C132.406201,42.0289411 132.556918,41.9167521 130.897776,43.5624553 C129.238633,45.2081585 131.196733,48.3399541 131.196733,48.3399541 C131.196733,48.3399541 135.582806,49.3646671 135.889624,47.1854271 C136.273148,44.4613771 136.227013,42.2330261 134.338059,42.1321294 Z" id="Path-33-Copy-2" stroke-width="1.3" fill="#FCDE32" stroke-linecap="round" transform="translate(133.155634, 45.330645) scale(-1, 1) rotate(29.000000) translate(-133.155634, -45.330645) "></path>
                    <path d="M133.447175,53.8703714 C131.515317,53.7671831 131.666034,53.6549941 130.006892,55.3006973 C128.347749,56.9464006 130.305849,60.0781961 130.305849,60.0781961 C130.305849,60.0781961 134.691922,61.1029091 134.99874,58.9236691 C135.382264,56.1996191 135.336129,53.9712681 133.447175,53.8703714 Z" id="Path-33-Copy-3" stroke-width="1.3" fill="#FCDE32" stroke-linecap="round" transform="translate(132.264750, 57.068887) scale(-1, 1) rotate(29.000000) translate(-132.264750, -57.068887) "></path>
                    <path d="M92.3234619,59.4967926 C90.3916034,59.3936043 90.5423211,59.2814153 88.8831784,60.9271185 C87.2240358,62.5728217 89.1821356,65.7046173 89.1821356,65.7046173 C89.1821356,65.7046173 93.5682085,66.7293303 93.8750272,64.5500903 C94.2585506,61.8260403 94.2124163,59.5976893 92.3234619,59.4967926 Z" id="Path-33-Copy-6" stroke-width="1.3" fill="#FCDE32" stroke-linecap="round" transform="translate(91.141037, 62.695308) rotate(23.000000) translate(-91.141037, -62.695308) "></path>
                    <path d="M82.6916233,52.0233036 C80.545114,51.9201153 80.712578,51.8079263 78.8690862,53.4536295 C77.0255943,55.0993328 79.2012608,58.2311283 79.2012608,58.2311283 C79.2012608,58.2311283 84.0746751,59.2558413 84.4155848,57.0766013 C84.8417219,54.3525513 84.7904616,52.1242003 82.6916233,52.0233036 Z" id="Path-33-Copy-7" stroke-width="1.3" fill="#FCDE32" stroke-linecap="round" transform="translate(81.377818, 55.221819) scale(-1, 1) rotate(-23.000000) translate(-81.377818, -55.221819) "></path>
                    <path d="M92.6644387,71.263854 C90.7325802,71.1606657 90.8832979,71.0484767 89.2241552,72.6941799 C87.5650126,74.3398832 89.5231124,77.4716787 89.5231124,77.4716787 C89.5231124,77.4716787 93.9091853,78.4963917 94.216004,76.3171517 C94.5995273,73.5931017 94.5533931,71.3647507 92.6644387,71.263854 Z" id="Path-33-Copy-5" stroke-width="1.3" fill="#FCDE32" stroke-linecap="round" transform="translate(91.482014, 74.462370) rotate(23.000000) translate(-91.482014, -74.462370) "></path>
                    <path d="M131.347822,68.2523989 C129.415963,68.1492106 129.566681,68.0370216 127.907538,69.6827248 C126.248396,71.3284281 128.206495,74.4602236 128.206495,74.4602236 C128.206495,74.4602236 132.592568,75.4849366 132.899387,73.3056966 C133.28291,70.5816466 133.236776,68.3532956 131.347822,68.2523989 Z" id="Path-33-Copy-4" stroke-width="1.3" fill="#FCDE32" stroke-linecap="round" transform="translate(130.165397, 71.450915) rotate(29.000000) translate(-130.165397, -71.450915) "></path>
                </g>
            </g>
        </g>
    </g>
</svg>