<?xml version="1.0" encoding="UTF-8"?>
<svg width="247px" height="293px" viewBox="0 0 247 293" version="1.1" xmlns="http://www.w3.org/2000/svg" xmlns:xlink="http://www.w3.org/1999/xlink">
    <!-- Generator: Sketch 54.1 (76490) - https://sketchapp.com -->
    <title>Mountie Gopher</title>
    <desc>Created with Sketch.</desc>
    <g id="Mountie-Gopher" stroke="none" stroke-width="1" fill="none" fill-rule="evenodd">
        <g id="Mountie-Gopher3:4-wit-balloons-Copy" transform="translate(100.014455, 144.668746) rotate(9.000000) translate(-100.014455, -144.668746) translate(-8.985545, 29.168746)">
            <g id="sleeve" transform="translate(97.894724, 94.788736) rotate(64.000000) translate(-97.894724, -94.788736) translate(29.394724, 19.288736)">
                <path d="M127.334038,131.427477 C125.21681,135.811234 118.862192,142.177143 116.745303,147.344544 C114.628414,152.511944 118.868098,155.837012 124.164072,151.593531 C129.460046,147.350051 135.008433,139.922349 136.067077,137.799921" id="Path" stroke="#000000" stroke-width="1.19489126" fill="#F3D4B7" stroke-linecap="round" stroke-linejoin="round" transform="translate(126.128104, 142.478677) rotate(-59.000000) translate(-126.128104, -142.478677) "></path>
                <path d="M121.909944,109.68351 C119.793126,115.015129 114.615673,121.088433 110.380185,127.470964 C107.556527,131.725985 104.732579,135.309207 101.90834,138.22063 C109.682223,146.927124 114.275754,151.777369 115.688933,152.771367 C117.808701,154.262363 126.280074,142.420701 126.280037,142.334782 C126.280012,142.277503 128.044807,139.637914 131.574421,134.416014" id="Path" fill="#F34D4D" transform="translate(116.741381, 131.292352) rotate(-59.000000) translate(-116.741381, -131.292352) "></path>
                <path d="M121.909944,109.68351 C119.793126,115.015129 114.615673,121.088433 110.380185,127.470964 C107.556527,131.725985 104.732579,135.309207 101.90834,138.22063 C109.682223,146.927124 114.275754,151.777369 115.688933,152.771367 C117.808701,154.262363 126.280074,142.420701 126.280037,142.334782 C126.280012,142.277503 128.044807,139.637914 131.574421,134.416014" id="Path" stroke="#000000" stroke-width="1.19489126" stroke-linecap="round" stroke-linejoin="round" transform="translate(116.741381, 131.292352) rotate(-59.000000) translate(-116.741381, -131.292352) "></path>
                <path d="M7.33730821,10.9736264 C4.88968406,18.5066389 0.445932581,27.0567292 0.521988622,37.0753939 C0.598044662,47.0940586 9.82779981,75.0778693 11.8619552,79.070124 C13.8961105,83.0623786 53.1818598,110.818021 86.2890869,116.578235 C119.396314,122.338449 114.272898,107.34848 108.545872,78.8371164 C102.818847,50.3257528 43.8331811,1.17829038 37.3172463,0.726793573 C30.8013114,0.275296765 9.78493235,3.44061386 7.33730821,10.9736264 Z" id="Path-2" stroke="#000000" stroke-width="1.2" fill="#DC3D5E"></path>
            </g>
            <path d="M90.5629323,14.8189704 C87.8369773,20.4683093 87.8363404,22.8110932 87.8353386,26.496313 C87.8343368,30.1815327 90.4351133,33.9261684 94.9769667,29.6788951 C99.51882,25.4316218 99.6437533,16.9395152 100.55247,14.8162496" id="Path" stroke="#000000" stroke-width="1.19489126" fill="#5CE3E6" stroke-linecap="round" stroke-linejoin="round" transform="translate(94.193904, 23.190748) scale(-1, 1) rotate(215.000000) translate(-94.193904, -23.190748) "></path>
            <path d="M202.284868,180.84195 C199.718448,185.873292 196.63569,188.603553 196.636364,191.886411 C196.637039,195.169268 203.742119,201.82265 208.02043,198.041084 C212.298741,194.259519 210.843432,182.734926 211.698861,180.84388" id="Path" stroke="#000000" stroke-width="1.19489126" fill="#2ACFD3" stroke-linecap="round" stroke-linejoin="round" transform="translate(204.167613, 190.006368) rotate(-96.000000) translate(-204.167613, -190.006368) "></path>
            <path d="M114.120466,211.639623 C111.395498,217.834095 111.395233,220.403165 111.394816,224.444338 C111.3944,228.485511 113.995685,232.592346 118.536715,227.935719 C123.077745,223.279092 123.201326,213.966764 124.109676,211.638591" id="Path" stroke="#000000" stroke-width="1.19489126" fill="#F3D4B7" stroke-linecap="round" stroke-linejoin="round" transform="translate(117.752246, 220.821069) rotate(2.000000) translate(-117.752246, -220.821069) "></path>
            <path d="M179.568135,200.357444 C176.719582,206.718688 176.71698,209.355882 176.712887,213.504213 C176.708794,217.652543 179.418985,221.865876 184.160833,217.08158 C188.902681,212.297283 189.040042,202.737909 189.989827,200.347163" id="Path" stroke="#000000" stroke-width="1.19489126" fill="#F3D4B7" stroke-linecap="round" stroke-linejoin="round" transform="translate(183.351355, 209.777411) rotate(-41.000000) translate(-183.351355, -209.777411) "></path>
            <path d="M86.2322338,36.9515663 C78.804532,44.7182679 74.8015219,53.9167387 72.7875593,64.8571725 C70.0249018,79.8647361 65.5494624,107.329278 72.1211566,120.443248 C73.4623073,123.119545 72.3152784,127.023801 72.451952,130.407273 C74.2335634,174.512571 78.812082,191.310992 95.7724289,201.811633 C112.732776,212.312274 130.753144,217.562594 154.073622,212.312274 C177.394099,207.061953 189.054337,199.13187 192.234402,197.321559 C195.414467,195.511248 206.014684,181.860414 203.89464,162.95926 C201.774597,144.058106 195.414467,130.407273 206.014684,115.706375 C216.614901,101.005477 221.915009,71.6036822 208.134727,55.8527204 C194.354445,40.1017586 173.194609,23.3007328 148.773513,20.1505404 C124.352417,17.0003481 105.312624,17.0003481 86.2322338,36.9515663 Z" id="Path" fill="#5CE3E6"></path>
            <path d="M71.395528,72.8260366 C73.8395951,75.5702542 75.4958081,70.5062218 77.5805981,71.6062794 C78.7042,72.1991581 85.9266028,75.7589405 86.2781767,82.1069285 C87.0435393,95.9262506 75.5914196,103.993489 73.4713763,106.487497 C73.4713763,108.434896 74.8847385,111.717693 77.711463,116.335886 C81.9515497,123.263176 111.632157,126.209621 133.892612,124.461997 C156.153067,122.714372 192.204107,114.187103 198.564237,106.590924 C204.924367,98.9947457 208.569922,87.9222215 208.094129,78.9413717 C207.790631,73.2126677 205.137989,58.5512863 202.240359,54.037596 C200.253126,50.9420477 199.102921,54.4785341 195.965483,54.9194722 C192.332557,50.7675641 186.239608,50.3388311 183.882105,48.6191611 C177.521975,43.9797913 184.807823,32.0229713 164.667411,25.7243489 C150.852274,21.4038648 131.308811,16.01526 106.650246,22.6802029 C99.2455317,24.6816171 86.4519339,38.3165212 80.891528,43.7795883 C80.8551834,43.8152966 80.804522,43.8118835 80.7612008,43.8279253 C82.3368168,41.4187259 84.149951,39.1288843 86.2322338,36.9515663 C105.312624,17.0003481 124.352417,17.0003481 148.773513,20.1505404 C173.194609,23.3007328 194.354445,40.1017586 208.134727,55.8527204 C221.915009,71.6036822 216.614901,101.005477 206.014684,115.706375 C195.414467,130.407273 201.774597,144.058106 203.89464,162.95926 C206.014684,181.860414 195.414467,195.511248 192.234402,197.321559 C189.054337,199.13187 177.394099,207.061953 154.073622,212.312274 C130.753144,217.562594 112.732776,212.312274 95.7724289,201.811633 C78.812082,191.310992 74.2335634,174.512571 72.451952,130.407273 C72.3152784,127.023801 73.4623073,123.119545 72.1211566,120.443248 C66.5911561,109.408001 68.88365,88.211092 71.395528,72.8260366 Z M99.5225887,102.612644 C95.8866684,95.4289634 121.397017,36.1867481 145.777515,47.0663441 C170.158014,57.9459401 172.207098,78.7572447 172.207098,83.7916448 C172.207098,88.8260449 162.929423,104.633427 154.175406,109.883747 C145.421388,115.134068 124.955713,120.815624 120.881422,119.371783 C116.80713,117.927941 103.158509,109.796325 99.5225887,102.612644 Z" id="Shape" fill="#2ACFD3" fill-rule="nonzero"></path>
            <path d="M86.2322338,36.9515663 C78.804532,44.7182679 74.8015219,53.9167387 72.7875593,64.8571725 C70.0249018,79.8647361 65.5494624,107.329278 72.1211566,120.443248 C73.4623073,123.119545 72.3152784,127.023801 72.451952,130.407273 C74.2335634,174.512571 78.812082,191.310992 95.7724289,201.811633 C112.732776,212.312274 130.753144,217.562594 154.073622,212.312274 C177.394099,207.061953 189.054337,199.13187 192.234402,197.321559 C195.414467,195.511248 206.014684,181.860414 203.89464,162.95926 C201.774597,144.058106 195.414467,130.407273 206.014684,115.706375 C216.614901,101.005477 221.915009,71.6036822 208.134727,55.8527204 C194.354445,40.1017586 173.194609,23.3007328 148.773513,20.1505404 C124.352417,17.0003481 105.312624,17.0003481 86.2322338,36.9515663 Z" id="Path" stroke="#000000" stroke-width="1.19489126"></path>
            <g id="eye" transform="translate(48.004774, 33.074461)">
                <path d="M41.741864,0.0820425391 C40.9874983,0.820523686 40.2333395,1.58599014 39.4791245,2.37926266 C26.7570663,15.7601416 22.944168,32.8875866 22.3679308,54.9944361 C14.2118819,51.1774224 6.99224837,44.6185472 6.99224837,33.9583994 C6.99224837,13.7643114 18.0649351,0.0734043617 40.8221584,0.0734043617 C41.1304127,0.0734043617 41.4369887,0.0762931111 41.741864,0.0820425391 Z" id="Path" stroke="#000000" stroke-width="1.19489126" fill="#FFFAFA"></path>
                <path d="M0.701730099,33.6727806 C0.701730099,38.4372162 5.41515008,39.6283251 7.30051808,39.6283251 C9.18588608,39.6283251 12.9566221,38.4372162 13.899306,33.6727806 C14.8419901,28.9083449 12.0139381,25.3350182 7.30051808,25.3350182 C2.58709809,25.3350182 0.701730099,28.9083449 0.701730099,33.6727806 Z" id="Path" fill="#000000"></path>
                <path d="M6.67862071,32.3824126 C6.67862071,34.3675942 8.44394258,34.8638895 9.15007132,34.8638895 C9.85620008,34.8638895 11.2684576,34.3675942 11.6215219,32.3824126 C11.9745863,30.397231 10.9153932,28.9083449 9.15007132,28.9083449 C7.38474945,28.9083449 6.67862071,30.397231 6.67862071,32.3824126 Z" id="Path" fill="#FFFFFF"></path>
            </g>
            <g id="eye" transform="translate(85.796405, 33.977317)">
                <path d="M0,45.9640329 C0,72.9677145 31.6256251,80.2907469 42.7373429,80.2907469 C53.8490608,80.2907469 74.576659,75.7138517 80.1325179,48.7101699 C85.6883769,21.7064883 69.0748,0.6527703 41.2955054,0.6527703 C13.5162106,0.6527703 8.59635391e-16,18.9603511 0,45.9640329 Z" id="Path" fill="#FFFFFF"></path>
                <path d="M62.7263462,5.8749327 C76.9319719,13.6276045 84.0270726,29.73085 80.1493803,48.8162734 C74.6813244,75.729229 54.2812984,80.2907469 43.3451866,80.2907469 C35.6075554,80.2907469 17.7629699,76.6371591 7.98683661,64.9677552 C17.1755347,70.2322377 27.7897224,72.0800147 33.292387,72.0800147 C44.2284989,72.0800147 64.6285247,67.5184968 70.0965807,40.6055412 C72.9044573,26.7855914 69.958908,14.5293035 62.7263462,5.8749327 Z" id="Path" fill="#F0F0F0"></path>
                <path d="M0,45.9640329 C0,72.9677145 31.6256251,80.2907469 42.7373429,80.2907469 C53.8490608,80.2907469 74.576659,75.7138517 80.1325179,48.7101699 C85.6883769,21.7064883 69.0748,0.6527703 41.2955054,0.6527703 C13.5162106,0.6527703 8.59635391e-16,18.9603511 0,45.9640329 Z" id="Path" stroke="#000000" stroke-width="1.19988" stroke-linecap="round" stroke-linejoin="round"></path>
                <path d="M19.1113543,37.0326437 C19.0562076,42.8121317 26.1654777,44.1916835 29.0147005,44.1655556 C31.8639233,44.1394276 37.5761556,42.6422996 39.0559137,36.8497476 C40.535672,31.0571956 36.303198,26.7617717 29.180141,26.8270917 C22.0570842,26.8924117 19.1665012,31.2531557 19.1113543,37.0326437 Z" id="Path" fill="#000000" transform="translate(29.230447, 35.496137) rotate(66.000000) translate(-29.230447, -35.496137) "></path>
                <path d="M31.0762023,36.4005028 C30.1042477,35.4993476 29.8959956,34.2684002 31.1977798,32.8806978 C32.4995642,31.4929954 34.0096008,31.3362403 34.7211985,32.5149361 C35.4327962,33.6936317 34.6343574,35.0290825 34.1136436,35.5841635 C33.5929299,36.1392444 32.0481569,37.301658 31.0762023,36.4005028 Z" id="Path" fill="#FFFFFF" transform="translate(32.643541, 34.228677) rotate(-58.000000) translate(-32.643541, -34.228677) "></path>
            </g>
            <g id="nose" transform="translate(71.073102, 80.806813) scale(-1, 1) rotate(-3.000000) translate(-71.073102, -80.806813) translate(57.085904, 58.826931)" stroke="#000000" stroke-width="1.19489126">
                <path d="M5.96101167,25.4807617 C5.96101167,29.7381618 6.35673542,30.7849413 5.29727951,35.0311401 C4.23782361,39.2773389 7.02046758,43.5271066 10.1988353,39.2809078 C13.377203,35.034709 13.377203,28.6654108 13.377203,25.4807617 C13.377203,22.2961126 5.96101167,21.2233617 5.96101167,25.4807617 Z" id="Path" fill="#FFFFFF"></path>
                <path d="M10.2968834,27.2861813 C10.2968834,31.5435813 11.3563393,32.5939298 10.2968834,36.8401286 C9.23742749,41.0863274 11.3563393,45.3325262 14.534707,41.0863274 C17.7130747,36.8401286 17.7130747,30.4708304 17.7130747,27.2861813 C17.7130747,24.1015322 10.2968834,23.0287813 10.2968834,27.2861813 Z" id="Path" fill="#FFFFFF"></path>
                <path d="M2.29749869,18.8874206 C1.83930999,23.2397435 2.87348414,30.5982749 12.4635315,30.3224639 C22.0535788,30.0466527 24.5767765,28.6200583 25.3637252,23.149549 C26.1506739,17.6790398 24.3164518,8.74954977 14.1982963,10.1715638 C4.08014073,11.5935778 2.75568739,14.5350979 2.29749869,18.8874206 Z" id="Path" fill="#F3D4B7" transform="translate(13.867274, 20.175121) rotate(8.000000) translate(-13.867274, -20.175121) "></path>
                <path d="M6.34945168,7.73907996 C6.35041356,11.2774437 11.6481364,12.1634776 13.7671293,12.1640547 C15.8861222,12.1646318 20.1238676,11.2811951 21.1824021,7.74311986 C22.2409367,4.2050446 19.0617259,1.55040606 13.7642436,1.54896324 C8.46676131,1.54752042 6.3484898,4.20071615 6.34945168,7.73907996 Z" id="Path" fill="#1BB6BA" transform="translate(13.867248, 6.856509) rotate(8.000000) translate(-13.867248, -6.856509) "></path>
            </g>
            <path d="M88.0733358,137.301389 C83.5761881,133.660022 79.3343453,130.006696 78.5965756,129.422331 C77.7992608,128.790802 72.5847425,122.4813 68.5922595,117.137269 C67.9515496,116.279664 66.3546231,115.603358 65.8001631,114.822938 C65.8001631,115.863356 66.1231054,118.877173 66.1425271,119.912782 C66.5696547,142.688224 72.193018,161.962515 73.9504438,172.913337 C74.6771016,177.441268 72.9821344,181.370322 73.8465406,184.063276 C75.0683674,187.869731 75.5223994,189.431948 77.9288813,192.379722 C79.9369455,194.839463 81.0288804,197.197505 82.5190625,198.161125 C88.0733358,189.431948 90.4494729,139.22536 88.0733358,137.301389 Z" id="Path" stroke="#000000" stroke-width="1.19489126" fill="#F34D4D" stroke-linecap="round" stroke-linejoin="round"></path>
            <path d="M187.143178,122.391371 C167.177169,111.9295 146.84606,31.069187 184.215181,15.6234819 C184.935618,15.3257049 189.342286,15.2900341 192.502291,15.9643891 C196.67915,16.8557438 199.908,18.6048974 201.694136,18.8559224 C200.345886,17.0667344 195.527607,15.4727358 192.722761,14.3956701 C187.531255,12.4021233 183.303624,11.6402929 180.393478,11.0631987 C166.728428,8.3533609 141.28066,6.86590897 123.504094,17.4652516 C95.1544217,34.3688479 83.9469248,59.896969 83.9977957,82.2999721 C84.0305487,96.724017 92.6574699,112.138745 93.9273538,114.089853 C98.1561144,120.587116 99.6041498,129.184559 99.499966,130.043964 C98.0658501,141.8739 95.4404432,151.976865 95.9580988,160.352863 C96.1230514,163.021902 94.3841386,170.57317 93.716348,172.960976 C92.198901,178.386881 92.198901,183.758267 95.9580988,186.487164 C102.352888,191.129304 127.169581,205.546757 160.973399,209.607259 C173.976459,211.169181 192.036266,209.376926 215.152817,204.230493 C216.806073,197.768475 217.528466,188.365785 217.319993,176.022423 C217.111522,163.679062 218.307119,148.332653 215.626023,135.992597 C215.949807,136.165857 209.385582,136.499185 204.403555,133.208508 C198.270221,129.157381 190.533113,124.167644 187.143178,122.391371 Z" id="Path" stroke="#000000" stroke-width="1.19489126" fill="#F34D5A" stroke-linecap="round" stroke-linejoin="round" transform="translate(150.704050, 109.623107) scale(-1, 1) translate(-150.704050, -109.623107) "></path>
            <path d="M206.420821,186.225488 C205.461766,187.241784 194.752946,194.264117 190.046789,194.925524 C195.439789,187.768772 202.377633,168.81347 202.949408,166.506681 C205.083701,157.896007 198.82769,147.563748 196.918751,146.440576 C193.523622,144.442968 186.021346,140.551168 177.403746,139.11305 C159.765761,136.169596 166.927285,122.79325 183.288555,112.690732 C194.745322,105.616575 202.062392,90.2269443 206.208802,82.2745366 C212.509113,70.1911588 188.697875,57.6461158 181.211041,40.9960355 C172.485964,21.5922064 149.753113,9.52235916 152.829938,9.79125518 C173.884691,11.6313141 187.167271,24.1060181 189.865286,25.92528 C200.368598,33.0076276 213.482831,52.854681 216.448051,71.254905 C219.815491,92.1510463 208.93708,110.113501 203.740509,121.890043 C202.682079,125.303411 201.4397,128.111151 201.595577,129.413172 C203.007931,141.210481 203.674155,149.888815 205.217438,160.869847 C205.431192,162.390781 206.524905,167.119339 207.63507,172.222855 C208.722565,177.222154 209.865773,182.574928 206.420821,186.225488 Z" id="body-shadow" fill="#DC3D5E"></path>
            <g id="ear" stroke-linecap="round" stroke-linejoin="round" transform="translate(83.441084, 8.340411)" stroke="#000000" stroke-width="1.19489126">
                <path d="M103.702094,114.05096 C83.7360851,103.589089 63.404976,22.7287758 100.774097,7.28307063 C101.494534,6.98529371 105.901202,6.94962284 109.061207,7.62397784 C113.238066,8.51533255 116.466916,10.2644862 118.253052,10.5155112 C116.904802,8.72632318 112.086523,7.13232463 109.281677,6.05525892 C104.090171,4.06171206 99.8625397,3.29988173 96.9523942,2.72278745 C83.2873441,0.0129496779 57.8395762,-1.47450225 40.0630102,9.12484043 C11.7133377,26.0284367 0.505840808,51.5565578 0.556711718,73.9595608 C0.589464662,88.3836057 9.21638587,103.798334 10.4862698,105.749442 C14.7150304,112.246705 16.1630658,120.844148 16.058882,121.703553 C14.6247661,133.533488 11.9993592,143.636454 12.5170148,152.012452 C12.6819674,154.681491 10.9430546,162.232759 10.2752639,164.620564 C8.75781701,170.04647 8.75781701,175.417856 12.5170148,178.146753 C18.9118044,182.788893 43.7284972,197.206346 77.5323152,201.266848 C90.5353754,202.82877 108.595182,201.036514 131.711733,195.890081 C133.364989,189.428063 134.087382,180.025374 133.878909,167.682012 C133.670438,155.338651 134.866035,139.992242 132.184939,127.652186 C132.508723,127.825446 125.944498,128.158774 120.962471,124.868097 C114.829137,120.81697 107.092029,115.827233 103.702094,114.05096 Z" id="Path-Copy-2" transform="translate(67.262966, 101.282695) scale(-1, 1) translate(-67.262966, -101.282695) "></path>
                <path d="M105.054631,20.3508269 C102.981436,27.1082405 104.366217,31.2947427 105.306859,36.1459577 C106.247501,40.9971728 113.974135,46.4713125 118.748652,42.0124842 C123.523169,37.553656 120.026902,24.2679919 120.656669,21.6993843" id="Path" fill="#5CE3E6" transform="translate(112.640593, 32.006164) rotate(-149.000000) translate(-112.640593, -32.006164) "></path>
                <path d="M116.307068,32.7491068 C112.121838,34.9989791 108.634146,37.6238302 105.843993,40.6236601" id="Path"></path>
            </g>
            <g id="sleeve" transform="translate(174.129814, 158.987524) rotate(-11.000000) translate(-174.129814, -158.987524) translate(147.487533, 132.345243)">
                <path d="M39.5033601,23.7557548 C37.6915478,28.0779583 29.4216688,36.9808144 27.6105297,42.0757798 C25.7993907,47.1707453 29.8646119,51.6395008 34.3999123,47.4566431 C38.9352128,43.2737853 46.0826199,32.1351174 46.9885857,30.042501" id="Path" stroke="#000000" stroke-width="1.19489126" fill="#F3D4B7" stroke-linecap="round" stroke-linejoin="round" transform="translate(37.079106, 36.433719) scale(-1, 1) rotate(31.000000) translate(-37.079106, -36.433719) "></path>
                <path d="M19.3044355,2.77937191 C13.6283776,17.3770343 7.04997267,29.3505196 6.84776358,29.901223 C5.78549634,32.7942389 5.02869739,34.2209605 3.84244701,35.7936003 C11.6151891,44.4997051 13.0550184,48.5758763 14.4680456,49.5697795 C15.4736607,50.2771149 18.6190251,48.1571713 21.6473631,45.724352 C25.0018701,43.0295043 28.2127844,39.9507544 28.2127692,39.905598 C28.2127535,39.8590811 29.3766911,38.109439 31.7045821,34.6566713 C32.2432868,33.8576554 37.3768056,28.191278 39.6529578,27.8546338" id="Path" fill="#F34D4D" transform="translate(21.747702, 26.243629) scale(-1, 1) rotate(10.000000) translate(-21.747702, -26.243629) "></path>
                <path d="M7.70229391,26.7855193 C12.0857836,29.2739964 15.0206066,32.4299552 17.2736039,34.8205692 C19.5266013,37.2111832 22.6489109,39.2215093 25.8272786,41.8187089 C29.0056463,44.4159085 31.1245581,45.0498028 36.4218376,39.6463614 C36.5600319,39.5053975 36.6910158,39.3872692 36.81494,39.29077 C34.4012562,44.7274283 34.094633,46.9177553 33.1869465,47.8293157 C31.9341336,49.0874755 27.7628444,47.0898858 23.9686737,45.2407315 C23.7104089,45.1148617 17.0269077,41.6068403 16.805664,41.4785055 C11.5554462,38.433059 10.7035749,38.5095132 5.30326787,34.2444921 L1.04382174,29.2699378 C2.31888331,26.5928243 5.20987188,25.1279865 7.70229391,26.7855193 Z" id="Path" fill="#DC3D5E"></path>
                <path d="M19.1709069,5.34210647 C16.5919517,9.76725084 12.4667354,20.0805022 9.05451613,27.9419528 C7.61990734,32.1197118 6.81635715,33.7849547 5.40429673,35.6569562 C13.1770388,44.363061 14.6168681,48.4392322 16.0298953,49.4331354 C17.0355105,50.1404707 20.1808748,48.0205272 23.2092128,45.5877078 C26.5637199,42.8928602 28.610697,41.5651128 29.7746189,39.7689538 C30.9385408,37.9727948 30.9385408,37.9727948 33.2664318,34.5200272 C33.8051365,33.7210113 37.6010158,31.0629379 39.877168,30.7262937" id="Path-Copy" stroke="#000000" stroke-width="1.19988" stroke-linecap="round" stroke-linejoin="round" transform="translate(22.640732, 27.456674) scale(-1, 1) rotate(10.000000) translate(-22.640732, -27.456674) "></path>
            </g>
        </g>
    </g>
</svg>