<?xml version="1.0" encoding="UTF-8"?>
<svg width="407px" height="242px" viewBox="0 0 407 242" version="1.1" xmlns="http://www.w3.org/2000/svg" xmlns:xlink="http://www.w3.org/1999/xlink">
    <!-- Generator: Sketch 54.1 (76490) - https://sketchapp.com -->
    <title>GoCon gophers shaking hands</title>
    <desc>Created with Sketch.</desc>
    <g id="Page-1" stroke="none" stroke-width="1" fill="none" fill-rule="evenodd">
        <g id="GoCon-gophers-shaking-hands" transform="translate(-1.000000, -14.000000)">
            <g id="Mountie-Gopher3:4-wit-balloons" transform="translate(195.000000, 0.000000)">
                <g id="sleeve" transform="translate(31.980024, 175.651685) rotate(20.000000) translate(-31.980024, -175.651685) translate(8.480024, 148.151685)">
                    <path d="M12.627956,30.8437069 C10.627956,34.9745659 4.62795598,40.9745659 2.62795598,45.8437069 C0.627955979,50.7128469 4.62795598,53.8437069 9.62795598,49.8437069 C14.627956,45.8437069 19.8674799,38.8437069 20.8674799,36.8437069" id="Path" stroke="#000000" fill="#F3D4B7" fill-rule="nonzero" stroke-linecap="round" stroke-linejoin="round" transform="translate(11.484738, 41.256768) rotate(13.000000) translate(-11.484738, -41.256768) "></path>
                    <path d="M32.4164208,8.04576967 C30.4164208,13.0696222 24.1228622,21.6988137 20.1228622,27.7136089 C17.4561955,31.7234723 14.7895289,35.1004255 12.1228622,37.8444683 C19.4561955,46.0437987 23.7895289,50.6114047 25.1228622,51.5472863 C27.1228622,52.9511088 35.1228622,41.7914653 35.1228622,41.7105202 C35.1228622,41.6565568 38.9132475,34.148428 42.2465808,29.2273671" id="Path" stroke="#000000" fill="#F34D4D" fill-rule="nonzero" stroke-linecap="round" stroke-linejoin="round" transform="translate(27.184722, 29.857594) rotate(13.000000) translate(-27.184722, -29.857594) "></path>
                    <path d="M40.0146202,17.2921405 C39.9910696,17.9581247 41.5541939,29.9111131 41.2924238,30.4201332 C40.2924238,32.3646643 39.1263395,26.955329 35.4726432,26.3793283 C31.818947,25.8033275 27.2273578,24.2721059 25.6424992,21.3987335 C26.419496,20.7139198 27.2037736,19.9975698 27.995332,19.2496835 C32.6357309,14.8653057 34.2969482,14.3236609 37.5835204,10.3830087 C37.9958808,11.2110215 38.3362329,11.8909059 38.6045766,12.2387227 C38.9571949,12.6957729 39.3098132,13.4406417 39.5747426,14.2987762 L40.0146202,17.2921405 Z M38.2227005,33.0923728 L38.8036655,37.0458355 C34.4487675,41.0909331 32.2652489,43.1397721 32.2531098,43.1923524 C32.2349011,43.2712229 21.929567,52.345237 20.2966182,50.5274923 C19.9563843,50.1487551 19.4104278,49.3584559 18.6587487,48.1565946 C20.8748647,47.5305274 24.5250989,45.9749011 26,44.5 C28,42.5 35,36.5 36,35.5 C36.6495489,34.8504511 37.2990979,33.5686491 38.2227005,33.0923728 Z" id="Shape" fill="#DC3D4F" fill-rule="nonzero"></path>
                    <path d="M32.4436363,7.80690334 C30.4436363,12.8307559 24.1500777,21.4599473 20.1500777,27.4747425 C17.483411,31.4846059 14.8167443,34.8615591 12.1500777,37.6056019 C19.483411,45.8049323 23.8167444,50.3725383 25.1500777,51.3084199 C27.1500777,52.7122424 35.1500777,41.5525989 35.1500777,41.4716538 C35.1500777,41.4176904 36.8167444,38.9301783 40.1500777,34.0091174" id="Path" stroke="#000000" stroke-linecap="round" stroke-linejoin="round" transform="translate(26.150078, 29.618728) rotate(13.000000) translate(-26.150078, -29.618728) "></path>
                    <path d="M28.905081,6.01979889 C33.1805507,7.75617594 35.8351493,7.47500238 40.1390694,9.04719758 C48.5884351,12.1336981 45.5474995,20.1954476 39.6867387,18.6982288 C29.0257665,15.9747245 25.5530545,15.1699523 25.485734,14.3705804 C25.2144896,11.1497946 27.0465888,8.58833274 28.905081,6.01979889 Z" id="Path" stroke="#000000" fill="#1D487A" fill-rule="nonzero" stroke-linecap="round" stroke-linejoin="round" transform="translate(35.408096, 12.450800) rotate(-62.000000) translate(-35.408096, -12.450800) "></path>
                    <path d="M39.7823212,4.77216685 C39.7823212,2.57228895 41.477386,1.92900796 43.1724508,3.3505874 C44.8675155,4.77216685 44.8675155,6.9035536 43.1724508,7.24207967 C41.477386,7.58060574 39.7823212,6.97204475 39.7823212,4.77216685 Z" id="Path" stroke="#000000" fill="#E8DB54" fill-rule="nonzero" transform="translate(42.113035, 4.961920) rotate(56.000000) translate(-42.113035, -4.961920) "></path>
                    <path d="M4.15426409,42.0933977 C5.80072373,39.0917173 2.18309381,42.941702 0.837992974,39.701064 C-0.0587409194,37.5406387 3.46259606,36.1327604 11.4020039,35.4774291" id="Path-2" stroke="#000000" fill="#F3D4B7" fill-rule="nonzero" stroke-linecap="round" stroke-linejoin="round"></path>
                </g>
                <path d="M173.071385,213.113349 C170.652743,217.86273 167.748135,220.440312 167.748135,223.538871 C167.748135,226.63743 174.440112,232.915918 178.471182,229.34582 C182.502251,225.775723 181.133523,214.898398 181.939737,213.113349" id="Path" stroke="#000000" fill="#4AAED9" fill-rule="nonzero" stroke-linecap="round" stroke-linejoin="round" transform="translate(174.843936, 221.763013) rotate(-96.000000) translate(-174.843936, -221.763013) "></path>
                <path d="M71.1343194,235.863034 C69.205748,240.509722 69.205748,242.436958 69.205748,245.468519 C69.205748,248.50008 71.0475154,251.581101 74.2618011,248.088197 C77.4760868,244.595293 77.5628908,237.609486 78.205748,235.863034" id="Path" stroke="#000000" fill="#F3D4B7" fill-rule="nonzero" stroke-linecap="round" stroke-linejoin="round" transform="translate(73.705748, 242.751082) rotate(28.000000) translate(-73.705748, -242.751082) "></path>
                <path d="M135.044643,237.070995 C132.36461,243.066886 132.36461,245.553711 132.36461,249.46551 C132.36461,253.377308 134.924016,257.352928 139.390736,252.845832 C143.857456,248.338736 143.978083,239.324543 144.871428,237.070995" id="Path" stroke="#000000" fill="#F3D4B7" fill-rule="nonzero" stroke-linecap="round" stroke-linejoin="round" transform="translate(138.618019, 245.959043) scale(-1, 1) translate(-138.618019, -245.959043) "></path>
                <path d="M61.0382986,76.997519 C54.0311761,84.393926 50.2548287,93.1538395 48.3549028,103.572664 C45.7486755,117.864709 41.5266492,144.019818 47.7262339,156.508551 C48.9914445,159.05725 47.9093639,162.775362 48.0382986,165.997519 C49.7190297,208 54.0382986,223.997519 70.0382986,233.997519 C86.0382986,243.997519 103.038299,248.997519 125.038299,243.997519 C147.038299,238.997519 158.038299,231.44552 161.038299,229.721519 C164.038299,227.997519 174.038299,214.997519 172.038299,196.997519 C170.038299,178.997519 164.038299,165.997519 174.038299,151.997519 C184.038299,137.997519 189.038299,109.997519 176.038299,94.997519 C163.038299,79.997519 143.076597,63.997519 120.038299,60.997519 C97,57.997519 79.0382986,57.997519 61.0382986,76.997519 Z" id="Path" stroke="#000000" fill="#5CC8E6" fill-rule="nonzero"></path>
                <path d="M47.0416926,111.161595 C49.3473691,113.774976 50.9098022,108.952382 52.876545,109.999992 C53.9365252,110.564604 58.415109,115.099376 61.0816401,120 C68.6993297,134 52,136.066391 49,143.218171 C49,145.072724 50.3333333,148.199006 53,152.597017 C57,159.194033 85,162 106,160.335697 C127,158.671394 163,153.234014 169,146 C175,138.765986 179,124.561627 176,116.985368 C173,109.40911 165,102.918178 159,98.5 C153,94.0818224 141,87.9194081 122,81.9210864 C103,75.9227646 68,79 56,83.5 C55.9589031,83.5154113 55.9179205,83.5307555 55.8770523,83.5460325 C57.3634521,81.2516969 59.0739211,79.0710286 61.0382986,76.997519 C79.0382986,57.997519 97,57.997519 120.038299,60.997519 C143.076597,63.997519 163.038299,79.997519 176.038299,94.997519 C189.038299,109.997519 184.038299,137.997519 174.038299,151.997519 C164.038299,165.997519 170.038299,178.997519 172.038299,196.997519 C174.038299,214.997519 164.038299,227.997519 161.038299,229.721519 C158.038299,231.44552 147.038299,238.997519 125.038299,243.997519 C103.038299,248.997519 86.0382986,243.997519 70.0382986,233.997519 C54.0382986,223.997519 49.7190297,208 48.0382986,165.997519 C47.9093639,162.775362 48.9914445,159.05725 47.7262339,156.508551 C42.509359,145.999434 44.6720448,125.813134 47.0416926,111.161595 Z M76,136.066391 C72.5699566,129.225208 93,78 116,88.3608873 C139,98.7217746 136,116.376413 136,121.170787 C136,125.965161 130.190434,140.5 121.932096,145.5 C113.673757,150.5 98.0027426,150.718171 94.1591499,149.343168 C90.3155571,147.968165 79.4300434,142.907574 76,136.066391 Z" id="Shape" fill="#4AAED9" fill-rule="nonzero"></path>
                <path d="M61.0382986,76.997519 C54.0311761,84.393926 50.2548287,93.1538395 48.3549028,103.572664 C45.7486755,117.864709 41.5266492,144.019818 47.7262339,156.508551 C48.9914445,159.05725 47.9093639,162.775362 48.0382986,165.997519 C49.7190297,208 54.0382986,223.997519 70.0382986,233.997519 C86.0382986,243.997519 103.038299,248.997519 125.038299,243.997519 C147.038299,238.997519 158.038299,231.44552 161.038299,229.721519 C164.038299,227.997519 174.038299,214.997519 172.038299,196.997519 C170.038299,178.997519 164.038299,165.997519 174.038299,151.997519 C184.038299,137.997519 189.038299,109.997519 176.038299,94.997519 C163.038299,79.997519 143.076597,63.997519 120.038299,60.997519 C97,57.997519 79.0382986,57.997519 61.0382986,76.997519 Z" id="Path" stroke="#000000"></path>
                <path d="M63.6108448,49.7582203 C61.0394162,55.0795093 61.0394162,57.2865406 61.0394162,60.7582203 C61.0394162,64.2299 63.495106,67.7582203 67.7808203,63.7582203 C72.0665346,59.7582203 72.1822733,51.7582203 73.0394162,49.7582203" id="Path" stroke="#000000" fill="#4AAED9" fill-rule="nonzero" stroke-linecap="round" stroke-linejoin="round" transform="translate(67.039416, 57.646268) scale(-1, 1) rotate(172.000000) translate(-67.039416, -57.646268) "></path>
                <g id="hat" transform="translate(115.000056, 62.000061) rotate(9.000000) translate(-115.000056, -62.000061) translate(13.000056, 16.000061)">
                    <path d="M109.282108,0.848222227 C99.6231274,0.848222227 90.6231274,12.2711203 82.6231274,18.8482222 C74.6231274,25.4253242 67.6231274,26.5158549 60.6231274,34.0677456 C55.6635153,39.4183811 54.2178678,53.1705848 54.8634991,62.3830736 C55.1291122,66.1730979 65.6231274,56.598395 85.6231274,54.2233086 C105.623127,51.8482222 135.623127,53.090169 145.623127,56.7016607 C155.623127,60.3131524 161.623127,66.9770421 161.623127,63.6450972 C161.623127,60.3131524 166.623127,47.6830433 161.623127,39.0406219 C156.623127,30.3982005 150.623127,25.4253242 139.623127,18.8482222 C128.623127,12.2711203 118.941088,0.848222227 109.282108,0.848222227 Z" id="Path" stroke="#000000" fill="#DDB27A" fill-rule="nonzero"></path>
                    <path d="M127.359518,9.97035714 C131.299832,13.0264082 135.362622,16.300788 139.623127,18.8482222 C142.17895,20.3763954 144.464845,21.8179638 146.530988,23.2390784 C149.59048,26.0789736 156.233425,31.3332259 157,32.4990293 C157.475517,33.2221933 158.872349,34.9536964 160.206773,36.7323379 C160.689558,37.4731502 161.160621,38.2411868 161.623127,39.0406219 C162.389556,40.365382 162.92102,41.7838389 163.271543,43.2481412 C163.313613,43.4614178 163.36242,43.6832272 163.417964,43.9135693 C163.520537,44.4233768 163.602525,44.9377862 163.666149,45.45483 C151.881311,42.7637708 145.325928,40.9578927 144,40.0371958 C142,38.6484375 123,36.3290181 123,36.4853684 C123,36.6417187 107.653889,36.3290181 111.687784,36.4853684 C115.72168,36.6417187 127.865993,34.609891 131.599609,34.609891 C135.333225,34.609891 143,34.4980586 144,32.4990293 C145,30.5 141,29.3506462 140,28.5339208 C139,27.7171955 134,23.3378906 133,21.5 C132.333333,20.2747396 129.6346,15.9414063 124.903801,8.5 C125.749036,9.00471327 126.567608,9.49483231 127.359518,9.97035714 Z M106.15599,8.5 C103.333833,11.5 96.0167187,20.209018 100.808164,24.854509 C105.599609,29.5 114,30.5 118.866718,30.5 C123.733437,30.5 109.840023,34.4707368 104,31.9853684 C98.1599769,29.5 93.8993135,25.5 96,19.5 C100,11.5 102.333833,11.5 106.15599,8.5 Z" id="Shape" fill="#C59B63" fill-rule="nonzero"></path>
                    <path d="M109.282108,0.848222227 C99.6231274,0.848222227 90.6231274,12.2711203 82.6231274,18.8482222 C74.6231274,25.4253242 67.6231274,26.5158549 60.6231274,34.0677456 C55.3268826,39.7815544 54.0378105,55.0761471 55.023424,64.1921713 C55.3404871,67.1247158 65.6231274,56.598395 85.6231274,54.2233086 C105.623127,51.8482222 135.623127,53.090169 145.623127,56.7016607 C155.623127,60.3131524 161.623127,66.9770421 161.623127,63.6450972 C161.623127,60.3131524 166.623127,47.6830433 161.623127,39.0406219 C156.623127,30.3982005 150.623127,25.4253242 139.623127,18.8482222 C128.623127,12.2711203 118.941088,0.848222227 109.282108,0.848222227 Z" id="Path" stroke="#000000"></path>
                    <path d="M82.6231274,38.8482222 C69.5996094,41.790227 55.9752836,43.3731272 55.2093934,49.7591247 C54.1531484,58.5661022 65.6231274,52.598395 85.6231274,50.2233086 C105.623127,47.8482222 135.623127,49.090169 145.623127,52.7016607 C155.623127,56.3131524 161.623127,66.9770421 161.623127,63.6450972 C161.623127,61.2064154 164.301584,53.7867869 163.777335,46.5952965 C163.585308,43.9611307 152.646645,41.790227 139.623127,38.8482222 C126.599609,35.9062175 95.6466454,35.9062175 82.6231274,38.8482222 Z" id="Path" stroke="#000000" fill="#AA6535" fill-rule="nonzero"></path>
                    <path d="M91.6706455,36.2550323 C98.7743897,35.2714967 112.611746,38.0728364 133.182713,44.6590514 C139.672295,47.3986718 142.917086,49.5252249 142.917086,51.0387106 C142.917086,52.5521963 139.672295,52.9313932 133.182713,52.1763012 C112.346818,48.0597137 100.798692,45.5156959 98.5383344,44.5442477 C95.1477988,43.0870754 81.0150293,37.7303356 91.6706455,36.2550323 Z" id="Path" stroke="#000000" fill="#88491E" fill-rule="nonzero" transform="translate(115.338795, 44.308322) rotate(-11.000000) translate(-115.338795, -44.308322) "></path>
                    <path d="M177.542728,85.2232493 C165.414887,69.231097 155.053236,58.9284722 129.729174,55.9284722 C104.405112,52.9284722 64.1326284,54.1358071 44.3467436,73.1358071 C38.4836972,78.7659764 44.4726637,83.907109 41.5120475,90.6199771 C39.6603336,90.7280156 38.0805467,90.8455439 36.8124361,90.974401 C18.5996094,92.8250679 -9.40039062,78.4816627 4.59960938,70.7408313 C18.5996094,63 62.5996094,44.8398774 104.599609,43.854509 C146.599609,42.8691406 193.599609,58.5863767 201.599609,63.5 C208.511892,67.7455443 198.999919,80.2283318 177.556015,85.2372082 L177.542728,85.2232493 Z" id="Path" stroke="#000000" fill="#C59B63" fill-rule="nonzero"></path>
                    <path d="M105.599609,8.66210937 C98.1599769,15.9589844 92,19.1670736 96.8667184,27.2392113 C101.733437,35.3113491 116.370111,32.8163133 124.599609,28.2392113 C130.085942,25.18781 126.841645,18.328776 114.866718,7.66210938 M131.599609,19.6621094 C133.937983,22.1112347 141.13114,30.6621094 145.920225,32.2994331 C148.958725,33.3382556 152.137567,33.3739525 153.829108,32.9210864" id="Shape" stroke="#000000" stroke-linecap="round" stroke-linejoin="round"></path>
                    <path d="M69.7689467,18.9636078 C72.10732,21.4127331 79.3004776,29.9636078 84.0895621,31.6009316 C87.1280625,32.6397541 90.3069039,32.675451 91.9984453,32.2225848" id="Path" stroke="#000000" stroke-linecap="round" stroke-linejoin="round" transform="translate(80.883696, 25.731319) scale(-1, 1) translate(-80.883696, -25.731319) "></path>
                </g>
                <g id="eye" transform="translate(30.000000, 75.000000)" fill-rule="nonzero">
                    <path d="M32.9312055,0.0688791244 C32.3001368,0.688873768 31.6692412,1.33152403 31.0382986,1.99751898 C20.3955924,13.2314866 17.2058918,27.6108979 16.7238374,46.1707871 C9.90085083,42.9661988 3.86122757,37.4596703 3.86122757,28.5099028 C3.86122757,11.5558798 13.1241432,0.0616269099 32.1618208,0.0616269099 C32.4196926,0.0616269099 32.6761604,0.0640521704 32.9312055,0.0688791244 Z" id="Path" stroke="#000000" fill="#FFFFFF"></path>
                    <path d="M0.27773694,23.3608873 C0.27773694,27.3608873 4.22077379,28.3608873 5.79798853,28.3608873 C7.37520328,28.3608873 10.5296328,27.3608873 11.3182401,23.3608873 C12.1068475,19.3608873 9.74102539,16.3608873 5.79798853,16.3608873 C1.85495168,16.3608873 0.27773694,19.3608873 0.27773694,23.3608873 Z" id="Path" stroke="#000000" fill="#000000"></path>
                    <path d="M5.27773694,22.277554 C5.27773694,23.9442207 6.75452645,24.3608873 7.34524225,24.3608873 C7.93595806,24.3608873 9.11738967,23.9442207 9.41274757,22.277554 C9.70810547,20.6108873 8.82203177,19.3608873 7.34524225,19.3608873 C5.86845274,19.3608873 5.27773694,20.6108873 5.27773694,22.277554 Z" id="Path" fill="#FFFFFF"></path>
                </g>
                <g id="eye" transform="translate(62.000000, 82.500000)">
                    <path d="M3,35.2068966 C3,55.8908046 26.7583113,61.5 35.1058349,61.5 C43.4533585,61.5 59.0246786,57.9942529 63.1984404,37.3103448 C67.3722022,16.6264368 54.8914835,0.5 34.0226745,0.5 C13.1538654,0.5 3,14.5229885 3,35.2068966 Z" id="Path" stroke="#000000" fill="#FFFFFF" fill-rule="nonzero"></path>
                    <path d="M50.1222958,4.5 C60.7940747,10.4382847 66.1241705,22.7728268 63.211108,37.3916165 C59.103307,58.0060314 43.778071,61.5 35.562469,61.5 C29.7496811,61.5 16.3441843,58.7014752 9,49.763106 C15.9028817,53.7955217 23.8766427,55.2108565 28.010443,55.2108565 C36.2260451,55.2108565 51.551281,51.7168879 55.659082,31.102473 C57.7684603,20.5168582 55.5556573,11.1289557 50.1222958,4.5 Z" id="Path" fill="#F0F0F0" fill-rule="nonzero"></path>
                    <path d="M3,35.2068966 C3,55.8908046 26.7583113,61.5 35.1058349,61.5 C43.4533585,61.5 59.0246786,57.9942529 63.1984404,37.3103448 C67.3722022,16.6264368 54.8914835,0.5 34.0226745,0.5 C13.1538654,0.5 3,14.5229885 3,35.2068966 Z" id="Path" stroke="#000000"></path>
                    <path d="M1.7972238,21.8826814 C1.7948957,26.2387877 7.2342058,27.324904 9.4101627,27.32374 C11.5861196,27.3225759 15.9386154,26.2312212 17.0289219,21.8745328 C18.1192285,17.5178445 14.8570393,14.2525109 9.4171471,14.2554211 C3.977255,14.2583313 1.799552,17.5265751 1.7972238,21.8826814 Z" id="Path" fill="#000000" fill-rule="nonzero" transform="translate(9.517737, 20.789580) rotate(66.000000) translate(-9.517737, -20.789580) "></path>
                    <path d="M9.82503751,22.0707433 C8.88980511,21.2120549 8.70034671,20.0277773 9.98026151,18.6771241 C11.2601764,17.3264709 12.7295497,17.1600953 13.4087992,18.2889144 C14.0880487,19.4177334 13.2979249,20.7129281 12.7859589,21.2531894 C12.273993,21.7934506 10.76027,22.9294317 9.82503751,22.0707433 Z" id="Path" fill="#FFFFFF" fill-rule="nonzero" transform="translate(11.372043, 19.961572) rotate(-58.000000) translate(-11.372043, -19.961572) "></path>
                </g>
                <g id="nose" transform="translate(33.000000, 102.000000)" fill-rule="nonzero" stroke="#000000">
                    <path d="M5.62648399,24.003362 C5.62648399,28.0139138 6,29 5,33 C4,37 6.62648399,41.003362 9.62648399,37.003362 C12.626484,33.003362 12.626484,27.003362 12.626484,24.003362 C12.626484,21.003362 5.62648399,19.9928102 5.62648399,24.003362 Z" id="Path" fill="#FFFFFF"></path>
                    <path d="M9.71902971,25.7041016 C9.71902971,29.7146533 10.7190297,30.7041016 9.71902971,34.7041016 C8.71902971,38.7041016 10.7190297,42.7041016 13.7190297,38.7041016 C16.7190297,34.7041016 16.7190297,28.7041016 16.7190297,25.7041016 C16.7190297,22.7041016 9.71902971,21.6935498 9.71902971,25.7041016 Z" id="Path" fill="#FFFFFF"></path>
                    <path d="M2.16932201,17.7952132 C1.73574635,21.8954586 2.70995806,28.8273351 11.7615438,28.5650453 C20.8131295,28.3027554 23.1950022,26.9581775 23.9391632,21.8044546 C24.6833241,16.6507317 22.9543945,8.23913095 13.4040626,9.58134258 C3.85373062,10.9235542 2.60289768,13.6949679 2.16932201,17.7952132 Z" id="Path" fill="#F3D4B7" transform="translate(13.088927, 19.005268) rotate(8.000000) translate(-13.088927, -19.005268) "></path>
                    <path d="M5.99316661,7.29231304 C5.99316661,10.6256464 10.9931666,11.4589797 12.9931666,11.4589797 C14.9931666,11.4589797 18.9931666,10.6256464 19.9931666,7.29231304 C20.9931666,3.95897971 17.9931666,1.45897971 12.9931666,1.45897971 C7.99316661,1.45897971 5.99316661,3.95897971 5.99316661,7.29231304 Z" id="Path" fill="#9B8E7D" transform="translate(13.088967, 6.458980) rotate(8.000000) translate(-13.088967, -6.458980) "></path>
                </g>
                <path d="M64.6207875,172.624058 C60.1194683,169.182811 55.8736908,165.730261 55.1352368,165.178011 C54.2091114,164.485412 51.7394438,161.472446 47.7262339,156.139113 C47.7262339,178.746051 48.6457543,195.459304 50.4847952,206.278873 C51.2121271,210.557961 49.5155877,214.271086 50.3807957,216.816042 C51.6037558,220.413305 52.058209,221.889667 54.4669231,224.67544 C56.47685,227 57.5697978,229.228451 59.0613621,230.139113 C64.6207875,221.889667 66.9991287,174.442293 64.6207875,172.624058 Z" id="Path" stroke="#000000" fill="#F34D4D" fill-rule="nonzero" stroke-linecap="round" stroke-linejoin="round"></path>
                <path d="M163.912999,173.445313 C156.764624,173.102359 141.461973,175.632855 124.497588,174.489486 C120.103348,174.193322 129.289407,164.375581 123.912999,164.375581 C104.579666,164.375581 85.2463326,162.389155 65.9129993,158.416303 C66.9048316,161.599264 67.3277138,163.797812 67.1816457,165.011945 C65.858158,176.012921 63.4352758,185.407941 63.9129993,193.197008 C64.0652274,195.679019 62.4604549,202.701147 61.8441778,204.921632 C60.4437872,209.967328 60.4437872,214.962325 63.9129993,217.5 C69.8144928,221.816851 92.7168181,235.22403 123.912999,239 C135.912999,240.452474 152.579666,238.785807 173.912999,234 C175.438723,227.990795 176.10539,219.24698 175.912999,207.768555 C175.720609,196.29013 174.387275,184.813242 171.912999,173.337891 C172.579666,173.697363 169.912999,173.733171 163.912999,173.445313 Z" id="Path" stroke="#000000" fill="#F34D4D" fill-rule="nonzero" stroke-linecap="round" stroke-linejoin="round" transform="translate(118.456369, 198.961789) scale(-1, 1) translate(-118.456369, -198.961789) "></path>
                <path d="M173.988008,200.348467 C171.019223,201.578879 167.913155,203.056555 165.5,204 C159,206.541233 125,217.203841 117.440178,219.472154 C110.849625,221.449639 75.9072057,219.840981 61.0816401,218.013586 C61.200349,221.206005 61.4118033,224.103191 61.7160033,226.705143 C62.5254269,227.622631 62.4255701,229.450144 65.7708466,229.754429 C70,230.139113 67.4905256,224.88228 69,225.148438 C72,225.677412 89,228 91,228 C93,228 91.0666397,229.213365 98,229.213365 C104.93336,229.213365 104.93336,228.213365 105.93336,228.213365 C106.93336,228.213365 123,226.623857 131,225.148438 C139,223.673018 154,219.472154 159,217.203841 C160.869534,216.355703 168.851447,210.311559 172.112196,213.103542 C173.076506,213.929223 173.514524,215.375663 173.764368,216.847691 C176.460318,214.165867 176.35761,209.56522 175.068821,204.921632 C174.99664,204.661558 174.910899,204.335615 174.816008,203.958811 C172.108681,203.061824 170.464202,201.752674 171,199.601596 C173,191.572153 168.788825,178.047356 167,177 C163.818498,175.137233 153.04553,172.973679 144.74454,173.583909 C142.608962,173.740902 142.720035,175.919947 142,177 C140,180 138,182.148438 130,185.148438 C122,188.148438 123,187 121,181 C120.358508,179.075523 118.055527,179.295886 116,179 C111.646947,178.373394 106.246603,179.320746 104.93336,180 C103,181 90,184.000216 90,185.148438 C90,186.296659 96,192.454305 96,194.227153 C96,196 98,205.124093 98,206.856678 C98,208.589263 94.1591499,211.268168 90,210.5 C85.8408501,209.731832 81.0548606,209.631416 78.6218687,208.589263 C76.1888767,207.54711 71,206.011262 71,205 C71,203.988738 71,195.738023 71,195.738023 C71,195.738023 65.0226041,199.443647 61.174181,202.379111 C61.6377064,192.697611 62.9129794,183.017204 65,173.337891 C64.3333333,173.697363 67,173.733171 73,173.445313 C80.1483751,173.102359 95.451026,175.632855 112.415411,174.489486 C116.809651,174.193322 107.623593,164.375581 113,164.375581 C132.333333,164.375581 151.666667,162.389155 171,158.416303 C170.008168,161.599264 169.585285,163.797812 169.731354,165.011945 C171.054841,176.012921 173.477723,185.407941 173,193.197008 C172.910896,194.649802 173.42376,197.658087 173.988008,200.348467 Z" id="body-shadow" fill="#DC3D4F" fill-rule="nonzero"></path>
                <path d="M163.912999,173.445313 C156.764624,173.102359 141.461973,175.632855 124.497588,174.489486 C120.103348,174.193322 129.289407,164.375581 123.912999,164.375581 C104.579666,164.375581 85.2463326,162.389155 65.9129993,158.416303 C66.9048316,161.599264 67.3277138,163.797812 67.1816457,165.011945 C65.858158,176.012921 63.4352758,185.407941 63.9129993,193.197008 C64.0652274,195.679019 62.4604549,202.701147 61.8441778,204.921632 C60.4437872,209.967328 60.4437872,214.962325 63.9129993,217.5 C69.8144928,221.816851 92.7168181,235.22403 123.912999,239 C135.912999,240.452474 152.579666,238.785807 173.912999,234 C175.438723,227.990795 176.10539,219.24698 175.912999,207.768555 C175.720609,196.29013 174.387275,184.813242 171.912999,173.337891 C172.579666,173.697363 169.912999,173.733171 163.912999,173.445313 Z" id="Path" stroke="#000000" stroke-linecap="round" stroke-linejoin="round" transform="translate(118.456369, 198.961789) scale(-1, 1) translate(-118.456369, -198.961789) "></path>
                <path d="M65.9999544,183.40102 C65.9999544,180.975575 67.3451652,180.266334 68.690376,181.833677 C70.0355868,183.40102 70.0355868,185.75095 68.690376,186.124188 C67.3451652,186.497425 65.9999544,185.826464 65.9999544,183.40102 Z" id="Path" stroke="#000000" fill="#FCDE32" fill-rule="nonzero" transform="translate(67.849619, 183.610229) rotate(10.000000) translate(-67.849619, -183.610229) "></path>
                <path d="M65,203.401083 C65,200.975638 66.3452108,200.266397 67.6904216,201.83374 C69.0356324,203.401083 69.0356324,205.751013 67.6904216,206.124251 C66.3452108,206.497488 65,205.826527 65,203.401083 Z M65.1700806,227.778485 C63.7796381,226.505539 64.1107301,224.853917 65.7469262,224.397115 C67.3831222,223.940312 68.7302746,225.173627 68.206561,226.648904 C67.6828473,228.12418 66.5605231,229.051431 65.1700806,227.778485 Z" id="Shape" stroke="#000000" fill="#FCDE32" fill-rule="nonzero"></path>
                <g id="pocket" transform="translate(51.500000, 187.500000) scale(-1, 1) translate(-51.500000, -187.500000) translate(44.000000, 175.000000)" fill-rule="nonzero" stroke="#000000">
                    <path d="M1.00187141,10.7266097 C1.18404679,13.2040551 1.97163056,18.3946042 1.97163056,20.9155128 C1.97163056,23.4364214 3.6205662,25 5.56381133,25 C6.58216857,25 9.35191288,23.4594042 11.7129343,22.5806335 C13.5437517,21.8992043 13,19.2805588 13,16.4369575 C13,13.7803731 11.7390973,9.80313598 11.4348368,8.72232891 C10.9977941,7.16984758 0.819696028,8.24916421 1.00187141,10.7266097 Z" id="Path" fill="#F34D4D"></path>
                    <path d="M7.00999677,13.0778418 C7.28913383,15.8744229 7.68822176,16.4016882 7.68822176,20.054313 C7.68822176,23.7069378 9.15390647,23.2603765 11.5769532,22.4024842 C14,21.5445918 14,19.9392525 14,18.8066945 C14,17.6741366 13.7239472,12.5678432 13.0542913,10.8153767 C12.3846355,9.06291031 6.73085971,10.2812606 7.00999677,13.0778418 Z" id="Path" fill="#F34D4D"></path>
                    <path d="M-5.68434189e-14,5.40679905 C5.76190476,4.41595487 9.42857143,2.94651001 11,0.998464494 C13.9335938,5.87771077 14.9335938,9.30733555 14,11.2873388 C13.029316,11.091479 13.5,9.59250869 12,10.4536074 C11,11.0276731 10.6666667,12.1184954 11,13.7260742 C9.98726111,12.2808867 8.69517738,11.5582929 7.12374881,11.5582929 C5.55232024,11.5582929 3.70154682,12.3721953 1.57142857,14 C0.851793271,9.79659339 0.327983747,6.93219307 -5.68434189e-14,5.40679905 Z" id="Path" fill="#F34D4D" stroke-linejoin="round"></path>
                    <path d="M8,7.29963042 C8,4.97666705 8.45454545,4.29739381 9.90909091,5.79851212 C11.3636364,7.29963042 11.3636364,9.55027049 9.90909091,9.90773746 C8.45454545,10.2652044 8,9.6225938 8,7.29963042 Z" id="Path" fill="#FCDE32"></path>
                </g>
                <g id="pocket" transform="translate(84.754869, 196.167927) scale(-1, 1) rotate(7.000000) translate(-84.754869, -196.167927) translate(71.254869, 183.167927)" fill-rule="nonzero" stroke="#000000">
                    <path d="M2.6588311,9.41062993 C2.97745628,12.2513047 4.00144794,17.9784115 4.00144794,21.6886271 C4.00144794,25.3988427 7.39648838,25.4664705 10.1623114,24.2303443 C12.2792074,23.2842424 21.2785811,21.6886271 24.9168165,20.2592941 C26.0743867,19.8045261 26.7860839,18.0528079 26.6353206,16.8829123 C26.2442124,13.8479858 25.4646036,8.99257234 24.9128886,7.70774624 C24.1484999,5.92764871 2.34020592,6.56995517 2.6588311,9.41062993 Z" id="Path" fill="#F34D4D"></path>
                    <path d="M1.63893552,9.76328151 C1.96151644,12.4857197 2.99822096,17.9744487 2.99822096,21.530235 C2.99822096,25.0860214 6.55879322,26.102068 9.35895397,24.9173928 C10.2750775,24.5298047 12.4418523,23.8546641 14.9103724,23.101633 C18.2167025,22.093025 16.7524118,6.95286929 10.6711303,7.398937 C5.79149218,7.75686304 1.4953273,8.5512926 1.63893552,9.76328151 Z" id="Path" fill="#DC3D4F"></path>
                    <path d="M11.7202794,12.3777818 C12.0392932,15.8197278 12.4953937,16.4686697 12.4953937,20.9642079 C12.4953937,25.4597461 14.1704619,24.9101323 16.9396582,23.8542648 C19.7088545,22.7983973 19.7088545,20.822595 19.7088545,19.4286775 C19.7088545,18.0347601 19.3933656,11.7500912 18.6280446,9.59320948 C17.8627236,7.43632772 11.4012656,8.93583583 11.7202794,12.3777818 Z" id="Path" fill="#F34D4D"></path>
                    <path d="M0.501341854,3.85797116 C6.32670013,3.14270711 13.5508035,2.13408461 22.173652,0.832103682 C24.3201098,5.40372146 25.6176326,8.68736865 26.0662204,10.6830453 C23.8302187,10.9575917 21.6618223,9.49918088 19.3732112,10.4411902 C17.8474705,11.0691963 16.987843,12.443142 16.7943288,14.5630271 C14.3469171,13.2550985 12.2303541,12.6011342 10.4446398,12.6011342 C8.65892548,12.6011342 5.98035405,13.6806086 2.40892548,15.8395575 C1.65193062,9.67432909 1.01606941,5.68046697 0.501341854,3.85797116 Z" id="Path" fill="#F34D4D" stroke-linejoin="round"></path>
                    <path d="M12.6120304,7.41631002 C12.6120304,4.62875397 14.0665759,3.81362609 15.5211213,5.61496805 C16.9756668,7.41631002 16.9756668,10.1170781 15.5211213,10.5460385 C14.0665759,10.9749988 12.6120304,10.2038661 12.6120304,7.41631002 Z" id="Path" fill="#FCDE32"></path>
                </g>
                <g id="Group" transform="translate(43.000000, 156.000000)">
                    <path d="M130.444444,40 C121,47 96.138258,56.8609363 80.4444444,59 C56.6269783,62.246316 30.1301654,58.5072682 26.4444444,57.6498885 C17.4444444,55.5562906 11.4444444,52.7434864 6.44444444,50 C6.44444444,52.3224359 5.44444444,54.1495843 6.44444444,58.7434864 C8.15899583,61.8397185 15.5548088,63.2684419 27.4849755,66.1757479 C43.3875511,70.0511047 62.144625,69.2519148 66.4444444,69 C80.9793787,68.1484375 92.4762309,66.0679754 108.444444,61 C119,57.6498885 129.27452,51.6365862 132.444444,49 C133.444444,45.916338 132.444444,38.2271527 130.444444,40 Z" id="Path" stroke="#000000" fill="#AA6535" fill-rule="nonzero" stroke-linecap="round" stroke-linejoin="round"></path>
                    <path d="M130.444444,40 C129.843864,40.4451358 129.18094,40.9018407 128.461993,41.3673932 C127.334563,42.0974583 130,48.5602391 127.31116,50.2205836 C115.363863,57.5979749 94.5787993,64.1364864 81.447974,65.9262153 C76.4144534,66.6122832 70.2611061,67.7216749 65.2286048,67.459402 C63.7553064,67.3826198 62.2923653,65.2739836 60.8458202,65.1386373 C57.6274346,64.8375083 54.4902106,64.4041621 51.5006549,63.895251 C50.7132393,63.7612095 51.112583,67.5438342 50.170356,67.478435 C43.2773944,67 35.6183962,65.847781 28.8392405,63.7712694 C26.3212891,63 25.0443221,61 25.4444444,57.6498885 C25.7979252,54.6902938 8,58.9721541 9.44444444,51 C9.44444444,53.3224359 5.44444444,54.1495843 6.44444444,58.7434864 C8.15899583,61.8397185 15.5548088,63.2684419 27.4849755,66.1757479 C43.3875511,70.0511047 62.144625,69.2519148 66.4444444,69 C80.9793787,68.1484375 92.4762309,66.0679754 108.444444,61 C119,57.6498885 129.27452,51.6365862 132.444444,49 C133.444444,45.916338 132.444444,38.2271527 130.444444,40 Z" id="Path" fill="#88491E" fill-rule="nonzero"></path>
                    <path d="M130.444444,40 C121,47 96.138258,56.8609363 80.4444444,59 C56.6269783,62.246316 30.1301654,58.5072682 26.4444444,57.6498885 C17.4444444,55.5562906 11.4444444,52.7434864 6.44444444,50 C6.44444444,52.3224359 5.44444444,54.1495843 6.44444444,58.7434864 C8.15899583,61.8397185 15.5548088,63.2684419 27.4849755,66.1757479 C43.3875511,70.0511047 62.144625,69.2519148 66.4444444,69 C80.9793787,68.1484375 92.4762309,66.0679754 108.444444,61 C119,57.6498885 129.27452,51.6365862 132.444444,49 C133.444444,45.916338 132.444444,38.2271527 130.444444,40 Z" id="Path" stroke="#000000" stroke-linecap="round" stroke-linejoin="round"></path>
                    <path d="M52.7449032,57.2133651 C54.4898065,57.1804141 57.0866872,57 58.9157952,57 C58.9157952,57 60.9157952,56.622604 60.9157952,60.0602391 C60.9157952,63.4978742 60.9157952,68.9262153 59.9157952,70.3530135 C58.9157952,71.7798117 55.4157952,70.7759996 53.4157952,71 C51.4157952,71.2240004 51.9157952,66.2821989 51.9157952,63.4721541 C51.9157952,60.6621094 51,57.246316 52.7449032,57.2133651 Z" id="Path" stroke="#000000" fill="#AA6535" fill-rule="nonzero"></path>
                    <g id="Shape" transform="translate(11.000000, 52.000000)" fill="#FCDE32" fill-rule="nonzero" stroke="#000000">
                        <path d="M4.59960937,0.356199159 C7,0.470120641 9.39891947,1.11392148 11.3989195,2 C13.3989195,2.88607852 13.5996094,2.70761303 13.5996094,5.88373179 C13.5996094,9.05985055 13.5996094,11.1690443 13.5996094,12.93267 C13.5996094,14.6962957 13.457007,15.6621094 10.457007,15.6621094 C7.45700698,15.6621094 6.19921875,14.6393878 4.59960937,14.3196939 C3,14 1.59960937,13.4256222 1.59960937,10.93267 C1.59960937,8.43971775 1.59960937,5.447931 1.59960937,3.88373179 C1.59960937,2.31953258 2.19921875,0.242277678 4.59960937,0.356199159 Z M5.50802438,3 C2.08565156,2.62260399 3.44458008,3.67937874 3.44458008,4.8105284 C3.44458008,5.94167806 3.44458008,6.82833611 3.44458008,8.63111292 C3.44458008,10.4338897 4,12 5,12 C6,12 7,12.55287 9,12.9262153 C11,13.2995605 11.0901699,11.7475189 11.0901699,10.4721541 C11.0901699,9.1967893 11.0901699,9.94960241 11.0901699,7.65279416 C11.0901699,5.35598591 11.0258609,5 9.97853323,4.5 C8.93120552,4 8.9303972,3.37739601 5.50802438,3 Z"></path>
                        <path d="M4.00054496,4.5 C5.50054496,4.5 6.59960938,4.4947853 6.59960938,5.57844734 C6.59960938,6.66210937 5.59960938,6.66210937 5.59960938,6.66210937 C5.59960938,6.66210937 2,6.29930255 2,6.29930255 C2,6.29930255 -2.5313085e-14,6.01603084 -2.5313085e-14,5.01603084 C-2.5313085e-14,4.01603084 2.50054496,4.5 4.00054496,4.5 Z M5,8.29956055 C6.5,8.29956055 7,8.80786921 7,9.89153124 C7,10.9751933 6,10.9751933 6,10.9751933 C6,10.9751933 3.06656564,10.4747723 1.64805055,10.3619559 C-0.188424571,10.2158985 -0.188424571,8.29956055 1,8.13536666 C2.18842457,7.97117278 3.5,8.29956055 5,8.29956055 Z"></path>
                    </g>
                    <g id="Path" transform="translate(3.000000, 0.000000)" fill-rule="nonzero" stroke="#000000">
                        <path d="M1.74863664,10.494297 C9.95048419,10.494297 13.6634158,5.26665265 17.8697692,0.146090106 C18.7022957,4.21513425 18.7022957,8.54980212 17.5320848,13.9586717 C12.2133787,18.0596867 10.5120509,19.9672365 0.970994023,21.3897802 C0.970994023,16.5975882 1.74863664,15.1222171 1.74863664,10.494297 Z" fill="#1D487A" stroke-linecap="round" stroke-linejoin="round" transform="translate(9.714156, 10.767935) scale(-1, 1) translate(-9.714156, -10.767935) "></path>
                        <path d="M18.6775756,12.7075539 C30.3076543,12.7075539 47.7501976,10.4454195 62.8961787,6.04033061 C67.1252982,6.04033061 70.2971378,7.2385699 72.4116976,9.38053335 C72.4116976,11.5506347 69.6152399,14.0670249 67.0381424,16.1695774 C48.9640178,21.4265899 35.5155196,25.610557 18.7185449,24.1240155 C18.7185449,19.3318235 18.6775756,17.335474 18.6775756,12.7075539 Z" fill="#1D487A" stroke-linecap="round" stroke-linejoin="round" transform="translate(45.544637, 15.233951) rotate(5.000000) translate(-45.544637, -15.233951) "></path>
                        <path d="M7.59960938,13.9986647 C7.59960938,11.708146 8.04405382,11.7499209 8.93294271,10.5466203 C9.8218316,9.34331971 11.5996094,10.9973293 11.5996094,13.9986647 C11.5996094,17 10.266276,17 9.59960938,17 C8.93294271,17 7.59960938,16.2891833 7.59960938,13.9986647 Z" fill="#FCDE32"></path>
                        <path d="M27.0145839,16.9221906 C27.0145839,13.9627965 27.6812506,14.0167704 29.0145839,12.4620829 C30.3479173,10.9073954 33.0145839,13.0444077 33.0145839,16.9221906 C33.0145839,20.7999736 31.0145839,20.7999736 30.0145839,20.7999736 C29.0145839,20.7999736 27.0145839,19.8815848 27.0145839,16.9221906 Z" fill="#FCDE32" transform="translate(30.014584, 16.375541) scale(-1, 1) rotate(4.000000) translate(-30.014584, -16.375541) "></path>
                    </g>
                    <path d="M6,48.8566783 C6.71902971,45.82 20.2101374,36.3725076 33.7439372,26.9973623 C47.2777369,17.6222171 66.7924442,14.1345546 80.447974,11.9558423 C95.5283279,9.54980212 126.379936,9.37558089 127,9.37558089 C128.999865,9.37558089 130.125373,15.8880996 127.31116,15.9246095 C121.5,16 96,14.5498021 81,17.5554689 C66,20.5611356 52.3735378,22.3897802 37.9897859,30.948985 C28.3747242,36.67053 9.87625119,50.5892633 6,54.7964392 C5.14081421,55.7289757 5.77749294,49.7963924 6,48.8566783 Z" id="Path" stroke="#000000" fill="#AA6535" fill-rule="nonzero"></path>
                    <path d="M9.15601336,45.0138004 C9.81157543,48 10.1560134,49.8744743 11.1560134,50.8744743 C11.9668206,51.6852815 12.6518347,51.3331455 13.4470616,50.8351652 C13.9671397,50.5094863 16.000545,48.7402391 15.000545,47 C14.8273311,46.6985665 13.3735559,48.8027703 13,48.4587665 C12.1977833,47.7200134 11.2667229,44.4084132 11.1560134,43 C11.1149997,42.4782363 12.1427376,42.3396555 13,41.6015962 C12.3506733,40.5296151 11.1560134,41 9.81157543,41.9861996 C9.06544396,42.5335172 8.82874239,43.5230241 9.15601336,45.0138004 Z" id="Path" stroke="#000000" fill="#AA6535" fill-rule="nonzero"></path>
                    <g id="bag" transform="translate(0.000000, 45.000000)" stroke="#000000">
                        <path d="M1.1700806,6.77848501 C-0.220361914,5.50553885 0.110730053,3.85391727 1.74692615,3.39711482 C3.38312225,2.94031237 4.73027463,4.17362654 4.20656097,5.6489035 C3.68284731,7.12418047 2.56052311,8.05143118 1.1700806,6.77848501 Z" id="Path" fill="#FCDE32" fill-rule="nonzero"></path>
                        <path d="M3.0085722,6.29600865 C3.0085722,10.3082685 3.0085722,14.0474073 3.0085722,14.7228108 C3.0085722,15.3982144 3.50670945,16.7609967 5.00112118,16.7609967 C6.49553291,16.7609967 7.98994464,17.8516568 7.98994464,15.3732316 C7.98994464,12.8948063 7.98994464,5.23581083 7.98994464,3.54910801 C7.98994464,1.6145138 8.19871181,0.53745206 6.71374662,0.227162562 C5.58705089,-0.00826507947 5.97219703,3.60216131e-05 4.65806066,3.60216131e-05 C2.78203713,3.60216131e-05 3.0085722,2.28374878 3.0085722,6.29600865 Z" id="Path" fill="#88491E" fill-rule="nonzero"></path>
                        <path d="M8,4.57166087 L3,4.42833913" id="Path"></path>
                    </g>
                    <path d="M43.1591499,19.3166655 C44.1591499,18.963652 45.1591499,18.3052971 47.1591499,21.3166655 C49.1591499,24.3280338 51.1591499,25.3166655 51.1591499,26.3166655 C51.1591499,27.3166655 46.1591499,29.8092974 45.1591499,30.5629814 C44.1591499,31.3166655 42.1591499,31.615968 41.1591499,29.3166655 C40.8119114,28.9266619 41.1591499,29.3166655 43.1591499,28.3166655 C43.5930342,29.3166655 43.5930342,29.5848338 44.5930342,29.3166655 C46.1591499,28.3166655 49.0262641,27.1837797 48.1591499,26.3166655 C47.1591499,25.3166655 46.1591499,24.3166655 46.1591499,24.3166655 C46.1591499,24.3166655 45.1591499,25.3166655 44.1591499,25.3166655 C43.1591499,25.3166655 44.1591499,23.8181295 45.1591499,23.0673975 C45.0795749,22.3166655 44.5930342,22.3166655 44.1591499,21.3052971 C43.8698937,20.6310515 42.203227,21.3015076 39.1591499,23.3166655 C38.1591499,22.0284699 42.1591499,19.6696789 43.1591499,19.3166655 Z" id="Path" stroke="#000000" fill="#FCDE32" fill-rule="nonzero" stroke-linejoin="round"></path>
                </g>
                <g id="sleeve" transform="translate(121.347430, 172.751769) scale(-1, 1) rotate(-77.000000) translate(-121.347430, -172.751769) translate(95.347430, 142.251769)">
                    <path d="M39.1324009,33.3993418 C37.3556861,37.4906894 29.2552363,45.9217741 27.4785215,50.7443413 C25.7018067,55.5669086 29.6762006,59.7920805 34.1179875,55.8303405 C38.5597745,51.8686004 45.5636855,41.3228218 46.4520429,39.3419518" id="Path" stroke="#000000" fill="#F3D4B7" fill-rule="nonzero" stroke-linecap="round" stroke-linejoin="round" transform="translate(36.748499, 45.399342) scale(-1, 1) rotate(33.000000) translate(-36.748499, -45.399342) "></path>
                    <path d="M21.0321625,2.9060996 C16.6237137,20.3346541 6.07606827,41.0230748 4.74273494,42.7870904 C12.0760683,50.9864208 13.4337168,54.826022 14.7670502,55.7619036 C15.7159493,56.4279465 18.6852964,54.429799 21.5442908,52.1369362 C24.711215,49.5971192 27.742735,46.6956831 27.742735,46.6531424 C27.742735,46.60932 28.841845,44.9606551 31.040065,41.7071473 C31.5487621,40.9542428 35.1322525,38.4489294 37.2806481,38.1310606" id="Path" stroke="#000000" fill="#F34D4D" fill-rule="nonzero" stroke-linecap="round" stroke-linejoin="round" transform="translate(21.011691, 29.398974) scale(-1, 1) rotate(10.000000) translate(-21.011691, -29.398974) "></path>
                    <path d="M7.8921764,34.3384496 C12.0296678,36.6826423 14.7997906,39.6556155 16.9263514,41.9076194 C19.0529122,44.1596232 22,46.0533886 25,48.5 C28,50.9466114 30,51.5437519 35,46.4536074 C35.1304389,46.3208167 35.2540721,46.2095376 35.3710417,46.1186335 C33.0928121,51.240069 32.8033964,53.3033986 31.9466486,54.1621059 C30.7641427,55.3473164 26.8269432,53.4655489 23.2456987,51.7236104 C23.0019275,51.6050386 15.9529575,50.6873078 15.7441299,50.566414 C10.7885505,47.6975455 8.67427393,48.4691777 4.53704816,44.201706 C2.5380534,42.6183284 1.35577677,41.3680849 0.990218276,40.4509756 C0.650202817,39.5979484 0.855921024,38.3405629 1.60737289,36.678819 C2.81087893,34.1569273 5.5396273,32.7770222 7.8921764,34.3384496 Z" id="Path" fill="#DC3D4F" fill-rule="nonzero"></path>
                    <path d="M12.2396586,14.2726501 C9.80416851,18.4422897 8.50805665,30.1082979 9.18480167,35.4308128 C7.82945254,39.3670324 7.07051196,40.9360723 5.73717863,42.7000879 C13.0705119,50.8994183 14.4281604,54.7390195 15.7614938,55.6749011 C16.7103929,56.340944 19.6797401,54.3427964 22.5387344,52.0499337 C25.7056586,49.5101167 27.6380686,48.2586272 28.7371786,46.5661399 C29.8362886,44.8736526 29.8362886,44.8736526 32.0345086,41.6201448 C32.5432057,40.8672403 36.1266961,38.3619269 38.2750917,38.0440581" id="Path-Copy" stroke="#000000" stroke-linecap="round" stroke-linejoin="round" transform="translate(22.006135, 35.038748) scale(-1, 1) rotate(10.000000) translate(-22.006135, -35.038748) "></path>
                    <g id="Group-2" transform="translate(27.376673, 18.599155) rotate(6.000000) translate(-27.376673, -18.599155) translate(17.376673, 6.599155)" fill-rule="nonzero" stroke="#000000">
                        <path d="M3.4555336,5.85168283 C7.7310033,7.58805988 10.3856019,7.30688632 14.6895221,8.87908149 C23.1388877,11.965582 20.0979521,20.0273315 14.2371913,18.5301127 C3.5762191,15.8066084 0.103507205,15.0018363 0.0361866341,14.2024644 C-0.235057755,10.9816785 1.59704141,8.42021669 3.4555336,5.85168283 Z" id="Path" fill="#1D487A" stroke-linecap="round" stroke-linejoin="round" transform="translate(9.958549, 12.282684) scale(-1, 1) rotate(-73.000000) translate(-9.958549, -12.282684) "></path>
                        <path d="M1.82268618,3.47597427 C1.82268618,1.27609637 3.51775092,0.632815382 5.21281572,2.05439483 C6.90788052,3.47597427 6.90788052,5.60736102 5.21281572,5.9458871 C3.51775092,6.28441317 1.82268618,5.67585217 1.82268618,3.47597427 Z" id="Path" fill="#E8DB54" transform="translate(4.153400, 3.665727) scale(-1, 1) rotate(90.000000) translate(-4.153400, -3.665727) "></path>
                    </g>
                </g>
                <g id="ear" stroke-linecap="round" stroke-linejoin="round" transform="translate(154.000000, 66.000000)" stroke="#000000">
                    <path d="M6.79328906,4.23140765 C3.75223155,10.6853277 4.26726962,14.2192906 4.26726962,18.4299138 C4.26726962,22.6405371 10.2579907,26.2319099 15.3264198,21.3805139 C20.394849,16.5291179 19.5677684,5.15793402 20.5814543,2.73223603" id="Path" fill="#4AAED9" fill-rule="nonzero" transform="translate(12.407876, 13.220373) rotate(-149.000000) translate(-12.407876, -13.220373) "></path>
                    <path d="M16,14 C12,16 8.66666667,18.3333333 6,21" id="Path"></path>
                </g>
            </g>
            <g id="gopher-mountie" transform="translate(0.783203, 14.675781)">
                <path d="M49.3332223,216.754658 C46.4838825,222.075947 46.0704065,225.635397 46.0704065,229.107077 C46.0704065,232.578757 48.7914989,236.107077 53.5403985,232.107077 C58.2892982,228.107077 58.4175456,220.107077 59.3673255,218.107077" id="leg-2" stroke="#000000" fill="#F3D4B7" fill-rule="nonzero" stroke-linecap="round" stroke-linejoin="round" transform="translate(52.718866, 225.318915) rotate(28.000000) translate(-52.718866, -225.318915) "></path>
                <path d="M144.715057,216.754658 C141.865718,222.075947 141.452242,225.635397 141.452242,229.107077 C141.452242,232.578757 144.173334,236.107077 148.922234,232.107077 C153.671133,228.107077 153.799381,220.107077 154.749161,218.107077" id="leg-" stroke="#000000" fill="#F3D4B7" fill-rule="nonzero" stroke-linecap="round" stroke-linejoin="round" transform="translate(148.100702, 225.318916) scale(-1, 1) rotate(18.000000) translate(-148.100702, -225.318916) "></path>
                <g id="ear" stroke-linecap="round" stroke-linejoin="round" transform="translate(151.829108, 27.985368)" fill-rule="nonzero" stroke="#000000">
                    <path d="M7.95689165,6.49417689 C4.21322555,14.5423815 4.18655876,15.875623 4.21135399,21.138062 C4.23614922,26.400501 14.4513996,31.6085367 20.7256169,25.5751062 C26.9998341,19.5416758 26.5923128,8.41163394 27.8385857,5.38596471" id="Path" fill="#FEEA64" transform="translate(16.023373, 16.833194) rotate(-149.000000) translate(-16.023373, -16.833194) "></path>
                    <path d="M10.2710464,26.8290847 C9.49443984,27.221565 11.2710464,25.5508594 16.2710464,23.1899721 C21.2710464,20.8290847 23.2710464,16.8290847 15.7640617,17.8141412 C13.1573859,18.1561857 10.3826987,20.3248436 7.44,24.3201149" id="Path" fill="#FCDE32"></path>
                </g>
                <g id="ear-copy" stroke-linecap="round" stroke-linejoin="round" transform="translate(46.776906, 47.033921) scale(-1, 1) translate(-46.776906, -47.033921) translate(30.276906, 31.533921)" fill-rule="nonzero" stroke="#000000">
                    <path d="M12.9669139,7.23581703 C9.2232477,15.2840216 3.19272133,14.3915789 3.21751656,19.6540179 C3.24231179,24.9164569 16.0290641,28.5793784 22.3032814,22.5459479 C28.5774987,16.5125174 28.000757,8.9840537 29.2470299,5.95838448" id="ear" fill="#FEEA64" transform="translate(16.232235, 15.814701) rotate(-149.000000) translate(-16.232235, -15.814701) "></path>
                    <path d="M10.2710464,21.8290847 C9.49443984,22.221565 9.27104637,20.2674578 16.2710464,18.1899721 C23.2710464,16.1124864 23.2710464,12.8290847 15.7640617,13.8141412 C13.1573859,14.1561857 10.3826987,16.6581769 7.44,21.3201149" id="Path" fill="#FCDE32"></path>
                </g>
                <g id="body" transform="translate(40.000000, 39.000000)">
                    <path d="M16.5996094,19.1308594 C6.86958299,29.4014428 0.175103103,40.5620427 0.175103103,55.7727424 C0.175103103,80.817076 2.55116896,83.3609558 7.58006199,91.0650732 C8.03907179,93.1845947 8.37092399,95.7424818 8.50332946,99.0513743 C8.67489868,103.338992 5.31250349,109.588075 4.68951904,113.739309 C2.74577761,126.691357 1.26527789,138.690874 2.55116896,147.936336 C4.89053958,164.756239 9.2325288,176.257124 18.5033295,182.051374 C34.5033295,192.051374 61.5033295,194.051374 83.5033295,189.051374 C105.503329,184.051374 108.599609,180.594847 113.503329,175.775375 C118.40705,170.955903 127.503329,154.051374 125.503329,136.051374 C123.503329,118.051374 122.599609,111.75664 124.599609,94.6771554 C128.503329,89.6621094 131.952322,81.4683017 133.405902,74.6314051 C137.495108,55.3978693 137.495108,42.426503 128.503329,32.0513743 C115.503329,17.0513743 111.637908,5.13085937 88.5996094,2.13085937 C65.5613107,-0.869140625 34.5996094,0.130859375 16.5996094,19.1308594 Z" id="Path" stroke="#000000" fill="#FEEA64" fill-rule="nonzero"></path>
                    <path d="M20.5068865,15.4478226 C28.3369569,13.3645442 40.8112318,10.4202313 45,8.74083134 C51,6.33525549 94,8.66805516 96,8.66805516 C96.8424134,8.66805516 102.65245,9.25919247 109.170588,9.87969744 C116.322846,15.3882775 120.816038,23.1814221 128.503329,32.0513743 C137.495108,42.426503 137.495108,55.3978693 133.405902,74.6314051 C131.952322,81.4683017 128.503329,89.6621094 124.599609,94.6771554 C123.894312,100.700217 123.550124,105.382073 123.48778,109.709044 C108.966758,112.68143 92.2379241,114.781645 81,115.475462 C58,116.895454 15,97.4246095 17,97.4246095 C19,97.4246095 35,100.703839 49,102 C63,103.296161 96.9559462,103.5 113,92.5 C120.913808,87.0741962 125.563969,80.4707019 127.403525,74.0730673 C127.645784,73.2305359 123.108671,76.1790034 119.269108,76.6484375 C113.607883,77.3405923 106.076391,76.7464994 99.1311403,75 C92.0934728,73.2302608 82.9038012,61.8431682 82.9038012,56.2333984 C82.9038012,53.2915928 128.642475,58.7857742 129,56.5072724 C130.436102,47.3550247 120,29.406586 104,21.1709153 C88,12.9352446 43,18.8435416 32,22.6853552 C31.4521313,22.8767015 45.9012457,26.2595872 53.1317652,38.3017746 C56.0543951,43.1693166 56.5785696,49.4832207 56,58.2982102 C55.1006865,72 39,81.5 31,81.5 C28.1937837,81.5 8.51899994,81.5399416 2.82794954,65.0970165 C0.962226195,59.7064564 3.68624302,46.8359071 11,26.4853684 C11.0471196,26.1252887 11.0959043,25.7756893 11.1463543,25.4365701 C12.8226425,23.281999 14.6502026,21.1885666 16.5996094,19.1308594 C17.8425254,17.8188924 19.1472432,16.59275 20.5068865,15.4478226 Z M123.491425,156.643194 C120.825955,165.757039 116.422013,172.906835 113.503329,175.775375 C108.599609,180.594847 105.503329,184.051374 83.5033295,189.051374 C61.5033295,194.051374 34.5033295,192.051374 18.5033295,182.051374 C10.8282917,177.254476 6.53132486,168.546408 3.95210514,156.147105 C6.15643141,156.190053 9.11341584,156.557704 12.6035815,156.557704 C23.3895919,156.557704 49.0019524,160.299561 56.1599769,159.000322 C63.3180014,157.701084 110,153.972154 121.074518,155.662109 C122.045432,155.810269 122.849126,156.146418 123.491425,156.643194 Z M58,66.3609558 C60,63.7219116 77.4849282,63.0970165 81,64.3824524 C84.5150718,65.6678882 84.9038012,71.6746232 83.9038012,74.5873116 C82.9038012,77.5 82.5996094,77.6484375 80.7132808,77.6484375 C78.8269522,77.6484375 79.7132808,84.218171 79.7132808,87.5 C79.7132808,90.781829 76.8667184,90.6621094 75,90.6621094 C73.1332816,90.6621094 71.5996094,89.718171 69.6877842,87.5 C68.4132341,86.0212193 68.8373914,82.9664516 70.9602563,78.3356968 C68.0531583,79.4452323 66.499349,80 66.2988281,80 C65.9980469,80 59.8081641,80 57.1599769,78.4290695 C54.5117897,76.8581391 56,69 58,66.3609558 Z" id="shadow" fill="#FCDE32" fill-rule="nonzero"></path>
                    <path d="M16.5996094,19.1308594 C6.86958299,29.4014428 0.175103103,40.5620427 0.175103103,55.7727424 C0.175103103,80.817076 2.55116896,83.3609558 7.58006199,91.0650732 C8.03907179,93.1845947 8.37092399,95.7424818 8.50332946,99.0513743 C8.67489868,103.338992 5.31250349,109.588075 4.68951904,113.739309 C2.74577761,126.691357 1.26527789,138.690874 2.55116896,147.936336 C4.89053958,164.756239 9.2325288,176.257124 18.5033295,182.051374 C34.5033295,192.051374 61.5033295,194.051374 83.5033295,189.051374 C105.503329,184.051374 108.599609,180.594847 113.503329,175.775375 C118.40705,170.955903 127.503329,154.051374 125.503329,136.051374 C123.503329,118.051374 122.599609,111.75664 124.599609,94.6771554 C128.503329,89.6621094 131.952322,81.4683017 133.405902,74.6314051 C137.495108,55.3978693 137.495108,42.426503 128.503329,32.0513743 C115.503329,17.0513743 111.637908,5.13085937 88.5996094,2.13085937 C65.5613107,-0.869140625 34.5996094,0.130859375 16.5996094,19.1308594 Z" id="body-over-shadow" stroke="#000000"></path>
                </g>
                <g id="pants" transform="translate(42.000000, 186.000000)">
                    <path d="M0.216796875,2.07496372 C0.216796875,6.68041787 4.21679688,21.1851057 5.21679687,25.3242188 C5.88346354,28.0836274 5.88346354,30.9358521 5.21679687,33.8808929 C11.8834635,40.8431101 15.5501302,44.3242188 16.2167969,44.3242188 C16.8834635,44.3242188 18.8834635,42.9908854 22.2167969,40.3242188 C30.8834635,42.3515233 39.2167969,43.6848566 47.2167969,44.3242188 C59.2167969,45.283262 84.2167969,43.3242188 87.2167969,42.3242188 C89.2167969,41.6575521 92.2167969,41.9908854 96.2167969,43.3242188 C106.216797,40.0855461 111.883464,37.7758779 113.216797,36.3952142 C115.216797,34.3242188 114.216797,30.1851058 114.216797,29.3242188 C114.216797,28.4633318 122.216797,10.4245539 122.216797,6.68041787 C122.216797,2.93628186 0.216796875,-2.53049044 0.216796875,2.07496372 Z" id="Path-4" stroke="#000000" fill="#4AAED9" fill-rule="nonzero" stroke-linejoin="round"></path>
                    <path d="M27.2167969,33.8808929 C16.2167969,26.5339758 12.2167969,31.3242188 5.21679687,25.3242188 C5.88346354,28.0836274 5.88346354,30.9358521 5.21679687,33.8808929 C11.8834635,40.8431101 15.5501302,44.3242188 16.2167969,44.3242188 C16.8834635,44.3242188 18.8834635,42.9908854 22.2167969,40.3242188 C30.8834635,42.3515233 39.2167969,43.6848566 47.2167969,44.3242188 C59.2167969,45.283262 84.2167969,43.3242188 87.2167969,42.3242188 C89.2167969,41.6575521 92.2167969,41.9908854 96.2167969,43.3242188 C106.216797,40.0855461 111.883464,37.7758779 113.216797,36.3952142 C115.216797,34.3242188 114.216797,31.1851058 114.216797,30.3242188 C114.216797,29.4633318 122.216797,10.4245539 122.216797,6.68041787 C122.216797,6.41176762 3.42294839,8.60403776 2.12098883,10.2463067 C1.35383777,11.2139775 13.4191267,20.297654 28.4751132,25.2986195 C37.0253282,28.1386414 46.5400564,28.6294843 55.2167969,29.6358623 C59.4873842,30.1311894 71.7216797,32.3242187 102.216797,25.5659801 C89.1490914,40.7460966 35.391407,39.3407277 27.2167969,33.8808929 Z" id="Path-4-Copy" fill="#379DC9" fill-rule="nonzero"></path>
                    <path d="M0.216796875,2.07496372 C0.216796875,6.68041787 4.21679688,21.1851057 5.21679687,25.3242188 C5.88346354,28.0836274 5.88346354,30.9358521 5.21679687,33.8808929 C11.8834635,40.8431101 15.5501302,44.3242188 16.2167969,44.3242188 C16.8834635,44.3242188 18.8834635,42.9908854 22.2167969,40.3242188 C30.8834635,42.3515233 39.2167969,43.6848566 47.2167969,44.3242188 C59.2167969,45.283262 84.2167969,43.3242188 87.2167969,42.3242188 C89.2167969,41.6575521 92.2167969,41.9908854 96.2167969,43.3242188 C106.216797,40.0855461 111.883464,37.7758779 113.216797,36.3952142 C115.216797,34.3242188 114.216797,30.1851058 114.216797,29.3242188 C114.216797,28.4633318 122.216797,10.4245539 122.216797,6.68041787 C122.216797,2.93628186 0.216796875,-2.53049044 0.216796875,2.07496372 Z" id="Path-4-Copy-2" stroke="#000000" stroke-linejoin="round"></path>
                </g>
                <g id="hat" transform="translate(16.000000, 0.000000)">
                    <path d="M30.2167969,56.4325331 C33.2167969,39.4324804 34.2167969,20.8951615 39.2167969,14.5787032 C44.2167969,8.26224493 71.2167969,0.32421875 92.2167969,0.32421875 C113.216797,0.32421875 139.216797,4.21635475 146.216797,14.5787032 C153.216797,24.9410517 156.216797,43.5607778 159.216797,54.9424983 C162.216797,66.3242187 171.216797,103.324219 180.216797,112.324219 C189.216797,121.324219 194.216797,129.393719 187.216797,129.393719 C180.216797,129.393719 173.216797,129.427955 170.216797,120.881359 C167.216797,112.334763 153.216797,79.2855795 150.216797,72.3242188 C147.216797,65.362858 150.216797,53.8611481 141.216797,48.3242187 C132.216797,42.7872894 85.2167969,40.7164392 75.2167969,42.7872894 C65.2167969,44.8581396 56.2167969,55.2531473 46.2167969,65.362858 C36.2167969,75.4725686 25.2167969,92.3248251 19.2167969,98.3245219 C13.2167969,104.324219 7.21679688,124.665835 7.21679688,125.881359 C7.21679688,127.096883 -3.78320312,121.97122 3.21679688,106.495006 C10.2167969,91.0187917 27.2167969,73.4325859 30.2167969,56.4325331 Z" id="Path-7" stroke="#000000" fill="#F34D4D" fill-rule="nonzero"></path>
                    <path d="M35.2167969,56.9424983 C38.2167969,39.9424455 42.2167969,28.8951615 47.2167969,22.5787032 C52.2167969,16.2622449 109.216797,25.9410517 130.216797,25.9410517 C151.216797,25.9410517 139.216797,4.21635475 146.216797,14.5787032 C153.216797,24.9410517 156.216797,43.5607778 159.216797,54.9424983 C162.216797,66.3242187 171.216797,103.324219 180.216797,112.324219 C189.216797,121.324219 194.216797,129.393719 187.216797,129.393719 C180.216797,129.393719 173.216797,129.427955 170.216797,120.881359 C167.216797,112.334763 153.216797,79.2855795 150.216797,72.3242187 C147.216797,65.362858 150.216797,53.8611481 141.216797,48.3242187 C132.216797,42.7872894 85.2167969,40.7164392 75.2167969,42.7872894 C65.2167969,44.8581396 56.2167969,55.2531473 46.2167969,65.362858 C36.2167969,75.4725686 25.2167969,92.3248251 19.2167969,98.3245219 C13.2167969,104.324219 7.21679687,124.665835 7.21679687,125.881359 C7.21679687,127.096883 4.21679687,123.97122 11.2167969,108.495006 C18.2167969,93.0187917 32.2167969,73.942551 35.2167969,56.9424983 Z" id="Path-7-Copy" fill="#DC3D4F" fill-rule="nonzero"></path>
                    <path d="M30.2167969,56.4325331 C33.2167969,39.4324804 34.2167969,20.8951615 39.2167969,14.5787032 C44.2167969,8.26224493 71.2167969,0.32421875 92.2167969,0.32421875 C113.216797,0.32421875 139.216797,4.21635475 146.216797,14.5787032 C153.216797,24.9410517 156.216797,43.5607778 159.216797,54.9424983 C162.216797,66.3242187 171.216797,103.324219 180.216797,112.324219 C189.216797,121.324219 194.216797,129.393719 187.216797,129.393719 C180.216797,129.393719 173.216797,129.427955 170.216797,120.881359 C167.216797,112.334763 153.216797,79.2855795 150.216797,72.3242188 C147.216797,65.362858 150.216797,53.8611481 141.216797,48.3242187 C132.216797,42.7872894 85.2167969,40.7164392 75.2167969,42.7872894 C65.2167969,44.8581396 56.2167969,55.2531473 46.2167969,65.362858 C36.2167969,75.4725686 25.2167969,92.3248251 19.2167969,98.3245219 C13.2167969,104.324219 7.21679688,124.665835 7.21679688,125.881359 C7.21679688,127.096883 -3.78320312,121.97122 3.21679688,106.495006 C10.2167969,91.0187917 27.2167969,73.4325859 30.2167969,56.4325331 Z" id="Path-7-Copy-2" stroke="#000000"></path>
                    <path d="M34.2167969,72.3066984 C26.2167969,79.6851061 15.2167969,92.6657929 9.21679688,106.495006 C3.21679687,120.324219 -3.78320313,131.316816 5.21679688,135.393719 C14.2167969,139.470623 17.2167969,117.79992 21.2167969,110.385846 C25.2167969,102.971772 34.2167969,99.6258282 38.2167969,88.6851061 C42.2167969,77.7443839 42.2167969,64.9282907 34.2167969,72.3066984 Z" id="Path-8" stroke="#000000" fill="#FFFFFF" fill-rule="nonzero"></path>
                    <g id="Group-4" transform="translate(0.000000, 68.000000)">
                        <path d="M34.2167969,4.30669839 C26.2167969,11.6851061 25.2167969,13.4949983 19.2167969,27.3242112 C13.2167969,41.1534241 12.2167969,54.6418178 5.21679688,67.3937191 C14.2167969,71.4706226 17.2167969,49.7999198 21.2167969,42.3858457 C25.2167969,34.9717716 34.2167969,31.6258282 38.2167969,20.6851061 C42.2167969,9.74438386 42.2167969,-3.07170928 34.2167969,4.30669839 Z" id="Path-8-Copy-2" fill="#F0F0F0" fill-rule="nonzero"></path>
                        <path d="M177.578697,8.8885984 C169.578697,16.2670061 158.578697,29.247693 152.578697,43.0769059 C146.578697,56.9061188 139.578697,67.8987156 148.578697,71.9756191 C157.578697,76.0525226 160.578697,54.3818198 164.578697,46.9677457 C168.578697,39.5536716 188.863763,21.0657124 192.863763,10.1249902 C196.863763,-0.815731995 185.578697,1.51019073 177.578697,8.8885984 Z" id="Path-8-Copy" stroke="#000000" fill="#F0F0F0" fill-rule="nonzero" transform="translate(168.987586, 37.556397) rotate(-65.000000) translate(-168.987586, -37.556397) "></path>
                        <path d="M34.2167969,4.30669839 C26.2167969,11.6851061 15.2167969,24.665793 9.21679688,38.4950059 C3.21679687,52.3242188 -3.78320313,63.3168156 5.21679688,67.3937191 C14.2167969,71.4706226 17.2167969,49.7999198 21.2167969,42.3858457 C25.2167969,34.9717716 34.2167969,31.6258282 38.2167969,20.6851061 C42.2167969,9.74438386 42.2167969,-3.07170928 34.2167969,4.30669839 Z" id="Path-8-Copy-3" stroke="#000000"></path>
                    </g>
                    <g id="Group-3" transform="translate(38.000000, 15.000000)">
                        <path d="M0.2167969,41.4325331 C0.2167969,22.8097475 0.200266,8.7154209 8.2167969,5.32421875 C16.2333277,1.9330166 64.2167966,0.578703218 79.2167966,0.578703218 C94.2167966,0.578703218 101.503085,7.1834474 105.346383,17.4853684 C109.18968,27.7872894 115.140528,50.0282385 103.070264,45.9853684 C91,41.9424983 57.6171875,39.3750314 44.2167969,41.9424983 C30.8164062,44.5099651 0.2167969,60.0553187 0.2167969,41.4325331 Z" id="Path-6" stroke="#000000" fill="#FFFFFF" fill-rule="nonzero"></path>
                        <path d="M0.2167969,41.4325331 C0.922172,38.3356968 0.2167969,33.9731717 0.2167969,30.6464072 C1.6897289,32.8919323 0.2162689,36.6000994 9.2818834,37.7584463 C19.8332229,39.1066298 35.6680136,37.2490243 51.0512106,36.6086176 C67.709869,35.9151132 83.838944,36.3036179 92.155321,34.3112976 C104.221439,31.4206673 102.481452,14.3322538 100.216797,8.32421875 C99.623758,6.75091087 105.272118,19.1636271 105.346383,17.4853684 C109.18968,27.7872894 115.140528,50.0282385 103.070264,45.9853684 C91,41.9424983 57.6171875,39.3750314 44.2167969,41.9424983 C30.8164062,44.5099651 0.2167969,60.0553187 0.2167969,41.4325331 Z" id="Path-6-Copy" fill="#F0F0F0" fill-rule="nonzero"></path>
                        <path d="M0.2167969,41.4325331 C0.2167969,22.8097475 0.200266,8.7154209 8.2167969,5.32421875 C16.2333277,1.9330166 64.2167966,0.578703218 79.2167966,0.578703218 C94.2167966,0.578703218 101.503085,7.1834474 105.346383,17.4853684 C109.18968,27.7872894 115.140528,50.0282385 103.070264,45.9853684 C91,41.9424983 57.6171875,39.3750314 44.2167969,41.9424983 C30.8164062,44.5099651 0.2167969,60.0553187 0.2167969,41.4325331 Z" id="Path-6-Copy-2" stroke="#000000"></path>
                    </g>
                </g>
                <g id="face" transform="translate(39.000000, 56.000000)">
                    <g id="teeth" transform="translate(68.721680, 54.718171)" stroke="#000000">
                        <path d="M0.14503868,2.80675605 C0.14503868,6.81730782 0.518554688,11.4759288 0.518554688,14.8033941 C0.518554688,18.1308594 9.14503868,18.1308594 9.14503868,15.1308594 C9.14503868,12.1308594 9.14503868,5.80675605 9.14503868,2.80675605 C9.14503868,-0.193243954 0.14503868,-1.20379573 0.14503868,2.80675605 Z" id="tooth-2" fill="#FEFEFE" fill-rule="nonzero"></path>
                        <path d="M4.59960938,2.79037957 L4.59960938,17.1308594" id="tooth"></path>
                    </g>
                    <path d="M57.4324525,52.0559233 C56.9988768,55.1607042 56.9732409,60.3921955 66.0248266,60.1935848 C68.1694924,60.1465264 70.7373453,59.3111497 72.4873776,59.1659694 C78.1233757,58.6984145 82.987671,58.3363989 83.5555119,55.3585551 C83.9965525,53.0456709 84.0869162,48.1127239 80.7175962,46.0465707 C78.4019153,44.6265359 72.5573457,45.4222397 68.6671931,45.8362301 C59.1168611,46.8525773 57.8660282,48.9511425 57.4324525,52.0559233 Z" id="mug" stroke="#000000" fill="#F3D4B7" fill-rule="nonzero" transform="translate(70.531889, 52.718171) rotate(-1.000000) translate(-70.531889, -52.718171) "></path>
                    <path d="M61.674307,44.6214464 C61.674307,48.288113 67.7090433,49.2047797 70.1229379,49.2047797 C72.5368324,49.2047797 77.3646215,48.288113 78.5715688,44.6214464 C79.778516,40.9547797 76.1576742,38.2047797 70.1229379,38.2047797 C64.0882015,38.2047797 61.674307,40.9547797 61.674307,44.6214464 Z" id="nose" stroke="#000000" fill="#9B8E7D" fill-rule="nonzero" transform="translate(70.238564, 43.704780) scale(-1, 1) rotate(8.000000) translate(-70.238564, -43.704780) "></path>
                    <g id="eye-2" transform="translate(83.000000, 0.000000)">
                        <path d="M0.345602567,32.2848363 C0.345602567,51.2273146 22.0192433,56.3642578 29.6343144,56.3642578 C37.2493854,56.3642578 51.4544017,53.1536683 55.2619372,34.2111901 C59.0694727,15.2687118 47.6838733,0.5 28.6461958,0.5 C9.60851816,0.5 0.345602567,13.3423581 0.345602567,32.2848363 Z" id="Path" stroke="#000000" fill="#FFFFFF" fill-rule="nonzero"></path>
                        <path d="M43.1298701,3.98725536 C53.0215804,9.44391413 57.9620653,20.7780605 55.2619372,34.2111901 C51.4544017,53.1536683 37.2493854,56.3642578 29.6343144,56.3642578 C24.2464203,56.3642578 11.8208172,53.792708 5.01346641,45.5792872 C11.4117722,49.2846529 18.80268,50.5851967 22.6343144,50.5851967 C30.2493854,50.5851967 44.4544017,47.3746071 48.2619372,28.4321289 C50.2171275,18.7050627 48.1660725,10.0785681 43.1298701,3.98725536 Z" id="shadow" fill="#F0F0F0" fill-rule="nonzero"></path>
                        <path d="M0.345602567,32.2848363 C0.345602567,51.2273146 22.0192433,56.3642578 29.6343144,56.3642578 C37.2493854,56.3642578 51.4544017,53.1536683 55.2619372,34.2111901 C59.0694727,15.2687118 47.6838733,0.5 28.6461958,0.5 C9.60851816,0.5 0.345602567,13.3423581 0.345602567,32.2848363 Z" id="eye-copy-3" stroke="#000000"></path>
                        <path d="M35.7530461,29.4321287 C35.7530461,33.4321287 40.7530461,34.4321287 42.7530461,34.4321287 C44.7530461,34.4321287 48.7530461,33.4321287 49.7530461,29.4321287 C50.7530461,25.4321287 47.7530461,22.4321287 42.7530461,22.4321287 C37.7530461,22.4321287 35.7530461,25.4321287 35.7530461,29.4321287 Z" id="pupil-2" fill="#000000" fill-rule="nonzero" transform="translate(42.848847, 28.432129) rotate(66.000000) translate(-42.848847, -28.432129) "></path>
                        <path d="M43.5125723,29.9150905 C42.483176,29.1394906 42.2752328,28.0690227 43.685493,26.8471029 C45.0957532,25.6251831 46.7139565,25.4737312 47.4613008,26.4937152 C48.2086451,27.5136991 47.337786,28.6851349 46.7736819,29.1739028 C46.2095778,29.6626707 44.5419686,30.6906905 43.5125723,29.9150905 Z" id="white-of-the-eye-copy" fill="#FFFFFF" fill-rule="nonzero" transform="translate(45.217442, 28.007264) rotate(-58.000000) translate(-45.217442, -28.007264) "></path>
                    </g>
                    <g id="eye" transform="translate(0.000000, 3.000000)">
                        <path d="M0.453125,33.3356968 C0.453125,53.0023635 22.1267658,58.3356968 29.7418368,58.3356968 C37.3569078,58.3356968 51.5619241,55.0023635 55.3694596,35.3356968 C59.1769952,15.6690301 47.7913958,0.335696787 28.7537182,0.335696787 C9.71604059,0.335696787 0.453125,13.6690301 0.453125,33.3356968 Z" id="Path" stroke="#000000" fill="#FFFFFF" fill-rule="nonzero"></path>
                        <path d="M43.2373926,3.95627314 C53.1291028,9.62154502 58.0695877,21.3890063 55.3694596,35.3356968 C51.5619241,55.0023635 37.3569078,58.3356968 29.7418368,58.3356968 C24.3539428,58.3356968 11.9283396,55.6658343 5.12098883,47.1384068 C11.519296,50.9854323 18.9102028,52.3356968 22.7418368,52.3356968 C30.3569078,52.3356968 44.5619241,49.0023635 48.3694596,29.3356968 C50.3246499,19.2367559 48.2735949,10.2804624 43.2373926,3.95627314 Z" id="shadow" fill="#F0F0F0" fill-rule="nonzero"></path>
                        <path d="M0.453125,33.3356968 C0.453125,53.0023635 22.1267658,58.3356968 29.7418368,58.3356968 C37.3569078,58.3356968 51.5619241,55.0023635 55.3694596,35.3356968 C59.1769952,15.6690301 47.7913958,0.335696787 28.7537182,0.335696787 C9.71604059,0.335696787 0.453125,13.6690301 0.453125,33.3356968 Z" id="eye-copy-3" stroke="#000000"></path>
                        <path d="M41.3395521,30.1432711 C38.2022034,27.7794317 37.3120043,22.7390984 40.9690356,19.5704641 C44.6260668,16.4018299 48.1732971,17.2735289 50.5792396,20.2710951 C52.985182,23.2686614 51.9379447,27.1806936 50.3810817,28.6619824 C48.8242188,30.1432711 44.4769008,32.5071105 41.3395521,30.1432711 Z" id="pupil" fill="#000000" fill-rule="nonzero"></path>
                        <path d="M41.4729477,25.1190736 C40.4271648,24.3311272 40.2159114,23.2436189 41.6486211,22.0022478 C43.0813307,20.7608767 44.7252937,20.6070139 45.4845347,21.6432346 C46.2437756,22.6794553 45.3590536,23.8695388 44.7859698,24.3660872 C44.2128859,24.8626356 42.5187306,25.9070201 41.4729477,25.1190736 Z" id="white-of-the-eye" fill="#FFFFFF" fill-rule="nonzero" transform="translate(43.204956, 23.180877) rotate(-34.000000) translate(-43.204956, -23.180877) "></path>
                    </g>
                </g>
                <path d="M40.7766401,164.605372 C35.7361821,167.052517 33.202856,168.298775 33.1766618,168.344144 C33.1361893,168.414245 20.6281643,174.07878 19.5980248,171.863034 C18.911265,170.38587 17.4422913,164.26354 15.1911035,153.496045 C18.872526,152.452968 22.8704036,150.861774 27.1847364,148.722464 C33.3845007,145.648241 40.1572641,143.213171 44.4466065,140.06793 C45.3039654,137.161392 46.3549664,133.692786 47.5996094,129.662109 C56.266276,137.662109 61.5996094,142.008409 63.5996094,142.701008 C66.0369199,143.545047 81.2167969,148.722464 93.8279495,149.660066 C95.8588815,149.81106 100.116101,152.257705 106.599609,157 L104.599609,197.662109 L102.216797,210.306925 C84.1460722,208.193132 71.8127389,206.203837 65.2167969,204.339039 C58.0876919,202.323505 46.1928409,199.64501 41.3750189,193.082796 C39.5065721,190.537839 39.3750189,187.243757 39.5996094,182.545626 C39.6479128,181.535185 40.24674,172.675553 40.7766401,164.605372 Z" id="jacket-2" stroke="#000000" fill="#F34D4D" fill-rule="nonzero" stroke-linecap="round" stroke-linejoin="round"></path>
                <path d="M14.5597829,154.293981 C12.5597829,158.42484 6.55978289,164.42484 4.55978289,169.293981 C2.55978289,174.163121 6.55978289,177.293981 11.5597829,173.293981 C16.5597829,169.293981 21.7993068,162.293981 22.7993068,160.293981" id="hand" stroke="#000000" fill="#F3D4B7" fill-rule="nonzero" stroke-linecap="round" stroke-linejoin="round" transform="translate(13.416565, 164.707042) rotate(28.000000) translate(-13.416565, -164.707042) "></path>
                <path d="M195.86249,154.495115 C194.063285,157.892554 188.092035,168.223181 186.29283,172.227822 C184.493625,176.232464 188.092035,178.807449 192.590048,175.517636 C197.08806,172.227822 204.180628,163.470649 205.080231,161.825742" id="hand-2" stroke="#000000" fill="#F3D4B7" fill-rule="nonzero" stroke-linecap="round" stroke-linejoin="round" transform="translate(195.449953, 165.757326) scale(-1, 1) rotate(37.000000) translate(-195.449953, -165.757326) "></path>
                <path d="M192.407072,170.116172 C196.705758,176.341506 201.343298,174.157028 198.609034,170.116172 C195.87477,166.075316 188.108386,163.890838 192.407072,170.116172 Z" id="Path-23" stroke="#000000" fill="#F3D4B7" fill-rule="nonzero"></path>
                <path d="M166.201286,145.243528 C171.070593,147.870564 177.150334,151.328925 179.839703,152.063826 C186.008755,153.749592 190.151057,154.914177 192.266608,155.557582 C191.153263,166.501405 190.332294,172.743745 189.803702,174.284603 C189.010814,176.59589 177.993164,173.932629 174.216797,173.102872 C172.60613,172.748971 170.830789,172.447312 168.890773,172.197897 C169.090936,174.421488 169.216797,176.11939 169.216797,176.896403 C169.216797,182.155732 165.686009,196.317249 162.216797,198.854924 C156.315303,203.171775 149.216797,205.413611 140.216797,208.299412 C133.565845,210.432003 120.565845,211.101174 101.216797,210.306925 L101.216797,201.707137 L106.216797,158.324219 C106.216797,154.825964 109.883464,153.076836 117.216797,153.076836 C128.216797,153.076836 147.216797,144.77942 150.216797,143.740522 C152.216797,143.047923 156.883464,139.909155 164.216797,134.324219 C165.432711,139.987948 166.094208,143.627718 166.201286,145.243528 Z" id="jacket-1" stroke="#000000" fill="#F34D4D" fill-rule="nonzero" stroke-linecap="round" stroke-linejoin="round"></path>
                <path d="M106.454756,156.89416 C107.374706,154.349278 110.962053,153.076836 117.216797,153.076836 C128.216797,153.076836 147.216797,144.77942 150.216797,143.740522 C152.216797,143.047923 156.883464,139.909155 164.216797,134.324219 C165.432711,139.987948 166.094208,143.627718 166.201286,145.243528 C171.070593,147.870564 177.150334,151.328925 179.839703,152.063826 C186.008755,153.749592 190.151057,154.914177 192.266608,155.557582 C191.153263,166.501405 190.332294,172.743745 189.803702,174.284603 C189.010814,176.59589 177.993164,173.932629 174.216797,173.102872 C172.60613,172.748971 170.830789,172.447312 168.890773,172.197897 C169.090936,174.421488 169.216797,176.11939 169.216797,176.896403 C169.216797,182.155732 165.686009,196.317249 162.216797,198.854924 C156.315303,203.171775 149.216797,205.413611 140.216797,208.299412 C133.565845,210.432003 120.565845,211.101174 101.216797,210.306925 L101.216797,210.189387 C83.6903453,208.119351 71.6903479,206.169235 65.2167969,204.339039 C58.0876919,202.323505 46.1928409,199.64501 41.3750189,193.082796 C39.5065721,190.537839 39.3750189,187.243757 39.5996094,182.545626 C39.6479128,181.535185 40.24674,172.675553 40.7766401,164.605372 C35.7361821,167.052517 33.202856,168.298775 33.1766618,168.344144 C33.1361893,168.414245 20.6281643,174.07878 19.5980248,171.863034 C18.911265,170.38587 17.4422913,164.26354 15.1911035,153.496045 C18.872526,152.452968 22.8704036,150.861774 27.1847364,148.722464 C33.3845007,145.648241 40.1572641,143.213171 44.4466065,140.06793 C45.3039654,137.161392 46.3549664,133.692786 47.5996094,129.662109 C56.266276,137.662109 61.5996094,142.008409 63.5996094,142.701008 C66.0369199,143.545047 81.2167969,148.722464 93.8279495,149.660066 C95.8437177,149.809933 100.052653,152.221297 106.454756,156.89416 L106.454756,156.89416 Z" id="Path" stroke="#000000" fill="#F34D4D" fill-rule="nonzero" stroke-linecap="round" stroke-linejoin="round"></path>
                <g id="Combined-Shape" transform="translate(13.000000, 132.000000)" fill="#DC3D4F" fill-rule="nonzero">
                    <path d="M175.718398,28.0962317 C178.29123,32.8633695 176.725575,42.7441464 174.216797,38.2099 C173.948263,37.7245649 173.634494,37.289814 173.281448,36.8964952 C172.772254,38.3957997 172.288141,39.5761492 171.829108,40.4375437 C171.220023,41.5805165 170.57029,42.745278 169.896228,43.8935226 C169.168712,45.132825 168.967302,42.9079802 167.216797,42.324219 C163.633056,41.1291074 157.669772,39.9426533 156.216797,41.324219 C156.235954,43.2077087 155.49741,56.8987644 152.325348,61.4083724 C151.437252,61.789778 150.459235,62.1808508 149.3797,62.581605 C148.815618,64.4683045 148.144092,65.3561535 147.337182,67.1945504 C146.400825,69.3278692 143.329508,71.1220239 140.377054,72.2616097 C136.682896,73.6874778 133.174824,75.088591 134.267696,73.8471247 C136.405153,71.4190437 138.065432,68.7218204 139.248533,65.7554548 C138.57002,65.9393357 137.869642,66.1248458 137.146603,66.3119861 C134.177508,67.080461 131.243077,67.7167988 128.34551,68.2374404 C127.001457,71.3767124 125.128596,74.4927652 122.481792,77.4936445 C122.074827,77.9550509 118.061763,77.8299235 114.661014,78.1604315 C111.488621,78.4687464 108.849071,79.303349 110.166781,77.8866932 C111.229968,76.7436733 112.878607,73.7388698 114.50473,69.9307118 C111.755472,70.116874 109.046004,70.2155292 106.378472,70.2427209 C105.430571,73.1143456 104.179791,75.971619 102.539143,78.7880473 C102.341803,79.126813 93.216797,78.324219 91.0848055,78.6356188 C91.2558414,77.6876975 91.6582759,76.506465 92.3485218,75.0486481 C93.0011275,73.6703283 93.5952187,71.955546 94.1307954,69.9043014 C90.9628218,69.7068973 87.8658584,69.4369742 84.8441183,69.1260098 C84.6090331,72.335446 84.5562835,75.1125114 84.6858695,77.457206 C84.7306842,78.2680711 81.9045198,76.7403028 79.0115654,76.645427 C76.1160203,76.5504663 73.1535656,76.8873819 72.9359315,75.4270856 C72.4903952,72.4375945 72.3578587,70.4987195 72.4521629,67.6163931 C69.5953982,67.1832741 66.7518766,66.6444514 63.9706537,66.0347639 C64.3210506,69.3253647 64.8598853,72.4754039 65.4516501,75.0381267 C65.7532003,76.3440334 62.7033831,74.3777184 59.5744838,73.7578398 C56.6845768,73.1853088 53.7272072,74.0552426 53.2806427,72.8550882 C51.9834833,69.368937 51.365959,65.9604479 51.1627249,62.6648459 C47.5143445,61.5516988 44.1799368,60.4064853 41.3212932,59.3441073 C41.5356799,63.1242273 42.4630163,66.694187 44.1033023,70.0539862 C41.094688,68.988971 38.3271739,68.107258 36.3852367,67.3985828 C35.1731351,66.956248 34.2826699,67.1917371 33.8559687,65.6162122 C32.9630915,62.3194074 32.5374856,58.909319 32.3908601,55.5957615 C26.6299758,52.61314 28.7827058,35.6330494 27.216797,33.324219 C26.8049166,32.7169282 22.8785374,34.8464552 19.0718092,36.9998083 C16.4634011,38.4753073 12.9111707,39.4924802 11.5842776,38.5350879 C10.6498654,37.8608821 10.6865941,38.156232 9.73825192,37.4349539 C4.37823123,42.455687 -3.95060737,34.3077281 2.49734717,30.4007388 C2.28417052,30.0325993 2.11612062,29.672532 2,29.3226832 C0.81119792,25.7410542 2.21679699,29.5857687 2.216797,22.324219 C4.2864426,20.5721044 5.88015121,20.5528048 7.16209298,19.9281961 C9.59656073,18.7420347 10.9066789,17.9792781 12.216797,17.324219 C15.6676603,15.5987874 14.9101133,17.7994773 16.6250888,21.7442392 C18.3866148,20.6490116 19.6757508,19.836052 20.2167969,19.4753546 C20.5358706,19.2626388 20.9567524,18.9072646 21.4541766,18.4389282 C20.1935181,17.0154665 20.1956593,15.4936412 19.216797,14.324219 C24.216797,12.324219 24.216797,12.324219 27.5979402,10.6341717 C33.4423518,5.97003648 35.2167969,1.74868605 35.2167969,0.32421875 C35.2167969,-1.04624016 51.9382505,7.59384629 67.0438027,14.0206214 C72.5023886,16.3430194 78.7012141,17.2301436 83.021242,18.8439679 C88.9025065,21.0410202 92.1550106,23.7315394 93.216797,25.324219 C94.216797,23.324219 97.9823296,21.6346412 101.216797,21.324219 C111.078071,20.3778008 121.22281,17.6805212 129.62493,14.2146317 C140.365791,9.78400717 148.258896,4.73151637 149.071636,7.28725931 C149.534579,8.74302842 150.22934,10.2334509 151.216797,11.7405218 C153.002745,14.4662625 154.911497,16.545325 156.849681,18.165533 C157.462031,17.4594555 157.990203,16.8028489 158.434721,16.2093042 C159.094056,15.328925 161.619806,18.2989051 163.431139,19.1165007 C164.891854,19.775835 165.887963,17.9863999 165.065955,19.7467564 C164.70291,20.5242298 164.226335,21.3640594 163.611922,22.2637253 C165.325331,22.997217 166.972583,23.5316816 168.482948,24.009401 C168.9272,22.8505532 169.322686,21.7317205 169.669946,20.6964646 C173.216797,21.324219 176.481641,24.8961533 175.718398,28.0962317 Z M157.585119,28.9722276 C155.81385,30.7242706 153.941006,32.4968531 151.899985,34.2301001 C152.632637,38.2612864 152.907147,41.7964356 152.460751,45.7305789 C155.426899,43.9415941 155.990357,40.5377711 156.216797,40.324219 C156.757732,39.8140713 161.522233,37.3150458 164.421468,32.4787545 C162.105104,31.6419861 159.71632,30.6420756 157.585119,28.9722276 Z M142.849168,40.7129144 C139.751312,42.5345221 136.289801,44.188378 132.351571,45.5728374 C132.06884,48.7944943 131.913428,52.3180733 131.456813,55.9828285 C135.349574,54.4840478 138.938582,52.8851736 142.127657,51.33077 C142.466265,47.9716386 142.70842,44.3456225 142.849168,40.7129144 Z M119.644142,50.1719675 C119.650649,49.7728351 119.646142,49.3401521 119.630622,48.8739184 C116.293969,49.5488758 112.767748,50.1571154 109.169937,50.6528364 C109.149592,53.8115596 108.9966,57.0290926 108.585928,60.2673545 C111.711156,60.1144833 114.939264,59.8365205 118.168593,59.3593933 C119.027016,56.1144639 119.599481,52.911644 119.644142,50.1719675 Z M96.7873489,51.8403481 C93.4791983,52.0058046 90.2236897,52.032867 87.1117616,51.8862311 C86.6044427,54.8167157 86.1744914,57.5637394 85.8219077,60.127302 C86.7021321,60.1915365 87.5043803,60.2246848 88.2167969,60.2246848 C90.367894,60.2246848 92.9767778,60.3072065 95.9005434,60.3681208 C96.242006,57.7892325 96.5376079,54.9466416 96.7873489,51.8403481 Z M75.2678749,50.1885987 C73.4322109,49.6869416 71.7370905,49.0691654 70.2167969,48.3219607 C68.8558958,47.6530954 67.3521479,46.9333795 65.74443,46.1728129 C65.0153925,48.2533137 64.5061814,49.970449 64.2167969,51.3242187 C63.9170738,52.7263532 63.7296431,54.2845676 63.6343109,55.9322845 C67.0061667,56.8230226 70.3458583,57.6051277 73.4843617,58.2492067 C73.9760835,55.4971206 74.5993828,52.8082686 75.2678749,50.1885987 Z M53.2167969,41.1028721 C53.2409915,40.8480051 53.2722107,40.5869539 53.3101428,40.3201139 C50.1700306,38.8234363 46.9925156,37.277829 43.9584256,35.729805 C43.1092148,40.047596 42.3986484,44.4296881 41.922172,48.4235917 C44.8050135,49.7789968 48.1172946,51.0849568 51.6354804,52.3025918 C52.1528744,48.268367 52.8936646,44.5067601 53.2167969,41.1028721 Z M33.2167969,39.8262746 C33.4792465,37.4023317 34.0172152,34.2813804 34.7945481,30.7266841 C31.8145213,28.9463035 29.3149702,27.2340006 27.5993581,25.6678328 C25.4169578,27.3112298 22.7944864,28.6321993 20.2750845,29.8864622 C22.0288538,33.5971493 22.4335939,34.3242189 24.216797,34.324219 C26.0000001,34.3242191 25.1327611,32.3173342 27.216797,33.324219 C28.811577,34.0947239 27.5614699,38.7236932 32.8796639,43.012528 C32.9933457,41.8738017 33.1106996,40.8061722 33.2167969,39.8262746 Z M33.5501698,17.3123515 C34.7975187,18.3396317 36.0982861,19.3262211 37.4472739,20.2717176 C38.9268995,15.0974946 40.732435,9.61300669 42.7923705,4.33895599 C43.3587795,2.88877956 43.0302953,2.8554856 42.3002715,2.49276873 C41.6440993,2.1667455 40.6635204,1.38248646 39.7167969,2.32421875 C38.1372972,3.89539113 36.2459451,11.149314 33.5501698,17.3123515 Z M56.5723843,29.9666751 C60.9097831,19.8012486 61.085904,16.9795279 63.216797,14.324219 C66.216797,10.5859147 52.216797,9.91643322 50.216797,11.9859336 C48.216797,14.0554339 54.2167969,5.43519186 50.2167969,13.6550125 C48.9303777,16.2985463 47.546336,20.5702028 46.2605174,25.5414746 C49.5408268,27.2120389 52.9953922,28.6884422 56.5723843,29.9666751 Z M78.5459533,37.8619717 C78.7883012,36.875502 79.0139758,35.9026394 79.2167969,34.9438094 C80.4488783,29.1191842 82.0182985,24.1651494 83.4401571,20.3205302 C84.4410474,17.6141838 82.6101291,18.5859658 81.216797,18.324219 C79.7699387,18.0524169 78.7269409,16.6251504 78.0676522,17.9984716 C74.9879347,24.4136298 72.4114153,29.997019 70.3380939,34.7486394 C73.0427791,35.8063115 75.7326233,36.8829682 78.5459533,37.8619717 Z M97.4042494,41.6089221 C97.6383679,36.1815441 97.7705047,30.1677655 97.8006601,23.5675861 C97.8179516,19.7829297 93.3073621,23.4641244 92.8777763,25.2866924 C91.4882167,31.1820616 90.273958,35.6617415 89.2350002,40.7257319 C91.7680037,41.1765844 94.47017,41.4886183 97.4042494,41.6089221 Z M117.216797,39.8262746 C117.681432,39.7337764 118.142203,39.6379164 118.599116,39.5388175 C117.894595,35.013161 116.834832,29.4052993 115.419827,22.7152325 C114.813418,19.8481617 112.546038,22.0006083 110.763044,21.6954195 C109.343374,21.4524198 108.230796,19.8212254 108.508266,24.0753487 C108.682398,26.7451136 108.771544,27.6826598 108.713382,30.8371212 C108.653485,34.0856386 108.803634,37.5409331 108.9479,41.1372407 C111.535575,40.8404336 114.283933,40.410141 117.216797,39.8262746 Z M142.956062,29.7571834 C142.838428,24.3451419 142.446251,19.6062876 141.759051,16.6175353 C141.251246,14.4090006 140.809058,12.735817 140.408567,11.4307075 C139.808702,9.47588798 136.507596,11.4871485 133.539833,12.7609983 C130.496314,14.0673647 127.803373,14.7016015 128.733963,17.9049587 C130.347044,23.457648 131.871502,29.7734323 132.510238,35.1608584 C136.410967,33.5180384 139.891074,31.669264 142.956062,29.7571834 Z M152.350453,22.7172012 C150.175331,18.9177465 149.184831,15.164076 148.216797,13.623971 C146.715587,11.2356027 143.75049,-2.44864148 147.216797,13.6550125 C148.148574,17.9838325 149.036268,21.6519043 149.81482,24.8808313 C150.719763,24.1487063 151.564871,23.4248501 152.350453,22.7172012 Z" id="Shape"></path>
                </g>
                <path d="M166.201286,145.243528 C171.070593,147.870564 177.150334,151.328925 179.839703,152.063826 C186.008755,153.749592 190.151057,154.914177 192.266608,155.557582 C191.153263,166.501405 190.332294,172.743745 189.803702,174.284603 C189.010814,176.59589 177.993164,173.932629 174.216797,173.102872 C172.60613,172.748971 170.830789,172.447312 168.890773,172.197897 C169.090936,174.421488 169.216797,176.11939 169.216797,176.896403 C169.216797,182.155732 165.686009,196.317249 162.216797,198.854924 C156.315303,203.171775 149.216797,205.413611 140.216797,208.299412 C133.565845,210.432003 120.565845,211.101174 101.216797,210.306925 L101.216797,201.707137 L106.216797,158.324219 C106.216797,154.825964 109.883464,153.076836 117.216797,153.076836 C128.216797,153.076836 147.216797,144.77942 150.216797,143.740522 C152.216797,143.047923 156.883464,139.909155 164.216797,134.324219 C165.432711,139.987948 166.094208,143.627718 166.201286,145.243528 L166.201286,145.243528 Z" id="jacket-1-outline" stroke="#000000" stroke-linecap="round" stroke-linejoin="round"></path>
                <path d="M40.7766401,164.605372 C35.7361821,167.052517 33.202856,168.298775 33.1766618,168.344144 C33.1361893,168.414245 20.6281643,174.07878 19.5980248,171.863034 C18.911265,170.38587 17.4422913,164.26354 15.1911035,153.496045 C18.872526,152.452968 22.8704036,150.861774 27.1847364,148.722464 C33.3845007,145.648241 40.1572641,143.213171 44.4466065,140.06793 C45.3039654,137.161392 46.3549664,133.692786 47.5996094,129.662109 C56.266276,137.662109 61.5996094,142.008409 63.5996094,142.701008 C66.0369199,143.545047 81.2167969,148.722464 93.8279495,149.660066 C95.8588815,149.81106 100.116101,152.257705 106.599609,157 C105.576854,165.500247 104.782583,172.132381 104.216797,176.896403 C103.586403,182.20443 102.586403,190.680369 101.216797,202.324219 L101.216797,209.62481 C84.2167969,208.324219 71.8127389,206.203837 65.2167969,204.339039 C58.0876919,202.323505 46.1928409,199.64501 41.3750189,193.082796 C39.5065721,190.537839 39.3750189,187.243757 39.5996094,182.545626 C39.6479128,181.535185 40.24674,172.675553 40.7766401,164.605372 Z" id="jacket-2-outline" stroke="#000000" stroke-linecap="round" stroke-linejoin="round"></path>
                <path d="M107.298828,164.497833 C107.298828,162.072388 108.993893,161.363147 110.688958,162.93049 C112.384022,164.497833 112.384022,166.847764 110.688958,167.221001 C108.993893,167.594238 107.298828,166.923278 107.298828,164.497833 Z" id="button" stroke="#000000" fill="#1D487A" fill-rule="nonzero"></path>
                <path d="M106.394292,179.740738 C106.394292,177.315293 108.089357,176.606053 109.784422,178.173395 C111.479487,179.740738 111.479487,182.090669 109.784422,182.463906 C108.089357,182.837143 106.394292,182.166183 106.394292,179.740738 Z" id="button-copy-6" stroke="#000000" fill="#1D487A" fill-rule="nonzero"></path>
                <path d="M105.383542,195.167005 C105.383542,193.00134 106.964956,192.368063 108.54637,193.767534 C110.127784,195.167005 110.127784,197.265244 108.54637,197.598506 C106.964956,197.931767 105.383542,197.33267 105.383542,195.167005 Z" id="button-copy-7" stroke="#000000" fill="#1D487A" fill-rule="nonzero" transform="translate(107.557986, 195.353807) rotate(-54.000000) translate(-107.557986, -195.353807) "></path>
                <g id="collar" transform="translate(119.000000, 134.000000)">
                    <path d="M4.21679687,32.9438094 C13.2167969,31.0783731 13.2167969,31.3242188 24.7167969,26.3242188 C36.2167969,21.3242188 44.2167969,14.3538057 49.2167969,10.4144122 C46.2167969,6.26075015 47.2167969,3.73200453 45.2167969,0.32421875 C43.2167969,1.43736283 38.2167969,5.13202343 34.2167969,7.47030886 C30.2167969,9.80859428 10.2167969,18.2788396 0.216796875,19.0768364 C3.21679688,25.8695404 4.21679687,28.9825409 4.21679687,32.9438094 Z" id="Path-3" stroke="#000000" fill="#F34D4D" fill-rule="nonzero" stroke-linecap="round" stroke-linejoin="round"></path>
                    <path d="M32.2167969,12.4144122 C43.7167969,7.41441224 47.7739294,8.06261285 47.4048587,7.03909708 C46.5469544,4.65993609 46.6152024,2.70695198 45.2167969,0.32421875 C43.2167969,1.43736283 38.2167969,5.13202343 34.2167969,7.47030886 C30.2167969,9.80859428 10.2167969,18.2788396 0.216796875,19.0768364 C0.873710475,20.5642429 1.4347273,21.8752136 1.91034667,23.0572891 C2.40079208,24.2762123 3.21679688,26.3242188 4.21679687,28.3435572 C10.509295,26.6803083 24.0414698,15.9689023 32.2167969,12.4144122 Z" id="Path-3-Copy-2" fill="#DC3D4F" fill-rule="nonzero"></path>
                    <path d="M4.21679687,32.9438094 C13.2167969,31.0783731 13.2167969,31.3242188 24.7167969,26.3242188 C36.2167969,21.3242188 44.2167969,14.3538057 49.2167969,10.4144122 C46.2167969,6.26075015 47.2167969,3.73200453 45.2167969,0.32421875 C43.2167969,1.43736283 38.2167969,5.13202343 34.2167969,7.47030886 C30.2167969,9.80859428 10.2167969,18.2788396 0.216796875,19.0768364 C3.21679688,25.8695404 4.21679687,28.9825409 4.21679687,32.9438094 Z" id="Path-3-Copy-4" stroke="#000000" stroke-linecap="round" stroke-linejoin="round"></path>
                </g>
                <g id="collar" transform="translate(42.000000, 128.000000)">
                    <path d="M4.8279505,35.4951878 C13.8279505,33.6297515 13.8279505,33.8755971 25.3279505,28.8755971 C36.8279505,23.8755971 46.8279505,14.9051841 51.8279505,10.9657906 C48.8279505,6.81212855 49.8279505,4.28338293 47.8279505,0.875597148 C45.8279505,1.98874123 40.8279505,5.68340183 36.8279505,8.02168725 C32.8279505,10.3599727 10.8279505,20.830218 0.8279505,21.6282148 C3.8279505,28.4209188 4.8279505,31.5339193 4.8279505,35.4951878 Z" id="Path-3-Copy" stroke="#000000" fill="#F34D4D" fill-rule="nonzero" stroke-linecap="round" stroke-linejoin="round" transform="translate(26.327950, 18.185392) scale(-1, 1) translate(-26.327950, -18.185392) "></path>
                    <path d="M21.5696951,19.3242188 C32.5696951,15.7405217 51.9402564,3.07884876 51.8274594,2.75655368 C51.615219,2.15011868 51.3420289,1.52901708 50.9585425,0.875597148 C48.9585424,1.98874123 43.9585424,5.68340183 39.9585424,8.02168725 C35.9585424,10.3599727 13.9585424,20.830218 3.95854245,21.6282148 C4.57885843,23.0327557 5.11366509,24.2799722 5.57180291,25.4098936 C8.56969512,24.3242187 15.5696951,21.6997996 21.5696951,19.3242188 Z" id="Path-3-Copy-7" fill="#DC3D4F" fill-rule="nonzero" transform="translate(27.893246, 13.142745) scale(-1, 1) translate(-27.893246, -13.142745) "></path>
                    <path d="M4.8279505,35.4951878 C13.8279505,33.6297515 13.8279505,33.8755971 25.3279505,28.8755971 C36.8279505,23.8755971 46.8279505,14.9051841 51.8279505,10.9657906 C48.8279505,6.81212855 49.8279505,4.28338293 47.8279505,0.875597148 C45.8279505,1.98874123 40.8279505,5.68340183 36.8279505,8.02168725 C32.8279505,10.3599727 10.8279505,20.830218 0.8279505,21.6282148 C3.8279505,28.4209188 4.8279505,31.5339193 4.8279505,35.4951878 Z" id="Path-3-Copy-8" stroke="#000000" stroke-linecap="round" stroke-linejoin="round" transform="translate(26.327950, 18.185392) scale(-1, 1) translate(-26.327950, -18.185392) "></path>
                </g>
                <g id="sleeve-rolled" transform="translate(172.000000, 150.000000)">
                    <path d="M8.29595947,24.0361853 C9.45931881,25.3691121 15.0733995,22.3768284 19.6307795,18.7506719 C23.1172598,15.9765949 25.9135785,12.7275096 26.0546241,11.3824138 C24.7711644,8.63002563 21.3911447,4.11562659 20.0894871,5.29623801 C18.7878296,6.47684942 4.93309554,16.6586347 2.61870828,18.9598856 C4.58427114,21.3942038 5.71451518,21.9297988 8.29595947,24.0361853 Z" id="Path-3-Copy-3" stroke="#000000" fill="#F34D4D" fill-rule="nonzero" stroke-linejoin="round" transform="translate(14.336666, 14.731351) scale(-1, 1) rotate(115.000000) translate(-14.336666, -14.731351) "></path>
                    <path d="M13.2159899,28.8198747 C16.7024702,26.0457978 19.4987889,22.7967125 19.6398344,21.4516166 C18.3563748,18.6992285 14.976355,14.1848294 13.6746975,15.3654409 C13.2748783,15.7280794 11.6906981,16.9399629 9.62038845,18.5118569 C11.2524572,22.0118396 13.1147515,22.7028579 13.2159899,28.8198747 Z" id="Path-3-Copy-5" fill="#DC3D4F" fill-rule="nonzero" transform="translate(14.630111, 21.996234) scale(-1, 1) rotate(115.000000) translate(-14.630111, -21.996234) "></path>
                    <path d="M8.29595947,24.0361853 C9.45931881,25.3691121 15.0733995,22.3768284 19.6307795,18.7506719 C23.1172598,15.9765949 25.9135785,12.7275096 26.0546241,11.3824138 C24.7711644,8.63002563 21.3911447,4.11562659 20.0894871,5.29623801 C18.7878296,6.47684942 4.93309554,16.6586347 2.61870828,18.9598856 C4.58427114,21.3942038 5.71451518,21.9297988 8.29595947,24.0361853 Z" id="Path-3-Copy-6" stroke="#000000" stroke-linejoin="round" transform="translate(14.336666, 14.731351) scale(-1, 1) rotate(115.000000) translate(-14.336666, -14.731351) "></path>
                </g>
                <g id="sleeve-rolled-copy" transform="translate(16.754965, 163.566509) scale(-1, 1) rotate(6.000000) translate(-16.754965, -163.566509) translate(2.254965, 148.566509)">
                    <path d="M8.29595947,24.0361853 C9.45931881,25.3691121 15.0733995,22.3768284 19.6307795,18.7506719 C23.1172598,15.9765949 25.9135785,12.7275096 26.0546241,11.3824138 C24.7711644,8.63002563 21.3911447,4.11562659 20.0894871,5.29623801 C18.7878296,6.47684942 4.93309554,16.6586347 2.61870828,18.9598856 C4.58427114,21.3942038 5.71451518,21.9297988 8.29595947,24.0361853 Z" id="Path-3-Copy-3" stroke="#000000" fill="#F34D4D" fill-rule="nonzero" stroke-linejoin="round" transform="translate(14.336666, 14.731351) scale(-1, 1) rotate(115.000000) translate(-14.336666, -14.731351) "></path>
                    <path d="M15.5464789,27.6806196 C17.0363406,26.0797376 18.0151156,24.6549611 18.0970855,23.8732474 C16.8136258,21.1208593 13.4336061,16.6064602 12.1319485,17.7870716 C11.7321293,18.1497101 10.1479491,19.3615937 8.07763946,20.9334877 C11.4205109,23.3052214 14.4727334,28.8343775 15.5464789,27.6806196 Z" id="Path-3-Copy-5" fill="#DC3D4F" fill-rule="nonzero" transform="translate(13.087362, 22.715629) scale(-1, 1) rotate(115.000000) translate(-13.087362, -22.715629) "></path>
                    <path d="M8.29595947,24.0361853 C9.45931881,25.3691121 15.0733995,22.3768284 19.6307795,18.7506719 C23.1172598,15.9765949 25.9135785,12.7275096 26.0546241,11.3824138 C24.7711644,8.63002563 21.3911447,4.11562659 20.0894871,5.29623801 C18.7878296,6.47684942 4.93309554,16.6586347 2.61870828,18.9598856 C4.58427114,21.3942038 5.71451518,21.9297988 8.29595947,24.0361853 Z" id="Path-3-Copy-6" stroke="#000000" stroke-linejoin="round" transform="translate(14.336666, 14.731351) scale(-1, 1) rotate(115.000000) translate(-14.336666, -14.731351) "></path>
                </g>
            </g>
        </g>
    </g>
</svg>