<svg xmlns="http://www.w3.org/2000/svg" width="210" height="248" viewBox="0 0 210 248">
  <g fill="none" fill-rule="evenodd" transform="translate(-1 -16)">
    <path fill="#F3D4B7" stroke="#000" stroke-linecap="round" stroke-linejoin="round" d="M35.6279106,178.843772 C33.6279106,182.974631 27.6279106,188.974631 25.6279106,193.843772 C23.6279106,198.712912 27.6279106,201.843772 32.6279106,197.843772 C37.6279106,193.843772 42.8674345,186.843772 43.8674345,184.843772" transform="rotate(13 34.485 189.257)"/>
    <g transform="translate(23 156)">
      <path fill="#F34D4D" stroke="#000" stroke-linecap="round" stroke-linejoin="round" d="M23.7122167,2.67493936 C21.7122167,7.69879191 16.8233278,13.4226443 12.8233278,19.4374395 C10.1566611,23.4473029 7.48999446,26.8242561 4.8233278,29.5682989 C12.1566611,37.7676293 16.4899945,42.3352353 17.8233278,43.2711169 C19.8233278,44.6749394 27.8233278,33.5152959 27.8233278,33.4343508 C27.8233278,33.3803874 29.4899945,30.8928753 32.8233278,25.9718144" transform="rotate(13 18.823 23.034)"/>
      <path fill="#DC3D4F" d="M28.970166,9.76389185 L29.4100436,12.7572563 C29.386493,13.4232405 29.2617701,14.0464488 29,14.5554689 C28,16.5 21,22.6743409 21,23.9625365 C21,25.250732 19,26.5165906 16,23.9625365 C13.2336958,21.6074396 13.0182046,23.2023376 11.433346,20.3289652 C12.2103428,19.6441515 12.9946204,18.9278015 13.7861788,18.1799152 C18.4265777,13.7955374 23.6923716,9.7887767 26.9789438,5.84812454 C27.3913042,6.67613733 27.7316563,7.35602174 28,7.70383852 C28.3526183,8.16088877 28.7052366,8.90575753 28.970166,9.76389205 Z M31.2227005,25.0923728 L31.8036655,29.0458355 C27.4487675,33.0909331 25.2652489,35.1397721 25.2531098,35.1923524 C25.2349011,35.2712229 14.929567,44.345237 13.2966182,42.5274923 C12.9563843,42.1487551 12.4104278,41.3584559 11.6587487,40.1565946 C13.8748647,39.5305274 17.5250989,37.9749011 19,36.5 C21,34.5 28,28.5 29,27.5 C29.6495489,26.8504511 30.2990979,25.5686491 31.2227005,25.0923728 Z"/>
      <path stroke="#000" stroke-linecap="round" stroke-linejoin="round" d="M23.7122167,2.67493936 C21.7122167,7.69879191 16.8233278,13.4226443 12.8233278,19.4374395 C10.1566611,23.4473029 7.48999446,26.8242561 4.8233278,29.5682989 C12.1566611,37.7676293 16.4899945,42.3352353 17.8233278,43.2711169 C19.8233278,44.6749394 27.8233278,33.5152959 27.8233278,33.4343508 C27.8233278,33.3803874 29.4899945,30.8928753 32.8233278,25.9718144" transform="rotate(13 18.823 23.034)"/>
      <path fill="#1D487A" stroke="#000" stroke-linecap="round" stroke-linejoin="round" d="M13.9470397,7.05712241 C18.2225094,8.79349946 20.877108,8.5123259 25.1810281,10.0845211 C33.6303938,13.1710216 30.5894582,21.2327711 24.7286974,19.7355523 C14.0677252,17.012048 10.5950132,16.2072758 10.5276927,15.4079039 C10.2564483,12.1871181 12.0885475,9.62565626 13.9470397,7.05712241 Z" transform="rotate(-69 20.45 13.488)"/>
      <path fill="#E8DB54" stroke="#000" d="M23.8614237,5.04779512 C23.8614237,2.84791722 25.5564885,2.20463623 27.2515533,3.62621567 C28.946618,5.04779512 28.946618,7.17918187 27.2515533,7.51770794 C25.5564885,7.85623401 23.8614237,7.24767302 23.8614237,5.04779512 Z" transform="rotate(49 26.192 5.238)"/>
    </g>
    <path fill="#4AAED9" stroke="#000" stroke-linecap="round" stroke-linejoin="round" d="M166.071443,213.11327 C163.652801,217.862651 160.748193,220.440233 160.748193,223.538792 C160.748193,226.637351 167.44017,232.915839 171.47124,229.345741 C175.502309,225.775644 174.133581,214.898319 174.939795,213.11327" transform="rotate(-96 167.844 221.763)"/>
    <path fill="#F3D4B7" stroke="#000" stroke-linecap="round" stroke-linejoin="round" d="M62.651608,232.796255 C60.7230366,237.442943 60.7230366,239.370179 60.7230366,242.40174 C60.7230366,245.433301 62.564804,248.514322 65.7790897,245.021418 C68.9933754,241.528514 69.0801794,234.542707 69.7230366,232.796255" transform="rotate(28 65.223 239.684)"/>
    <path fill="#F3D4B7" stroke="#000" stroke-linecap="round" stroke-linejoin="round" d="M100.613393,240.678711 C97.9333603,246.674602 97.9333603,249.161427 97.9333603,253.073226 C97.9333603,256.985024 100.492766,260.960644 104.959486,256.453548 C109.426206,251.946452 109.546833,242.932259 110.440178,240.678711"/>
    <path fill="#5CC8E6" stroke="#000" d="M54.0382986,76.997519 C47.0311761,84.393926 43.2548287,93.1538395 41.3549028,103.572664 C38.7486755,117.864709 34.5266492,144.019818 40.7262339,156.508551 C41.9914445,159.05725 40.9093639,162.775362 41.0382986,165.997519 C42.7190297,208 47.0382986,223.997519 63.0382986,233.997519 C79.0382986,243.997519 96.0382986,248.997519 118.038299,243.997519 C140.038299,238.997519 151.038299,231.44552 154.038299,229.721519 C157.038299,227.997519 167.038299,214.997519 165.038299,196.997519 C163.038299,178.997519 157.038299,165.997519 167.038299,151.997519 C177.038299,137.997519 182.038299,109.997519 169.038299,94.997519 C156.038299,79.997519 136.076597,63.997519 113.038299,60.997519 C90,57.997519 72.0382986,57.997519 54.0382986,76.997519 Z"/>
    <path fill="#4AAED9" d="M40.0416926,111.161595 C42.3473691,113.774976 46.0332572,116.926791 48,117.974401 C51,119.572389 50,127.877691 48,130.549037 C46,133.220383 45,134.066391 45,136.860956 C45,138.723999 44,140.843071 42,143.218171 C42,145.072724 43.3333333,148.199006 46,152.597017 C50,159.194033 78,162 99,160.335697 C120,158.671394 156,153.234014 162,146 C168,138.765986 172,124.561627 169,116.985368 C166,109.40911 158,102.918178 152,98.5 C146,94.0818224 134,87.9194081 115,81.9210864 C96,75.9227646 61,79 49,83.5 C48.9589031,83.5154113 48.9179205,83.5307555 48.8770523,83.5460325 C50.3634521,81.2516969 52.0739211,79.0710286 54.0382986,76.997519 C72.0382986,57.997519 90,57.997519 113.038299,60.997519 C136.076597,63.997519 156.038299,79.997519 169.038299,94.997519 C182.038299,109.997519 177.038299,137.997519 167.038299,151.997519 C157.038299,165.997519 163.038299,178.997519 165.038299,196.997519 C167.038299,214.997519 157.038299,227.997519 154.038299,229.721519 C151.038299,231.44552 140.038299,238.997519 118.038299,243.997519 C96.0382986,248.997519 79.0382986,243.997519 63.0382986,233.997519 C47.0382986,223.997519 42.7190297,208 41.0382986,165.997519 C40.9093639,162.775362 41.9914445,159.05725 40.7262339,156.508551 C35.509359,145.999434 37.6720448,125.813134 40.0416926,111.161595 Z M69,136.066391 C65.5699566,129.225208 86,78 109,88.3608873 C132,98.7217746 129,116.376413 129,121.170787 C129,125.965161 123.190434,140.5 114.932096,145.5 C106.673757,150.5 91.0027426,150.718171 87.1591499,149.343168 C83.3155571,147.968165 72.4300434,142.907574 69,136.066391 Z"/>
    <path stroke="#000" d="M54.0382986,76.997519 C47.0311761,84.393926 43.2548287,93.1538395 41.3549028,103.572664 C38.7486755,117.864709 34.5266492,144.019818 40.7262339,156.508551 C41.9914445,159.05725 40.9093639,162.775362 41.0382986,165.997519 C42.7190297,208 47.0382986,223.997519 63.0382986,233.997519 C79.0382986,243.997519 96.0382986,248.997519 118.038299,243.997519 C140.038299,238.997519 151.038299,231.44552 154.038299,229.721519 C157.038299,227.997519 167.038299,214.997519 165.038299,196.997519 C163.038299,178.997519 157.038299,165.997519 167.038299,151.997519 C177.038299,137.997519 182.038299,109.997519 169.038299,94.997519 C156.038299,79.997519 136.076597,63.997519 113.038299,60.997519 C90,57.997519 72.0382986,57.997519 54.0382986,76.997519 Z"/>
    <path fill="#4AAED9" stroke="#000" stroke-linecap="round" stroke-linejoin="round" d="M56.6108411,49.7582727 C54.0394125,55.0795617 54.0394125,57.286593 54.0394125,60.7582727 C54.0394125,64.2299524 56.4951023,67.7582727 60.7808166,63.7582727 C65.0665309,59.7582727 65.1822696,51.7582727 66.0394125,49.7582727" transform="scale(1 -1) rotate(-8 -764.341 0)"/>
    <g transform="rotate(9 3.35 92.119)">
      <path fill="#DDB27A" stroke="#000" d="M109.282108,0.848222227 C99.6231274,0.848222227 90.6231274,12.2711203 82.6231274,18.8482222 C74.6231274,25.4253242 67.6231274,26.5158549 60.6231274,34.0677456 C55.6635153,39.4183811 54.2178678,53.1705848 54.8634991,62.3830736 C55.1291122,66.1730979 65.6231274,56.598395 85.6231274,54.2233086 C105.623127,51.8482222 135.623127,53.090169 145.623127,56.7016607 C155.623127,60.3131524 161.623127,66.9770421 161.623127,63.6450972 C161.623127,60.3131524 166.623127,47.6830433 161.623127,39.0406219 C156.623127,30.3982005 150.623127,25.4253242 139.623127,18.8482222 C128.623127,12.2711203 118.941088,0.848222227 109.282108,0.848222227 Z"/>
      <path fill="#C59B63" d="M127.359518,9.97035714 C131.299832,13.0264082 135.362622,16.300788 139.623127,18.8482222 C142.17895,20.3763954 144.464845,21.8179638 146.530988,23.2390784 C149.59048,26.0789736 156.233425,31.3332259 157,32.4990293 C157.475517,33.2221933 158.872349,34.9536964 160.206773,36.7323379 C160.689558,37.4731502 161.160621,38.2411868 161.623127,39.0406219 C162.389556,40.365382 162.92102,41.7838389 163.271543,43.2481412 C163.313613,43.4614178 163.36242,43.6832272 163.417964,43.9135693 C163.520537,44.4233768 163.602525,44.9377862 163.666149,45.45483 C151.881311,42.7637708 145.325928,40.9578927 144,40.0371958 C142,38.6484375 123,36.3290181 123,36.4853684 C123,36.6417187 107.653889,36.3290181 111.687784,36.4853684 C115.72168,36.6417187 127.865993,34.609891 131.599609,34.609891 C135.333225,34.609891 143,34.4980586 144,32.4990293 C145,30.5 141,29.3506462 140,28.5339208 C139,27.7171955 134,23.3378906 133,21.5 C132.333333,20.2747396 129.6346,15.9414063 124.903801,8.5 C125.749036,9.00471327 126.567608,9.49483231 127.359518,9.97035714 Z M106.15599,8.5 C103.333833,11.5 96.0167187,20.209018 100.808164,24.854509 C105.599609,29.5 114,30.5 118.866718,30.5 C123.733437,30.5 109.840023,34.4707368 104,31.9853684 C98.1599769,29.5 93.8993135,25.5 96,19.5 C100,11.5 102.333833,11.5 106.15599,8.5 Z"/>
      <path stroke="#000" d="M109.282108,0.848222227 C99.6231274,0.848222227 90.6231274,12.2711203 82.6231274,18.8482222 C74.6231274,25.4253242 67.6231274,26.5158549 60.6231274,34.0677456 C55.3268826,39.7815544 54.0378105,55.0761471 55.023424,64.1921713 C55.3404871,67.1247158 65.6231274,56.598395 85.6231274,54.2233086 C105.623127,51.8482222 135.623127,53.090169 145.623127,56.7016607 C155.623127,60.3131524 161.623127,66.9770421 161.623127,63.6450972 C161.623127,60.3131524 166.623127,47.6830433 161.623127,39.0406219 C156.623127,30.3982005 150.623127,25.4253242 139.623127,18.8482222 C128.623127,12.2711203 118.941088,0.848222227 109.282108,0.848222227 Z"/>
      <path fill="#AA6535" stroke="#000" d="M82.6231274,38.8482222 C69.5996094,41.790227 55.9752836,43.3731272 55.2093934,49.7591247 C54.1531484,58.5661022 65.6231274,52.598395 85.6231274,50.2233086 C105.623127,47.8482222 135.623127,49.090169 145.623127,52.7016607 C155.623127,56.3131524 161.623127,66.9770421 161.623127,63.6450972 C161.623127,61.2064154 164.301584,53.7867869 163.777335,46.5952965 C163.585308,43.9611307 152.646645,41.790227 139.623127,38.8482222 C126.599609,35.9062175 95.6466454,35.9062175 82.6231274,38.8482222 Z"/>
      <path fill="#88491E" stroke="#000" d="M91.6705878,36.2549872 C98.774332,35.2714516 112.611688,38.0727913 133.182655,44.6590063 C139.672237,47.3986267 142.917028,49.5251798 142.917028,51.0386655 C142.917028,52.5521512 139.672237,52.9313481 133.182655,52.1762561 C112.34676,48.0596686 100.798634,45.5156508 98.5382767,44.5442026 C95.1477411,43.0870303 81.0149716,37.7302905 91.6705878,36.2549872 Z" transform="rotate(-11 115.339 44.308)"/>
      <path fill="#C59B63" stroke="#000" d="M177.542728,85.2232493 C165.414887,69.231097 155.053236,58.9284722 129.729174,55.9284722 C104.405112,52.9284722 64.1326284,54.1358071 44.3467436,73.1358071 C38.4836972,78.7659764 44.4726637,83.907109 41.5120475,90.6199771 C39.6603336,90.7280156 38.0805467,90.8455439 36.8124361,90.974401 C18.5996094,92.8250679 -9.40039062,78.4816627 4.59960938,70.7408313 C18.5996094,63 62.5996094,44.8398774 104.599609,43.854509 C146.599609,42.8691406 193.599609,58.5863767 201.599609,63.5 C208.511892,67.7455443 198.999919,80.2283318 177.556015,85.2372082 L177.542728,85.2232493 Z"/>
      <path stroke="#000" stroke-linecap="round" stroke-linejoin="round" d="M105.599609 8.66210937C98.1599769 15.9589844 92 19.1670736 96.8667184 27.2392113 101.733437 35.3113491 116.370111 32.8163133 124.599609 28.2392113 130.085942 25.18781 126.841645 18.328776 114.866718 7.66210938M131.599609 19.6621094C133.937983 22.1112347 141.13114 30.6621094 145.920225 32.2994331 148.958725 33.3382556 152.137567 33.3739525 153.829108 32.9210864"/>
      <path stroke="#000" stroke-linecap="round" stroke-linejoin="round" d="M69.7685547,18.9636078 C72.106928,21.4127331 79.3000856,29.9636078 84.0891701,31.6009316 C87.1276705,32.6397541 90.3065119,32.675451 91.9980533,32.2225848" transform="matrix(-1 0 0 1 161.767 0)"/>
    </g>
    <g transform="translate(24 75)">
      <path fill="#FFF" stroke="#000" d="M31.9312055,0.0688791244 C31.3001368,0.688873768 30.6692412,1.33152403 30.0382986,1.99751898 C19.3955924,13.2314866 16.2058918,27.6108979 15.7238374,46.1707871 C8.90085083,42.9661988 2.86122757,37.4596703 2.86122757,28.5099028 C2.86122757,11.5558798 12.1241432,0.0616269099 31.1618208,0.0616269099 C31.4196926,0.0616269099 31.6761604,0.0640521704 31.9312055,0.0688791244 Z"/>
      <path fill="#000" stroke="#000" d="M0.27773694,20.3608873 C0.27773694,24.3608873 4.22077379,25.3608873 5.79798853,25.3608873 C7.37520328,25.3608873 10.5296328,24.3608873 11.3182401,20.3608873 C12.1068475,16.3608873 9.74102539,13.3608873 5.79798853,13.3608873 C1.85495168,13.3608873 0.27773694,16.3608873 0.27773694,20.3608873 Z"/>
      <path fill="#FFF" d="M5.27773694,19.277554 C5.27773694,20.9442207 6.75452645,21.3608873 7.34524225,21.3608873 C7.93595806,21.3608873 9.11738967,20.9442207 9.41274757,19.277554 C9.70810547,17.6108873 8.82203177,16.3608873 7.34524225,16.3608873 C5.86845274,16.3608873 5.27773694,17.6108873 5.27773694,19.277554 Z"/>
    </g>
    <g transform="translate(63 84.5)">
      <path fill="#FFF" stroke="#000" d="M0,35.2068966 C0,55.8908046 23.7583113,61.5 32.1058349,61.5 C40.4533585,61.5 56.0246786,57.9942529 60.1984404,37.3103448 C64.3722022,16.6264368 51.8914835,0.5 31.0226745,0.5 C10.1538654,0.5 6.4578914e-16,14.5229885 0,35.2068966 Z"/>
      <path fill="#F0F0F0" d="M47.1222958,4.5 C57.7940747,10.4382847 63.1241705,22.7728268 60.211108,37.3916165 C56.103307,58.0060314 40.778071,61.5 32.562469,61.5 C26.7496811,61.5 13.3441843,58.7014752 6,49.763106 C12.9028817,53.7955217 20.8766427,55.2108565 25.010443,55.2108565 C33.2260451,55.2108565 48.551281,51.7168879 52.659082,31.102473 C54.7684603,20.5168582 52.5556573,11.1289557 47.1222958,4.5 Z"/>
      <path stroke="#000" d="M0,35.2068966 C0,55.8908046 23.7583113,61.5 32.1058349,61.5 C40.4533585,61.5 56.0246786,57.9942529 60.1984404,37.3103448 C64.3722022,16.6264368 51.8914835,0.5 31.0226745,0.5 C10.1538654,0.5 6.4578914e-16,14.5229885 0,35.2068966 Z"/>
      <path fill="#000" d="M26.7969955,25.8831704 C26.7946674,30.2392767 32.2339775,31.325393 34.4099344,31.324229 C36.5858913,31.3230649 40.9383871,30.2317102 42.0286936,25.8750218 C43.1190002,21.5183335 39.856811,18.2529999 34.4169188,18.2559101 C28.9770267,18.2588203 26.7993237,21.5270641 26.7969955,25.8831704 Z" transform="rotate(66 34.518 24.79)"/>
      <path fill="#FFF" d="M34.8245325,26.0705113 C33.8893001,25.2118229 33.6998417,24.0275453 34.9797565,22.6768921 C36.2596714,21.3262389 37.7290447,21.1598633 38.4082942,22.2886824 C39.0875437,23.4175014 38.2974199,24.7126961 37.7854539,25.2529574 C37.273488,25.7932186 35.759765,26.9291997 34.8245325,26.0705113 Z" transform="rotate(-58 36.372 23.961)"/>
    </g>
    <g stroke="#000" transform="translate(26 102)">
      <path fill="#FFF" d="M5.62648399,24.003362 C5.62648399,28.0139138 6,29 5,33 C4,37 6.62648399,41.003362 9.62648399,37.003362 C12.626484,33.003362 12.626484,27.003362 12.626484,24.003362 C12.626484,21.003362 5.62648399,19.9928102 5.62648399,24.003362 Z"/>
      <path fill="#FFF" d="M9.71902971,25.7041016 C9.71902971,29.7146533 10.7190297,30.7041016 9.71902971,34.7041016 C8.71902971,38.7041016 10.7190297,42.7041016 13.7190297,38.7041016 C16.7190297,34.7041016 16.7190297,28.7041016 16.7190297,25.7041016 C16.7190297,22.7041016 9.71902971,21.6935498 9.71902971,25.7041016 Z"/>
      <path fill="#F3D4B7" d="M2.16936011,17.7952208 C1.73578445,21.8954662 2.70999616,28.8273427 11.7615819,28.5650529 C20.8131676,28.302763 23.1950403,26.9581851 23.9392013,21.8044622 C24.6833622,16.6507393 22.9544326,8.23913854 13.4041007,9.58135017 C3.85376872,10.9235618 2.60293578,13.6949755 2.16936011,17.7952208 Z" transform="rotate(8 13.089 19.005)"/>
      <path fill="#9B8E7D" d="M5.99316406,7.29231771 C5.99316406,10.625651 10.9931641,11.4589844 12.9931641,11.4589844 C14.9931641,11.4589844 18.9931641,10.625651 19.9931641,7.29231771 C20.9931641,3.95898437 17.9931641,1.45898438 12.9931641,1.45898438 C7.99316406,1.45898438 5.99316406,3.95898438 5.99316406,7.29231771 Z" transform="rotate(8 13.089 6.459)"/>
    </g>
    <path fill="#F34D4D" stroke="#000" stroke-linecap="round" stroke-linejoin="round" d="M57.6207875,172.624058 C53.1194683,169.182811 48.8736908,165.730261 48.1352368,165.178011 C47.2091114,164.485412 44.7394438,161.472446 40.7262339,156.139113 C40.7262339,178.746051 41.6457543,195.459304 43.4847952,206.278873 C44.2121271,210.557961 42.5155877,214.271086 43.3807957,216.816042 C44.6037558,220.413305 45.058209,221.889667 47.4669231,224.67544 C49.47685,227 50.5697978,229.228451 52.0613621,230.139113 C57.6207875,221.889667 59.9991287,174.442293 57.6207875,172.624058 Z"/>
    <path fill="#F34D4D" stroke="#000" stroke-linecap="round" stroke-linejoin="round" d="M156.913259,173.445313 C149.764884,173.102359 134.462233,175.632855 117.497848,174.489486 C113.103608,174.193322 122.289667,164.375581 116.913259,164.375581 C97.579926,164.375581 78.2465927,162.389155 58.9132594,158.416303 C59.9050917,161.599264 60.3279739,163.797812 60.1819058,165.011945 C58.8584181,176.012921 56.4355359,185.407941 56.9132594,193.197008 C57.0654875,195.679019 55.460715,202.701147 54.8444379,204.921632 C53.4440473,209.967328 53.4440473,214.962325 56.9132594,217.5 C62.8147529,221.816851 85.7170782,235.22403 116.913259,239 C128.913259,240.452474 145.579926,238.785807 166.913259,234 C168.438983,227.990795 169.10565,219.24698 168.913259,207.768555 C168.720869,196.29013 167.387535,184.813242 164.913259,173.337891 C165.579926,173.697363 162.913259,173.733171 156.913259,173.445313 Z" transform="matrix(-1 0 0 1 222.913 0)"/>
    <path fill="#DC3D4F" d="M166.988008,200.348467 C164.019223,201.578879 160.913155,203.056555 158.5,204 C152,206.541233 118,217.203841 110.440178,219.472154 C103.849625,221.449639 68.9072057,219.840981 54.0816401,218.013586 C54.200349,221.206005 54.4118033,224.103191 54.7160033,226.705143 C55.5254269,227.622631 55.4255701,229.450144 58.7708466,229.754429 C63,230.139113 60.4905256,224.88228 62,225.148438 C65,225.677412 82,228 84,228 C86,228 84.0666397,229.213365 91,229.213365 C97.9333603,229.213365 97.9333603,228.213365 98.9333603,228.213365 C99.9333603,228.213365 116,226.623857 124,225.148438 C132,223.673018 147,219.472154 152,217.203841 C153.869534,216.355703 161.851447,210.311559 165.112196,213.103542 C166.076506,213.929223 166.514524,215.375663 166.764368,216.847691 C169.460318,214.165867 169.35761,209.56522 168.068821,204.921632 C167.99664,204.661558 167.910899,204.335615 167.816008,203.958811 C165.108681,203.061824 163.464202,201.752674 164,199.601596 C166,191.572153 161.788825,178.047356 160,177 C156,174.658003 140,171.840545 132,174.658003 C124,177.475462 126,179.703341 130,183 C134,186.296659 133,194.972399 131,198.9862 C129,203 125,210.377396 121,211.5 C117,212.622604 117.559822,210.321848 114,208.589263 C110.440178,206.856678 109,197.772847 109,196 C109,194.227153 111,192.893856 109,190.726074 C108.228974,189.890366 107.606568,188.609318 107.132782,187.253271 C106.377594,185.091806 109,182.739797 109,181.697008 C109,180 99.8667205,179 97.9333603,180 C96,181 83,184.000216 83,185.148438 C83,186.296659 89,192.454305 89,194.227153 C89,196 91,205.124093 91,206.856678 C91,208.589263 87.1591499,211.268168 83,210.5 C78.8408501,209.731832 74.0548606,209.631416 71.6218687,208.589263 C69.1888767,207.54711 64,206.011262 64,205 C64,203.988738 64,195.738023 64,195.738023 C64,195.738023 58.0226041,199.443647 54.174181,202.379111 C54.6377064,192.697611 55.9129794,183.017204 58,173.337891 C57.3333333,173.697363 60,173.733171 66,173.445313 C73.1483751,173.102359 88.451026,175.632855 105.415411,174.489486 C109.809651,174.193322 100.623593,164.375581 106,164.375581 C125.333333,164.375581 144.666667,162.389155 164,158.416303 C163.008168,161.599264 162.585285,163.797812 162.731354,165.011945 C164.054841,176.012921 166.477723,185.407941 166,193.197008 C165.910896,194.649802 166.42376,197.658087 166.988008,200.348467 Z"/>
    <path stroke="#000" stroke-linecap="round" stroke-linejoin="round" d="M156.913259,173.445313 C149.764884,173.102359 134.462233,175.632855 117.497848,174.489486 C113.103608,174.193322 122.289667,164.375581 116.913259,164.375581 C97.579926,164.375581 78.2465927,162.389155 58.9132594,158.416303 C59.9050917,161.599264 60.3279739,163.797812 60.1819058,165.011945 C58.8584181,176.012921 56.4355359,185.407941 56.9132594,193.197008 C57.0654875,195.679019 55.460715,202.701147 54.8444379,204.921632 C53.4440473,209.967328 53.4440473,214.962325 56.9132594,217.5 C62.8147529,221.816851 85.7170782,235.22403 116.913259,239 C128.913259,240.452474 145.579926,238.785807 166.913259,234 C168.438983,227.990795 169.10565,219.24698 168.913259,207.768555 C168.720869,196.29013 167.387535,184.813242 164.913259,173.337891 C165.579926,173.697363 162.913259,173.733171 156.913259,173.445313 Z" transform="matrix(-1 0 0 1 222.913 0)"/>
    <path fill="#FCDE32" stroke="#000" d="M59,183.401083 C59,180.975638 60.3452108,180.266397 61.6904216,181.83374 C63.0356324,183.401083 63.0356324,185.751013 61.6904216,186.124251 C60.3452108,186.497488 59,185.826527 59,183.401083 Z" transform="rotate(10 60.85 183.61)"/>
    <path fill="#FCDE32" stroke="#000" d="M58 203.401083C58 200.975638 59.3452108 200.266397 60.6904216 201.83374 62.0356324 203.401083 62.0356324 205.751013 60.6904216 206.124251 59.3452108 206.497488 58 205.826527 58 203.401083zM58.1700806 227.778485C56.7796381 226.505539 57.1107301 224.853917 58.7469262 224.397115 60.3831222 223.940312 61.7302746 225.173627 61.206561 226.648904 60.6828473 228.12418 59.5605231 229.051431 58.1700806 227.778485z"/>
    <g stroke="#000" transform="matrix(-1 0 0 1 52 175)">
      <path fill="#F34D4D" d="M1.00187141,10.7266097 C1.18404679,13.2040551 1.97163056,18.3946042 1.97163056,20.9155128 C1.97163056,23.4364214 3.6205662,25 5.56381133,25 C6.58216857,25 9.35191288,23.4594042 11.7129343,22.5806335 C13.5437517,21.8992043 13,19.2805588 13,16.4369575 C13,13.7803731 11.7390973,9.80313598 11.4348368,8.72232891 C10.9977941,7.16984758 0.819696028,8.24916421 1.00187141,10.7266097 Z"/>
      <path fill="#F34D4D" d="M7.00999677,13.0778418 C7.28913383,15.8744229 7.68822176,16.4016882 7.68822176,20.054313 C7.68822176,23.7069378 9.15390647,23.2603765 11.5769532,22.4024842 C14,21.5445918 14,19.9392525 14,18.8066945 C14,17.6741366 13.7239472,12.5678432 13.0542913,10.8153767 C12.3846355,9.06291031 6.73085971,10.2812606 7.00999677,13.0778418 Z"/>
      <path fill="#F34D4D" stroke-linejoin="round" d="M-5.68434189e-14,5.40679905 C5.76190476,4.41595487 9.42857143,2.94651001 11,0.998464494 C13.9335938,5.87771077 14.9335938,9.30733555 14,11.2873388 C13.029316,11.091479 13.5,9.59250869 12,10.4536074 C11,11.0276731 10.6666667,12.1184954 11,13.7260742 C9.98726111,12.2808867 8.69517738,11.5582929 7.12374881,11.5582929 C5.55232024,11.5582929 3.70154682,12.3721953 1.57142857,14 C0.851793271,9.79659339 0.327983747,6.93219307 -5.68434189e-14,5.40679905 Z"/>
      <path fill="#FCDE32" d="M8,7.29963042 C8,4.97666705 8.45454545,4.29739381 9.90909091,5.79851212 C11.3636364,7.29963042 11.3636364,9.55027049 9.90909091,9.90773746 C8.45454545,10.2652044 8,9.6225938 8,7.29963042 Z"/>
    </g>
    <g stroke="#000" transform="scale(-1 1) rotate(7 -1529.512 -641.418)">
      <path fill="#F34D4D" d="M2.6588311,9.41062993 C2.97745628,12.2513047 4.00144794,17.9784115 4.00144794,21.6886271 C4.00144794,25.3988427 7.39648838,25.4664705 10.1623114,24.2303443 C12.2792074,23.2842424 21.2785811,21.6886271 24.9168165,20.2592941 C26.0743867,19.8045261 26.7860839,18.0528079 26.6353206,16.8829123 C26.2442124,13.8479858 25.4646036,8.99257234 24.9128886,7.70774624 C24.1484999,5.92764871 2.34020592,6.56995517 2.6588311,9.41062993 Z"/>
      <path fill="#DC3D4F" d="M1.63893552,9.76328151 C1.96151644,12.4857197 2.99822096,17.9744487 2.99822096,21.530235 C2.99822096,25.0860214 6.55879322,26.102068 9.35895397,24.9173928 C10.2750775,24.5298047 12.4418523,23.8546641 14.9103724,23.101633 C18.2167025,22.093025 16.7524118,6.95286929 10.6711303,7.398937 C5.79149218,7.75686304 1.4953273,8.5512926 1.63893552,9.76328151 Z"/>
      <path fill="#F34D4D" d="M11.7202794,12.3777818 C12.0392932,15.8197278 12.4953937,16.4686697 12.4953937,20.9642079 C12.4953937,25.4597461 14.1704619,24.9101323 16.9396582,23.8542648 C19.7088545,22.7983973 19.7088545,20.822595 19.7088545,19.4286775 C19.7088545,18.0347601 19.3933656,11.7500912 18.6280446,9.59320948 C17.8627236,7.43632772 11.4012656,8.93583583 11.7202794,12.3777818 Z"/>
      <path fill="#F34D4D" stroke-linejoin="round" d="M0.501341854,3.85797116 C6.32670013,3.14270711 13.5508035,2.13408461 22.173652,0.832103682 C24.3201098,5.40372146 25.6176326,8.68736865 26.0662204,10.6830453 C23.8302187,10.9575917 21.6618223,9.49918088 19.3732112,10.4411902 C17.8474705,11.0691963 16.987843,12.443142 16.7943288,14.5630271 C14.3469171,13.2550985 12.2303541,12.6011342 10.4446398,12.6011342 C8.65892548,12.6011342 5.98035405,13.6806086 2.40892548,15.8395575 C1.65193062,9.67432909 1.01606941,5.68046697 0.501341854,3.85797116 Z"/>
      <path fill="#FCDE32" d="M12.6120304,7.41631002 C12.6120304,4.62875397 14.0665759,3.81362609 15.5211213,5.61496805 C16.9756668,7.41631002 16.9756668,10.1170781 15.5211213,10.5460385 C14.0665759,10.9749988 12.6120304,10.2038661 12.6120304,7.41631002 Z"/>
    </g>
    <g transform="translate(36 156)">
      <path fill="#AA6535" stroke="#000" stroke-linecap="round" stroke-linejoin="round" d="M130.444444,40 C121,47 96.138258,56.8609363 80.4444444,59 C56.6269783,62.246316 30.1301654,58.5072682 26.4444444,57.6498885 C17.4444444,55.5562906 11.4444444,52.7434864 6.44444444,50 C6.44444444,52.3224359 5.44444444,54.1495843 6.44444444,58.7434864 C8.15899583,61.8397185 15.5548088,63.2684419 27.4849755,66.1757479 C43.3875511,70.0511047 62.144625,69.2519148 66.4444444,69 C80.9793787,68.1484375 92.4762309,66.0679754 108.444444,61 C119,57.6498885 129.27452,51.6365862 132.444444,49 C133.444444,45.916338 132.444444,38.2271527 130.444444,40 Z"/>
      <path fill="#88491E" d="M130.444444,40 C129.843864,40.4451358 129.18094,40.9018407 128.461993,41.3673932 C127.334563,42.0974583 130,48.5602391 127.31116,50.2205836 C115.363863,57.5979749 94.5787993,64.1364864 81.447974,65.9262153 C76.4144534,66.6122832 70.2611061,67.7216749 65.2286048,67.459402 C63.7553064,67.3826198 62.2923653,65.2739836 60.8458202,65.1386373 C57.6274346,64.8375083 54.4902106,64.4041621 51.5006549,63.895251 C50.7132393,63.7612095 51.112583,67.5438342 50.170356,67.478435 C43.2773944,67 35.6183962,65.847781 28.8392405,63.7712694 C26.3212891,63 25.0443221,61 25.4444444,57.6498885 C25.7979252,54.6902938 8,58.9721541 9.44444444,51 C9.44444444,53.3224359 5.44444444,54.1495843 6.44444444,58.7434864 C8.15899583,61.8397185 15.5548088,63.2684419 27.4849755,66.1757479 C43.3875511,70.0511047 62.144625,69.2519148 66.4444444,69 C80.9793787,68.1484375 92.4762309,66.0679754 108.444444,61 C119,57.6498885 129.27452,51.6365862 132.444444,49 C133.444444,45.916338 132.444444,38.2271527 130.444444,40 Z"/>
      <path stroke="#000" stroke-linecap="round" stroke-linejoin="round" d="M130.444444,40 C121,47 96.138258,56.8609363 80.4444444,59 C56.6269783,62.246316 30.1301654,58.5072682 26.4444444,57.6498885 C17.4444444,55.5562906 11.4444444,52.7434864 6.44444444,50 C6.44444444,52.3224359 5.44444444,54.1495843 6.44444444,58.7434864 C8.15899583,61.8397185 15.5548088,63.2684419 27.4849755,66.1757479 C43.3875511,70.0511047 62.144625,69.2519148 66.4444444,69 C80.9793787,68.1484375 92.4762309,66.0679754 108.444444,61 C119,57.6498885 129.27452,51.6365862 132.444444,49 C133.444444,45.916338 132.444444,38.2271527 130.444444,40 Z"/>
      <path fill="#AA6535" stroke="#000" d="M52.7449032,57.2133651 C54.4898065,57.1804141 57.0866872,57 58.9157952,57 C58.9157952,57 60.9157952,56.622604 60.9157952,60.0602391 C60.9157952,63.4978742 60.9157952,68.9262153 59.9157952,70.3530135 C58.9157952,71.7798117 55.4157952,70.7759996 53.4157952,71 C51.4157952,71.2240004 51.9157952,66.2821989 51.9157952,63.4721541 C51.9157952,60.6621094 51,57.246316 52.7449032,57.2133651 Z"/>
      <g fill="#FCDE32" stroke="#000" transform="translate(11 52)">
        <path d="M4.59960937,0.356199159 C7,0.470120641 9.39891947,1.11392148 11.3989195,2 C13.3989195,2.88607852 13.5996094,2.70761303 13.5996094,5.88373179 C13.5996094,9.05985055 13.5996094,11.1690443 13.5996094,12.93267 C13.5996094,14.6962957 13.457007,15.6621094 10.457007,15.6621094 C7.45700698,15.6621094 6.19921875,14.6393878 4.59960937,14.3196939 C3,14 1.59960937,13.4256222 1.59960937,10.93267 C1.59960937,8.43971775 1.59960937,5.447931 1.59960937,3.88373179 C1.59960937,2.31953258 2.19921875,0.242277678 4.59960937,0.356199159 Z M5.50802438,3 C2.08565156,2.62260399 3.44458008,3.67937874 3.44458008,4.8105284 C3.44458008,5.94167806 3.44458008,6.82833611 3.44458008,8.63111292 C3.44458008,10.4338897 4,12 5,12 C6,12 7,12.55287 9,12.9262153 C11,13.2995605 11.0901699,11.7475189 11.0901699,10.4721541 C11.0901699,9.1967893 11.0901699,9.94960241 11.0901699,7.65279416 C11.0901699,5.35598591 11.0258609,5 9.97853323,4.5 C8.93120552,4 8.9303972,3.37739601 5.50802438,3 Z"/>
        <path d="M4.00054496 4.5C5.50054496 4.5 6.59960938 4.4947853 6.59960938 5.57844734 6.59960938 6.66210937 5.59960938 6.66210937 5.59960938 6.66210937 5.59960938 6.66210937 2 6.29930255 2 6.29930255 2 6.29930255-2.5313085e-14 6.01603084-2.5313085e-14 5.01603084-2.5313085e-14 4.01603084 2.50054496 4.5 4.00054496 4.5zM5 8.29956055C6.5 8.29956055 7 8.80786921 7 9.89153124 7 10.9751933 6 10.9751933 6 10.9751933 6 10.9751933 3.06656564 10.4747723 1.64805055 10.3619559-.188424571 10.2158985-.188424571 8.29956055 1 8.13536666 2.18842457 7.97117278 3.5 8.29956055 5 8.29956055z"/>
      </g>
      <g transform="scale(-1 1) rotate(21 -58.978 -239.578)">
        <path fill="#F3D4B7" stroke="#000" stroke-linecap="round" stroke-linejoin="round" d="M27.7875471,19.9323689 C26.2750253,23.3298081 19.7374601,31.2645285 18.2249383,35.2691696 C16.7124166,39.2738108 19.7374601,41.8487967 23.5187644,38.5589832 C27.3000688,35.2691696 33.2625157,26.511996 34.0187766,24.8670892" transform="scale(-1 1) rotate(10 0 -266.304)"/>
        <path fill="#F34D4D" stroke="#000" stroke-linecap="round" stroke-linejoin="round" d="M22.0906128,2.4278626 C19.6551227,6.59750221 13.9710957,15.1009002 11.5267149,18.1501984 C7.52671488,23.140089 4.86004821,26.5170421 3.52671488,28.2810577 C10.8600482,36.4803881 15.1933815,41.0479942 16.5267149,41.9838758 C18.5267149,43.3876982 26.5267149,32.2280548 26.5267149,32.1471097 C26.5267149,32.0931463 28.1933815,29.6056342 31.5267149,24.6845732" transform="scale(-1 1) rotate(10 0 -178.064)"/>
        <path fill="#DC3D4F" d="M10.1900361,4.22284604 C13.5435813,8.07418733 19.9601286,14.7470314 22.7206975,17.1708518 C24.3232302,18.5778992 25.7486063,19.8340616 26.996826,20.939339 C25.7025437,22.5569663 24.0667715,24.3197684 23,24.6919703 C21,25.3897802 20,27 16.4763625,23.250732 C13.5638979,20.4754616 13.5638979,20.4754616 12,18.6580035 C9,21.3405579 10,21.001464 10,23.250732 C10,25.5 15,32.0533886 18,34.5 C21,36.9466114 23,37.5437519 28,32.4536074 C28.1304389,32.3208167 28.2540721,32.2095376 28.3710417,32.1186335 C24.9373173,37.5212925 22.7920812,40.6519757 21.9353334,41.510683 C20.2094891,43.2404746 10.3931753,33.6395566 10.3791193,33.5598413 C10.3697487,33.5066977 8.29645048,31.3463901 4.15922471,27.0789184 L9.36651089,4.4792799 C9.64035809,4.39170927 9.91495416,4.30622084 10.1900361,4.22284604 Z"/>
        <path stroke="#000" stroke-linecap="round" stroke-linejoin="round" d="M22.0906128,2.4278626 C19.6551227,6.59750221 13.9710957,15.1009002 11.5267149,18.1501984 C7.52671488,23.140089 4.86004821,26.5170421 3.52671488,28.2810577 C10.8600482,36.4803881 15.1933815,41.0479942 16.5267149,41.9838758 C18.5267149,43.3876982 26.5267149,32.2280548 26.5267149,32.1471097 C26.5267149,32.0931463 28.1933815,29.6056342 31.5267149,24.6845732" transform="scale(-1 1) rotate(10 0 -178.064)"/>
        <path fill="#1D487A" stroke="#000" stroke-linecap="round" stroke-linejoin="round" d="M10.6046754,7.70075774 C14.8801451,9.43713479 17.5347437,9.15596123 21.8386639,10.7281564 C30.2880295,13.8146569 27.2470939,21.8764064 21.3863331,20.3791876 C10.7253609,17.6556833 7.252649,16.8509112 7.18532843,16.0515393 C6.91408404,12.8307534 8.74618321,10.2692916 10.6046754,7.70075774 Z" transform="scale(-1 1) rotate(-65 0 40.985)"/>
        <path fill="#E8DB54" stroke="#000" d="M8.97130076,5.32476929 C8.97130076,3.12489139 10.6663655,2.4816104 12.3614303,3.90318985 C14.0564951,5.32476929 14.0564951,7.45615604 12.3614303,7.79468212 C10.6663655,8.13320819 8.97130076,7.52464719 8.97130076,5.32476929 Z" transform="rotate(14 11.302 5.515)"/>
      </g>
      <g stroke="#000" transform="translate(3)">
        <path fill="#1D487A" stroke-linecap="round" stroke-linejoin="round" d="M1.74832664,10.494297 C9.95017419,10.494297 13.6631058,5.26665265 17.8694592,0.146090106 C18.7019857,4.21513425 18.7019857,8.54980212 17.5317748,13.9586717 C12.2130687,18.0596867 10.5117409,19.9672365 0.970684022,21.3897802 C0.970684022,16.5975882 1.74832664,15.1222171 1.74832664,10.494297 Z" transform="matrix(-1 0 0 1 19.428 0)"/>
        <path fill="#1D487A" stroke-linecap="round" stroke-linejoin="round" d="M18.6775727,12.7075858 C30.3076514,12.7075858 47.7501947,10.4454514 62.8961758,6.0403625 C67.1252953,6.0403625 70.2971349,7.23860179 72.4116947,9.38056524 C72.4116947,11.5506666 69.615237,14.0670568 67.0381395,16.1696093 C48.9640149,21.4266218 35.5155167,25.6105889 18.718542,24.1240474 C18.718542,19.3318554 18.6775727,17.3355059 18.6775727,12.7075858 Z" transform="rotate(5 45.545 15.234)"/>
        <path fill="#FCDE32" d="M7.59960938,13.9986647 C7.59960938,11.708146 8.04405382,11.7499209 8.93294271,10.5466203 C9.8218316,9.34331971 11.5996094,10.9973293 11.5996094,13.9986647 C11.5996094,17 10.266276,17 9.59960938,17 C8.93294271,17 7.59960938,16.2891833 7.59960938,13.9986647 Z"/>
        <path fill="#FCDE32" d="M27.0146057,16.9221898 C27.0146057,13.9627957 27.6812724,14.0167696 29.0146057,12.4620821 C30.3479391,10.9073946 33.0146057,13.0444069 33.0146057,16.9221898 C33.0146057,20.7999728 31.0146057,20.7999728 30.0146057,20.7999728 C29.0146057,20.7999728 27.0146057,19.881584 27.0146057,16.9221898 Z" transform="scale(-1 1) rotate(4 0 -843.13)"/>
      </g>
      <path fill="#AA6535" stroke="#000" d="M6,48.8566783 C6.71902971,45.82 20.2101374,36.3725076 33.7439372,26.9973623 C47.2777369,17.6222171 66.7924442,14.1345546 80.447974,11.9558423 C95.5283279,9.54980212 126.379936,9.37558089 127,9.37558089 C128.999877,9.37558089 130.125373,15.8880996 127.31116,15.9246095 C121.5,16 96,14.5498021 81,17.5554689 C66,20.5611356 52.3735378,22.3897802 37.9897859,30.948985 C28.3747242,36.67053 9.87625119,50.5892633 6,54.7964392 C5.14081421,55.7289757 5.77749294,49.7963924 6,48.8566783 Z"/>
      <path fill="#AA6535" stroke="#000" d="M9.15601336,45.0138004 C9.81157543,48 10.1560134,49.8744743 11.1560134,50.8744743 C11.9668206,51.6852815 12.6518347,51.3331455 13.4470616,50.8351652 C13.9671397,50.5094863 16.000545,48.7402391 15.000545,47 C14.8273311,46.6985665 13.3735559,48.8027703 13,48.4587665 C12.1977833,47.7200134 11.2667229,44.4084132 11.1560134,43 C11.1149997,42.4782363 12.1427376,42.3396555 13,41.6015962 C12.3506733,40.5296151 11.1560134,41 9.81157543,41.9861996 C9.06544396,42.5335172 8.82874239,43.5230241 9.15601336,45.0138004 Z"/>
      <g stroke="#000" transform="translate(0 45)">
        <path fill="#FCDE32" d="M1.1700806,6.77848501 C-0.220361914,5.50553885 0.110730053,3.85391727 1.74692615,3.39711482 C3.38312225,2.94031237 4.73027463,4.17362654 4.20656097,5.6489035 C3.68284731,7.12418047 2.56052311,8.05143118 1.1700806,6.77848501 Z"/>
        <path fill="#88491E" d="M3.0085722,6.29600865 C3.0085722,10.3082685 3.0085722,14.0474073 3.0085722,14.7228108 C3.0085722,15.3982144 3.50670945,16.7609967 5.00112118,16.7609967 C6.49553291,16.7609967 7.98994464,17.8516568 7.98994464,15.3732316 C7.98994464,12.8948063 7.98994464,5.23581083 7.98994464,3.54910801 C7.98994464,1.6145138 8.19871181,0.53745206 6.71374662,0.227162562 C5.58705089,-0.00826507947 5.97219703,3.60216131e-05 4.65806066,3.60216131e-05 C2.78203713,3.60216131e-05 3.0085722,2.28374878 3.0085722,6.29600865 Z"/>
        <path d="M8,4.57166087 L3,4.42833913"/>
      </g>
      <path fill="#FCDE32" stroke="#000" stroke-linejoin="round" d="M43.1591499,19.3166655 C44.1591499,18.963652 45.1591499,18.3052971 47.1591499,21.3166655 C49.1591499,24.3280338 51.1591499,25.3166655 51.1591499,26.3166655 C51.1591499,27.3166655 46.1591499,29.8092974 45.1591499,30.5629814 C44.1591499,31.3166655 42.1591499,31.615968 41.1591499,29.3166655 C40.8119114,28.9266619 41.1591499,29.3166655 43.1591499,28.3166655 C43.5930342,29.3166655 43.5930342,29.5848338 44.5930342,29.3166655 C46.1591499,28.3166655 49.0262641,27.1837797 48.1591499,26.3166655 C47.1591499,25.3166655 46.1591499,24.3166655 46.1591499,24.3166655 C46.1591499,24.3166655 45.1591499,25.3166655 44.1591499,25.3166655 C43.1591499,25.3166655 44.1591499,23.8181295 45.1591499,23.0673975 C45.0795749,22.3166655 44.5930342,22.3166655 44.1591499,21.3052971 C43.8698937,20.6310515 42.203227,21.3015076 39.1591499,23.3166655 C38.1591499,22.0284699 42.1591499,19.6696789 43.1591499,19.3166655 Z"/>
    </g>
    <g stroke="#000" stroke-linecap="round" stroke-linejoin="round" transform="translate(147 66)">
      <path fill="#4AAED9" d="M6.79332702,4.23065131 C3.75226951,10.6845714 4.26730758,14.2185343 4.26730758,18.4291575 C4.26730758,22.6397808 10.2580286,26.2311536 15.3264577,21.3797576 C20.3948869,16.5283616 19.5678063,5.15717768 20.5814922,2.73147969" transform="rotate(-149 12.408 13.22)"/>
      <path d="M16,14 C12,16 8.66666667,18.3333333 6,21"/>
    </g>
  </g>
</svg>
